G04 #@! TF.FileFunction,Other,Comment*
%FSLAX46Y46*%
G04 Gerber Fmt 4.6, Leading zero omitted, Abs format (unit mm)*
G04 Created by KiCad (PCBNEW (2016-11-25 revision 30df041)-makepkg) date 12/02/16 00:31:02*
%MOMM*%
%LPD*%
G01*
G04 APERTURE LIST*
%ADD10C,0.150000*%
%ADD11C,0.381000*%
%ADD12C,0.203200*%
G04 APERTURE END LIST*
D10*
D11*
X159385000Y-43815000D02*
X197485000Y-43815000D01*
X197485000Y-43815000D02*
X197485000Y-38735000D01*
X197485000Y-38735000D02*
X159385000Y-38735000D01*
X159385000Y-38735000D02*
X159385000Y-43815000D01*
D12*
X54930134Y-145185720D02*
X57692560Y-143897580D01*
X57692560Y-143897580D02*
X58658666Y-145969400D01*
X58658666Y-145969400D02*
X55896240Y-147257540D01*
X55896240Y-147257540D02*
X54930134Y-145185720D01*
X72194514Y-137133920D02*
X74956940Y-135845780D01*
X74956940Y-135845780D02*
X75923046Y-137917600D01*
X75923046Y-137917600D02*
X73160620Y-139205740D01*
X73160620Y-139205740D02*
X72194514Y-137133920D01*
D11*
X141493240Y-28481020D02*
X141493240Y-37480240D01*
X141493240Y-37480240D02*
X133791960Y-37480240D01*
X133791960Y-37480240D02*
X133791960Y-28481020D01*
X133791960Y-28481020D02*
X141493240Y-28481020D01*
X68840820Y-141360592D02*
X80350928Y-135993340D01*
X80350928Y-135993340D02*
X85718180Y-147503448D01*
X85718180Y-147503448D02*
X74208072Y-152870700D01*
X74208072Y-152870700D02*
X68840820Y-141360592D01*
X51576440Y-149412392D02*
X63086548Y-144045140D01*
X63086548Y-144045140D02*
X68453800Y-155555248D01*
X68453800Y-155555248D02*
X56943692Y-160922500D01*
X56943692Y-160922500D02*
X51576440Y-149412392D01*
X93769980Y-164770368D02*
X82259872Y-170137620D01*
X82259872Y-170137620D02*
X76892620Y-158627512D01*
X76892620Y-158627512D02*
X88402728Y-153260260D01*
X88402728Y-153260260D02*
X93769980Y-164770368D01*
X76503060Y-172819628D02*
X64992952Y-178186880D01*
X64992952Y-178186880D02*
X59625700Y-166676772D01*
X59625700Y-166676772D02*
X71135808Y-161309520D01*
X71135808Y-161309520D02*
X76503060Y-172819628D01*
X152050590Y-44055462D02*
X147560462Y-48545590D01*
X147560462Y-48545590D02*
X145764410Y-46749538D01*
X145764410Y-46749538D02*
X150254538Y-42259410D01*
X150254538Y-42259410D02*
X152050590Y-44055462D01*
X150145590Y-42150462D02*
X145655462Y-46640590D01*
X145655462Y-46640590D02*
X143859410Y-44844538D01*
X143859410Y-44844538D02*
X148349538Y-40354410D01*
X148349538Y-40354410D02*
X150145590Y-42150462D01*
X128587500Y-48260000D02*
X122237500Y-48260000D01*
X122237500Y-48260000D02*
X122237500Y-45720000D01*
X122237500Y-45720000D02*
X128587500Y-45720000D01*
X128587500Y-45720000D02*
X128587500Y-48260000D01*
X104062962Y-37179410D02*
X108553090Y-41669538D01*
X108553090Y-41669538D02*
X106757038Y-43465590D01*
X106757038Y-43465590D02*
X102266910Y-38975462D01*
X102266910Y-38975462D02*
X104062962Y-37179410D01*
X100887962Y-38449410D02*
X105378090Y-42939538D01*
X105378090Y-42939538D02*
X103582038Y-44735590D01*
X103582038Y-44735590D02*
X99091910Y-40245462D01*
X99091910Y-40245462D02*
X100887962Y-38449410D01*
X160655000Y-33655000D02*
X160655000Y-51435000D01*
X160655000Y-51435000D02*
X191135000Y-51435000D01*
X191135000Y-51435000D02*
X191135000Y-33655000D01*
X191135000Y-33655000D02*
X160655000Y-33655000D01*
X88557100Y-30480000D02*
X88557100Y-31775400D01*
X88557100Y-31775400D02*
X84061300Y-31775400D01*
X84061300Y-31775400D02*
X84061300Y-30480000D01*
X81508600Y-30480000D02*
X84061300Y-30480000D01*
X88557100Y-30480000D02*
X91109800Y-30480000D01*
X180340000Y-79702660D02*
X197802500Y-79702660D01*
X197802500Y-79702660D02*
X197802500Y-92402660D01*
X197802500Y-92402660D02*
X180340000Y-92402660D01*
X180340000Y-92402660D02*
X180340000Y-79702660D01*
X180340000Y-117802660D02*
X197802500Y-117802660D01*
X197802500Y-117802660D02*
X197802500Y-130502660D01*
X197802500Y-130502660D02*
X180340000Y-130502660D01*
X180340000Y-130502660D02*
X180340000Y-117802660D01*
X180340000Y-60655200D02*
X197802500Y-60655200D01*
X197802500Y-60655200D02*
X197802500Y-73355200D01*
X197802500Y-73355200D02*
X180340000Y-73355200D01*
X180340000Y-73355200D02*
X180340000Y-60655200D01*
X180340000Y-98752660D02*
X197802500Y-98752660D01*
X197802500Y-98752660D02*
X197802500Y-111452660D01*
X197802500Y-111452660D02*
X180340000Y-111452660D01*
X180340000Y-111452660D02*
X180340000Y-98752660D01*
X85090000Y-58750200D02*
X97790000Y-58750200D01*
X97790000Y-58750200D02*
X97790000Y-71450200D01*
X97790000Y-71450200D02*
X85090000Y-71450200D01*
X85090000Y-71450200D02*
X85090000Y-58750200D01*
X142240000Y-76527660D02*
X154940000Y-76527660D01*
X154940000Y-76527660D02*
X154940000Y-89227660D01*
X154940000Y-89227660D02*
X142240000Y-89227660D01*
X142240000Y-89227660D02*
X142240000Y-76527660D01*
X60967052Y-169555960D02*
X55599800Y-158045852D01*
X55599800Y-158045852D02*
X67109908Y-152678600D01*
X67109908Y-152678600D02*
X72477160Y-164188708D01*
X72477160Y-164188708D02*
X60967052Y-169555960D01*
X78231432Y-161504160D02*
X72864180Y-149994052D01*
X72864180Y-149994052D02*
X84374288Y-144626800D01*
X84374288Y-144626800D02*
X89741540Y-156136908D01*
X89741540Y-156136908D02*
X78231432Y-161504160D01*
X104140000Y-133677660D02*
X116840000Y-133677660D01*
X116840000Y-133677660D02*
X116840000Y-146377660D01*
X116840000Y-146377660D02*
X104140000Y-146377660D01*
X104140000Y-146377660D02*
X104140000Y-133677660D01*
X123190000Y-132080000D02*
X135890000Y-132080000D01*
X135890000Y-132080000D02*
X135890000Y-144780000D01*
X135890000Y-144780000D02*
X123190000Y-144780000D01*
X123190000Y-144780000D02*
X123190000Y-132080000D01*
X161290000Y-136852660D02*
X173990000Y-136852660D01*
X173990000Y-136852660D02*
X173990000Y-149552660D01*
X173990000Y-149552660D02*
X161290000Y-149552660D01*
X161290000Y-149552660D02*
X161290000Y-136852660D01*
X85090000Y-115897660D02*
X97790000Y-115897660D01*
X97790000Y-115897660D02*
X97790000Y-128597660D01*
X97790000Y-128597660D02*
X85090000Y-128597660D01*
X85090000Y-128597660D02*
X85090000Y-115897660D01*
X104140000Y-114627660D02*
X116840000Y-114627660D01*
X116840000Y-114627660D02*
X116840000Y-127327660D01*
X116840000Y-127327660D02*
X104140000Y-127327660D01*
X104140000Y-127327660D02*
X104140000Y-114627660D01*
X123190000Y-113030000D02*
X135890000Y-113030000D01*
X135890000Y-113030000D02*
X135890000Y-125730000D01*
X135890000Y-125730000D02*
X123190000Y-125730000D01*
X123190000Y-125730000D02*
X123190000Y-113030000D01*
X142240000Y-114627660D02*
X154940000Y-114627660D01*
X154940000Y-114627660D02*
X154940000Y-127327660D01*
X154940000Y-127327660D02*
X142240000Y-127327660D01*
X142240000Y-127327660D02*
X142240000Y-114627660D01*
X161290000Y-117802660D02*
X173990000Y-117802660D01*
X173990000Y-117802660D02*
X173990000Y-130502660D01*
X173990000Y-130502660D02*
X161290000Y-130502660D01*
X161290000Y-130502660D02*
X161290000Y-117802660D01*
X85090000Y-96847660D02*
X97790000Y-96847660D01*
X97790000Y-96847660D02*
X97790000Y-109547660D01*
X97790000Y-109547660D02*
X85090000Y-109547660D01*
X85090000Y-109547660D02*
X85090000Y-96847660D01*
X104140000Y-95577660D02*
X116840000Y-95577660D01*
X116840000Y-95577660D02*
X116840000Y-108277660D01*
X116840000Y-108277660D02*
X104140000Y-108277660D01*
X104140000Y-108277660D02*
X104140000Y-95577660D01*
X123190000Y-93980000D02*
X135890000Y-93980000D01*
X135890000Y-93980000D02*
X135890000Y-106680000D01*
X135890000Y-106680000D02*
X123190000Y-106680000D01*
X123190000Y-106680000D02*
X123190000Y-93980000D01*
X142240000Y-95577660D02*
X154940000Y-95577660D01*
X154940000Y-95577660D02*
X154940000Y-108277660D01*
X154940000Y-108277660D02*
X142240000Y-108277660D01*
X142240000Y-108277660D02*
X142240000Y-95577660D01*
X104140000Y-76527660D02*
X116840000Y-76527660D01*
X116840000Y-76527660D02*
X116840000Y-89227660D01*
X116840000Y-89227660D02*
X104140000Y-89227660D01*
X104140000Y-89227660D02*
X104140000Y-76527660D01*
X123190000Y-74930000D02*
X135890000Y-74930000D01*
X135890000Y-74930000D02*
X135890000Y-87630000D01*
X135890000Y-87630000D02*
X123190000Y-87630000D01*
X123190000Y-87630000D02*
X123190000Y-74930000D01*
X161290000Y-79702660D02*
X173990000Y-79702660D01*
X173990000Y-79702660D02*
X173990000Y-92402660D01*
X173990000Y-92402660D02*
X161290000Y-92402660D01*
X161290000Y-92402660D02*
X161290000Y-79702660D01*
X142240000Y-133677660D02*
X154940000Y-133677660D01*
X154940000Y-133677660D02*
X154940000Y-146377660D01*
X154940000Y-146377660D02*
X142240000Y-146377660D01*
X142240000Y-146377660D02*
X142240000Y-133677660D01*
X104140000Y-57477660D02*
X116840000Y-57477660D01*
X116840000Y-57477660D02*
X116840000Y-70177660D01*
X116840000Y-70177660D02*
X104140000Y-70177660D01*
X104140000Y-70177660D02*
X104140000Y-57477660D01*
X123190000Y-55880000D02*
X135890000Y-55880000D01*
X135890000Y-55880000D02*
X135890000Y-68580000D01*
X135890000Y-68580000D02*
X123190000Y-68580000D01*
X123190000Y-68580000D02*
X123190000Y-55880000D01*
X142240000Y-57477660D02*
X154940000Y-57477660D01*
X154940000Y-57477660D02*
X154940000Y-70177660D01*
X154940000Y-70177660D02*
X142240000Y-70177660D01*
X142240000Y-70177660D02*
X142240000Y-57477660D01*
X161290000Y-60655200D02*
X173990000Y-60655200D01*
X173990000Y-60655200D02*
X173990000Y-73355200D01*
X173990000Y-73355200D02*
X161290000Y-73355200D01*
X161290000Y-73355200D02*
X161290000Y-60655200D01*
X43524640Y-132148012D02*
X55034748Y-126780760D01*
X55034748Y-126780760D02*
X60402000Y-138290868D01*
X60402000Y-138290868D02*
X48891892Y-143658120D01*
X48891892Y-143658120D02*
X43524640Y-132148012D01*
X26260260Y-140197272D02*
X37770368Y-134830020D01*
X37770368Y-134830020D02*
X43137620Y-146340128D01*
X43137620Y-146340128D02*
X31627512Y-151707380D01*
X31627512Y-151707380D02*
X26260260Y-140197272D01*
X42361320Y-174728572D02*
X53871428Y-169361320D01*
X53871428Y-169361320D02*
X59238680Y-180871428D01*
X59238680Y-180871428D02*
X47728572Y-186238680D01*
X47728572Y-186238680D02*
X42361320Y-174728572D01*
X34309520Y-157461652D02*
X45819628Y-152094400D01*
X45819628Y-152094400D02*
X51186880Y-163604508D01*
X51186880Y-163604508D02*
X39676772Y-168971760D01*
X39676772Y-168971760D02*
X34309520Y-157461652D01*
X85090000Y-77797660D02*
X97790000Y-77797660D01*
X97790000Y-77797660D02*
X97790000Y-90497660D01*
X97790000Y-90497660D02*
X85090000Y-90497660D01*
X85090000Y-90497660D02*
X85090000Y-77797660D01*
X180340000Y-136852660D02*
X193040000Y-136852660D01*
X193040000Y-136852660D02*
X193040000Y-149552660D01*
X193040000Y-149552660D02*
X180340000Y-149552660D01*
X180340000Y-149552660D02*
X180340000Y-136852660D01*
X66040000Y-123835160D02*
X66040000Y-111135160D01*
X66040000Y-111135160D02*
X78740000Y-111135160D01*
X78740000Y-111135160D02*
X78740000Y-123835160D01*
X78740000Y-123835160D02*
X66040000Y-123835160D01*
X66040000Y-95260160D02*
X66040000Y-82560160D01*
X66040000Y-82560160D02*
X78740000Y-82560160D01*
X78740000Y-82560160D02*
X78740000Y-95260160D01*
X78740000Y-95260160D02*
X66040000Y-95260160D01*
X66040000Y-58750200D02*
X78740000Y-58750200D01*
X78740000Y-58750200D02*
X78740000Y-71450200D01*
X78740000Y-71450200D02*
X66040000Y-71450200D01*
X66040000Y-71450200D02*
X66040000Y-58750200D01*
X161290000Y-98752660D02*
X173990000Y-98752660D01*
X173990000Y-98752660D02*
X173990000Y-111452660D01*
X173990000Y-111452660D02*
X161290000Y-111452660D01*
X161290000Y-111452660D02*
X161290000Y-98752660D01*
M02*
