G04 (created by PCBNEW (2013-01-02 BZR 3881)-testing) date Fri 08 Feb 2013 10:16:01 AM CET*
%MOIN*%
G04 Gerber Fmt 3.4, Leading zero omitted, Abs format*
%FSLAX34Y34*%
G01*
G70*
G90*
G04 APERTURE LIST*
%ADD10C,0.006*%
%ADD11C,0.08*%
%ADD12C,0.02*%
%ADD13C,0.012*%
%ADD14C,0.015*%
%ADD15C,0.1*%
%ADD16C,0.018*%
%ADD17C,0.01*%
G04 APERTURE END LIST*
G54D10*
G54D11*
X57871Y-18869D02*
X56271Y-18869D01*
X55585Y-20545D02*
X57871Y-20545D01*
X57871Y-17345D01*
X55585Y-17345D01*
X53528Y-20545D02*
X53528Y-18411D01*
X53528Y-19021D02*
X53299Y-18716D01*
X53071Y-18564D01*
X52614Y-18411D01*
X52157Y-18411D01*
X48499Y-18411D02*
X48499Y-21002D01*
X48728Y-21307D01*
X48957Y-21459D01*
X49414Y-21611D01*
X50099Y-21611D01*
X50557Y-21459D01*
X48499Y-20392D02*
X48957Y-20545D01*
X49871Y-20545D01*
X50328Y-20392D01*
X50557Y-20240D01*
X50785Y-19935D01*
X50785Y-19021D01*
X50557Y-18716D01*
X50328Y-18564D01*
X49871Y-18411D01*
X48957Y-18411D01*
X48499Y-18564D01*
X45528Y-20545D02*
X45985Y-20392D01*
X46214Y-20240D01*
X46442Y-19935D01*
X46442Y-19021D01*
X46214Y-18716D01*
X45985Y-18564D01*
X45528Y-18411D01*
X44842Y-18411D01*
X44385Y-18564D01*
X44157Y-18716D01*
X43928Y-19021D01*
X43928Y-19935D01*
X44157Y-20240D01*
X44385Y-20392D01*
X44842Y-20545D01*
X45528Y-20545D01*
X41871Y-20545D02*
X41871Y-17345D01*
X40728Y-17345D01*
X40042Y-17497D01*
X39585Y-17802D01*
X39357Y-18107D01*
X39128Y-18716D01*
X39128Y-19173D01*
X39357Y-19783D01*
X39585Y-20088D01*
X40042Y-20392D01*
X40728Y-20545D01*
X41871Y-20545D01*
X36385Y-20545D02*
X36842Y-20392D01*
X37071Y-20240D01*
X37299Y-19935D01*
X37299Y-19021D01*
X37071Y-18716D01*
X36842Y-18564D01*
X36385Y-18411D01*
X35699Y-18411D01*
X35242Y-18564D01*
X35014Y-18716D01*
X34785Y-19021D01*
X34785Y-19935D01*
X35014Y-20240D01*
X35242Y-20392D01*
X35699Y-20545D01*
X36385Y-20545D01*
X33185Y-20545D02*
X30671Y-18411D01*
X33185Y-18411D02*
X30671Y-20545D01*
G54D12*
X30035Y-40235D02*
X30511Y-40235D01*
X30511Y-39035D01*
X29702Y-39607D02*
X29369Y-39607D01*
X29226Y-40235D02*
X29702Y-40235D01*
X29702Y-39035D01*
X29226Y-39035D01*
X28464Y-39607D02*
X28797Y-39607D01*
X28797Y-40235D02*
X28797Y-39035D01*
X28321Y-39035D01*
X28083Y-39035D02*
X27511Y-39035D01*
X27797Y-40235D02*
X27797Y-39035D01*
X30511Y-42115D02*
X30511Y-40915D01*
X30511Y-41487D02*
X29940Y-41487D01*
X29940Y-42115D02*
X29940Y-40915D01*
X29511Y-41772D02*
X29035Y-41772D01*
X29607Y-42115D02*
X29273Y-40915D01*
X28940Y-42115D01*
X28607Y-42115D02*
X28607Y-40915D01*
X28035Y-42115D01*
X28035Y-40915D01*
X27559Y-42115D02*
X27559Y-40915D01*
X27321Y-40915D01*
X27178Y-40972D01*
X27083Y-41087D01*
X27035Y-41201D01*
X26988Y-41430D01*
X26988Y-41601D01*
X27035Y-41830D01*
X27083Y-41944D01*
X27178Y-42058D01*
X27321Y-42115D01*
X27559Y-42115D01*
G54D13*
X75157Y-21404D02*
X75357Y-21404D01*
X75357Y-21823D02*
X75357Y-21023D01*
X75071Y-21023D01*
X74500Y-21823D02*
X74700Y-21442D01*
X74842Y-21823D02*
X74842Y-21023D01*
X74614Y-21023D01*
X74557Y-21061D01*
X74528Y-21100D01*
X74500Y-21176D01*
X74500Y-21290D01*
X74528Y-21366D01*
X74557Y-21404D01*
X74614Y-21442D01*
X74842Y-21442D01*
X73985Y-21290D02*
X73985Y-21823D01*
X74128Y-20985D02*
X74271Y-21557D01*
X73900Y-21557D01*
X73299Y-21023D02*
X72957Y-21023D01*
X73128Y-21823D02*
X73128Y-21023D01*
X72499Y-21290D02*
X72499Y-21938D01*
X72528Y-22014D01*
X72557Y-22052D01*
X72614Y-22090D01*
X72699Y-22090D01*
X72757Y-22052D01*
X72499Y-21785D02*
X72557Y-21823D01*
X72671Y-21823D01*
X72728Y-21785D01*
X72757Y-21747D01*
X72785Y-21671D01*
X72785Y-21442D01*
X72757Y-21366D01*
X72728Y-21328D01*
X72671Y-21290D01*
X72557Y-21290D01*
X72499Y-21328D01*
X71899Y-21823D02*
X72242Y-21823D01*
X72071Y-21823D02*
X72071Y-21023D01*
X72128Y-21138D01*
X72185Y-21214D01*
X72242Y-21252D01*
X71699Y-21023D02*
X71299Y-21023D01*
X71557Y-21823D01*
X70957Y-21023D02*
X70899Y-21023D01*
X70842Y-21061D01*
X70814Y-21100D01*
X70785Y-21176D01*
X70757Y-21328D01*
X70757Y-21519D01*
X70785Y-21671D01*
X70814Y-21747D01*
X70842Y-21785D01*
X70899Y-21823D01*
X70957Y-21823D01*
X71014Y-21785D01*
X71042Y-21747D01*
X71071Y-21671D01*
X71099Y-21519D01*
X71099Y-21328D01*
X71071Y-21176D01*
X71042Y-21100D01*
X71014Y-21061D01*
X70957Y-21023D01*
X70414Y-21023D02*
X70471Y-21061D01*
X70499Y-21138D01*
X70471Y-21214D01*
X70414Y-21252D01*
X70357Y-21214D01*
X70328Y-21138D01*
X70357Y-21061D01*
X70414Y-21023D01*
X69299Y-21823D02*
X69585Y-21823D01*
X69585Y-21023D01*
X68842Y-21823D02*
X68842Y-21404D01*
X68871Y-21328D01*
X68928Y-21290D01*
X69042Y-21290D01*
X69099Y-21328D01*
X68842Y-21785D02*
X68899Y-21823D01*
X69042Y-21823D01*
X69099Y-21785D01*
X69128Y-21709D01*
X69128Y-21633D01*
X69099Y-21557D01*
X69042Y-21519D01*
X68899Y-21519D01*
X68842Y-21480D01*
X68557Y-21823D02*
X68557Y-21290D01*
X68557Y-21366D02*
X68528Y-21328D01*
X68471Y-21290D01*
X68385Y-21290D01*
X68328Y-21328D01*
X68299Y-21404D01*
X68299Y-21823D01*
X68299Y-21404D02*
X68271Y-21328D01*
X68214Y-21290D01*
X68128Y-21290D01*
X68071Y-21328D01*
X68042Y-21404D01*
X68042Y-21823D01*
X67757Y-21823D02*
X67757Y-21290D01*
X67757Y-21023D02*
X67785Y-21061D01*
X67757Y-21100D01*
X67728Y-21061D01*
X67757Y-21023D01*
X67757Y-21100D01*
X67471Y-21290D02*
X67471Y-21823D01*
X67471Y-21366D02*
X67442Y-21328D01*
X67385Y-21290D01*
X67299Y-21290D01*
X67242Y-21328D01*
X67214Y-21404D01*
X67214Y-21823D01*
X66671Y-21823D02*
X66671Y-21404D01*
X66699Y-21328D01*
X66757Y-21290D01*
X66871Y-21290D01*
X66928Y-21328D01*
X66671Y-21785D02*
X66728Y-21823D01*
X66871Y-21823D01*
X66928Y-21785D01*
X66957Y-21709D01*
X66957Y-21633D01*
X66928Y-21557D01*
X66871Y-21519D01*
X66728Y-21519D01*
X66671Y-21480D01*
X66471Y-21290D02*
X66242Y-21290D01*
X66385Y-21023D02*
X66385Y-21709D01*
X66357Y-21785D01*
X66299Y-21823D01*
X66242Y-21823D01*
X65814Y-21785D02*
X65871Y-21823D01*
X65985Y-21823D01*
X66042Y-21785D01*
X66071Y-21709D01*
X66071Y-21404D01*
X66042Y-21328D01*
X65985Y-21290D01*
X65871Y-21290D01*
X65814Y-21328D01*
X65785Y-21404D01*
X65785Y-21480D01*
X66071Y-21557D01*
X75385Y-22340D02*
X75357Y-22301D01*
X75300Y-22263D01*
X75157Y-22263D01*
X75100Y-22301D01*
X75071Y-22340D01*
X75042Y-22416D01*
X75042Y-22492D01*
X75071Y-22606D01*
X75414Y-23063D01*
X75042Y-23063D01*
X74528Y-22530D02*
X74528Y-23063D01*
X74671Y-22225D02*
X74814Y-22797D01*
X74442Y-22797D01*
X74214Y-23063D02*
X74214Y-22530D01*
X74214Y-22606D02*
X74185Y-22568D01*
X74128Y-22530D01*
X74042Y-22530D01*
X73985Y-22568D01*
X73957Y-22644D01*
X73957Y-23063D01*
X73957Y-22644D02*
X73928Y-22568D01*
X73871Y-22530D01*
X73785Y-22530D01*
X73728Y-22568D01*
X73699Y-22644D01*
X73699Y-23063D01*
X73414Y-23063D02*
X73414Y-22530D01*
X73414Y-22263D02*
X73442Y-22301D01*
X73414Y-22340D01*
X73385Y-22301D01*
X73414Y-22263D01*
X73414Y-22340D01*
X73042Y-23063D02*
X73099Y-23025D01*
X73128Y-22949D01*
X73128Y-22263D01*
X72442Y-22530D02*
X72214Y-22530D01*
X72357Y-22263D02*
X72357Y-22949D01*
X72328Y-23025D01*
X72271Y-23063D01*
X72214Y-23063D01*
X72014Y-23063D02*
X72014Y-22530D01*
X72014Y-22682D02*
X71985Y-22606D01*
X71957Y-22568D01*
X71899Y-22530D01*
X71842Y-22530D01*
X71385Y-23063D02*
X71385Y-22644D01*
X71414Y-22568D01*
X71471Y-22530D01*
X71585Y-22530D01*
X71642Y-22568D01*
X71385Y-23025D02*
X71442Y-23063D01*
X71585Y-23063D01*
X71642Y-23025D01*
X71671Y-22949D01*
X71671Y-22873D01*
X71642Y-22797D01*
X71585Y-22759D01*
X71442Y-22759D01*
X71385Y-22720D01*
X70842Y-23025D02*
X70899Y-23063D01*
X71014Y-23063D01*
X71071Y-23025D01*
X71099Y-22987D01*
X71128Y-22911D01*
X71128Y-22682D01*
X71099Y-22606D01*
X71071Y-22568D01*
X71014Y-22530D01*
X70899Y-22530D01*
X70842Y-22568D01*
X70357Y-23025D02*
X70414Y-23063D01*
X70528Y-23063D01*
X70585Y-23025D01*
X70614Y-22949D01*
X70614Y-22644D01*
X70585Y-22568D01*
X70528Y-22530D01*
X70414Y-22530D01*
X70357Y-22568D01*
X70328Y-22644D01*
X70328Y-22720D01*
X70614Y-22797D01*
X70099Y-23025D02*
X70042Y-23063D01*
X69928Y-23063D01*
X69871Y-23025D01*
X69842Y-22949D01*
X69842Y-22911D01*
X69871Y-22835D01*
X69928Y-22797D01*
X70014Y-22797D01*
X70071Y-22759D01*
X70099Y-22682D01*
X70099Y-22644D01*
X70071Y-22568D01*
X70014Y-22530D01*
X69928Y-22530D01*
X69871Y-22568D01*
X69042Y-23063D02*
X69099Y-23025D01*
X69128Y-22987D01*
X69157Y-22911D01*
X69157Y-22682D01*
X69128Y-22606D01*
X69099Y-22568D01*
X69042Y-22530D01*
X68957Y-22530D01*
X68899Y-22568D01*
X68871Y-22606D01*
X68842Y-22682D01*
X68842Y-22911D01*
X68871Y-22987D01*
X68899Y-23025D01*
X68957Y-23063D01*
X69042Y-23063D01*
X68585Y-22530D02*
X68585Y-23063D01*
X68585Y-22606D02*
X68557Y-22568D01*
X68499Y-22530D01*
X68414Y-22530D01*
X68357Y-22568D01*
X68328Y-22644D01*
X68328Y-23063D01*
X67271Y-23063D02*
X67614Y-23063D01*
X67442Y-23063D02*
X67442Y-22263D01*
X67499Y-22378D01*
X67557Y-22454D01*
X67614Y-22492D01*
X66928Y-23063D02*
X66985Y-23025D01*
X67014Y-22987D01*
X67042Y-22911D01*
X67042Y-22682D01*
X67014Y-22606D01*
X66985Y-22568D01*
X66928Y-22530D01*
X66842Y-22530D01*
X66785Y-22568D01*
X66757Y-22606D01*
X66728Y-22682D01*
X66728Y-22911D01*
X66757Y-22987D01*
X66785Y-23025D01*
X66842Y-23063D01*
X66928Y-23063D01*
X66528Y-22530D02*
X66214Y-22530D01*
X66528Y-23063D01*
X66214Y-23063D01*
X65271Y-23025D02*
X65328Y-23063D01*
X65442Y-23063D01*
X65499Y-23025D01*
X65528Y-22987D01*
X65557Y-22911D01*
X65557Y-22682D01*
X65528Y-22606D01*
X65499Y-22568D01*
X65442Y-22530D01*
X65328Y-22530D01*
X65271Y-22568D01*
X64928Y-23063D02*
X64985Y-23025D01*
X65014Y-22987D01*
X65042Y-22911D01*
X65042Y-22682D01*
X65014Y-22606D01*
X64985Y-22568D01*
X64928Y-22530D01*
X64842Y-22530D01*
X64785Y-22568D01*
X64757Y-22606D01*
X64728Y-22682D01*
X64728Y-22911D01*
X64757Y-22987D01*
X64785Y-23025D01*
X64842Y-23063D01*
X64928Y-23063D01*
X64471Y-22530D02*
X64471Y-23330D01*
X64471Y-22568D02*
X64414Y-22530D01*
X64299Y-22530D01*
X64242Y-22568D01*
X64214Y-22606D01*
X64185Y-22682D01*
X64185Y-22911D01*
X64214Y-22987D01*
X64242Y-23025D01*
X64299Y-23063D01*
X64414Y-23063D01*
X64471Y-23025D01*
X63928Y-22530D02*
X63928Y-23330D01*
X63928Y-22568D02*
X63871Y-22530D01*
X63757Y-22530D01*
X63699Y-22568D01*
X63671Y-22606D01*
X63642Y-22682D01*
X63642Y-22911D01*
X63671Y-22987D01*
X63699Y-23025D01*
X63757Y-23063D01*
X63871Y-23063D01*
X63928Y-23025D01*
X63157Y-23025D02*
X63214Y-23063D01*
X63328Y-23063D01*
X63385Y-23025D01*
X63414Y-22949D01*
X63414Y-22644D01*
X63385Y-22568D01*
X63328Y-22530D01*
X63214Y-22530D01*
X63157Y-22568D01*
X63128Y-22644D01*
X63128Y-22720D01*
X63414Y-22797D01*
X62871Y-23063D02*
X62871Y-22530D01*
X62871Y-22682D02*
X62842Y-22606D01*
X62814Y-22568D01*
X62757Y-22530D01*
X62699Y-22530D01*
X79176Y-52300D02*
X79976Y-52300D01*
X79976Y-52157D01*
X79938Y-52071D01*
X79861Y-52014D01*
X79785Y-51985D01*
X79633Y-51957D01*
X79519Y-51957D01*
X79366Y-51985D01*
X79290Y-52014D01*
X79214Y-52071D01*
X79176Y-52157D01*
X79176Y-52300D01*
X79214Y-51471D02*
X79176Y-51528D01*
X79176Y-51642D01*
X79214Y-51700D01*
X79290Y-51728D01*
X79595Y-51728D01*
X79671Y-51700D01*
X79709Y-51642D01*
X79709Y-51528D01*
X79671Y-51471D01*
X79595Y-51442D01*
X79519Y-51442D01*
X79442Y-51728D01*
X79214Y-51214D02*
X79176Y-51157D01*
X79176Y-51042D01*
X79214Y-50985D01*
X79290Y-50957D01*
X79328Y-50957D01*
X79404Y-50985D01*
X79442Y-51042D01*
X79442Y-51128D01*
X79480Y-51185D01*
X79557Y-51214D01*
X79595Y-51214D01*
X79671Y-51185D01*
X79709Y-51128D01*
X79709Y-51042D01*
X79671Y-50985D01*
X79176Y-50700D02*
X79709Y-50700D01*
X79976Y-50700D02*
X79938Y-50728D01*
X79900Y-50700D01*
X79938Y-50671D01*
X79976Y-50700D01*
X79900Y-50700D01*
X79709Y-50157D02*
X79061Y-50157D01*
X78985Y-50185D01*
X78947Y-50214D01*
X78909Y-50271D01*
X78909Y-50357D01*
X78947Y-50414D01*
X79214Y-50157D02*
X79176Y-50214D01*
X79176Y-50328D01*
X79214Y-50385D01*
X79252Y-50414D01*
X79328Y-50442D01*
X79557Y-50442D01*
X79633Y-50414D01*
X79671Y-50385D01*
X79709Y-50328D01*
X79709Y-50214D01*
X79671Y-50157D01*
X79709Y-49871D02*
X79176Y-49871D01*
X79633Y-49871D02*
X79671Y-49842D01*
X79709Y-49785D01*
X79709Y-49700D01*
X79671Y-49642D01*
X79595Y-49614D01*
X79176Y-49614D01*
X79176Y-48871D02*
X79976Y-48871D01*
X79671Y-48871D02*
X79709Y-48814D01*
X79709Y-48700D01*
X79671Y-48642D01*
X79633Y-48614D01*
X79557Y-48585D01*
X79328Y-48585D01*
X79252Y-48614D01*
X79214Y-48642D01*
X79176Y-48700D01*
X79176Y-48814D01*
X79214Y-48871D01*
X79709Y-48385D02*
X79176Y-48242D01*
X79709Y-48100D02*
X79176Y-48242D01*
X78985Y-48300D01*
X78947Y-48328D01*
X78909Y-48385D01*
X79176Y-47414D02*
X79976Y-47414D01*
X79976Y-47271D01*
X79938Y-47185D01*
X79861Y-47128D01*
X79785Y-47100D01*
X79633Y-47071D01*
X79519Y-47071D01*
X79366Y-47100D01*
X79290Y-47128D01*
X79214Y-47185D01*
X79176Y-47271D01*
X79176Y-47414D01*
X79176Y-46728D02*
X79214Y-46785D01*
X79252Y-46814D01*
X79328Y-46842D01*
X79557Y-46842D01*
X79633Y-46814D01*
X79671Y-46785D01*
X79709Y-46728D01*
X79709Y-46642D01*
X79671Y-46585D01*
X79633Y-46557D01*
X79557Y-46528D01*
X79328Y-46528D01*
X79252Y-46557D01*
X79214Y-46585D01*
X79176Y-46642D01*
X79176Y-46728D01*
X79176Y-46271D02*
X79709Y-46271D01*
X79633Y-46271D02*
X79671Y-46242D01*
X79709Y-46185D01*
X79709Y-46100D01*
X79671Y-46042D01*
X79595Y-46014D01*
X79176Y-46014D01*
X79595Y-46014D02*
X79671Y-45985D01*
X79709Y-45928D01*
X79709Y-45842D01*
X79671Y-45785D01*
X79595Y-45757D01*
X79176Y-45757D01*
X79176Y-45471D02*
X79709Y-45471D01*
X79976Y-45471D02*
X79938Y-45500D01*
X79900Y-45471D01*
X79938Y-45442D01*
X79976Y-45471D01*
X79900Y-45471D01*
X79709Y-45185D02*
X79176Y-45185D01*
X79633Y-45185D02*
X79671Y-45157D01*
X79709Y-45100D01*
X79709Y-45014D01*
X79671Y-44957D01*
X79595Y-44928D01*
X79176Y-44928D01*
X79176Y-44642D02*
X79709Y-44642D01*
X79976Y-44642D02*
X79938Y-44671D01*
X79900Y-44642D01*
X79938Y-44614D01*
X79976Y-44642D01*
X79900Y-44642D01*
X79214Y-44100D02*
X79176Y-44157D01*
X79176Y-44271D01*
X79214Y-44328D01*
X79252Y-44357D01*
X79328Y-44385D01*
X79557Y-44385D01*
X79633Y-44357D01*
X79671Y-44328D01*
X79709Y-44271D01*
X79709Y-44157D01*
X79671Y-44100D01*
X79595Y-43185D02*
X79557Y-43100D01*
X79519Y-43071D01*
X79442Y-43042D01*
X79328Y-43042D01*
X79252Y-43071D01*
X79214Y-43100D01*
X79176Y-43157D01*
X79176Y-43385D01*
X79976Y-43385D01*
X79976Y-43185D01*
X79938Y-43128D01*
X79900Y-43100D01*
X79823Y-43071D01*
X79747Y-43071D01*
X79671Y-43100D01*
X79633Y-43128D01*
X79595Y-43185D01*
X79595Y-43385D01*
X79214Y-42557D02*
X79176Y-42614D01*
X79176Y-42728D01*
X79214Y-42785D01*
X79290Y-42814D01*
X79595Y-42814D01*
X79671Y-42785D01*
X79709Y-42728D01*
X79709Y-42614D01*
X79671Y-42557D01*
X79595Y-42528D01*
X79519Y-42528D01*
X79442Y-42814D01*
X79176Y-42014D02*
X79595Y-42014D01*
X79671Y-42042D01*
X79709Y-42100D01*
X79709Y-42214D01*
X79671Y-42271D01*
X79214Y-42014D02*
X79176Y-42071D01*
X79176Y-42214D01*
X79214Y-42271D01*
X79290Y-42300D01*
X79366Y-42300D01*
X79442Y-42271D01*
X79480Y-42214D01*
X79480Y-42071D01*
X79519Y-42014D01*
X79709Y-41471D02*
X79176Y-41471D01*
X79709Y-41728D02*
X79290Y-41728D01*
X79214Y-41700D01*
X79176Y-41642D01*
X79176Y-41557D01*
X79214Y-41500D01*
X79252Y-41471D01*
X79214Y-40928D02*
X79176Y-40985D01*
X79176Y-41100D01*
X79214Y-41157D01*
X79252Y-41185D01*
X79328Y-41214D01*
X79557Y-41214D01*
X79633Y-41185D01*
X79671Y-41157D01*
X79709Y-41100D01*
X79709Y-40985D01*
X79671Y-40928D01*
X79176Y-40671D02*
X79976Y-40671D01*
X79176Y-40414D02*
X79595Y-40414D01*
X79671Y-40442D01*
X79709Y-40500D01*
X79709Y-40585D01*
X79671Y-40642D01*
X79633Y-40671D01*
X79176Y-39871D02*
X79595Y-39871D01*
X79671Y-39900D01*
X79709Y-39957D01*
X79709Y-40071D01*
X79671Y-40128D01*
X79214Y-39871D02*
X79176Y-39928D01*
X79176Y-40071D01*
X79214Y-40128D01*
X79290Y-40157D01*
X79366Y-40157D01*
X79442Y-40128D01*
X79480Y-40071D01*
X79480Y-39928D01*
X79519Y-39871D01*
X79176Y-39585D02*
X79709Y-39585D01*
X79633Y-39585D02*
X79671Y-39557D01*
X79709Y-39500D01*
X79709Y-39414D01*
X79671Y-39357D01*
X79595Y-39328D01*
X79176Y-39328D01*
X79595Y-39328D02*
X79671Y-39300D01*
X79709Y-39242D01*
X79709Y-39157D01*
X79671Y-39100D01*
X79595Y-39071D01*
X79176Y-39071D01*
X79709Y-38785D02*
X78909Y-38785D01*
X79671Y-38785D02*
X79709Y-38728D01*
X79709Y-38614D01*
X79671Y-38557D01*
X79633Y-38528D01*
X79557Y-38500D01*
X79328Y-38500D01*
X79252Y-38528D01*
X79214Y-38557D01*
X79176Y-38614D01*
X79176Y-38728D01*
X79214Y-38785D01*
X79214Y-38214D02*
X79176Y-38214D01*
X79100Y-38242D01*
X79061Y-38271D01*
X79176Y-37500D02*
X79976Y-37500D01*
X79671Y-37500D02*
X79709Y-37442D01*
X79709Y-37328D01*
X79671Y-37271D01*
X79633Y-37242D01*
X79557Y-37214D01*
X79328Y-37214D01*
X79252Y-37242D01*
X79214Y-37271D01*
X79176Y-37328D01*
X79176Y-37442D01*
X79214Y-37500D01*
X79176Y-36700D02*
X79595Y-36700D01*
X79671Y-36728D01*
X79709Y-36785D01*
X79709Y-36900D01*
X79671Y-36957D01*
X79214Y-36700D02*
X79176Y-36757D01*
X79176Y-36900D01*
X79214Y-36957D01*
X79290Y-36985D01*
X79366Y-36985D01*
X79442Y-36957D01*
X79480Y-36900D01*
X79480Y-36757D01*
X79519Y-36700D01*
X79214Y-36442D02*
X79176Y-36385D01*
X79176Y-36271D01*
X79214Y-36214D01*
X79290Y-36185D01*
X79328Y-36185D01*
X79404Y-36214D01*
X79442Y-36271D01*
X79442Y-36357D01*
X79480Y-36414D01*
X79557Y-36442D01*
X79595Y-36442D01*
X79671Y-36414D01*
X79709Y-36357D01*
X79709Y-36271D01*
X79671Y-36214D01*
X79214Y-35700D02*
X79176Y-35757D01*
X79176Y-35871D01*
X79214Y-35928D01*
X79290Y-35957D01*
X79595Y-35957D01*
X79671Y-35928D01*
X79709Y-35871D01*
X79709Y-35757D01*
X79671Y-35700D01*
X79595Y-35671D01*
X79519Y-35671D01*
X79442Y-35957D01*
X79176Y-35157D02*
X79976Y-35157D01*
X79214Y-35157D02*
X79176Y-35214D01*
X79176Y-35328D01*
X79214Y-35385D01*
X79252Y-35414D01*
X79328Y-35442D01*
X79557Y-35442D01*
X79633Y-35414D01*
X79671Y-35385D01*
X79709Y-35328D01*
X79709Y-35214D01*
X79671Y-35157D01*
X79176Y-34328D02*
X79214Y-34385D01*
X79252Y-34414D01*
X79328Y-34442D01*
X79557Y-34442D01*
X79633Y-34414D01*
X79671Y-34385D01*
X79709Y-34328D01*
X79709Y-34242D01*
X79671Y-34185D01*
X79633Y-34157D01*
X79557Y-34128D01*
X79328Y-34128D01*
X79252Y-34157D01*
X79214Y-34185D01*
X79176Y-34242D01*
X79176Y-34328D01*
X79709Y-33871D02*
X79176Y-33871D01*
X79633Y-33871D02*
X79671Y-33842D01*
X79709Y-33785D01*
X79709Y-33700D01*
X79671Y-33642D01*
X79595Y-33614D01*
X79176Y-33614D01*
X79709Y-32957D02*
X79709Y-32728D01*
X79976Y-32871D02*
X79290Y-32871D01*
X79214Y-32842D01*
X79176Y-32785D01*
X79176Y-32728D01*
X79176Y-32528D02*
X79976Y-32528D01*
X79176Y-32271D02*
X79595Y-32271D01*
X79671Y-32300D01*
X79709Y-32357D01*
X79709Y-32442D01*
X79671Y-32500D01*
X79633Y-32528D01*
X79214Y-31757D02*
X79176Y-31814D01*
X79176Y-31928D01*
X79214Y-31985D01*
X79290Y-32014D01*
X79595Y-32014D01*
X79671Y-31985D01*
X79709Y-31928D01*
X79709Y-31814D01*
X79671Y-31757D01*
X79595Y-31728D01*
X79519Y-31728D01*
X79442Y-32014D01*
X79176Y-31014D02*
X79976Y-31014D01*
X79176Y-30671D02*
X79633Y-30928D01*
X79976Y-30671D02*
X79519Y-31014D01*
X79214Y-30185D02*
X79176Y-30242D01*
X79176Y-30357D01*
X79214Y-30414D01*
X79290Y-30442D01*
X79595Y-30442D01*
X79671Y-30414D01*
X79709Y-30357D01*
X79709Y-30242D01*
X79671Y-30185D01*
X79595Y-30157D01*
X79519Y-30157D01*
X79442Y-30442D01*
X79709Y-29957D02*
X79176Y-29814D01*
X79709Y-29671D02*
X79176Y-29814D01*
X78985Y-29871D01*
X78947Y-29900D01*
X78909Y-29957D01*
X79976Y-29185D02*
X79976Y-29300D01*
X79938Y-29357D01*
X79900Y-29385D01*
X79785Y-29442D01*
X79633Y-29471D01*
X79328Y-29471D01*
X79252Y-29442D01*
X79214Y-29414D01*
X79176Y-29357D01*
X79176Y-29242D01*
X79214Y-29185D01*
X79252Y-29157D01*
X79328Y-29128D01*
X79519Y-29128D01*
X79595Y-29157D01*
X79633Y-29185D01*
X79671Y-29242D01*
X79671Y-29357D01*
X79633Y-29414D01*
X79595Y-29442D01*
X79519Y-29471D01*
X79709Y-28614D02*
X79176Y-28614D01*
X80014Y-28757D02*
X79442Y-28900D01*
X79442Y-28528D01*
X79176Y-27842D02*
X79976Y-27842D01*
X79671Y-27842D02*
X79709Y-27785D01*
X79709Y-27671D01*
X79671Y-27614D01*
X79633Y-27585D01*
X79557Y-27557D01*
X79328Y-27557D01*
X79252Y-27585D01*
X79214Y-27614D01*
X79176Y-27671D01*
X79176Y-27785D01*
X79214Y-27842D01*
X79709Y-27357D02*
X79176Y-27214D01*
X79709Y-27071D02*
X79176Y-27214D01*
X78985Y-27271D01*
X78947Y-27300D01*
X78909Y-27357D01*
X79176Y-25928D02*
X79976Y-25928D01*
X79176Y-25585D01*
X79976Y-25585D01*
X79214Y-25071D02*
X79176Y-25128D01*
X79176Y-25242D01*
X79214Y-25300D01*
X79290Y-25328D01*
X79595Y-25328D01*
X79671Y-25300D01*
X79709Y-25242D01*
X79709Y-25128D01*
X79671Y-25071D01*
X79595Y-25042D01*
X79519Y-25042D01*
X79442Y-25328D01*
X79214Y-24814D02*
X79176Y-24757D01*
X79176Y-24642D01*
X79214Y-24585D01*
X79290Y-24557D01*
X79328Y-24557D01*
X79404Y-24585D01*
X79442Y-24642D01*
X79442Y-24728D01*
X79480Y-24785D01*
X79557Y-24814D01*
X79595Y-24814D01*
X79671Y-24785D01*
X79709Y-24728D01*
X79709Y-24642D01*
X79671Y-24585D01*
X79709Y-24385D02*
X79709Y-24157D01*
X79976Y-24300D02*
X79290Y-24300D01*
X79214Y-24271D01*
X79176Y-24214D01*
X79176Y-24157D01*
X79176Y-23871D02*
X79214Y-23928D01*
X79252Y-23957D01*
X79328Y-23985D01*
X79557Y-23985D01*
X79633Y-23957D01*
X79671Y-23928D01*
X79709Y-23871D01*
X79709Y-23785D01*
X79671Y-23728D01*
X79633Y-23700D01*
X79557Y-23671D01*
X79328Y-23671D01*
X79252Y-23700D01*
X79214Y-23728D01*
X79176Y-23785D01*
X79176Y-23871D01*
X79176Y-23414D02*
X79709Y-23414D01*
X79557Y-23414D02*
X79633Y-23385D01*
X79671Y-23357D01*
X79709Y-23300D01*
X79709Y-23242D01*
X79404Y-22614D02*
X79404Y-22328D01*
X79176Y-22671D02*
X79976Y-22471D01*
X79176Y-22271D01*
X79252Y-22071D02*
X79214Y-22042D01*
X79176Y-22071D01*
X79214Y-22099D01*
X79252Y-22071D01*
X79176Y-22071D01*
X79176Y-21328D02*
X79976Y-21328D01*
X79976Y-21185D01*
X79938Y-21099D01*
X79861Y-21042D01*
X79785Y-21014D01*
X79633Y-20985D01*
X79519Y-20985D01*
X79366Y-21014D01*
X79290Y-21042D01*
X79214Y-21099D01*
X79176Y-21185D01*
X79176Y-21328D01*
X79176Y-20728D02*
X79709Y-20728D01*
X79976Y-20728D02*
X79938Y-20757D01*
X79900Y-20728D01*
X79938Y-20699D01*
X79976Y-20728D01*
X79900Y-20728D01*
X79176Y-20185D02*
X79595Y-20185D01*
X79671Y-20214D01*
X79709Y-20271D01*
X79709Y-20385D01*
X79671Y-20442D01*
X79214Y-20185D02*
X79176Y-20242D01*
X79176Y-20385D01*
X79214Y-20442D01*
X79290Y-20471D01*
X79366Y-20471D01*
X79442Y-20442D01*
X79480Y-20385D01*
X79480Y-20242D01*
X79519Y-20185D01*
X79709Y-19957D02*
X79709Y-19642D01*
X79176Y-19957D01*
X79176Y-19642D01*
G54D14*
X62750Y-17250D02*
X77750Y-17250D01*
X77750Y-17250D02*
X77750Y-15250D01*
X77750Y-15250D02*
X62750Y-15250D01*
X62750Y-15250D02*
X62750Y-17250D01*
X62750Y-16750D02*
X63250Y-16750D01*
X63250Y-16750D02*
X63250Y-15750D01*
X63250Y-15750D02*
X62750Y-15750D01*
G54D15*
X31000Y-14750D02*
X31000Y-13750D01*
X37000Y-15750D02*
X37000Y-14750D01*
G54D14*
X35870Y-12000D02*
X35870Y-16750D01*
X35870Y-16750D02*
X32090Y-16750D01*
X32090Y-16750D02*
X32090Y-12000D01*
X26000Y-23130D02*
X26700Y-23130D01*
X30300Y-23130D02*
X31000Y-23130D01*
X31000Y-23130D02*
X31000Y-23830D01*
X31000Y-27430D02*
X31000Y-28130D01*
X31000Y-28130D02*
X30300Y-28130D01*
X26700Y-28130D02*
X26000Y-28130D01*
X26000Y-28130D02*
X26000Y-27430D01*
X26000Y-23830D02*
X26000Y-23130D01*
X26000Y-37504D02*
X26000Y-36804D01*
X26000Y-33204D02*
X26000Y-32504D01*
X26000Y-32504D02*
X26700Y-32504D01*
X30300Y-32504D02*
X31000Y-32504D01*
X31000Y-32504D02*
X31000Y-33204D01*
X31000Y-36804D02*
X31000Y-37504D01*
X31000Y-37504D02*
X30300Y-37504D01*
X26700Y-37504D02*
X26000Y-37504D01*
X26000Y-48754D02*
X26000Y-48054D01*
X26000Y-44454D02*
X26000Y-43754D01*
X26000Y-43754D02*
X26700Y-43754D01*
X30300Y-43754D02*
X31000Y-43754D01*
X31000Y-43754D02*
X31000Y-44454D01*
X31000Y-48054D02*
X31000Y-48754D01*
X31000Y-48754D02*
X30300Y-48754D01*
X26700Y-48754D02*
X26000Y-48754D01*
X71000Y-53879D02*
X71700Y-53879D01*
X75300Y-53879D02*
X76000Y-53879D01*
X76000Y-53879D02*
X76000Y-54579D01*
X76000Y-58179D02*
X76000Y-58879D01*
X76000Y-58879D02*
X75300Y-58879D01*
X71700Y-58879D02*
X71000Y-58879D01*
X71000Y-58879D02*
X71000Y-58179D01*
X71000Y-54579D02*
X71000Y-53879D01*
X33500Y-30629D02*
X34200Y-30629D01*
X37800Y-30629D02*
X38500Y-30629D01*
X38500Y-30629D02*
X38500Y-31329D01*
X38500Y-34929D02*
X38500Y-35629D01*
X38500Y-35629D02*
X37800Y-35629D01*
X34200Y-35629D02*
X33500Y-35629D01*
X33500Y-35629D02*
X33500Y-34929D01*
X33500Y-31329D02*
X33500Y-30629D01*
X13507Y-61992D02*
X14142Y-61696D01*
X17404Y-60175D02*
X18039Y-59879D01*
X18039Y-59879D02*
X18335Y-60514D01*
X19856Y-63776D02*
X20152Y-64411D01*
X20152Y-64411D02*
X19517Y-64707D01*
X16255Y-66228D02*
X15620Y-66524D01*
X15620Y-66524D02*
X15324Y-65889D01*
X13803Y-62627D02*
X13507Y-61992D01*
X16677Y-68790D02*
X17312Y-68494D01*
X20574Y-66973D02*
X21209Y-66677D01*
X21209Y-66677D02*
X21505Y-67312D01*
X23026Y-70574D02*
X23322Y-71209D01*
X23322Y-71209D02*
X22687Y-71505D01*
X19425Y-73026D02*
X18790Y-73322D01*
X18790Y-73322D02*
X18494Y-72687D01*
X16973Y-69425D02*
X16677Y-68790D01*
X10338Y-55195D02*
X10973Y-54899D01*
X14235Y-53378D02*
X14870Y-53082D01*
X14870Y-53082D02*
X15166Y-53717D01*
X16687Y-56979D02*
X16983Y-57614D01*
X16983Y-57614D02*
X16348Y-57910D01*
X13086Y-59431D02*
X12451Y-59727D01*
X12451Y-59727D02*
X12155Y-59092D01*
X10634Y-55830D02*
X10338Y-55195D01*
X17135Y-52026D02*
X17770Y-51730D01*
X21032Y-50209D02*
X21667Y-49913D01*
X21667Y-49913D02*
X21963Y-50548D01*
X23484Y-53810D02*
X23780Y-54445D01*
X23780Y-54445D02*
X23145Y-54741D01*
X19883Y-56262D02*
X19248Y-56558D01*
X19248Y-56558D02*
X18952Y-55923D01*
X17431Y-52661D02*
X17135Y-52026D01*
X63500Y-23880D02*
X64200Y-23880D01*
X67800Y-23880D02*
X68500Y-23880D01*
X68500Y-23880D02*
X68500Y-24580D01*
X68500Y-28180D02*
X68500Y-28880D01*
X68500Y-28880D02*
X67800Y-28880D01*
X64200Y-28880D02*
X63500Y-28880D01*
X63500Y-28880D02*
X63500Y-28180D01*
X63500Y-24580D02*
X63500Y-23880D01*
X56000Y-22629D02*
X56700Y-22629D01*
X60300Y-22629D02*
X61000Y-22629D01*
X61000Y-22629D02*
X61000Y-23329D01*
X61000Y-26929D02*
X61000Y-27629D01*
X61000Y-27629D02*
X60300Y-27629D01*
X56700Y-27629D02*
X56000Y-27629D01*
X56000Y-27629D02*
X56000Y-26929D01*
X56000Y-23329D02*
X56000Y-22629D01*
X48500Y-22000D02*
X49200Y-22000D01*
X52800Y-22000D02*
X53500Y-22000D01*
X53500Y-22000D02*
X53500Y-22700D01*
X53500Y-26300D02*
X53500Y-27000D01*
X53500Y-27000D02*
X52800Y-27000D01*
X49200Y-27000D02*
X48500Y-27000D01*
X48500Y-27000D02*
X48500Y-26300D01*
X48500Y-22700D02*
X48500Y-22000D01*
X41000Y-22629D02*
X41700Y-22629D01*
X45300Y-22629D02*
X46000Y-22629D01*
X46000Y-22629D02*
X46000Y-23329D01*
X46000Y-26929D02*
X46000Y-27629D01*
X46000Y-27629D02*
X45300Y-27629D01*
X41700Y-27629D02*
X41000Y-27629D01*
X41000Y-27629D02*
X41000Y-26929D01*
X41000Y-23329D02*
X41000Y-22629D01*
X56000Y-52629D02*
X56700Y-52629D01*
X60300Y-52629D02*
X61000Y-52629D01*
X61000Y-52629D02*
X61000Y-53329D01*
X61000Y-56929D02*
X61000Y-57629D01*
X61000Y-57629D02*
X60300Y-57629D01*
X56700Y-57629D02*
X56000Y-57629D01*
X56000Y-57629D02*
X56000Y-56929D01*
X56000Y-53329D02*
X56000Y-52629D01*
X63500Y-31379D02*
X64200Y-31379D01*
X67800Y-31379D02*
X68500Y-31379D01*
X68500Y-31379D02*
X68500Y-32079D01*
X68500Y-35679D02*
X68500Y-36379D01*
X68500Y-36379D02*
X67800Y-36379D01*
X64200Y-36379D02*
X63500Y-36379D01*
X63500Y-36379D02*
X63500Y-35679D01*
X63500Y-32079D02*
X63500Y-31379D01*
X48500Y-29500D02*
X49200Y-29500D01*
X52800Y-29500D02*
X53500Y-29500D01*
X53500Y-29500D02*
X53500Y-30200D01*
X53500Y-33800D02*
X53500Y-34500D01*
X53500Y-34500D02*
X52800Y-34500D01*
X49200Y-34500D02*
X48500Y-34500D01*
X48500Y-34500D02*
X48500Y-33800D01*
X48500Y-30200D02*
X48500Y-29500D01*
X41000Y-30129D02*
X41700Y-30129D01*
X45300Y-30129D02*
X46000Y-30129D01*
X46000Y-30129D02*
X46000Y-30829D01*
X46000Y-34429D02*
X46000Y-35129D01*
X46000Y-35129D02*
X45300Y-35129D01*
X41700Y-35129D02*
X41000Y-35129D01*
X41000Y-35129D02*
X41000Y-34429D01*
X41000Y-30829D02*
X41000Y-30129D01*
X63500Y-38879D02*
X64200Y-38879D01*
X67800Y-38879D02*
X68500Y-38879D01*
X68500Y-38879D02*
X68500Y-39579D01*
X68500Y-43179D02*
X68500Y-43879D01*
X68500Y-43879D02*
X67800Y-43879D01*
X64200Y-43879D02*
X63500Y-43879D01*
X63500Y-43879D02*
X63500Y-43179D01*
X63500Y-39579D02*
X63500Y-38879D01*
X56000Y-37629D02*
X56700Y-37629D01*
X60300Y-37629D02*
X61000Y-37629D01*
X61000Y-37629D02*
X61000Y-38329D01*
X61000Y-41929D02*
X61000Y-42629D01*
X61000Y-42629D02*
X60300Y-42629D01*
X56700Y-42629D02*
X56000Y-42629D01*
X56000Y-42629D02*
X56000Y-41929D01*
X56000Y-38329D02*
X56000Y-37629D01*
X48500Y-37000D02*
X49200Y-37000D01*
X52800Y-37000D02*
X53500Y-37000D01*
X53500Y-37000D02*
X53500Y-37700D01*
X53500Y-41300D02*
X53500Y-42000D01*
X53500Y-42000D02*
X52800Y-42000D01*
X49200Y-42000D02*
X48500Y-42000D01*
X48500Y-42000D02*
X48500Y-41300D01*
X48500Y-37700D02*
X48500Y-37000D01*
X41000Y-37629D02*
X41700Y-37629D01*
X45300Y-37629D02*
X46000Y-37629D01*
X46000Y-37629D02*
X46000Y-38329D01*
X46000Y-41929D02*
X46000Y-42629D01*
X46000Y-42629D02*
X45300Y-42629D01*
X41700Y-42629D02*
X41000Y-42629D01*
X41000Y-42629D02*
X41000Y-41929D01*
X41000Y-38329D02*
X41000Y-37629D01*
X33500Y-38129D02*
X34200Y-38129D01*
X37800Y-38129D02*
X38500Y-38129D01*
X38500Y-38129D02*
X38500Y-38829D01*
X38500Y-42429D02*
X38500Y-43129D01*
X38500Y-43129D02*
X37800Y-43129D01*
X34200Y-43129D02*
X33500Y-43129D01*
X33500Y-43129D02*
X33500Y-42429D01*
X33500Y-38829D02*
X33500Y-38129D01*
X63500Y-46379D02*
X64200Y-46379D01*
X67800Y-46379D02*
X68500Y-46379D01*
X68500Y-46379D02*
X68500Y-47079D01*
X68500Y-50679D02*
X68500Y-51379D01*
X68500Y-51379D02*
X67800Y-51379D01*
X64200Y-51379D02*
X63500Y-51379D01*
X63500Y-51379D02*
X63500Y-50679D01*
X63500Y-47079D02*
X63500Y-46379D01*
X56000Y-45129D02*
X56700Y-45129D01*
X60300Y-45129D02*
X61000Y-45129D01*
X61000Y-45129D02*
X61000Y-45829D01*
X61000Y-49429D02*
X61000Y-50129D01*
X61000Y-50129D02*
X60300Y-50129D01*
X56700Y-50129D02*
X56000Y-50129D01*
X56000Y-50129D02*
X56000Y-49429D01*
X56000Y-45829D02*
X56000Y-45129D01*
X48500Y-44500D02*
X49200Y-44500D01*
X52800Y-44500D02*
X53500Y-44500D01*
X53500Y-44500D02*
X53500Y-45200D01*
X53500Y-48800D02*
X53500Y-49500D01*
X53500Y-49500D02*
X52800Y-49500D01*
X49200Y-49500D02*
X48500Y-49500D01*
X48500Y-49500D02*
X48500Y-48800D01*
X48500Y-45200D02*
X48500Y-44500D01*
X41000Y-45129D02*
X41700Y-45129D01*
X45300Y-45129D02*
X46000Y-45129D01*
X46000Y-45129D02*
X46000Y-45829D01*
X46000Y-49429D02*
X46000Y-50129D01*
X46000Y-50129D02*
X45300Y-50129D01*
X41700Y-50129D02*
X41000Y-50129D01*
X41000Y-50129D02*
X41000Y-49429D01*
X41000Y-45829D02*
X41000Y-45129D01*
X33500Y-45629D02*
X34200Y-45629D01*
X37800Y-45629D02*
X38500Y-45629D01*
X38500Y-45629D02*
X38500Y-46329D01*
X38500Y-49929D02*
X38500Y-50629D01*
X38500Y-50629D02*
X37800Y-50629D01*
X34200Y-50629D02*
X33500Y-50629D01*
X33500Y-50629D02*
X33500Y-49929D01*
X33500Y-46329D02*
X33500Y-45629D01*
X63500Y-53879D02*
X64200Y-53879D01*
X67800Y-53879D02*
X68500Y-53879D01*
X68500Y-53879D02*
X68500Y-54579D01*
X68500Y-58179D02*
X68500Y-58879D01*
X68500Y-58879D02*
X67800Y-58879D01*
X64200Y-58879D02*
X63500Y-58879D01*
X63500Y-58879D02*
X63500Y-58179D01*
X63500Y-54579D02*
X63500Y-53879D01*
X48500Y-52000D02*
X49200Y-52000D01*
X52800Y-52000D02*
X53500Y-52000D01*
X53500Y-52000D02*
X53500Y-52700D01*
X53500Y-56300D02*
X53500Y-57000D01*
X53500Y-57000D02*
X52800Y-57000D01*
X49200Y-57000D02*
X48500Y-57000D01*
X48500Y-57000D02*
X48500Y-56300D01*
X48500Y-52700D02*
X48500Y-52000D01*
X41000Y-52629D02*
X41700Y-52629D01*
X45300Y-52629D02*
X46000Y-52629D01*
X46000Y-52629D02*
X46000Y-53329D01*
X46000Y-56929D02*
X46000Y-57629D01*
X46000Y-57629D02*
X45300Y-57629D01*
X41700Y-57629D02*
X41000Y-57629D01*
X41000Y-57629D02*
X41000Y-56929D01*
X41000Y-53329D02*
X41000Y-52629D01*
X30799Y-63584D02*
X30503Y-62949D01*
X28982Y-59687D02*
X28686Y-59052D01*
X28686Y-59052D02*
X29321Y-58756D01*
X32583Y-57235D02*
X33218Y-56939D01*
X33218Y-56939D02*
X33514Y-57574D01*
X35035Y-60836D02*
X35331Y-61471D01*
X35331Y-61471D02*
X34696Y-61767D01*
X31434Y-63288D02*
X30799Y-63584D01*
X24002Y-66754D02*
X23706Y-66119D01*
X22185Y-62857D02*
X21889Y-62222D01*
X21889Y-62222D02*
X22524Y-61926D01*
X25786Y-60405D02*
X26421Y-60109D01*
X26421Y-60109D02*
X26717Y-60744D01*
X28238Y-64006D02*
X28534Y-64641D01*
X28534Y-64641D02*
X27899Y-64937D01*
X24637Y-66458D02*
X24002Y-66754D01*
X56000Y-30129D02*
X56700Y-30129D01*
X60300Y-30129D02*
X61000Y-30129D01*
X61000Y-30129D02*
X61000Y-30829D01*
X61000Y-34429D02*
X61000Y-35129D01*
X61000Y-35129D02*
X60300Y-35129D01*
X56700Y-35129D02*
X56000Y-35129D01*
X56000Y-35129D02*
X56000Y-34429D01*
X56000Y-30829D02*
X56000Y-30129D01*
X33500Y-23130D02*
X34200Y-23130D01*
X37800Y-23130D02*
X38500Y-23130D01*
X38500Y-23130D02*
X38500Y-23830D01*
X38500Y-27430D02*
X38500Y-28130D01*
X38500Y-28130D02*
X37800Y-28130D01*
X34200Y-28130D02*
X33500Y-28130D01*
X33500Y-28130D02*
X33500Y-27430D01*
X33500Y-23830D02*
X33500Y-23130D01*
X72875Y-23880D02*
X73575Y-23880D01*
X77175Y-23880D02*
X77875Y-23880D01*
X77875Y-23880D02*
X77875Y-24580D01*
X77875Y-28180D02*
X77875Y-28880D01*
X77875Y-28880D02*
X77175Y-28880D01*
X73575Y-28880D02*
X72875Y-28880D01*
X72875Y-28880D02*
X72875Y-28180D01*
X72875Y-24580D02*
X72875Y-23880D01*
X72875Y-31379D02*
X73575Y-31379D01*
X77175Y-31379D02*
X77875Y-31379D01*
X77875Y-31379D02*
X77875Y-32079D01*
X77875Y-35679D02*
X77875Y-36379D01*
X77875Y-36379D02*
X77175Y-36379D01*
X73575Y-36379D02*
X72875Y-36379D01*
X72875Y-36379D02*
X72875Y-35679D01*
X72875Y-32079D02*
X72875Y-31379D01*
X72875Y-38879D02*
X73575Y-38879D01*
X77175Y-38879D02*
X77875Y-38879D01*
X77875Y-38879D02*
X77875Y-39579D01*
X77875Y-43179D02*
X77875Y-43879D01*
X77875Y-43879D02*
X77175Y-43879D01*
X73575Y-43879D02*
X72875Y-43879D01*
X72875Y-43879D02*
X72875Y-43179D01*
X72875Y-39579D02*
X72875Y-38879D01*
X72875Y-46379D02*
X73575Y-46379D01*
X77175Y-46379D02*
X77875Y-46379D01*
X77875Y-46379D02*
X77875Y-47079D01*
X77875Y-50679D02*
X77875Y-51379D01*
X77875Y-51379D02*
X77175Y-51379D01*
X73575Y-51379D02*
X72875Y-51379D01*
X72875Y-51379D02*
X72875Y-50679D01*
X72875Y-47079D02*
X72875Y-46379D01*
G54D16*
X73964Y-16735D02*
X73964Y-15535D01*
X73630Y-16392D01*
X73297Y-15535D01*
X73297Y-16735D01*
X72250Y-16621D02*
X72297Y-16678D01*
X72440Y-16735D01*
X72535Y-16735D01*
X72678Y-16678D01*
X72773Y-16564D01*
X72821Y-16450D01*
X72869Y-16221D01*
X72869Y-16050D01*
X72821Y-15821D01*
X72773Y-15707D01*
X72678Y-15592D01*
X72535Y-15535D01*
X72440Y-15535D01*
X72297Y-15592D01*
X72250Y-15650D01*
X71821Y-16735D02*
X71821Y-15535D01*
X71440Y-15535D01*
X71345Y-15592D01*
X71297Y-15650D01*
X71250Y-15764D01*
X71250Y-15935D01*
X71297Y-16050D01*
X71345Y-16107D01*
X71440Y-16164D01*
X71821Y-16164D01*
X70869Y-15650D02*
X70821Y-15592D01*
X70726Y-15535D01*
X70488Y-15535D01*
X70392Y-15592D01*
X70345Y-15650D01*
X70297Y-15764D01*
X70297Y-15878D01*
X70345Y-16050D01*
X70916Y-16735D01*
X70297Y-16735D01*
X69964Y-15535D02*
X69345Y-15535D01*
X69678Y-15992D01*
X69535Y-15992D01*
X69440Y-16050D01*
X69392Y-16107D01*
X69345Y-16221D01*
X69345Y-16507D01*
X69392Y-16621D01*
X69440Y-16678D01*
X69535Y-16735D01*
X69821Y-16735D01*
X69916Y-16678D01*
X69964Y-16621D01*
X68726Y-15535D02*
X68630Y-15535D01*
X68535Y-15592D01*
X68488Y-15650D01*
X68440Y-15764D01*
X68392Y-15992D01*
X68392Y-16278D01*
X68440Y-16507D01*
X68488Y-16621D01*
X68535Y-16678D01*
X68630Y-16735D01*
X68726Y-16735D01*
X68821Y-16678D01*
X68869Y-16621D01*
X68916Y-16507D01*
X68964Y-16278D01*
X68964Y-15992D01*
X68916Y-15764D01*
X68869Y-15650D01*
X68821Y-15592D01*
X68726Y-15535D01*
X67440Y-16735D02*
X68011Y-16735D01*
X67726Y-16735D02*
X67726Y-15535D01*
X67821Y-15707D01*
X67916Y-15821D01*
X68011Y-15878D01*
X66869Y-16050D02*
X66964Y-15992D01*
X67011Y-15935D01*
X67059Y-15821D01*
X67059Y-15764D01*
X67011Y-15650D01*
X66964Y-15592D01*
X66869Y-15535D01*
X66678Y-15535D01*
X66583Y-15592D01*
X66535Y-15650D01*
X66488Y-15764D01*
X66488Y-15821D01*
X66535Y-15935D01*
X66583Y-15992D01*
X66678Y-16050D01*
X66869Y-16050D01*
X66964Y-16107D01*
X67011Y-16164D01*
X67059Y-16278D01*
X67059Y-16507D01*
X67011Y-16621D01*
X66964Y-16678D01*
X66869Y-16735D01*
X66678Y-16735D01*
X66583Y-16678D01*
X66535Y-16621D01*
X66488Y-16507D01*
X66488Y-16278D01*
X66535Y-16164D01*
X66583Y-16107D01*
X66678Y-16050D01*
G54D17*
X32303Y-57657D02*
X32225Y-57725D01*
X32073Y-57796D01*
X32001Y-57798D01*
X31959Y-57786D01*
X31904Y-57749D01*
X31880Y-57697D01*
X31886Y-57631D01*
X31904Y-57591D01*
X31953Y-57537D01*
X32061Y-57455D01*
X32110Y-57401D01*
X32128Y-57361D01*
X32134Y-57295D01*
X32110Y-57243D01*
X32056Y-57205D01*
X32013Y-57194D01*
X31941Y-57196D01*
X31790Y-57266D01*
X31711Y-57334D01*
X31488Y-57407D02*
X31318Y-58148D01*
X31065Y-57604D02*
X31741Y-57951D01*
X30744Y-58416D02*
X31107Y-58247D01*
X30925Y-58331D02*
X30672Y-57787D01*
X30769Y-57837D01*
X30853Y-57861D01*
X30926Y-57858D01*
X30448Y-58491D02*
X30430Y-58531D01*
X30472Y-58543D01*
X30490Y-58503D01*
X30448Y-58491D01*
X30472Y-58543D01*
X30315Y-58206D02*
X30297Y-58246D01*
X30340Y-58258D01*
X30358Y-58218D01*
X30315Y-58206D01*
X30340Y-58258D01*
X29615Y-58281D02*
X29917Y-58140D01*
X30068Y-58384D01*
X30025Y-58373D01*
X29953Y-58375D01*
X29802Y-58445D01*
X29753Y-58499D01*
X29735Y-58539D01*
X29729Y-58605D01*
X29790Y-58735D01*
X29844Y-58773D01*
X29886Y-58784D01*
X29959Y-58782D01*
X30110Y-58712D01*
X30158Y-58658D01*
X30176Y-58618D01*
X25506Y-60827D02*
X25428Y-60895D01*
X25276Y-60966D01*
X25204Y-60968D01*
X25162Y-60956D01*
X25107Y-60919D01*
X25083Y-60867D01*
X25089Y-60801D01*
X25107Y-60761D01*
X25156Y-60707D01*
X25264Y-60625D01*
X25313Y-60571D01*
X25331Y-60531D01*
X25337Y-60465D01*
X25313Y-60413D01*
X25259Y-60375D01*
X25216Y-60364D01*
X25144Y-60366D01*
X24993Y-60436D01*
X24914Y-60504D01*
X24691Y-60577D02*
X24521Y-61318D01*
X24268Y-60774D02*
X24944Y-61121D01*
X23947Y-61586D02*
X24310Y-61417D01*
X24128Y-61501D02*
X23875Y-60957D01*
X23972Y-61007D01*
X24056Y-61031D01*
X24129Y-61028D01*
X23651Y-61661D02*
X23633Y-61701D01*
X23675Y-61713D01*
X23693Y-61673D01*
X23651Y-61661D01*
X23675Y-61713D01*
X23518Y-61376D02*
X23500Y-61416D01*
X23543Y-61428D01*
X23561Y-61388D01*
X23518Y-61376D01*
X23543Y-61428D01*
X22848Y-61436D02*
X22969Y-61380D01*
X23041Y-61378D01*
X23083Y-61390D01*
X23180Y-61439D01*
X23259Y-61529D01*
X23355Y-61736D01*
X23349Y-61802D01*
X23331Y-61842D01*
X23283Y-61896D01*
X23162Y-61952D01*
X23089Y-61954D01*
X23047Y-61943D01*
X22993Y-61905D01*
X22932Y-61775D01*
X22938Y-61709D01*
X22956Y-61669D01*
X23005Y-61615D01*
X23126Y-61559D01*
X23198Y-61557D01*
X23240Y-61569D01*
X23295Y-61606D01*
X34374Y-62099D02*
X34296Y-62167D01*
X34145Y-62238D01*
X34072Y-62240D01*
X34030Y-62228D01*
X33976Y-62190D01*
X33951Y-62139D01*
X33957Y-62073D01*
X33976Y-62033D01*
X34024Y-61979D01*
X34133Y-61896D01*
X34181Y-61842D01*
X34199Y-61802D01*
X34205Y-61736D01*
X34181Y-61685D01*
X34127Y-61647D01*
X34084Y-61635D01*
X34012Y-61637D01*
X33861Y-61708D01*
X33782Y-61776D01*
X33559Y-61849D02*
X33389Y-62590D01*
X33136Y-62046D02*
X33812Y-62392D01*
X32773Y-62215D02*
X32713Y-62243D01*
X32665Y-62297D01*
X32646Y-62337D01*
X32640Y-62403D01*
X32658Y-62521D01*
X32719Y-62650D01*
X32797Y-62740D01*
X32852Y-62777D01*
X32894Y-62789D01*
X32966Y-62787D01*
X33027Y-62759D01*
X33075Y-62705D01*
X33093Y-62665D01*
X33099Y-62599D01*
X33081Y-62481D01*
X33021Y-62352D01*
X32942Y-62262D01*
X32888Y-62224D01*
X32846Y-62213D01*
X32773Y-62215D01*
X32519Y-62932D02*
X32501Y-62972D01*
X32544Y-62984D01*
X32562Y-62944D01*
X32519Y-62932D01*
X32544Y-62984D01*
X32387Y-62648D02*
X32368Y-62688D01*
X32411Y-62699D01*
X32429Y-62659D01*
X32387Y-62648D01*
X32411Y-62699D01*
X32048Y-62553D02*
X31656Y-62736D01*
X31964Y-62845D01*
X31873Y-62887D01*
X31825Y-62941D01*
X31806Y-62981D01*
X31800Y-63047D01*
X31861Y-63176D01*
X31915Y-63214D01*
X31957Y-63226D01*
X32030Y-63224D01*
X32211Y-63139D01*
X32260Y-63085D01*
X32278Y-63045D01*
X27576Y-65268D02*
X27498Y-65336D01*
X27347Y-65407D01*
X27274Y-65409D01*
X27232Y-65397D01*
X27178Y-65359D01*
X27153Y-65308D01*
X27159Y-65242D01*
X27178Y-65202D01*
X27226Y-65148D01*
X27335Y-65065D01*
X27383Y-65011D01*
X27401Y-64971D01*
X27407Y-64905D01*
X27383Y-64854D01*
X27329Y-64816D01*
X27286Y-64804D01*
X27214Y-64806D01*
X27063Y-64877D01*
X26984Y-64945D01*
X26761Y-65018D02*
X26591Y-65759D01*
X26338Y-65215D02*
X27014Y-65561D01*
X25975Y-65384D02*
X25915Y-65412D01*
X25867Y-65466D01*
X25848Y-65506D01*
X25842Y-65572D01*
X25860Y-65690D01*
X25921Y-65819D01*
X25999Y-65909D01*
X26054Y-65946D01*
X26096Y-65958D01*
X26168Y-65956D01*
X26229Y-65928D01*
X26277Y-65874D01*
X26295Y-65834D01*
X26301Y-65768D01*
X26283Y-65650D01*
X26223Y-65521D01*
X26144Y-65431D01*
X26090Y-65393D01*
X26048Y-65382D01*
X25975Y-65384D01*
X25721Y-66101D02*
X25703Y-66141D01*
X25746Y-66153D01*
X25764Y-66113D01*
X25721Y-66101D01*
X25746Y-66153D01*
X25589Y-65817D02*
X25570Y-65857D01*
X25613Y-65868D01*
X25631Y-65828D01*
X25589Y-65817D01*
X25613Y-65868D01*
X25244Y-65788D02*
X25202Y-65776D01*
X25129Y-65778D01*
X24978Y-65849D01*
X24930Y-65903D01*
X24912Y-65943D01*
X24906Y-66009D01*
X24930Y-66061D01*
X24996Y-66124D01*
X25504Y-66266D01*
X25111Y-66449D01*
G54D13*
X35646Y-13892D02*
X35213Y-13892D01*
X35446Y-14121D01*
X35346Y-14121D01*
X35280Y-14150D01*
X35246Y-14178D01*
X35213Y-14235D01*
X35213Y-14378D01*
X35246Y-14435D01*
X35280Y-14464D01*
X35346Y-14492D01*
X35546Y-14492D01*
X35613Y-14464D01*
X35646Y-14435D01*
X34913Y-14435D02*
X34880Y-14464D01*
X34913Y-14492D01*
X34946Y-14464D01*
X34913Y-14435D01*
X34913Y-14492D01*
X34246Y-13892D02*
X34580Y-13892D01*
X34613Y-14178D01*
X34580Y-14150D01*
X34513Y-14121D01*
X34346Y-14121D01*
X34280Y-14150D01*
X34246Y-14178D01*
X34213Y-14235D01*
X34213Y-14378D01*
X34246Y-14435D01*
X34280Y-14464D01*
X34346Y-14492D01*
X34513Y-14492D01*
X34580Y-14464D01*
X34613Y-14435D01*
X33913Y-14492D02*
X33913Y-14092D01*
X33913Y-14150D02*
X33880Y-14121D01*
X33813Y-14092D01*
X33713Y-14092D01*
X33646Y-14121D01*
X33613Y-14178D01*
X33613Y-14492D01*
X33613Y-14178D02*
X33580Y-14121D01*
X33513Y-14092D01*
X33413Y-14092D01*
X33346Y-14121D01*
X33313Y-14178D01*
X33313Y-14492D01*
X32980Y-14492D02*
X32980Y-14092D01*
X32980Y-14150D02*
X32946Y-14121D01*
X32880Y-14092D01*
X32780Y-14092D01*
X32713Y-14121D01*
X32680Y-14178D01*
X32680Y-14492D01*
X32680Y-14178D02*
X32646Y-14121D01*
X32580Y-14092D01*
X32480Y-14092D01*
X32413Y-14121D01*
X32380Y-14178D01*
X32380Y-14492D01*
G54D17*
X29933Y-27144D02*
X29833Y-27172D01*
X29666Y-27172D01*
X29600Y-27144D01*
X29566Y-27115D01*
X29533Y-27058D01*
X29533Y-27001D01*
X29566Y-26944D01*
X29600Y-26915D01*
X29666Y-26887D01*
X29800Y-26858D01*
X29866Y-26830D01*
X29900Y-26801D01*
X29933Y-26744D01*
X29933Y-26687D01*
X29900Y-26630D01*
X29866Y-26601D01*
X29800Y-26572D01*
X29633Y-26572D01*
X29533Y-26601D01*
X29300Y-26572D02*
X29133Y-27172D01*
X29000Y-26744D01*
X28866Y-27172D01*
X28700Y-26572D01*
X28100Y-26572D02*
X28433Y-26572D01*
X28466Y-26858D01*
X28433Y-26830D01*
X28366Y-26801D01*
X28200Y-26801D01*
X28133Y-26830D01*
X28100Y-26858D01*
X28066Y-26915D01*
X28066Y-27058D01*
X28100Y-27115D01*
X28133Y-27144D01*
X28200Y-27172D01*
X28366Y-27172D01*
X28433Y-27144D01*
X28466Y-27115D01*
X27766Y-27115D02*
X27733Y-27144D01*
X27766Y-27172D01*
X27800Y-27144D01*
X27766Y-27115D01*
X27766Y-27172D01*
X27766Y-26801D02*
X27733Y-26830D01*
X27766Y-26858D01*
X27800Y-26830D01*
X27766Y-26801D01*
X27766Y-26858D01*
X27133Y-26572D02*
X27266Y-26572D01*
X27333Y-26601D01*
X27366Y-26630D01*
X27433Y-26715D01*
X27466Y-26830D01*
X27466Y-27058D01*
X27433Y-27115D01*
X27400Y-27144D01*
X27333Y-27172D01*
X27200Y-27172D01*
X27133Y-27144D01*
X27100Y-27115D01*
X27066Y-27058D01*
X27066Y-26915D01*
X27100Y-26858D01*
X27133Y-26830D01*
X27200Y-26801D01*
X27333Y-26801D01*
X27400Y-26830D01*
X27433Y-26858D01*
X27466Y-26915D01*
X30014Y-33570D02*
X30042Y-33670D01*
X30042Y-33837D01*
X30014Y-33904D01*
X29985Y-33937D01*
X29928Y-33970D01*
X29871Y-33970D01*
X29814Y-33937D01*
X29785Y-33904D01*
X29757Y-33837D01*
X29728Y-33704D01*
X29700Y-33637D01*
X29671Y-33604D01*
X29614Y-33570D01*
X29557Y-33570D01*
X29500Y-33604D01*
X29471Y-33637D01*
X29442Y-33704D01*
X29442Y-33870D01*
X29471Y-33970D01*
X29442Y-34204D02*
X30042Y-34370D01*
X29614Y-34504D01*
X30042Y-34637D01*
X29442Y-34804D01*
X29642Y-35370D02*
X30042Y-35370D01*
X29414Y-35204D02*
X29842Y-35037D01*
X29842Y-35470D01*
X29985Y-35737D02*
X30014Y-35770D01*
X30042Y-35737D01*
X30014Y-35704D01*
X29985Y-35737D01*
X30042Y-35737D01*
X29671Y-35737D02*
X29700Y-35770D01*
X29728Y-35737D01*
X29700Y-35704D01*
X29671Y-35737D01*
X29728Y-35737D01*
X29442Y-36370D02*
X29442Y-36237D01*
X29471Y-36170D01*
X29500Y-36137D01*
X29585Y-36070D01*
X29700Y-36037D01*
X29928Y-36037D01*
X29985Y-36070D01*
X30014Y-36104D01*
X30042Y-36170D01*
X30042Y-36304D01*
X30014Y-36370D01*
X29985Y-36404D01*
X29928Y-36437D01*
X29785Y-36437D01*
X29728Y-36404D01*
X29700Y-36370D01*
X29671Y-36304D01*
X29671Y-36170D01*
X29700Y-36104D01*
X29728Y-36070D01*
X29785Y-36037D01*
X30014Y-44820D02*
X30042Y-44920D01*
X30042Y-45087D01*
X30014Y-45154D01*
X29985Y-45187D01*
X29928Y-45220D01*
X29871Y-45220D01*
X29814Y-45187D01*
X29785Y-45154D01*
X29757Y-45087D01*
X29728Y-44954D01*
X29700Y-44887D01*
X29671Y-44854D01*
X29614Y-44820D01*
X29557Y-44820D01*
X29500Y-44854D01*
X29471Y-44887D01*
X29442Y-44954D01*
X29442Y-45120D01*
X29471Y-45220D01*
X29442Y-45454D02*
X30042Y-45620D01*
X29614Y-45754D01*
X30042Y-45887D01*
X29442Y-46054D01*
X29500Y-46287D02*
X29471Y-46320D01*
X29442Y-46387D01*
X29442Y-46554D01*
X29471Y-46620D01*
X29500Y-46654D01*
X29557Y-46687D01*
X29614Y-46687D01*
X29700Y-46654D01*
X30042Y-46254D01*
X30042Y-46687D01*
X29985Y-46987D02*
X30014Y-47020D01*
X30042Y-46987D01*
X30014Y-46954D01*
X29985Y-46987D01*
X30042Y-46987D01*
X29671Y-46987D02*
X29700Y-47020D01*
X29728Y-46987D01*
X29700Y-46954D01*
X29671Y-46987D01*
X29728Y-46987D01*
X29442Y-47620D02*
X29442Y-47487D01*
X29471Y-47420D01*
X29500Y-47387D01*
X29585Y-47320D01*
X29700Y-47287D01*
X29928Y-47287D01*
X29985Y-47320D01*
X30014Y-47354D01*
X30042Y-47420D01*
X30042Y-47554D01*
X30014Y-47620D01*
X29985Y-47654D01*
X29928Y-47687D01*
X29785Y-47687D01*
X29728Y-47654D01*
X29700Y-47620D01*
X29671Y-47554D01*
X29671Y-47420D01*
X29700Y-47354D01*
X29728Y-47320D01*
X29785Y-47287D01*
X74933Y-57893D02*
X74833Y-57921D01*
X74666Y-57921D01*
X74600Y-57893D01*
X74566Y-57864D01*
X74533Y-57807D01*
X74533Y-57750D01*
X74566Y-57693D01*
X74600Y-57664D01*
X74666Y-57636D01*
X74800Y-57607D01*
X74866Y-57579D01*
X74900Y-57550D01*
X74933Y-57493D01*
X74933Y-57436D01*
X74900Y-57379D01*
X74866Y-57350D01*
X74800Y-57321D01*
X74633Y-57321D01*
X74533Y-57350D01*
X74300Y-57321D02*
X74133Y-57921D01*
X74000Y-57493D01*
X73866Y-57921D01*
X73700Y-57321D01*
X73066Y-57921D02*
X73466Y-57921D01*
X73266Y-57921D02*
X73266Y-57321D01*
X73333Y-57407D01*
X73400Y-57464D01*
X73466Y-57493D01*
X72766Y-57864D02*
X72733Y-57893D01*
X72766Y-57921D01*
X72800Y-57893D01*
X72766Y-57864D01*
X72766Y-57921D01*
X72766Y-57550D02*
X72733Y-57579D01*
X72766Y-57607D01*
X72800Y-57579D01*
X72766Y-57550D01*
X72766Y-57607D01*
X72300Y-57321D02*
X72233Y-57321D01*
X72166Y-57350D01*
X72133Y-57379D01*
X72100Y-57436D01*
X72066Y-57550D01*
X72066Y-57693D01*
X72100Y-57807D01*
X72133Y-57864D01*
X72166Y-57893D01*
X72233Y-57921D01*
X72300Y-57921D01*
X72366Y-57893D01*
X72400Y-57864D01*
X72433Y-57807D01*
X72466Y-57693D01*
X72466Y-57550D01*
X72433Y-57436D01*
X72400Y-57379D01*
X72366Y-57350D01*
X72300Y-57321D01*
X37433Y-34643D02*
X37333Y-34671D01*
X37166Y-34671D01*
X37100Y-34643D01*
X37066Y-34614D01*
X37033Y-34557D01*
X37033Y-34500D01*
X37066Y-34443D01*
X37100Y-34414D01*
X37166Y-34386D01*
X37300Y-34357D01*
X37366Y-34329D01*
X37400Y-34300D01*
X37433Y-34243D01*
X37433Y-34186D01*
X37400Y-34129D01*
X37366Y-34100D01*
X37300Y-34071D01*
X37133Y-34071D01*
X37033Y-34100D01*
X36800Y-34071D02*
X36633Y-34671D01*
X36500Y-34243D01*
X36366Y-34671D01*
X36200Y-34071D01*
X35633Y-34271D02*
X35633Y-34671D01*
X35800Y-34043D02*
X35966Y-34471D01*
X35533Y-34471D01*
X35266Y-34614D02*
X35233Y-34643D01*
X35266Y-34671D01*
X35300Y-34643D01*
X35266Y-34614D01*
X35266Y-34671D01*
X35266Y-34300D02*
X35233Y-34329D01*
X35266Y-34357D01*
X35300Y-34329D01*
X35266Y-34300D01*
X35266Y-34357D01*
X34600Y-34071D02*
X34933Y-34071D01*
X34966Y-34357D01*
X34933Y-34329D01*
X34866Y-34300D01*
X34700Y-34300D01*
X34633Y-34329D01*
X34600Y-34357D01*
X34566Y-34414D01*
X34566Y-34557D01*
X34600Y-34614D01*
X34633Y-34643D01*
X34700Y-34671D01*
X34866Y-34671D01*
X34933Y-34643D01*
X34966Y-34614D01*
X18769Y-63968D02*
X18690Y-64036D01*
X18539Y-64107D01*
X18466Y-64109D01*
X18424Y-64097D01*
X18370Y-64060D01*
X18346Y-64008D01*
X18352Y-63942D01*
X18370Y-63902D01*
X18418Y-63848D01*
X18527Y-63766D01*
X18575Y-63711D01*
X18593Y-63672D01*
X18599Y-63606D01*
X18575Y-63554D01*
X18521Y-63516D01*
X18479Y-63504D01*
X18406Y-63507D01*
X18255Y-63577D01*
X18177Y-63645D01*
X17953Y-63718D02*
X18056Y-64332D01*
X17754Y-64000D01*
X17814Y-64445D01*
X17409Y-63971D01*
X17047Y-64141D02*
X16986Y-64169D01*
X16938Y-64223D01*
X16920Y-64263D01*
X16914Y-64329D01*
X16932Y-64446D01*
X16992Y-64576D01*
X17071Y-64665D01*
X17125Y-64703D01*
X17167Y-64715D01*
X17240Y-64713D01*
X17300Y-64684D01*
X17349Y-64630D01*
X17367Y-64590D01*
X17373Y-64524D01*
X17355Y-64407D01*
X17294Y-64277D01*
X17216Y-64188D01*
X17161Y-64150D01*
X17119Y-64138D01*
X17047Y-64141D01*
X16793Y-64858D02*
X16775Y-64898D01*
X16817Y-64910D01*
X16835Y-64870D01*
X16793Y-64858D01*
X16817Y-64910D01*
X16660Y-64573D02*
X16642Y-64613D01*
X16684Y-64625D01*
X16702Y-64585D01*
X16660Y-64573D01*
X16684Y-64625D01*
X16074Y-64815D02*
X16243Y-65177D01*
X16128Y-64537D02*
X16460Y-64855D01*
X16068Y-65038D01*
X21939Y-70766D02*
X21860Y-70834D01*
X21709Y-70905D01*
X21636Y-70907D01*
X21594Y-70895D01*
X21540Y-70858D01*
X21516Y-70806D01*
X21522Y-70740D01*
X21540Y-70700D01*
X21588Y-70646D01*
X21697Y-70564D01*
X21745Y-70509D01*
X21763Y-70470D01*
X21769Y-70404D01*
X21745Y-70352D01*
X21691Y-70314D01*
X21649Y-70302D01*
X21576Y-70305D01*
X21425Y-70375D01*
X21347Y-70443D01*
X21123Y-70516D02*
X21226Y-71130D01*
X20924Y-70798D01*
X20984Y-71243D01*
X20579Y-70769D01*
X20217Y-70939D02*
X20156Y-70967D01*
X20108Y-71021D01*
X20090Y-71061D01*
X20084Y-71127D01*
X20102Y-71244D01*
X20162Y-71374D01*
X20241Y-71463D01*
X20295Y-71501D01*
X20337Y-71513D01*
X20410Y-71511D01*
X20470Y-71482D01*
X20519Y-71428D01*
X20537Y-71388D01*
X20543Y-71322D01*
X20525Y-71205D01*
X20464Y-71075D01*
X20386Y-70986D01*
X20331Y-70948D01*
X20289Y-70936D01*
X20217Y-70939D01*
X19963Y-71656D02*
X19945Y-71696D01*
X19987Y-71708D01*
X20005Y-71668D01*
X19963Y-71656D01*
X19987Y-71708D01*
X19830Y-71371D02*
X19812Y-71411D01*
X19854Y-71423D01*
X19872Y-71383D01*
X19830Y-71371D01*
X19854Y-71423D01*
X19352Y-72004D02*
X19715Y-71835D01*
X19534Y-71919D02*
X19280Y-71375D01*
X19377Y-71425D01*
X19461Y-71448D01*
X19534Y-71446D01*
X15600Y-57171D02*
X15521Y-57239D01*
X15370Y-57310D01*
X15297Y-57312D01*
X15255Y-57300D01*
X15201Y-57263D01*
X15177Y-57211D01*
X15183Y-57145D01*
X15201Y-57105D01*
X15249Y-57051D01*
X15358Y-56969D01*
X15406Y-56914D01*
X15424Y-56875D01*
X15430Y-56809D01*
X15406Y-56757D01*
X15352Y-56719D01*
X15310Y-56707D01*
X15237Y-56710D01*
X15086Y-56780D01*
X15008Y-56848D01*
X14784Y-56921D02*
X14887Y-57535D01*
X14585Y-57203D01*
X14645Y-57648D01*
X14240Y-57174D01*
X13878Y-57344D02*
X13817Y-57372D01*
X13769Y-57426D01*
X13751Y-57466D01*
X13745Y-57532D01*
X13763Y-57649D01*
X13823Y-57779D01*
X13902Y-57868D01*
X13956Y-57906D01*
X13998Y-57918D01*
X14071Y-57916D01*
X14131Y-57887D01*
X14180Y-57833D01*
X14198Y-57793D01*
X14204Y-57727D01*
X14186Y-57610D01*
X14125Y-57480D01*
X14047Y-57391D01*
X13992Y-57353D01*
X13950Y-57341D01*
X13878Y-57344D01*
X13624Y-58061D02*
X13606Y-58101D01*
X13648Y-58113D01*
X13666Y-58073D01*
X13624Y-58061D01*
X13648Y-58113D01*
X13491Y-57776D02*
X13473Y-57816D01*
X13515Y-57828D01*
X13533Y-57788D01*
X13491Y-57776D01*
X13515Y-57828D01*
X12820Y-57837D02*
X12941Y-57780D01*
X13014Y-57778D01*
X13056Y-57790D01*
X13153Y-57839D01*
X13231Y-57929D01*
X13328Y-58136D01*
X13322Y-58202D01*
X13304Y-58242D01*
X13255Y-58296D01*
X13134Y-58352D01*
X13062Y-58354D01*
X13020Y-58343D01*
X12965Y-58305D01*
X12905Y-58176D01*
X12911Y-58110D01*
X12929Y-58070D01*
X12977Y-58016D01*
X13098Y-57959D01*
X13171Y-57957D01*
X13213Y-57969D01*
X13267Y-58006D01*
X22397Y-54002D02*
X22318Y-54070D01*
X22167Y-54141D01*
X22094Y-54143D01*
X22052Y-54131D01*
X21998Y-54094D01*
X21974Y-54042D01*
X21980Y-53976D01*
X21998Y-53936D01*
X22046Y-53882D01*
X22155Y-53800D01*
X22203Y-53745D01*
X22221Y-53706D01*
X22227Y-53640D01*
X22203Y-53588D01*
X22149Y-53550D01*
X22107Y-53538D01*
X22034Y-53541D01*
X21883Y-53611D01*
X21805Y-53679D01*
X21581Y-53752D02*
X21684Y-54366D01*
X21382Y-54034D01*
X21442Y-54479D01*
X21037Y-54005D01*
X20675Y-54175D02*
X20614Y-54203D01*
X20566Y-54257D01*
X20548Y-54297D01*
X20542Y-54363D01*
X20560Y-54480D01*
X20620Y-54610D01*
X20699Y-54699D01*
X20753Y-54737D01*
X20795Y-54749D01*
X20868Y-54747D01*
X20928Y-54718D01*
X20977Y-54664D01*
X20995Y-54624D01*
X21001Y-54558D01*
X20983Y-54441D01*
X20922Y-54311D01*
X20844Y-54222D01*
X20789Y-54184D01*
X20747Y-54172D01*
X20675Y-54175D01*
X20421Y-54892D02*
X20403Y-54932D01*
X20445Y-54944D01*
X20463Y-54904D01*
X20421Y-54892D01*
X20445Y-54944D01*
X20288Y-54607D02*
X20270Y-54647D01*
X20312Y-54659D01*
X20330Y-54619D01*
X20288Y-54607D01*
X20312Y-54659D01*
X19587Y-54682D02*
X19889Y-54541D01*
X20040Y-54786D01*
X19998Y-54774D01*
X19925Y-54776D01*
X19774Y-54847D01*
X19726Y-54901D01*
X19708Y-54941D01*
X19702Y-55007D01*
X19762Y-55136D01*
X19817Y-55174D01*
X19859Y-55185D01*
X19931Y-55183D01*
X20082Y-55113D01*
X20131Y-55059D01*
X20149Y-55019D01*
X67433Y-27894D02*
X67333Y-27922D01*
X67166Y-27922D01*
X67100Y-27894D01*
X67066Y-27865D01*
X67033Y-27808D01*
X67033Y-27751D01*
X67066Y-27694D01*
X67100Y-27665D01*
X67166Y-27637D01*
X67300Y-27608D01*
X67366Y-27580D01*
X67400Y-27551D01*
X67433Y-27494D01*
X67433Y-27437D01*
X67400Y-27380D01*
X67366Y-27351D01*
X67300Y-27322D01*
X67133Y-27322D01*
X67033Y-27351D01*
X66800Y-27322D02*
X66633Y-27922D01*
X66500Y-27494D01*
X66366Y-27922D01*
X66200Y-27322D01*
X65600Y-27322D02*
X65933Y-27322D01*
X65966Y-27608D01*
X65933Y-27580D01*
X65866Y-27551D01*
X65700Y-27551D01*
X65633Y-27580D01*
X65600Y-27608D01*
X65566Y-27665D01*
X65566Y-27808D01*
X65600Y-27865D01*
X65633Y-27894D01*
X65700Y-27922D01*
X65866Y-27922D01*
X65933Y-27894D01*
X65966Y-27865D01*
X65266Y-27865D02*
X65233Y-27894D01*
X65266Y-27922D01*
X65300Y-27894D01*
X65266Y-27865D01*
X65266Y-27922D01*
X65266Y-27551D02*
X65233Y-27580D01*
X65266Y-27608D01*
X65300Y-27580D01*
X65266Y-27551D01*
X65266Y-27608D01*
X64566Y-27922D02*
X64966Y-27922D01*
X64766Y-27922D02*
X64766Y-27322D01*
X64833Y-27408D01*
X64900Y-27465D01*
X64966Y-27494D01*
X59933Y-26643D02*
X59833Y-26671D01*
X59666Y-26671D01*
X59600Y-26643D01*
X59566Y-26614D01*
X59533Y-26557D01*
X59533Y-26500D01*
X59566Y-26443D01*
X59600Y-26414D01*
X59666Y-26386D01*
X59800Y-26357D01*
X59866Y-26329D01*
X59900Y-26300D01*
X59933Y-26243D01*
X59933Y-26186D01*
X59900Y-26129D01*
X59866Y-26100D01*
X59800Y-26071D01*
X59633Y-26071D01*
X59533Y-26100D01*
X59300Y-26071D02*
X59133Y-26671D01*
X59000Y-26243D01*
X58866Y-26671D01*
X58700Y-26071D01*
X58100Y-26071D02*
X58433Y-26071D01*
X58466Y-26357D01*
X58433Y-26329D01*
X58366Y-26300D01*
X58200Y-26300D01*
X58133Y-26329D01*
X58100Y-26357D01*
X58066Y-26414D01*
X58066Y-26557D01*
X58100Y-26614D01*
X58133Y-26643D01*
X58200Y-26671D01*
X58366Y-26671D01*
X58433Y-26643D01*
X58466Y-26614D01*
X57766Y-26614D02*
X57733Y-26643D01*
X57766Y-26671D01*
X57800Y-26643D01*
X57766Y-26614D01*
X57766Y-26671D01*
X57766Y-26300D02*
X57733Y-26329D01*
X57766Y-26357D01*
X57800Y-26329D01*
X57766Y-26300D01*
X57766Y-26357D01*
X57466Y-26129D02*
X57433Y-26100D01*
X57366Y-26071D01*
X57200Y-26071D01*
X57133Y-26100D01*
X57100Y-26129D01*
X57066Y-26186D01*
X57066Y-26243D01*
X57100Y-26329D01*
X57500Y-26671D01*
X57066Y-26671D01*
X52433Y-26014D02*
X52333Y-26042D01*
X52166Y-26042D01*
X52100Y-26014D01*
X52066Y-25985D01*
X52033Y-25928D01*
X52033Y-25871D01*
X52066Y-25814D01*
X52100Y-25785D01*
X52166Y-25757D01*
X52300Y-25728D01*
X52366Y-25700D01*
X52400Y-25671D01*
X52433Y-25614D01*
X52433Y-25557D01*
X52400Y-25500D01*
X52366Y-25471D01*
X52300Y-25442D01*
X52133Y-25442D01*
X52033Y-25471D01*
X51800Y-25442D02*
X51633Y-26042D01*
X51500Y-25614D01*
X51366Y-26042D01*
X51200Y-25442D01*
X50600Y-25442D02*
X50933Y-25442D01*
X50966Y-25728D01*
X50933Y-25700D01*
X50866Y-25671D01*
X50700Y-25671D01*
X50633Y-25700D01*
X50600Y-25728D01*
X50566Y-25785D01*
X50566Y-25928D01*
X50600Y-25985D01*
X50633Y-26014D01*
X50700Y-26042D01*
X50866Y-26042D01*
X50933Y-26014D01*
X50966Y-25985D01*
X50266Y-25985D02*
X50233Y-26014D01*
X50266Y-26042D01*
X50300Y-26014D01*
X50266Y-25985D01*
X50266Y-26042D01*
X50266Y-25671D02*
X50233Y-25700D01*
X50266Y-25728D01*
X50300Y-25700D01*
X50266Y-25671D01*
X50266Y-25728D01*
X50000Y-25442D02*
X49566Y-25442D01*
X49800Y-25671D01*
X49700Y-25671D01*
X49633Y-25700D01*
X49600Y-25728D01*
X49566Y-25785D01*
X49566Y-25928D01*
X49600Y-25985D01*
X49633Y-26014D01*
X49700Y-26042D01*
X49900Y-26042D01*
X49966Y-26014D01*
X50000Y-25985D01*
X44933Y-26643D02*
X44833Y-26671D01*
X44666Y-26671D01*
X44600Y-26643D01*
X44566Y-26614D01*
X44533Y-26557D01*
X44533Y-26500D01*
X44566Y-26443D01*
X44600Y-26414D01*
X44666Y-26386D01*
X44800Y-26357D01*
X44866Y-26329D01*
X44900Y-26300D01*
X44933Y-26243D01*
X44933Y-26186D01*
X44900Y-26129D01*
X44866Y-26100D01*
X44800Y-26071D01*
X44633Y-26071D01*
X44533Y-26100D01*
X44300Y-26071D02*
X44133Y-26671D01*
X44000Y-26243D01*
X43866Y-26671D01*
X43700Y-26071D01*
X43100Y-26071D02*
X43433Y-26071D01*
X43466Y-26357D01*
X43433Y-26329D01*
X43366Y-26300D01*
X43200Y-26300D01*
X43133Y-26329D01*
X43100Y-26357D01*
X43066Y-26414D01*
X43066Y-26557D01*
X43100Y-26614D01*
X43133Y-26643D01*
X43200Y-26671D01*
X43366Y-26671D01*
X43433Y-26643D01*
X43466Y-26614D01*
X42766Y-26614D02*
X42733Y-26643D01*
X42766Y-26671D01*
X42800Y-26643D01*
X42766Y-26614D01*
X42766Y-26671D01*
X42766Y-26300D02*
X42733Y-26329D01*
X42766Y-26357D01*
X42800Y-26329D01*
X42766Y-26300D01*
X42766Y-26357D01*
X42133Y-26271D02*
X42133Y-26671D01*
X42300Y-26043D02*
X42466Y-26471D01*
X42033Y-26471D01*
X59933Y-56643D02*
X59833Y-56671D01*
X59666Y-56671D01*
X59600Y-56643D01*
X59566Y-56614D01*
X59533Y-56557D01*
X59533Y-56500D01*
X59566Y-56443D01*
X59600Y-56414D01*
X59666Y-56386D01*
X59800Y-56357D01*
X59866Y-56329D01*
X59900Y-56300D01*
X59933Y-56243D01*
X59933Y-56186D01*
X59900Y-56129D01*
X59866Y-56100D01*
X59800Y-56071D01*
X59633Y-56071D01*
X59533Y-56100D01*
X59300Y-56071D02*
X59133Y-56671D01*
X59000Y-56243D01*
X58866Y-56671D01*
X58700Y-56071D01*
X58066Y-56671D02*
X58466Y-56671D01*
X58266Y-56671D02*
X58266Y-56071D01*
X58333Y-56157D01*
X58400Y-56214D01*
X58466Y-56243D01*
X57766Y-56614D02*
X57733Y-56643D01*
X57766Y-56671D01*
X57800Y-56643D01*
X57766Y-56614D01*
X57766Y-56671D01*
X57766Y-56300D02*
X57733Y-56329D01*
X57766Y-56357D01*
X57800Y-56329D01*
X57766Y-56300D01*
X57766Y-56357D01*
X57466Y-56129D02*
X57433Y-56100D01*
X57366Y-56071D01*
X57200Y-56071D01*
X57133Y-56100D01*
X57100Y-56129D01*
X57066Y-56186D01*
X57066Y-56243D01*
X57100Y-56329D01*
X57500Y-56671D01*
X57066Y-56671D01*
X67433Y-35393D02*
X67333Y-35421D01*
X67166Y-35421D01*
X67100Y-35393D01*
X67066Y-35364D01*
X67033Y-35307D01*
X67033Y-35250D01*
X67066Y-35193D01*
X67100Y-35164D01*
X67166Y-35136D01*
X67300Y-35107D01*
X67366Y-35079D01*
X67400Y-35050D01*
X67433Y-34993D01*
X67433Y-34936D01*
X67400Y-34879D01*
X67366Y-34850D01*
X67300Y-34821D01*
X67133Y-34821D01*
X67033Y-34850D01*
X66800Y-34821D02*
X66633Y-35421D01*
X66500Y-34993D01*
X66366Y-35421D01*
X66200Y-34821D01*
X65633Y-35021D02*
X65633Y-35421D01*
X65800Y-34793D02*
X65966Y-35221D01*
X65533Y-35221D01*
X65266Y-35364D02*
X65233Y-35393D01*
X65266Y-35421D01*
X65300Y-35393D01*
X65266Y-35364D01*
X65266Y-35421D01*
X65266Y-35050D02*
X65233Y-35079D01*
X65266Y-35107D01*
X65300Y-35079D01*
X65266Y-35050D01*
X65266Y-35107D01*
X64566Y-35421D02*
X64966Y-35421D01*
X64766Y-35421D02*
X64766Y-34821D01*
X64833Y-34907D01*
X64900Y-34964D01*
X64966Y-34993D01*
X52433Y-33514D02*
X52333Y-33542D01*
X52166Y-33542D01*
X52100Y-33514D01*
X52066Y-33485D01*
X52033Y-33428D01*
X52033Y-33371D01*
X52066Y-33314D01*
X52100Y-33285D01*
X52166Y-33257D01*
X52300Y-33228D01*
X52366Y-33200D01*
X52400Y-33171D01*
X52433Y-33114D01*
X52433Y-33057D01*
X52400Y-33000D01*
X52366Y-32971D01*
X52300Y-32942D01*
X52133Y-32942D01*
X52033Y-32971D01*
X51800Y-32942D02*
X51633Y-33542D01*
X51500Y-33114D01*
X51366Y-33542D01*
X51200Y-32942D01*
X50633Y-33142D02*
X50633Y-33542D01*
X50800Y-32914D02*
X50966Y-33342D01*
X50533Y-33342D01*
X50266Y-33485D02*
X50233Y-33514D01*
X50266Y-33542D01*
X50300Y-33514D01*
X50266Y-33485D01*
X50266Y-33542D01*
X50266Y-33171D02*
X50233Y-33200D01*
X50266Y-33228D01*
X50300Y-33200D01*
X50266Y-33171D01*
X50266Y-33228D01*
X50000Y-32942D02*
X49566Y-32942D01*
X49800Y-33171D01*
X49700Y-33171D01*
X49633Y-33200D01*
X49600Y-33228D01*
X49566Y-33285D01*
X49566Y-33428D01*
X49600Y-33485D01*
X49633Y-33514D01*
X49700Y-33542D01*
X49900Y-33542D01*
X49966Y-33514D01*
X50000Y-33485D01*
X44933Y-34143D02*
X44833Y-34171D01*
X44666Y-34171D01*
X44600Y-34143D01*
X44566Y-34114D01*
X44533Y-34057D01*
X44533Y-34000D01*
X44566Y-33943D01*
X44600Y-33914D01*
X44666Y-33886D01*
X44800Y-33857D01*
X44866Y-33829D01*
X44900Y-33800D01*
X44933Y-33743D01*
X44933Y-33686D01*
X44900Y-33629D01*
X44866Y-33600D01*
X44800Y-33571D01*
X44633Y-33571D01*
X44533Y-33600D01*
X44300Y-33571D02*
X44133Y-34171D01*
X44000Y-33743D01*
X43866Y-34171D01*
X43700Y-33571D01*
X43133Y-33771D02*
X43133Y-34171D01*
X43300Y-33543D02*
X43466Y-33971D01*
X43033Y-33971D01*
X42766Y-34114D02*
X42733Y-34143D01*
X42766Y-34171D01*
X42800Y-34143D01*
X42766Y-34114D01*
X42766Y-34171D01*
X42766Y-33800D02*
X42733Y-33829D01*
X42766Y-33857D01*
X42800Y-33829D01*
X42766Y-33800D01*
X42766Y-33857D01*
X42133Y-33771D02*
X42133Y-34171D01*
X42300Y-33543D02*
X42466Y-33971D01*
X42033Y-33971D01*
X67433Y-42893D02*
X67333Y-42921D01*
X67166Y-42921D01*
X67100Y-42893D01*
X67066Y-42864D01*
X67033Y-42807D01*
X67033Y-42750D01*
X67066Y-42693D01*
X67100Y-42664D01*
X67166Y-42636D01*
X67300Y-42607D01*
X67366Y-42579D01*
X67400Y-42550D01*
X67433Y-42493D01*
X67433Y-42436D01*
X67400Y-42379D01*
X67366Y-42350D01*
X67300Y-42321D01*
X67133Y-42321D01*
X67033Y-42350D01*
X66800Y-42321D02*
X66633Y-42921D01*
X66500Y-42493D01*
X66366Y-42921D01*
X66200Y-42321D01*
X66000Y-42321D02*
X65566Y-42321D01*
X65800Y-42550D01*
X65700Y-42550D01*
X65633Y-42579D01*
X65600Y-42607D01*
X65566Y-42664D01*
X65566Y-42807D01*
X65600Y-42864D01*
X65633Y-42893D01*
X65700Y-42921D01*
X65900Y-42921D01*
X65966Y-42893D01*
X66000Y-42864D01*
X65266Y-42864D02*
X65233Y-42893D01*
X65266Y-42921D01*
X65300Y-42893D01*
X65266Y-42864D01*
X65266Y-42921D01*
X65266Y-42550D02*
X65233Y-42579D01*
X65266Y-42607D01*
X65300Y-42579D01*
X65266Y-42550D01*
X65266Y-42607D01*
X64566Y-42921D02*
X64966Y-42921D01*
X64766Y-42921D02*
X64766Y-42321D01*
X64833Y-42407D01*
X64900Y-42464D01*
X64966Y-42493D01*
X59933Y-41643D02*
X59833Y-41671D01*
X59666Y-41671D01*
X59600Y-41643D01*
X59566Y-41614D01*
X59533Y-41557D01*
X59533Y-41500D01*
X59566Y-41443D01*
X59600Y-41414D01*
X59666Y-41386D01*
X59800Y-41357D01*
X59866Y-41329D01*
X59900Y-41300D01*
X59933Y-41243D01*
X59933Y-41186D01*
X59900Y-41129D01*
X59866Y-41100D01*
X59800Y-41071D01*
X59633Y-41071D01*
X59533Y-41100D01*
X59300Y-41071D02*
X59133Y-41671D01*
X59000Y-41243D01*
X58866Y-41671D01*
X58700Y-41071D01*
X58500Y-41071D02*
X58066Y-41071D01*
X58300Y-41300D01*
X58200Y-41300D01*
X58133Y-41329D01*
X58100Y-41357D01*
X58066Y-41414D01*
X58066Y-41557D01*
X58100Y-41614D01*
X58133Y-41643D01*
X58200Y-41671D01*
X58400Y-41671D01*
X58466Y-41643D01*
X58500Y-41614D01*
X57766Y-41614D02*
X57733Y-41643D01*
X57766Y-41671D01*
X57800Y-41643D01*
X57766Y-41614D01*
X57766Y-41671D01*
X57766Y-41300D02*
X57733Y-41329D01*
X57766Y-41357D01*
X57800Y-41329D01*
X57766Y-41300D01*
X57766Y-41357D01*
X57466Y-41129D02*
X57433Y-41100D01*
X57366Y-41071D01*
X57200Y-41071D01*
X57133Y-41100D01*
X57100Y-41129D01*
X57066Y-41186D01*
X57066Y-41243D01*
X57100Y-41329D01*
X57500Y-41671D01*
X57066Y-41671D01*
X52433Y-41014D02*
X52333Y-41042D01*
X52166Y-41042D01*
X52100Y-41014D01*
X52066Y-40985D01*
X52033Y-40928D01*
X52033Y-40871D01*
X52066Y-40814D01*
X52100Y-40785D01*
X52166Y-40757D01*
X52300Y-40728D01*
X52366Y-40700D01*
X52400Y-40671D01*
X52433Y-40614D01*
X52433Y-40557D01*
X52400Y-40500D01*
X52366Y-40471D01*
X52300Y-40442D01*
X52133Y-40442D01*
X52033Y-40471D01*
X51800Y-40442D02*
X51633Y-41042D01*
X51500Y-40614D01*
X51366Y-41042D01*
X51200Y-40442D01*
X51000Y-40442D02*
X50566Y-40442D01*
X50800Y-40671D01*
X50700Y-40671D01*
X50633Y-40700D01*
X50600Y-40728D01*
X50566Y-40785D01*
X50566Y-40928D01*
X50600Y-40985D01*
X50633Y-41014D01*
X50700Y-41042D01*
X50900Y-41042D01*
X50966Y-41014D01*
X51000Y-40985D01*
X50266Y-40985D02*
X50233Y-41014D01*
X50266Y-41042D01*
X50300Y-41014D01*
X50266Y-40985D01*
X50266Y-41042D01*
X50266Y-40671D02*
X50233Y-40700D01*
X50266Y-40728D01*
X50300Y-40700D01*
X50266Y-40671D01*
X50266Y-40728D01*
X50000Y-40442D02*
X49566Y-40442D01*
X49800Y-40671D01*
X49700Y-40671D01*
X49633Y-40700D01*
X49600Y-40728D01*
X49566Y-40785D01*
X49566Y-40928D01*
X49600Y-40985D01*
X49633Y-41014D01*
X49700Y-41042D01*
X49900Y-41042D01*
X49966Y-41014D01*
X50000Y-40985D01*
X44933Y-41643D02*
X44833Y-41671D01*
X44666Y-41671D01*
X44600Y-41643D01*
X44566Y-41614D01*
X44533Y-41557D01*
X44533Y-41500D01*
X44566Y-41443D01*
X44600Y-41414D01*
X44666Y-41386D01*
X44800Y-41357D01*
X44866Y-41329D01*
X44900Y-41300D01*
X44933Y-41243D01*
X44933Y-41186D01*
X44900Y-41129D01*
X44866Y-41100D01*
X44800Y-41071D01*
X44633Y-41071D01*
X44533Y-41100D01*
X44300Y-41071D02*
X44133Y-41671D01*
X44000Y-41243D01*
X43866Y-41671D01*
X43700Y-41071D01*
X43500Y-41071D02*
X43066Y-41071D01*
X43300Y-41300D01*
X43200Y-41300D01*
X43133Y-41329D01*
X43100Y-41357D01*
X43066Y-41414D01*
X43066Y-41557D01*
X43100Y-41614D01*
X43133Y-41643D01*
X43200Y-41671D01*
X43400Y-41671D01*
X43466Y-41643D01*
X43500Y-41614D01*
X42766Y-41614D02*
X42733Y-41643D01*
X42766Y-41671D01*
X42800Y-41643D01*
X42766Y-41614D01*
X42766Y-41671D01*
X42766Y-41300D02*
X42733Y-41329D01*
X42766Y-41357D01*
X42800Y-41329D01*
X42766Y-41300D01*
X42766Y-41357D01*
X42133Y-41271D02*
X42133Y-41671D01*
X42300Y-41043D02*
X42466Y-41471D01*
X42033Y-41471D01*
X37433Y-42143D02*
X37333Y-42171D01*
X37166Y-42171D01*
X37100Y-42143D01*
X37066Y-42114D01*
X37033Y-42057D01*
X37033Y-42000D01*
X37066Y-41943D01*
X37100Y-41914D01*
X37166Y-41886D01*
X37300Y-41857D01*
X37366Y-41829D01*
X37400Y-41800D01*
X37433Y-41743D01*
X37433Y-41686D01*
X37400Y-41629D01*
X37366Y-41600D01*
X37300Y-41571D01*
X37133Y-41571D01*
X37033Y-41600D01*
X36800Y-41571D02*
X36633Y-42171D01*
X36500Y-41743D01*
X36366Y-42171D01*
X36200Y-41571D01*
X36000Y-41571D02*
X35566Y-41571D01*
X35800Y-41800D01*
X35700Y-41800D01*
X35633Y-41829D01*
X35600Y-41857D01*
X35566Y-41914D01*
X35566Y-42057D01*
X35600Y-42114D01*
X35633Y-42143D01*
X35700Y-42171D01*
X35900Y-42171D01*
X35966Y-42143D01*
X36000Y-42114D01*
X35266Y-42114D02*
X35233Y-42143D01*
X35266Y-42171D01*
X35300Y-42143D01*
X35266Y-42114D01*
X35266Y-42171D01*
X35266Y-41800D02*
X35233Y-41829D01*
X35266Y-41857D01*
X35300Y-41829D01*
X35266Y-41800D01*
X35266Y-41857D01*
X34600Y-41571D02*
X34933Y-41571D01*
X34966Y-41857D01*
X34933Y-41829D01*
X34866Y-41800D01*
X34700Y-41800D01*
X34633Y-41829D01*
X34600Y-41857D01*
X34566Y-41914D01*
X34566Y-42057D01*
X34600Y-42114D01*
X34633Y-42143D01*
X34700Y-42171D01*
X34866Y-42171D01*
X34933Y-42143D01*
X34966Y-42114D01*
X67433Y-50393D02*
X67333Y-50421D01*
X67166Y-50421D01*
X67100Y-50393D01*
X67066Y-50364D01*
X67033Y-50307D01*
X67033Y-50250D01*
X67066Y-50193D01*
X67100Y-50164D01*
X67166Y-50136D01*
X67300Y-50107D01*
X67366Y-50079D01*
X67400Y-50050D01*
X67433Y-49993D01*
X67433Y-49936D01*
X67400Y-49879D01*
X67366Y-49850D01*
X67300Y-49821D01*
X67133Y-49821D01*
X67033Y-49850D01*
X66800Y-49821D02*
X66633Y-50421D01*
X66500Y-49993D01*
X66366Y-50421D01*
X66200Y-49821D01*
X65966Y-49879D02*
X65933Y-49850D01*
X65866Y-49821D01*
X65700Y-49821D01*
X65633Y-49850D01*
X65600Y-49879D01*
X65566Y-49936D01*
X65566Y-49993D01*
X65600Y-50079D01*
X66000Y-50421D01*
X65566Y-50421D01*
X65266Y-50364D02*
X65233Y-50393D01*
X65266Y-50421D01*
X65300Y-50393D01*
X65266Y-50364D01*
X65266Y-50421D01*
X65266Y-50050D02*
X65233Y-50079D01*
X65266Y-50107D01*
X65300Y-50079D01*
X65266Y-50050D01*
X65266Y-50107D01*
X64566Y-50421D02*
X64966Y-50421D01*
X64766Y-50421D02*
X64766Y-49821D01*
X64833Y-49907D01*
X64900Y-49964D01*
X64966Y-49993D01*
X59933Y-49143D02*
X59833Y-49171D01*
X59666Y-49171D01*
X59600Y-49143D01*
X59566Y-49114D01*
X59533Y-49057D01*
X59533Y-49000D01*
X59566Y-48943D01*
X59600Y-48914D01*
X59666Y-48886D01*
X59800Y-48857D01*
X59866Y-48829D01*
X59900Y-48800D01*
X59933Y-48743D01*
X59933Y-48686D01*
X59900Y-48629D01*
X59866Y-48600D01*
X59800Y-48571D01*
X59633Y-48571D01*
X59533Y-48600D01*
X59300Y-48571D02*
X59133Y-49171D01*
X59000Y-48743D01*
X58866Y-49171D01*
X58700Y-48571D01*
X58466Y-48629D02*
X58433Y-48600D01*
X58366Y-48571D01*
X58200Y-48571D01*
X58133Y-48600D01*
X58100Y-48629D01*
X58066Y-48686D01*
X58066Y-48743D01*
X58100Y-48829D01*
X58500Y-49171D01*
X58066Y-49171D01*
X57766Y-49114D02*
X57733Y-49143D01*
X57766Y-49171D01*
X57800Y-49143D01*
X57766Y-49114D01*
X57766Y-49171D01*
X57766Y-48800D02*
X57733Y-48829D01*
X57766Y-48857D01*
X57800Y-48829D01*
X57766Y-48800D01*
X57766Y-48857D01*
X57466Y-48629D02*
X57433Y-48600D01*
X57366Y-48571D01*
X57200Y-48571D01*
X57133Y-48600D01*
X57100Y-48629D01*
X57066Y-48686D01*
X57066Y-48743D01*
X57100Y-48829D01*
X57500Y-49171D01*
X57066Y-49171D01*
X52433Y-48514D02*
X52333Y-48542D01*
X52166Y-48542D01*
X52100Y-48514D01*
X52066Y-48485D01*
X52033Y-48428D01*
X52033Y-48371D01*
X52066Y-48314D01*
X52100Y-48285D01*
X52166Y-48257D01*
X52300Y-48228D01*
X52366Y-48200D01*
X52400Y-48171D01*
X52433Y-48114D01*
X52433Y-48057D01*
X52400Y-48000D01*
X52366Y-47971D01*
X52300Y-47942D01*
X52133Y-47942D01*
X52033Y-47971D01*
X51800Y-47942D02*
X51633Y-48542D01*
X51500Y-48114D01*
X51366Y-48542D01*
X51200Y-47942D01*
X50966Y-48000D02*
X50933Y-47971D01*
X50866Y-47942D01*
X50700Y-47942D01*
X50633Y-47971D01*
X50600Y-48000D01*
X50566Y-48057D01*
X50566Y-48114D01*
X50600Y-48200D01*
X51000Y-48542D01*
X50566Y-48542D01*
X50266Y-48485D02*
X50233Y-48514D01*
X50266Y-48542D01*
X50300Y-48514D01*
X50266Y-48485D01*
X50266Y-48542D01*
X50266Y-48171D02*
X50233Y-48200D01*
X50266Y-48228D01*
X50300Y-48200D01*
X50266Y-48171D01*
X50266Y-48228D01*
X50000Y-47942D02*
X49566Y-47942D01*
X49800Y-48171D01*
X49700Y-48171D01*
X49633Y-48200D01*
X49600Y-48228D01*
X49566Y-48285D01*
X49566Y-48428D01*
X49600Y-48485D01*
X49633Y-48514D01*
X49700Y-48542D01*
X49900Y-48542D01*
X49966Y-48514D01*
X50000Y-48485D01*
X44933Y-49143D02*
X44833Y-49171D01*
X44666Y-49171D01*
X44600Y-49143D01*
X44566Y-49114D01*
X44533Y-49057D01*
X44533Y-49000D01*
X44566Y-48943D01*
X44600Y-48914D01*
X44666Y-48886D01*
X44800Y-48857D01*
X44866Y-48829D01*
X44900Y-48800D01*
X44933Y-48743D01*
X44933Y-48686D01*
X44900Y-48629D01*
X44866Y-48600D01*
X44800Y-48571D01*
X44633Y-48571D01*
X44533Y-48600D01*
X44300Y-48571D02*
X44133Y-49171D01*
X44000Y-48743D01*
X43866Y-49171D01*
X43700Y-48571D01*
X43466Y-48629D02*
X43433Y-48600D01*
X43366Y-48571D01*
X43200Y-48571D01*
X43133Y-48600D01*
X43100Y-48629D01*
X43066Y-48686D01*
X43066Y-48743D01*
X43100Y-48829D01*
X43500Y-49171D01*
X43066Y-49171D01*
X42766Y-49114D02*
X42733Y-49143D01*
X42766Y-49171D01*
X42800Y-49143D01*
X42766Y-49114D01*
X42766Y-49171D01*
X42766Y-48800D02*
X42733Y-48829D01*
X42766Y-48857D01*
X42800Y-48829D01*
X42766Y-48800D01*
X42766Y-48857D01*
X42133Y-48771D02*
X42133Y-49171D01*
X42300Y-48543D02*
X42466Y-48971D01*
X42033Y-48971D01*
X37433Y-49643D02*
X37333Y-49671D01*
X37166Y-49671D01*
X37100Y-49643D01*
X37066Y-49614D01*
X37033Y-49557D01*
X37033Y-49500D01*
X37066Y-49443D01*
X37100Y-49414D01*
X37166Y-49386D01*
X37300Y-49357D01*
X37366Y-49329D01*
X37400Y-49300D01*
X37433Y-49243D01*
X37433Y-49186D01*
X37400Y-49129D01*
X37366Y-49100D01*
X37300Y-49071D01*
X37133Y-49071D01*
X37033Y-49100D01*
X36800Y-49071D02*
X36633Y-49671D01*
X36500Y-49243D01*
X36366Y-49671D01*
X36200Y-49071D01*
X35966Y-49129D02*
X35933Y-49100D01*
X35866Y-49071D01*
X35700Y-49071D01*
X35633Y-49100D01*
X35600Y-49129D01*
X35566Y-49186D01*
X35566Y-49243D01*
X35600Y-49329D01*
X36000Y-49671D01*
X35566Y-49671D01*
X35266Y-49614D02*
X35233Y-49643D01*
X35266Y-49671D01*
X35300Y-49643D01*
X35266Y-49614D01*
X35266Y-49671D01*
X35266Y-49300D02*
X35233Y-49329D01*
X35266Y-49357D01*
X35300Y-49329D01*
X35266Y-49300D01*
X35266Y-49357D01*
X34600Y-49071D02*
X34933Y-49071D01*
X34966Y-49357D01*
X34933Y-49329D01*
X34866Y-49300D01*
X34700Y-49300D01*
X34633Y-49329D01*
X34600Y-49357D01*
X34566Y-49414D01*
X34566Y-49557D01*
X34600Y-49614D01*
X34633Y-49643D01*
X34700Y-49671D01*
X34866Y-49671D01*
X34933Y-49643D01*
X34966Y-49614D01*
X67433Y-57893D02*
X67333Y-57921D01*
X67166Y-57921D01*
X67100Y-57893D01*
X67066Y-57864D01*
X67033Y-57807D01*
X67033Y-57750D01*
X67066Y-57693D01*
X67100Y-57664D01*
X67166Y-57636D01*
X67300Y-57607D01*
X67366Y-57579D01*
X67400Y-57550D01*
X67433Y-57493D01*
X67433Y-57436D01*
X67400Y-57379D01*
X67366Y-57350D01*
X67300Y-57321D01*
X67133Y-57321D01*
X67033Y-57350D01*
X66800Y-57321D02*
X66633Y-57921D01*
X66500Y-57493D01*
X66366Y-57921D01*
X66200Y-57321D01*
X65566Y-57921D02*
X65966Y-57921D01*
X65766Y-57921D02*
X65766Y-57321D01*
X65833Y-57407D01*
X65900Y-57464D01*
X65966Y-57493D01*
X65266Y-57864D02*
X65233Y-57893D01*
X65266Y-57921D01*
X65300Y-57893D01*
X65266Y-57864D01*
X65266Y-57921D01*
X65266Y-57550D02*
X65233Y-57579D01*
X65266Y-57607D01*
X65300Y-57579D01*
X65266Y-57550D01*
X65266Y-57607D01*
X64566Y-57921D02*
X64966Y-57921D01*
X64766Y-57921D02*
X64766Y-57321D01*
X64833Y-57407D01*
X64900Y-57464D01*
X64966Y-57493D01*
X52433Y-56014D02*
X52333Y-56042D01*
X52166Y-56042D01*
X52100Y-56014D01*
X52066Y-55985D01*
X52033Y-55928D01*
X52033Y-55871D01*
X52066Y-55814D01*
X52100Y-55785D01*
X52166Y-55757D01*
X52300Y-55728D01*
X52366Y-55700D01*
X52400Y-55671D01*
X52433Y-55614D01*
X52433Y-55557D01*
X52400Y-55500D01*
X52366Y-55471D01*
X52300Y-55442D01*
X52133Y-55442D01*
X52033Y-55471D01*
X51800Y-55442D02*
X51633Y-56042D01*
X51500Y-55614D01*
X51366Y-56042D01*
X51200Y-55442D01*
X50566Y-56042D02*
X50966Y-56042D01*
X50766Y-56042D02*
X50766Y-55442D01*
X50833Y-55528D01*
X50900Y-55585D01*
X50966Y-55614D01*
X50266Y-55985D02*
X50233Y-56014D01*
X50266Y-56042D01*
X50300Y-56014D01*
X50266Y-55985D01*
X50266Y-56042D01*
X50266Y-55671D02*
X50233Y-55700D01*
X50266Y-55728D01*
X50300Y-55700D01*
X50266Y-55671D01*
X50266Y-55728D01*
X50000Y-55442D02*
X49566Y-55442D01*
X49800Y-55671D01*
X49700Y-55671D01*
X49633Y-55700D01*
X49600Y-55728D01*
X49566Y-55785D01*
X49566Y-55928D01*
X49600Y-55985D01*
X49633Y-56014D01*
X49700Y-56042D01*
X49900Y-56042D01*
X49966Y-56014D01*
X50000Y-55985D01*
X44933Y-56643D02*
X44833Y-56671D01*
X44666Y-56671D01*
X44600Y-56643D01*
X44566Y-56614D01*
X44533Y-56557D01*
X44533Y-56500D01*
X44566Y-56443D01*
X44600Y-56414D01*
X44666Y-56386D01*
X44800Y-56357D01*
X44866Y-56329D01*
X44900Y-56300D01*
X44933Y-56243D01*
X44933Y-56186D01*
X44900Y-56129D01*
X44866Y-56100D01*
X44800Y-56071D01*
X44633Y-56071D01*
X44533Y-56100D01*
X44300Y-56071D02*
X44133Y-56671D01*
X44000Y-56243D01*
X43866Y-56671D01*
X43700Y-56071D01*
X43066Y-56671D02*
X43466Y-56671D01*
X43266Y-56671D02*
X43266Y-56071D01*
X43333Y-56157D01*
X43400Y-56214D01*
X43466Y-56243D01*
X42766Y-56614D02*
X42733Y-56643D01*
X42766Y-56671D01*
X42800Y-56643D01*
X42766Y-56614D01*
X42766Y-56671D01*
X42766Y-56300D02*
X42733Y-56329D01*
X42766Y-56357D01*
X42800Y-56329D01*
X42766Y-56300D01*
X42766Y-56357D01*
X42133Y-56271D02*
X42133Y-56671D01*
X42300Y-56043D02*
X42466Y-56471D01*
X42033Y-56471D01*
X33598Y-61102D02*
X33530Y-61023D01*
X33460Y-60872D01*
X33457Y-60800D01*
X33469Y-60757D01*
X33507Y-60703D01*
X33559Y-60679D01*
X33625Y-60685D01*
X33665Y-60703D01*
X33719Y-60751D01*
X33801Y-60860D01*
X33855Y-60908D01*
X33895Y-60927D01*
X33961Y-60933D01*
X34013Y-60909D01*
X34050Y-60854D01*
X34062Y-60812D01*
X34060Y-60739D01*
X33989Y-60588D01*
X33921Y-60510D01*
X33848Y-60286D02*
X33234Y-60389D01*
X33566Y-60087D01*
X33122Y-60147D01*
X33595Y-59742D01*
X33426Y-59380D02*
X33398Y-59319D01*
X33344Y-59271D01*
X33304Y-59253D01*
X33238Y-59247D01*
X33120Y-59265D01*
X32991Y-59325D01*
X32901Y-59404D01*
X32863Y-59458D01*
X32852Y-59501D01*
X32854Y-59573D01*
X32882Y-59633D01*
X32936Y-59682D01*
X32976Y-59700D01*
X33042Y-59706D01*
X33160Y-59688D01*
X33289Y-59628D01*
X33379Y-59549D01*
X33416Y-59495D01*
X33428Y-59452D01*
X33426Y-59380D01*
X32708Y-59126D02*
X32668Y-59108D01*
X32657Y-59150D01*
X32697Y-59168D01*
X32708Y-59126D01*
X32657Y-59150D01*
X32993Y-58993D02*
X32953Y-58975D01*
X32942Y-59017D01*
X32981Y-59035D01*
X32993Y-58993D01*
X32942Y-59017D01*
X33088Y-58655D02*
X32905Y-58262D01*
X32796Y-58570D01*
X32754Y-58480D01*
X32700Y-58431D01*
X32660Y-58413D01*
X32594Y-58407D01*
X32464Y-58467D01*
X32427Y-58522D01*
X32415Y-58564D01*
X32417Y-58637D01*
X32502Y-58818D01*
X32556Y-58866D01*
X32596Y-58884D01*
X26801Y-64272D02*
X26733Y-64193D01*
X26663Y-64042D01*
X26660Y-63970D01*
X26672Y-63927D01*
X26710Y-63873D01*
X26762Y-63849D01*
X26828Y-63855D01*
X26868Y-63873D01*
X26922Y-63921D01*
X27004Y-64030D01*
X27058Y-64078D01*
X27098Y-64097D01*
X27164Y-64103D01*
X27216Y-64079D01*
X27253Y-64024D01*
X27265Y-63982D01*
X27263Y-63909D01*
X27192Y-63758D01*
X27124Y-63680D01*
X27051Y-63456D02*
X26437Y-63559D01*
X26769Y-63257D01*
X26325Y-63317D01*
X26798Y-62912D01*
X26629Y-62550D02*
X26601Y-62489D01*
X26547Y-62441D01*
X26507Y-62423D01*
X26441Y-62417D01*
X26323Y-62435D01*
X26194Y-62495D01*
X26104Y-62574D01*
X26066Y-62628D01*
X26055Y-62671D01*
X26057Y-62743D01*
X26085Y-62803D01*
X26139Y-62852D01*
X26179Y-62870D01*
X26245Y-62876D01*
X26363Y-62858D01*
X26492Y-62798D01*
X26582Y-62719D01*
X26619Y-62665D01*
X26631Y-62622D01*
X26629Y-62550D01*
X25911Y-62296D02*
X25871Y-62278D01*
X25860Y-62320D01*
X25900Y-62338D01*
X25911Y-62296D01*
X25860Y-62320D01*
X26196Y-62163D02*
X26156Y-62145D01*
X26145Y-62187D01*
X26184Y-62205D01*
X26196Y-62163D01*
X26145Y-62187D01*
X26225Y-61819D02*
X26237Y-61777D01*
X26234Y-61704D01*
X26164Y-61553D01*
X26110Y-61505D01*
X26070Y-61486D01*
X26004Y-61480D01*
X25952Y-61505D01*
X25889Y-61571D01*
X25747Y-62078D01*
X25564Y-61686D01*
X59933Y-34143D02*
X59833Y-34171D01*
X59666Y-34171D01*
X59600Y-34143D01*
X59566Y-34114D01*
X59533Y-34057D01*
X59533Y-34000D01*
X59566Y-33943D01*
X59600Y-33914D01*
X59666Y-33886D01*
X59800Y-33857D01*
X59866Y-33829D01*
X59900Y-33800D01*
X59933Y-33743D01*
X59933Y-33686D01*
X59900Y-33629D01*
X59866Y-33600D01*
X59800Y-33571D01*
X59633Y-33571D01*
X59533Y-33600D01*
X59300Y-33571D02*
X59133Y-34171D01*
X59000Y-33743D01*
X58866Y-34171D01*
X58700Y-33571D01*
X58133Y-33771D02*
X58133Y-34171D01*
X58300Y-33543D02*
X58466Y-33971D01*
X58033Y-33971D01*
X57766Y-34114D02*
X57733Y-34143D01*
X57766Y-34171D01*
X57800Y-34143D01*
X57766Y-34114D01*
X57766Y-34171D01*
X57766Y-33800D02*
X57733Y-33829D01*
X57766Y-33857D01*
X57800Y-33829D01*
X57766Y-33800D01*
X57766Y-33857D01*
X57466Y-33629D02*
X57433Y-33600D01*
X57366Y-33571D01*
X57200Y-33571D01*
X57133Y-33600D01*
X57100Y-33629D01*
X57066Y-33686D01*
X57066Y-33743D01*
X57100Y-33829D01*
X57500Y-34171D01*
X57066Y-34171D01*
X37433Y-27144D02*
X37333Y-27172D01*
X37166Y-27172D01*
X37100Y-27144D01*
X37066Y-27115D01*
X37033Y-27058D01*
X37033Y-27001D01*
X37066Y-26944D01*
X37100Y-26915D01*
X37166Y-26887D01*
X37300Y-26858D01*
X37366Y-26830D01*
X37400Y-26801D01*
X37433Y-26744D01*
X37433Y-26687D01*
X37400Y-26630D01*
X37366Y-26601D01*
X37300Y-26572D01*
X37133Y-26572D01*
X37033Y-26601D01*
X36800Y-26572D02*
X36633Y-27172D01*
X36500Y-26744D01*
X36366Y-27172D01*
X36200Y-26572D01*
X35600Y-26572D02*
X35933Y-26572D01*
X35966Y-26858D01*
X35933Y-26830D01*
X35866Y-26801D01*
X35700Y-26801D01*
X35633Y-26830D01*
X35600Y-26858D01*
X35566Y-26915D01*
X35566Y-27058D01*
X35600Y-27115D01*
X35633Y-27144D01*
X35700Y-27172D01*
X35866Y-27172D01*
X35933Y-27144D01*
X35966Y-27115D01*
X35266Y-27115D02*
X35233Y-27144D01*
X35266Y-27172D01*
X35300Y-27144D01*
X35266Y-27115D01*
X35266Y-27172D01*
X35266Y-26801D02*
X35233Y-26830D01*
X35266Y-26858D01*
X35300Y-26830D01*
X35266Y-26801D01*
X35266Y-26858D01*
X34600Y-26572D02*
X34933Y-26572D01*
X34966Y-26858D01*
X34933Y-26830D01*
X34866Y-26801D01*
X34700Y-26801D01*
X34633Y-26830D01*
X34600Y-26858D01*
X34566Y-26915D01*
X34566Y-27058D01*
X34600Y-27115D01*
X34633Y-27144D01*
X34700Y-27172D01*
X34866Y-27172D01*
X34933Y-27144D01*
X34966Y-27115D01*
X76808Y-27894D02*
X76708Y-27922D01*
X76541Y-27922D01*
X76475Y-27894D01*
X76441Y-27865D01*
X76408Y-27808D01*
X76408Y-27751D01*
X76441Y-27694D01*
X76475Y-27665D01*
X76541Y-27637D01*
X76675Y-27608D01*
X76741Y-27580D01*
X76775Y-27551D01*
X76808Y-27494D01*
X76808Y-27437D01*
X76775Y-27380D01*
X76741Y-27351D01*
X76675Y-27322D01*
X76508Y-27322D01*
X76408Y-27351D01*
X76175Y-27322D02*
X76008Y-27922D01*
X75875Y-27494D01*
X75741Y-27922D01*
X75575Y-27322D01*
X74975Y-27322D02*
X75308Y-27322D01*
X75341Y-27608D01*
X75308Y-27580D01*
X75241Y-27551D01*
X75075Y-27551D01*
X75008Y-27580D01*
X74975Y-27608D01*
X74941Y-27665D01*
X74941Y-27808D01*
X74975Y-27865D01*
X75008Y-27894D01*
X75075Y-27922D01*
X75241Y-27922D01*
X75308Y-27894D01*
X75341Y-27865D01*
X74641Y-27865D02*
X74608Y-27894D01*
X74641Y-27922D01*
X74675Y-27894D01*
X74641Y-27865D01*
X74641Y-27922D01*
X74641Y-27551D02*
X74608Y-27580D01*
X74641Y-27608D01*
X74675Y-27580D01*
X74641Y-27551D01*
X74641Y-27608D01*
X74175Y-27322D02*
X74108Y-27322D01*
X74041Y-27351D01*
X74008Y-27380D01*
X73975Y-27437D01*
X73941Y-27551D01*
X73941Y-27694D01*
X73975Y-27808D01*
X74008Y-27865D01*
X74041Y-27894D01*
X74108Y-27922D01*
X74175Y-27922D01*
X74241Y-27894D01*
X74275Y-27865D01*
X74308Y-27808D01*
X74341Y-27694D01*
X74341Y-27551D01*
X74308Y-27437D01*
X74275Y-27380D01*
X74241Y-27351D01*
X74175Y-27322D01*
X76808Y-35393D02*
X76708Y-35421D01*
X76541Y-35421D01*
X76475Y-35393D01*
X76441Y-35364D01*
X76408Y-35307D01*
X76408Y-35250D01*
X76441Y-35193D01*
X76475Y-35164D01*
X76541Y-35136D01*
X76675Y-35107D01*
X76741Y-35079D01*
X76775Y-35050D01*
X76808Y-34993D01*
X76808Y-34936D01*
X76775Y-34879D01*
X76741Y-34850D01*
X76675Y-34821D01*
X76508Y-34821D01*
X76408Y-34850D01*
X76175Y-34821D02*
X76008Y-35421D01*
X75875Y-34993D01*
X75741Y-35421D01*
X75575Y-34821D01*
X75008Y-35021D02*
X75008Y-35421D01*
X75175Y-34793D02*
X75341Y-35221D01*
X74908Y-35221D01*
X74641Y-35364D02*
X74608Y-35393D01*
X74641Y-35421D01*
X74675Y-35393D01*
X74641Y-35364D01*
X74641Y-35421D01*
X74641Y-35050D02*
X74608Y-35079D01*
X74641Y-35107D01*
X74675Y-35079D01*
X74641Y-35050D01*
X74641Y-35107D01*
X74175Y-34821D02*
X74108Y-34821D01*
X74041Y-34850D01*
X74008Y-34879D01*
X73975Y-34936D01*
X73941Y-35050D01*
X73941Y-35193D01*
X73975Y-35307D01*
X74008Y-35364D01*
X74041Y-35393D01*
X74108Y-35421D01*
X74175Y-35421D01*
X74241Y-35393D01*
X74275Y-35364D01*
X74308Y-35307D01*
X74341Y-35193D01*
X74341Y-35050D01*
X74308Y-34936D01*
X74275Y-34879D01*
X74241Y-34850D01*
X74175Y-34821D01*
X76808Y-42893D02*
X76708Y-42921D01*
X76541Y-42921D01*
X76475Y-42893D01*
X76441Y-42864D01*
X76408Y-42807D01*
X76408Y-42750D01*
X76441Y-42693D01*
X76475Y-42664D01*
X76541Y-42636D01*
X76675Y-42607D01*
X76741Y-42579D01*
X76775Y-42550D01*
X76808Y-42493D01*
X76808Y-42436D01*
X76775Y-42379D01*
X76741Y-42350D01*
X76675Y-42321D01*
X76508Y-42321D01*
X76408Y-42350D01*
X76175Y-42321D02*
X76008Y-42921D01*
X75875Y-42493D01*
X75741Y-42921D01*
X75575Y-42321D01*
X75375Y-42321D02*
X74941Y-42321D01*
X75175Y-42550D01*
X75075Y-42550D01*
X75008Y-42579D01*
X74975Y-42607D01*
X74941Y-42664D01*
X74941Y-42807D01*
X74975Y-42864D01*
X75008Y-42893D01*
X75075Y-42921D01*
X75275Y-42921D01*
X75341Y-42893D01*
X75375Y-42864D01*
X74641Y-42864D02*
X74608Y-42893D01*
X74641Y-42921D01*
X74675Y-42893D01*
X74641Y-42864D01*
X74641Y-42921D01*
X74641Y-42550D02*
X74608Y-42579D01*
X74641Y-42607D01*
X74675Y-42579D01*
X74641Y-42550D01*
X74641Y-42607D01*
X74175Y-42321D02*
X74108Y-42321D01*
X74041Y-42350D01*
X74008Y-42379D01*
X73975Y-42436D01*
X73941Y-42550D01*
X73941Y-42693D01*
X73975Y-42807D01*
X74008Y-42864D01*
X74041Y-42893D01*
X74108Y-42921D01*
X74175Y-42921D01*
X74241Y-42893D01*
X74275Y-42864D01*
X74308Y-42807D01*
X74341Y-42693D01*
X74341Y-42550D01*
X74308Y-42436D01*
X74275Y-42379D01*
X74241Y-42350D01*
X74175Y-42321D01*
X76808Y-50393D02*
X76708Y-50421D01*
X76541Y-50421D01*
X76475Y-50393D01*
X76441Y-50364D01*
X76408Y-50307D01*
X76408Y-50250D01*
X76441Y-50193D01*
X76475Y-50164D01*
X76541Y-50136D01*
X76675Y-50107D01*
X76741Y-50079D01*
X76775Y-50050D01*
X76808Y-49993D01*
X76808Y-49936D01*
X76775Y-49879D01*
X76741Y-49850D01*
X76675Y-49821D01*
X76508Y-49821D01*
X76408Y-49850D01*
X76175Y-49821D02*
X76008Y-50421D01*
X75875Y-49993D01*
X75741Y-50421D01*
X75575Y-49821D01*
X75341Y-49879D02*
X75308Y-49850D01*
X75241Y-49821D01*
X75075Y-49821D01*
X75008Y-49850D01*
X74975Y-49879D01*
X74941Y-49936D01*
X74941Y-49993D01*
X74975Y-50079D01*
X75375Y-50421D01*
X74941Y-50421D01*
X74641Y-50364D02*
X74608Y-50393D01*
X74641Y-50421D01*
X74675Y-50393D01*
X74641Y-50364D01*
X74641Y-50421D01*
X74641Y-50050D02*
X74608Y-50079D01*
X74641Y-50107D01*
X74675Y-50079D01*
X74641Y-50050D01*
X74641Y-50107D01*
X74175Y-49821D02*
X74108Y-49821D01*
X74041Y-49850D01*
X74008Y-49879D01*
X73975Y-49936D01*
X73941Y-50050D01*
X73941Y-50193D01*
X73975Y-50307D01*
X74008Y-50364D01*
X74041Y-50393D01*
X74108Y-50421D01*
X74175Y-50421D01*
X74241Y-50393D01*
X74275Y-50364D01*
X74308Y-50307D01*
X74341Y-50193D01*
X74341Y-50050D01*
X74308Y-49936D01*
X74275Y-49879D01*
X74241Y-49850D01*
X74175Y-49821D01*
M02*
