G04 (created by PCBNEW (2013-01-02 BZR 3881)-testing) date Fri 08 Feb 2013 10:16:01 AM CET*
%MOIN*%
G04 Gerber Fmt 3.4, Leading zero omitted, Abs format*
%FSLAX34Y34*%
G01*
G70*
G90*
G04 APERTURE LIST*
%ADD10C,0.006*%
%ADD11C,0.085*%
%ADD12R,0.085X0.085*%
%ADD13C,0.059*%
%ADD14C,0.081*%
%ADD15R,0.081X0.081*%
%ADD16O,0.061X0.081*%
%ADD17O,0.083X0.126*%
%ADD18C,0.106*%
%ADD19R,0.096X0.056*%
%ADD20O,0.097X0.085*%
%ADD21C,0.055*%
%ADD22R,0.049X0.049*%
%ADD23C,0.1059*%
%ADD24C,0.1058*%
%ADD25O,0.3245X0.137*%
%ADD26C,0.231*%
G04 APERTURE END LIST*
G54D10*
G54D11*
X64750Y-14750D03*
X65750Y-14750D03*
X66750Y-14750D03*
X67750Y-14750D03*
X68750Y-14750D03*
X69750Y-14750D03*
X70750Y-14750D03*
X71750Y-14750D03*
X72750Y-14750D03*
X73750Y-14750D03*
X74750Y-14750D03*
X75750Y-14750D03*
X76750Y-14750D03*
G54D12*
X63750Y-14750D03*
G54D11*
X76750Y-17750D03*
X75750Y-17750D03*
G54D13*
X74750Y-17750D03*
X73750Y-17750D03*
X72750Y-17750D03*
G54D11*
X71750Y-17750D03*
X70750Y-17750D03*
X69750Y-17750D03*
X68750Y-17750D03*
X67750Y-17750D03*
X66750Y-17750D03*
X65750Y-17750D03*
X64750Y-17750D03*
X63750Y-17750D03*
G54D14*
X21000Y-57947D03*
G54D10*
G36*
X21647Y-57916D02*
X21440Y-57472D01*
X21884Y-57265D01*
X22091Y-57709D01*
X21647Y-57916D01*
X21647Y-57916D01*
G37*
G36*
X23523Y-57218D02*
X23181Y-56484D01*
X23915Y-56141D01*
X24257Y-56875D01*
X23523Y-57218D01*
X23523Y-57218D01*
G37*
G36*
X22835Y-57362D02*
X22628Y-56918D01*
X23072Y-56711D01*
X23279Y-57155D01*
X22835Y-57362D01*
X22835Y-57362D01*
G37*
G54D14*
X27797Y-54777D03*
G54D10*
G36*
X28444Y-54746D02*
X28237Y-54302D01*
X28681Y-54095D01*
X28888Y-54539D01*
X28444Y-54746D01*
X28444Y-54746D01*
G37*
G36*
X30320Y-54048D02*
X29978Y-53314D01*
X30712Y-52971D01*
X31054Y-53705D01*
X30320Y-54048D01*
X30320Y-54048D01*
G37*
G36*
X29632Y-54192D02*
X29425Y-53748D01*
X29869Y-53541D01*
X30076Y-53985D01*
X29632Y-54192D01*
X29632Y-54192D01*
G37*
G54D14*
X30500Y-46754D03*
G54D15*
X30500Y-45754D03*
G54D14*
X30500Y-35504D03*
G54D15*
X30500Y-34504D03*
G54D14*
X28000Y-27630D03*
G54D15*
X29000Y-27630D03*
G54D16*
X54820Y-14785D03*
X54505Y-14097D03*
X54190Y-14785D03*
X53875Y-14097D03*
X53560Y-14785D03*
G54D17*
X52754Y-12689D03*
X55626Y-12689D03*
G54D14*
X55140Y-15850D03*
X56440Y-13550D03*
X54190Y-15850D03*
X51940Y-13550D03*
X53240Y-15850D03*
G54D18*
X30486Y-54627D03*
X28642Y-56590D03*
X31361Y-55322D03*
X28673Y-55473D03*
X23689Y-57797D03*
X21845Y-59760D03*
X24564Y-58492D03*
X21876Y-58643D03*
X33533Y-65896D03*
X35377Y-63933D03*
X32658Y-65201D03*
X35346Y-65050D03*
X26735Y-69065D03*
X28579Y-67102D03*
X25860Y-68370D03*
X28548Y-68219D03*
G54D14*
X60039Y-16460D03*
X57210Y-19289D03*
X59289Y-15710D03*
X56460Y-18539D03*
X51375Y-18500D03*
X47375Y-18500D03*
X40085Y-14460D03*
X42914Y-17289D03*
X38835Y-14960D03*
X41664Y-17789D03*
X31000Y-15750D03*
X31000Y-14750D03*
X31000Y-13750D03*
X37000Y-15750D03*
X37000Y-14750D03*
X37000Y-13750D03*
G54D12*
X63750Y-19750D03*
G54D11*
X64750Y-19750D03*
X65750Y-19750D03*
X66750Y-19750D03*
X67750Y-19750D03*
X68750Y-19750D03*
X69750Y-19750D03*
X70750Y-19750D03*
X71750Y-19750D03*
X72750Y-19750D03*
X73750Y-19750D03*
X74750Y-19750D03*
X74750Y-13750D03*
X73750Y-13750D03*
X72750Y-13750D03*
X71750Y-13750D03*
X70750Y-13750D03*
X69750Y-13750D03*
X68750Y-13750D03*
X65750Y-13750D03*
X64750Y-13750D03*
X63750Y-13750D03*
X67750Y-13750D03*
X66750Y-13750D03*
G54D19*
X73750Y-15875D03*
X73750Y-16375D03*
G54D20*
X35810Y-13140D03*
G54D11*
X32560Y-15110D03*
X34610Y-16330D03*
G54D20*
X32150Y-13140D03*
G54D11*
X33350Y-16330D03*
X35400Y-15110D03*
G54D21*
X33980Y-13140D03*
X33980Y-15110D03*
G54D18*
X29500Y-23630D03*
X27000Y-24630D03*
X30000Y-24630D03*
X27500Y-23630D03*
G54D14*
X27000Y-27630D03*
G54D15*
X30000Y-27630D03*
G54D14*
X27000Y-28630D03*
G54D15*
X30000Y-28630D03*
G54D22*
X27845Y-28630D03*
X29155Y-28630D03*
G54D18*
X26500Y-34004D03*
X27500Y-36504D03*
X27500Y-33504D03*
X26500Y-36004D03*
G54D14*
X30500Y-36504D03*
G54D15*
X30500Y-33504D03*
G54D14*
X31500Y-36504D03*
G54D15*
X31500Y-33504D03*
G54D22*
X31500Y-35659D03*
X31500Y-34349D03*
G54D18*
X26500Y-45254D03*
X27500Y-47754D03*
X27500Y-44754D03*
X26500Y-47254D03*
G54D14*
X30500Y-47754D03*
G54D15*
X30500Y-44754D03*
G54D14*
X31500Y-47754D03*
G54D15*
X31500Y-44754D03*
G54D22*
X31500Y-46909D03*
X31500Y-45599D03*
G54D18*
X74500Y-54379D03*
X72000Y-55379D03*
X75000Y-55379D03*
X72500Y-54379D03*
G54D14*
X72000Y-58379D03*
G54D15*
X75000Y-58379D03*
G54D14*
X72000Y-59379D03*
G54D15*
X75000Y-59379D03*
G54D22*
X72845Y-59379D03*
X74155Y-59379D03*
G54D18*
X37000Y-31129D03*
X34500Y-32129D03*
X37500Y-32129D03*
X35000Y-31129D03*
G54D14*
X34500Y-35129D03*
G54D15*
X37500Y-35129D03*
G54D14*
X34500Y-36129D03*
G54D15*
X37500Y-36129D03*
G54D22*
X35345Y-36129D03*
X36655Y-36129D03*
G54D18*
X16891Y-60966D03*
X15047Y-62929D03*
X17766Y-61661D03*
X15078Y-61812D03*
G54D14*
X16315Y-65648D03*
G54D10*
G36*
X18838Y-64918D02*
X18496Y-64184D01*
X19230Y-63842D01*
X19572Y-64576D01*
X18838Y-64918D01*
X18838Y-64918D01*
G37*
G54D14*
X16738Y-66554D03*
G54D10*
G36*
X19261Y-65825D02*
X18919Y-65091D01*
X19653Y-64748D01*
X19995Y-65482D01*
X19261Y-65825D01*
X19261Y-65825D01*
G37*
G36*
X17385Y-66523D02*
X17178Y-66079D01*
X17622Y-65872D01*
X17829Y-66316D01*
X17385Y-66523D01*
X17385Y-66523D01*
G37*
G36*
X18572Y-65969D02*
X18365Y-65525D01*
X18809Y-65318D01*
X19017Y-65762D01*
X18572Y-65969D01*
X18572Y-65969D01*
G37*
G54D18*
X20061Y-67764D03*
X18217Y-69727D03*
X20936Y-68459D03*
X18248Y-68610D03*
G54D14*
X19485Y-72446D03*
G54D10*
G36*
X22008Y-71716D02*
X21666Y-70982D01*
X22400Y-70640D01*
X22742Y-71374D01*
X22008Y-71716D01*
X22008Y-71716D01*
G37*
G54D14*
X19908Y-73352D03*
G54D10*
G36*
X22431Y-72623D02*
X22089Y-71889D01*
X22823Y-71546D01*
X23165Y-72280D01*
X22431Y-72623D01*
X22431Y-72623D01*
G37*
G36*
X20555Y-73321D02*
X20348Y-72877D01*
X20792Y-72670D01*
X20999Y-73114D01*
X20555Y-73321D01*
X20555Y-73321D01*
G37*
G36*
X21742Y-72767D02*
X21535Y-72323D01*
X21979Y-72116D01*
X22187Y-72560D01*
X21742Y-72767D01*
X21742Y-72767D01*
G37*
G54D18*
X13722Y-54169D03*
X11878Y-56132D03*
X14597Y-54864D03*
X11909Y-55015D03*
G54D14*
X13146Y-58851D03*
G54D10*
G36*
X15669Y-58121D02*
X15327Y-57387D01*
X16061Y-57045D01*
X16403Y-57779D01*
X15669Y-58121D01*
X15669Y-58121D01*
G37*
G54D14*
X13569Y-59757D03*
G54D10*
G36*
X16092Y-59028D02*
X15750Y-58294D01*
X16484Y-57951D01*
X16826Y-58685D01*
X16092Y-59028D01*
X16092Y-59028D01*
G37*
G36*
X14216Y-59726D02*
X14009Y-59282D01*
X14453Y-59075D01*
X14660Y-59519D01*
X14216Y-59726D01*
X14216Y-59726D01*
G37*
G36*
X15403Y-59172D02*
X15196Y-58728D01*
X15640Y-58521D01*
X15848Y-58965D01*
X15403Y-59172D01*
X15403Y-59172D01*
G37*
G54D18*
X20519Y-51000D03*
X18675Y-52963D03*
X21394Y-51695D03*
X18706Y-51846D03*
G54D14*
X19943Y-55682D03*
G54D10*
G36*
X22466Y-54952D02*
X22124Y-54218D01*
X22858Y-53876D01*
X23200Y-54610D01*
X22466Y-54952D01*
X22466Y-54952D01*
G37*
G54D14*
X20366Y-56588D03*
G54D10*
G36*
X22889Y-55859D02*
X22547Y-55125D01*
X23281Y-54782D01*
X23623Y-55516D01*
X22889Y-55859D01*
X22889Y-55859D01*
G37*
G36*
X21013Y-56557D02*
X20806Y-56113D01*
X21250Y-55906D01*
X21457Y-56350D01*
X21013Y-56557D01*
X21013Y-56557D01*
G37*
G36*
X22200Y-56003D02*
X21993Y-55559D01*
X22437Y-55352D01*
X22645Y-55796D01*
X22200Y-56003D01*
X22200Y-56003D01*
G37*
G54D18*
X67000Y-24380D03*
X64500Y-25380D03*
X67500Y-25380D03*
X65000Y-24380D03*
G54D14*
X64500Y-28380D03*
G54D15*
X67500Y-28380D03*
G54D14*
X64500Y-29380D03*
G54D15*
X67500Y-29380D03*
G54D22*
X65345Y-29380D03*
X66655Y-29380D03*
G54D18*
X59500Y-23129D03*
X57000Y-24129D03*
X60000Y-24129D03*
X57500Y-23129D03*
G54D14*
X57000Y-27129D03*
G54D15*
X60000Y-27129D03*
G54D14*
X57000Y-28129D03*
G54D15*
X60000Y-28129D03*
G54D22*
X57845Y-28129D03*
X59155Y-28129D03*
G54D18*
X52000Y-22500D03*
X49500Y-23500D03*
X52500Y-23500D03*
X50000Y-22500D03*
G54D14*
X49500Y-26500D03*
G54D15*
X52500Y-26500D03*
G54D14*
X49500Y-27500D03*
G54D15*
X52500Y-27500D03*
G54D22*
X50345Y-27500D03*
X51655Y-27500D03*
G54D18*
X44500Y-23129D03*
X42000Y-24129D03*
X45000Y-24129D03*
X42500Y-23129D03*
G54D14*
X42000Y-27129D03*
G54D15*
X45000Y-27129D03*
G54D14*
X42000Y-28129D03*
G54D15*
X45000Y-28129D03*
G54D22*
X42845Y-28129D03*
X44155Y-28129D03*
G54D18*
X59500Y-53129D03*
X57000Y-54129D03*
X60000Y-54129D03*
X57500Y-53129D03*
G54D14*
X57000Y-57129D03*
G54D15*
X60000Y-57129D03*
G54D14*
X57000Y-58129D03*
G54D15*
X60000Y-58129D03*
G54D22*
X57845Y-58129D03*
X59155Y-58129D03*
G54D18*
X67000Y-31879D03*
X64500Y-32879D03*
X67500Y-32879D03*
X65000Y-31879D03*
G54D14*
X64500Y-35879D03*
G54D15*
X67500Y-35879D03*
G54D14*
X64500Y-36879D03*
G54D15*
X67500Y-36879D03*
G54D22*
X65345Y-36879D03*
X66655Y-36879D03*
G54D18*
X52000Y-30000D03*
X49500Y-31000D03*
X52500Y-31000D03*
X50000Y-30000D03*
G54D14*
X49500Y-34000D03*
G54D15*
X52500Y-34000D03*
G54D14*
X49500Y-35000D03*
G54D15*
X52500Y-35000D03*
G54D22*
X50345Y-35000D03*
X51655Y-35000D03*
G54D18*
X44500Y-30629D03*
X42000Y-31629D03*
X45000Y-31629D03*
X42500Y-30629D03*
G54D14*
X42000Y-34629D03*
G54D15*
X45000Y-34629D03*
G54D14*
X42000Y-35629D03*
G54D15*
X45000Y-35629D03*
G54D22*
X42845Y-35629D03*
X44155Y-35629D03*
G54D18*
X67000Y-39379D03*
X64500Y-40379D03*
X67500Y-40379D03*
X65000Y-39379D03*
G54D14*
X64500Y-43379D03*
G54D15*
X67500Y-43379D03*
G54D14*
X64500Y-44379D03*
G54D15*
X67500Y-44379D03*
G54D22*
X65345Y-44379D03*
X66655Y-44379D03*
G54D18*
X59500Y-38129D03*
X57000Y-39129D03*
X60000Y-39129D03*
X57500Y-38129D03*
G54D14*
X57000Y-42129D03*
G54D15*
X60000Y-42129D03*
G54D14*
X57000Y-43129D03*
G54D15*
X60000Y-43129D03*
G54D22*
X57845Y-43129D03*
X59155Y-43129D03*
G54D18*
X52000Y-37500D03*
X49500Y-38500D03*
X52500Y-38500D03*
X50000Y-37500D03*
G54D14*
X49500Y-41500D03*
G54D15*
X52500Y-41500D03*
G54D14*
X49500Y-42500D03*
G54D15*
X52500Y-42500D03*
G54D22*
X50345Y-42500D03*
X51655Y-42500D03*
G54D18*
X44500Y-38129D03*
X42000Y-39129D03*
X45000Y-39129D03*
X42500Y-38129D03*
G54D14*
X42000Y-42129D03*
G54D15*
X45000Y-42129D03*
G54D14*
X42000Y-43129D03*
G54D15*
X45000Y-43129D03*
G54D22*
X42845Y-43129D03*
X44155Y-43129D03*
G54D18*
X37000Y-38629D03*
X34500Y-39629D03*
X37500Y-39629D03*
X35000Y-38629D03*
G54D14*
X34500Y-42629D03*
G54D15*
X37500Y-42629D03*
G54D14*
X34500Y-43629D03*
G54D15*
X37500Y-43629D03*
G54D22*
X35345Y-43629D03*
X36655Y-43629D03*
G54D18*
X67000Y-46879D03*
X64500Y-47879D03*
X67500Y-47879D03*
X65000Y-46879D03*
G54D14*
X64500Y-50879D03*
G54D15*
X67500Y-50879D03*
G54D14*
X64500Y-51879D03*
G54D15*
X67500Y-51879D03*
G54D22*
X65345Y-51879D03*
X66655Y-51879D03*
G54D18*
X59500Y-45629D03*
X57000Y-46629D03*
X60000Y-46629D03*
X57500Y-45629D03*
G54D14*
X57000Y-49629D03*
G54D15*
X60000Y-49629D03*
G54D14*
X57000Y-50629D03*
G54D15*
X60000Y-50629D03*
G54D22*
X57845Y-50629D03*
X59155Y-50629D03*
G54D18*
X52000Y-45000D03*
X49500Y-46000D03*
X52500Y-46000D03*
X50000Y-45000D03*
G54D14*
X49500Y-49000D03*
G54D15*
X52500Y-49000D03*
G54D14*
X49500Y-50000D03*
G54D15*
X52500Y-50000D03*
G54D22*
X50345Y-50000D03*
X51655Y-50000D03*
G54D18*
X44500Y-45629D03*
X42000Y-46629D03*
X45000Y-46629D03*
X42500Y-45629D03*
G54D14*
X42000Y-49629D03*
G54D15*
X45000Y-49629D03*
G54D14*
X42000Y-50629D03*
G54D15*
X45000Y-50629D03*
G54D22*
X42845Y-50629D03*
X44155Y-50629D03*
G54D18*
X37000Y-46129D03*
X34500Y-47129D03*
X37500Y-47129D03*
X35000Y-46129D03*
G54D14*
X34500Y-50129D03*
G54D15*
X37500Y-50129D03*
G54D14*
X34500Y-51129D03*
G54D15*
X37500Y-51129D03*
G54D22*
X35345Y-51129D03*
X36655Y-51129D03*
G54D18*
X67000Y-54379D03*
X64500Y-55379D03*
X67500Y-55379D03*
X65000Y-54379D03*
G54D14*
X64500Y-58379D03*
G54D15*
X67500Y-58379D03*
G54D14*
X64500Y-59379D03*
G54D15*
X67500Y-59379D03*
G54D22*
X65345Y-59379D03*
X66655Y-59379D03*
G54D18*
X52000Y-52500D03*
X49500Y-53500D03*
X52500Y-53500D03*
X50000Y-52500D03*
G54D14*
X49500Y-56500D03*
G54D15*
X52500Y-56500D03*
G54D14*
X49500Y-57500D03*
G54D15*
X52500Y-57500D03*
G54D22*
X50345Y-57500D03*
X51655Y-57500D03*
G54D18*
X44500Y-53129D03*
X42000Y-54129D03*
X45000Y-54129D03*
X42500Y-53129D03*
G54D14*
X42000Y-57129D03*
G54D15*
X45000Y-57129D03*
G54D14*
X42000Y-58129D03*
G54D15*
X45000Y-58129D03*
G54D22*
X42845Y-58129D03*
X44155Y-58129D03*
G54D18*
X29773Y-60200D03*
X31736Y-62044D03*
X30468Y-59325D03*
X30619Y-62013D03*
G54D14*
X34455Y-60776D03*
G54D10*
G36*
X33725Y-58253D02*
X32991Y-58595D01*
X32649Y-57861D01*
X33383Y-57519D01*
X33725Y-58253D01*
X33725Y-58253D01*
G37*
G54D14*
X35361Y-60353D03*
G54D10*
G36*
X34632Y-57830D02*
X33898Y-58172D01*
X33555Y-57438D01*
X34289Y-57096D01*
X34632Y-57830D01*
X34632Y-57830D01*
G37*
G36*
X35330Y-59706D02*
X34886Y-59913D01*
X34679Y-59469D01*
X35123Y-59262D01*
X35330Y-59706D01*
X35330Y-59706D01*
G37*
G36*
X34776Y-58519D02*
X34332Y-58726D01*
X34125Y-58282D01*
X34569Y-58074D01*
X34776Y-58519D01*
X34776Y-58519D01*
G37*
G54D18*
X22976Y-63370D03*
X24939Y-65214D03*
X23671Y-62495D03*
X23822Y-65183D03*
G54D14*
X27658Y-63946D03*
G54D10*
G36*
X26928Y-61423D02*
X26194Y-61765D01*
X25852Y-61031D01*
X26586Y-60689D01*
X26928Y-61423D01*
X26928Y-61423D01*
G37*
G54D14*
X28564Y-63523D03*
G54D10*
G36*
X27835Y-61000D02*
X27101Y-61342D01*
X26758Y-60608D01*
X27492Y-60266D01*
X27835Y-61000D01*
X27835Y-61000D01*
G37*
G36*
X28533Y-62876D02*
X28089Y-63083D01*
X27882Y-62639D01*
X28326Y-62432D01*
X28533Y-62876D01*
X28533Y-62876D01*
G37*
G36*
X27979Y-61689D02*
X27535Y-61896D01*
X27328Y-61452D01*
X27772Y-61244D01*
X27979Y-61689D01*
X27979Y-61689D01*
G37*
G54D18*
X59500Y-30629D03*
X57000Y-31629D03*
X60000Y-31629D03*
X57500Y-30629D03*
G54D14*
X57000Y-34629D03*
G54D15*
X60000Y-34629D03*
G54D14*
X57000Y-35629D03*
G54D15*
X60000Y-35629D03*
G54D22*
X57845Y-35629D03*
X59155Y-35629D03*
G54D18*
X37000Y-23630D03*
X34500Y-24630D03*
X37500Y-24630D03*
X35000Y-23630D03*
G54D14*
X34500Y-27630D03*
G54D15*
X37500Y-27630D03*
G54D14*
X34500Y-28630D03*
G54D15*
X37500Y-28630D03*
G54D22*
X35345Y-28630D03*
X36655Y-28630D03*
G54D18*
X76375Y-24380D03*
X73875Y-25380D03*
G54D23*
X76875Y-25380D03*
G54D18*
X74375Y-24380D03*
G54D14*
X73875Y-28380D03*
G54D15*
X76875Y-28380D03*
G54D14*
X73875Y-29380D03*
G54D15*
X76875Y-29380D03*
G54D22*
X74720Y-29380D03*
X76030Y-29380D03*
G54D24*
X71500Y-24880D03*
X72500Y-24380D03*
X72500Y-27880D03*
X71500Y-27380D03*
G54D25*
X74437Y-26380D03*
G54D18*
X76375Y-31879D03*
X73875Y-32879D03*
G54D23*
X76875Y-32879D03*
G54D18*
X74375Y-31879D03*
G54D14*
X73875Y-35879D03*
G54D15*
X76875Y-35879D03*
G54D14*
X73875Y-36879D03*
G54D15*
X76875Y-36879D03*
G54D22*
X74720Y-36879D03*
X76030Y-36879D03*
G54D24*
X71500Y-32379D03*
X72500Y-31879D03*
X72500Y-35379D03*
X71500Y-34879D03*
G54D25*
X74437Y-33879D03*
G54D18*
X76375Y-39379D03*
X73875Y-40379D03*
G54D23*
X76875Y-40379D03*
G54D18*
X74375Y-39379D03*
G54D14*
X73875Y-43379D03*
G54D15*
X76875Y-43379D03*
G54D14*
X73875Y-44379D03*
G54D15*
X76875Y-44379D03*
G54D22*
X74720Y-44379D03*
X76030Y-44379D03*
G54D24*
X71500Y-39879D03*
X72500Y-39379D03*
X72500Y-42879D03*
X71500Y-42379D03*
G54D25*
X74437Y-41379D03*
G54D18*
X76375Y-46879D03*
X73875Y-47879D03*
G54D23*
X76875Y-47879D03*
G54D18*
X74375Y-46879D03*
G54D14*
X73875Y-50879D03*
G54D15*
X76875Y-50879D03*
G54D14*
X73875Y-51879D03*
G54D15*
X76875Y-51879D03*
G54D22*
X74720Y-51879D03*
X76030Y-51879D03*
G54D24*
X71500Y-47379D03*
X72500Y-46879D03*
X72500Y-50379D03*
X71500Y-49879D03*
G54D25*
X74437Y-48879D03*
G54D26*
X21220Y-65290D03*
X23490Y-47900D03*
X41510Y-62110D03*
X79440Y-55140D03*
X54740Y-36060D03*
X79190Y-14620D03*
X46540Y-14620D03*
X26540Y-14620D03*
M02*
