G04 #@! TF.FileFunction,Drawing*
%FSLAX46Y46*%
G04 Gerber Fmt 4.6, Leading zero omitted, Abs format (unit mm)*
G04 Created by KiCad (PCBNEW (2016-11-25 revision 30df041)-makepkg) date 12/02/16 00:31:02*
%MOMM*%
%LPD*%
G01*
G04 APERTURE LIST*
%ADD10C,0.150000*%
%ADD11C,0.381000*%
%ADD12C,0.025400*%
G04 APERTURE END LIST*
D10*
D11*
X159385000Y-43815000D02*
X197485000Y-43815000D01*
X197485000Y-43815000D02*
X197485000Y-38735000D01*
X197485000Y-38735000D02*
X159385000Y-38735000D01*
X159385000Y-38735000D02*
X159385000Y-43815000D01*
D12*
X178435000Y-41275000D02*
X178435000Y-41275000D01*
D11*
X141493240Y-28481020D02*
X141493240Y-37480240D01*
X141493240Y-37480240D02*
X133791960Y-37480240D01*
X133791960Y-37480240D02*
X133791960Y-28481020D01*
X133791960Y-28481020D02*
X141493240Y-28481020D01*
D12*
X137642600Y-30480000D02*
X137642600Y-30480000D01*
D11*
X152050590Y-44055462D02*
X147560462Y-48545590D01*
X147560462Y-48545590D02*
X145764410Y-46749538D01*
X145764410Y-46749538D02*
X150254538Y-42259410D01*
X150254538Y-42259410D02*
X152050590Y-44055462D01*
D12*
X148907500Y-45402500D02*
X148907500Y-45402500D01*
D11*
X150145590Y-42150462D02*
X145655462Y-46640590D01*
X145655462Y-46640590D02*
X143859410Y-44844538D01*
X143859410Y-44844538D02*
X148349538Y-40354410D01*
X148349538Y-40354410D02*
X150145590Y-42150462D01*
D12*
X147002500Y-43497500D02*
X147002500Y-43497500D01*
D11*
X128587500Y-48260000D02*
X122237500Y-48260000D01*
X122237500Y-48260000D02*
X122237500Y-45720000D01*
X122237500Y-45720000D02*
X128587500Y-45720000D01*
X128587500Y-45720000D02*
X128587500Y-48260000D01*
D12*
X125412500Y-46990000D02*
X125412500Y-46990000D01*
D11*
X104062962Y-37179410D02*
X108553090Y-41669538D01*
X108553090Y-41669538D02*
X106757038Y-43465590D01*
X106757038Y-43465590D02*
X102266910Y-38975462D01*
X102266910Y-38975462D02*
X104062962Y-37179410D01*
D12*
X105410000Y-40322500D02*
X105410000Y-40322500D01*
D11*
X100887962Y-38449410D02*
X105378090Y-42939538D01*
X105378090Y-42939538D02*
X103582038Y-44735590D01*
X103582038Y-44735590D02*
X99091910Y-40245462D01*
X99091910Y-40245462D02*
X100887962Y-38449410D01*
D12*
X102235000Y-41592500D02*
X102235000Y-41592500D01*
D11*
X160655000Y-33655000D02*
X160655000Y-51435000D01*
X160655000Y-51435000D02*
X191135000Y-51435000D01*
X191135000Y-51435000D02*
X191135000Y-33655000D01*
X191135000Y-33655000D02*
X160655000Y-33655000D01*
D12*
X175895000Y-42545000D02*
X175895000Y-42545000D01*
D11*
X91109800Y-30480000D02*
X88557100Y-30480000D01*
X88557100Y-30480000D02*
X88557100Y-31775400D01*
X88557100Y-31775400D02*
X84061300Y-31775400D01*
X84061300Y-31775400D02*
X84061300Y-30480000D01*
X84061300Y-30480000D02*
X81508600Y-30480000D01*
X81508600Y-30480000D02*
X81508600Y-42545000D01*
X81508600Y-42545000D02*
X91109800Y-42545000D01*
X91109800Y-42545000D02*
X91109800Y-30480000D01*
D12*
X86309200Y-30480000D02*
X86309200Y-30480000D01*
M02*
