M48
INCH,TZ
T1C0.039
T2C0.043
T3C0.120
T4C0.157
T5C0.251
%
G90
G05
T1
X33980Y-13140
X33980Y-15110
T2
X72750Y-17750
X73750Y-17750
X74750Y-17750
T3
X25718Y-58010
X27530Y-57165
X29691Y-66529
X31503Y-65684
T4
X13661Y-56405
X16830Y-63202
X20000Y-70000
X20280Y-60546
X20458Y-53236
X23628Y-60033
X24253Y-69065
X25212Y-63432
X26797Y-66830
X28500Y-25630
X28500Y-35004
X28500Y-46254
X30425Y-56863
X32009Y-60262
X32968Y-54629
X33595Y-63661
X36000Y-25630
X36000Y-33129
X36000Y-40629
X36000Y-48129
X36941Y-63148
X43500Y-25129
X43500Y-32629
X43500Y-40129
X43500Y-47629
X43500Y-55129
X51000Y-24500
X51000Y-32000
X51000Y-39500
X51000Y-47000
X51000Y-54500
X58500Y-25129
X58500Y-32629
X58500Y-40129
X58500Y-47629
X58500Y-55129
X66000Y-26380
X66000Y-33879
X66000Y-41379
X66000Y-48879
X66000Y-56379
X73500Y-56379
T5
X21220Y-65290
X23490Y-47900
X26540Y-14620
X41510Y-62110
X46540Y-14620
X54740Y-36060
X79190Y-14620
X79440Y-55140
T4
X73500Y-26380G85X75375Y-26380
G05
X73500Y-33879G85X75375Y-33879
G05
X73500Y-41379G85X75375Y-41379
G05
X73500Y-48879G85X75375Y-48879
G05
T0
M30
