M48
INCH,TZ
T1C0.030
T2C0.039
T3C0.043
T4C0.043
T5C0.059
T6C0.067
%
G90
G05
T1
X53560Y-14677
X53875Y-14205
X54190Y-14677
X54505Y-14205
X54820Y-14677
T2
X13147Y-58852
X13569Y-59758
X15866Y-57584
X16288Y-58490
X16316Y-65649
X16738Y-66555
X19035Y-64381
X19457Y-65287
X19486Y-72447
X19908Y-73353
X19944Y-55683
X20366Y-56589
X21001Y-57948
X22205Y-71179
X22627Y-72085
X22663Y-54415
X23085Y-55321
X23719Y-56680
X26391Y-61227
X27000Y-27630
X27000Y-28630
X27297Y-60805
X27659Y-63946
X27798Y-54778
X28000Y-27630
X28565Y-63524
X29000Y-27630
X30000Y-27630
X30000Y-28630
X30500Y-33504
X30500Y-34504
X30500Y-35504
X30500Y-36504
X30500Y-44754
X30500Y-45754
X30500Y-46754
X30500Y-47754
X30516Y-53510
X31000Y-13750
X31000Y-14750
X31000Y-15750
X31500Y-33504
X31500Y-36504
X31500Y-44754
X31500Y-47754
X33188Y-58057
X33500Y-21875
X34094Y-57635
X34456Y-60776
X34500Y-27630
X34500Y-28630
X34500Y-35129
X34500Y-36129
X34500Y-42629
X34500Y-43629
X34500Y-50129
X34500Y-51129
X35362Y-60354
X37000Y-13750
X37000Y-14750
X37000Y-15750
X37500Y-27630
X37500Y-28630
X37500Y-35129
X37500Y-36129
X37500Y-42629
X37500Y-43629
X37500Y-50129
X37500Y-51129
X38836Y-14961
X40086Y-14461
X41664Y-17789
X42000Y-27129
X42000Y-28129
X42000Y-34629
X42000Y-35629
X42000Y-42129
X42000Y-43129
X42000Y-49629
X42000Y-50629
X42000Y-57129
X42000Y-58129
X42914Y-17289
X45000Y-27129
X45000Y-28129
X45000Y-34629
X45000Y-35629
X45000Y-42129
X45000Y-43129
X45000Y-49629
X45000Y-50629
X45000Y-57129
X45000Y-58129
X45875Y-20625
X47375Y-18500
X49500Y-26500
X49500Y-27500
X49500Y-34000
X49500Y-35000
X49500Y-41500
X49500Y-42500
X49500Y-49000
X49500Y-50000
X49500Y-56500
X49500Y-57500
X51375Y-18500
X51940Y-13550
X52500Y-26500
X52500Y-27500
X52500Y-34000
X52500Y-35000
X52500Y-41500
X52500Y-42500
X52500Y-49000
X52500Y-50000
X52500Y-56500
X52500Y-57500
X53240Y-15850
X54190Y-15850
X55140Y-15850
X56440Y-13550
X56461Y-18539
X57000Y-27129
X57000Y-28129
X57000Y-34629
X57000Y-35629
X57000Y-42129
X57000Y-43129
X57000Y-49629
X57000Y-50629
X57000Y-57129
X57000Y-58129
X57211Y-19289
X59289Y-15711
X60000Y-27129
X60000Y-28129
X60000Y-34629
X60000Y-35629
X60000Y-42129
X60000Y-43129
X60000Y-49629
X60000Y-50629
X60000Y-57129
X60000Y-58129
X60039Y-16461
X60500Y-14750
X63250Y-59375
X64500Y-28380
X64500Y-29380
X64500Y-35879
X64500Y-36879
X64500Y-43379
X64500Y-44379
X64500Y-50879
X64500Y-51879
X64500Y-58379
X64500Y-59379
X66000Y-58375
X67500Y-28380
X67500Y-29380
X67500Y-35879
X67500Y-36879
X67500Y-43379
X67500Y-44379
X67500Y-50879
X67500Y-51879
X67500Y-58379
X67500Y-59379
X68625Y-21250
X72000Y-58379
X72000Y-59379
X73875Y-28380
X73875Y-29380
X73875Y-35879
X73875Y-36879
X73875Y-43379
X73875Y-44379
X73875Y-50879
X73875Y-51879
X75000Y-58379
X75000Y-59379
X76875Y-28380
X76875Y-29380
X76875Y-35879
X76875Y-36879
X76875Y-43379
X76875Y-44379
X76875Y-50879
X76875Y-51879
T3
X74750Y-13750
T4
X32560Y-15110
X33350Y-16330
X34610Y-16330
X35400Y-15110
X63750Y-13750
X63750Y-14750
X63750Y-17750
X63750Y-19750
X64750Y-13750
X64750Y-14750
X64750Y-17750
X64750Y-19750
X65750Y-13750
X65750Y-14750
X65750Y-17750
X65750Y-19750
X66750Y-13750
X66750Y-14750
X66750Y-17750
X66750Y-19750
X67750Y-13750
X67750Y-14750
X67750Y-17750
X67750Y-19750
X68750Y-13750
X68750Y-14750
X68750Y-17750
X68750Y-19750
X69750Y-13750
X69750Y-14750
X69750Y-17750
X69750Y-19750
X70750Y-13750
X70750Y-14750
X70750Y-17750
X70750Y-19750
X71750Y-13750
X71750Y-14750
X71750Y-17750
X71750Y-19750
X72750Y-13750
X72750Y-14750
X72750Y-19750
X73750Y-13750
X73750Y-14750
X73750Y-19750
X74750Y-14750
X74750Y-19750
X75750Y-14750
X75750Y-17750
X76750Y-14750
X76750Y-17750
T5
X11879Y-56133
X11909Y-55015
X13722Y-54170
X14598Y-54865
X15048Y-62930
X15078Y-61812
X16891Y-60967
X17767Y-61662
X18218Y-69728
X18248Y-68610
X18676Y-52964
X18706Y-51846
X20061Y-67765
X20519Y-51001
X20937Y-68460
X21395Y-51696
X21846Y-59761
X21876Y-58643
X22977Y-63371
X23672Y-62495
X23689Y-57798
X23822Y-65184
X24565Y-58493
X24940Y-65214
X25860Y-68370
X26500Y-34004
X26500Y-36004
X26500Y-45254
X26500Y-47254
X26736Y-69065
X27000Y-24630
X27500Y-23630
X27500Y-33504
X27500Y-36504
X27500Y-44754
X27500Y-47754
X28549Y-68220
X28579Y-67102
X28643Y-56591
X28673Y-55473
X29500Y-23630
X29774Y-60201
X30000Y-24630
X30469Y-59325
X30486Y-54628
X30619Y-62014
X31362Y-55323
X31737Y-62044
X32658Y-65201
X33534Y-65896
X34500Y-24630
X34500Y-32129
X34500Y-39629
X34500Y-47129
X35000Y-23630
X35000Y-31129
X35000Y-38629
X35000Y-46129
X35347Y-65051
X35377Y-63933
X37000Y-23630
X37000Y-31129
X37000Y-38629
X37000Y-46129
X37500Y-24630
X37500Y-32129
X37500Y-39629
X37500Y-47129
X42000Y-24129
X42000Y-31629
X42000Y-39129
X42000Y-46629
X42000Y-54129
X42500Y-23129
X42500Y-30629
X42500Y-38129
X42500Y-45629
X42500Y-53129
X44500Y-23129
X44500Y-30629
X44500Y-38129
X44500Y-45629
X44500Y-53129
X45000Y-24129
X45000Y-31629
X45000Y-39129
X45000Y-46629
X45000Y-54129
X49500Y-23500
X49500Y-31000
X49500Y-38500
X49500Y-46000
X49500Y-53500
X50000Y-22500
X50000Y-30000
X50000Y-37500
X50000Y-45000
X50000Y-52500
X52000Y-22500
X52000Y-30000
X52000Y-37500
X52000Y-45000
X52000Y-52500
X52500Y-23500
X52500Y-31000
X52500Y-38500
X52500Y-46000
X52500Y-53500
X57000Y-24129
X57000Y-31629
X57000Y-39129
X57000Y-46629
X57000Y-54129
X57500Y-23129
X57500Y-30629
X57500Y-38129
X57500Y-45629
X57500Y-53129
X59500Y-23129
X59500Y-30629
X59500Y-38129
X59500Y-45629
X59500Y-53129
X60000Y-24129
X60000Y-31629
X60000Y-39129
X60000Y-46629
X60000Y-54129
X64500Y-25380
X64500Y-32879
X64500Y-40379
X64500Y-47879
X64500Y-55379
X65000Y-24380
X65000Y-31879
X65000Y-39379
X65000Y-46879
X65000Y-54379
X67000Y-24380
X67000Y-31879
X67000Y-39379
X67000Y-46879
X67000Y-54379
X67500Y-25380
X67500Y-32879
X67500Y-40379
X67500Y-47879
X67500Y-55379
X71500Y-24880
X71500Y-27380
X71500Y-32379
X71500Y-34879
X71500Y-39879
X71500Y-42379
X71500Y-47379
X71500Y-49879
X72000Y-55379
X72500Y-24380
X72500Y-27880
X72500Y-31879
X72500Y-35379
X72500Y-39379
X72500Y-42879
X72500Y-46879
X72500Y-50379
X72500Y-54379
X73875Y-25380
X73875Y-32879
X73875Y-40379
X73875Y-47879
X74375Y-24380
X74375Y-31879
X74375Y-39379
X74375Y-46879
X74500Y-54379
X75000Y-55379
X76375Y-24380
X76375Y-31879
X76375Y-39379
X76375Y-46879
X76875Y-25380
X76875Y-32879
X76875Y-40379
X76875Y-47879
T6
X11848Y-57250
X15017Y-64047
X15474Y-55560
X18187Y-70845
X18643Y-62357
X18645Y-54081
X21813Y-69155
X21815Y-60878
X22271Y-52391
X24367Y-61619
X24984Y-67675
X25441Y-59188
X26057Y-65245
X26500Y-25630
X28500Y-33004
X28500Y-37004
X28500Y-44254
X28500Y-48254
X28610Y-65985
X28612Y-57708
X30500Y-25630
X31164Y-58449
X31782Y-64506
X32238Y-56018
X32854Y-62075
X34000Y-25630
X34000Y-33129
X34000Y-40629
X34000Y-48129
X35408Y-62816
X38000Y-25630
X38000Y-33129
X38000Y-40629
X38000Y-48129
X41500Y-25129
X41500Y-32629
X41500Y-40129
X41500Y-47629
X41500Y-55129
X45500Y-25129
X45500Y-32629
X45500Y-40129
X45500Y-47629
X45500Y-55129
X49000Y-24500
X49000Y-32000
X49000Y-39500
X49000Y-47000
X49000Y-54500
X53000Y-24500
X53000Y-32000
X53000Y-39500
X53000Y-47000
X53000Y-54500
X56500Y-25129
X56500Y-32629
X56500Y-40129
X56500Y-47629
X56500Y-55129
X60500Y-25129
X60500Y-32629
X60500Y-40129
X60500Y-47629
X60500Y-55129
X64000Y-26380
X64000Y-33879
X64000Y-41379
X64000Y-48879
X64000Y-56379
X68000Y-26380
X68000Y-33879
X68000Y-41379
X68000Y-48879
X68000Y-56379
X71500Y-56379
X75500Y-56379
X77375Y-26380
X77375Y-33879
X77375Y-41379
X77375Y-48879
T1
X52754Y-12464G85X52754Y-12914
G05
X55626Y-12464G85X55626Y-12914
G05
T4
X32210Y-13140G85X32090Y-13140
G05
X35870Y-13140G85X35750Y-13140
G05
T0
M30
