G04 #@! TF.FileFunction,Soldermask,Top*
%FSLAX46Y46*%
G04 Gerber Fmt 4.6, Leading zero omitted, Abs format (unit mm)*
G04 Created by KiCad (PCBNEW (2016-11-25 revision 30df041)-makepkg) date 12/02/16 00:31:02*
%MOMM*%
%LPD*%
G01*
G04 APERTURE LIST*
%ADD10C,0.150000*%
%ADD11C,2.159000*%
%ADD12R,2.159000X2.159000*%
%ADD13C,1.498600*%
%ADD14C,2.057400*%
%ADD15C,1.244600*%
%ADD16R,2.057400X2.057400*%
%ADD17O,1.549400X2.057400*%
%ADD18O,2.108200X3.200400*%
%ADD19C,2.692400*%
%ADD20C,1.193800*%
%ADD21C,3.479800*%
%ADD22R,2.438400X1.422400*%
%ADD23O,2.463800X2.159000*%
%ADD24C,1.397000*%
%ADD25C,2.540000*%
%ADD26C,5.867400*%
%ADD27C,2.108200*%
%ADD28C,2.689860*%
%ADD29R,1.244600X1.244600*%
%ADD30C,2.687320*%
%ADD31O,9.156700X4.394200*%
%ADD32C,4.394200*%
G04 APERTURE END LIST*
D10*
D11*
X164465000Y-37465000D03*
X167005000Y-37465000D03*
X169545000Y-37465000D03*
X172085000Y-37465000D03*
X174625000Y-37465000D03*
X177165000Y-37465000D03*
X179705000Y-37465000D03*
X182245000Y-37465000D03*
X184785000Y-37465000D03*
X187325000Y-37465000D03*
X189865000Y-37465000D03*
X192405000Y-37465000D03*
X194945000Y-37465000D03*
D12*
X161925000Y-37465000D03*
D11*
X194945000Y-45085000D03*
X192405000Y-45085000D03*
D13*
X189865000Y-45085000D03*
X187325000Y-45085000D03*
X184785000Y-45085000D03*
D11*
X182245000Y-45085000D03*
X179705000Y-45085000D03*
X177165000Y-45085000D03*
X174625000Y-45085000D03*
X172085000Y-45085000D03*
X169545000Y-45085000D03*
X167005000Y-45085000D03*
X164465000Y-45085000D03*
X161925000Y-45085000D03*
D14*
X53341367Y-147187736D03*
D15*
X55286576Y-146280670D03*
D10*
G36*
X54985576Y-147107661D02*
X54459585Y-145979670D01*
X55587576Y-145453679D01*
X56113567Y-146581670D01*
X54985576Y-147107661D01*
X54985576Y-147107661D01*
G37*
D14*
X60247433Y-143967384D03*
D10*
G36*
X59749862Y-145334450D02*
X58880367Y-143469813D01*
X60745004Y-142600318D01*
X61614499Y-144464955D01*
X59749862Y-145334450D01*
X59749862Y-145334450D01*
G37*
D15*
X58302224Y-144874450D03*
D10*
G36*
X58001224Y-145701441D02*
X57475233Y-144573450D01*
X58603224Y-144047459D01*
X59129215Y-145175450D01*
X58001224Y-145701441D01*
X58001224Y-145701441D01*
G37*
D14*
X70605747Y-139135936D03*
D15*
X72550956Y-138228870D03*
D10*
G36*
X72249956Y-139055861D02*
X71723965Y-137927870D01*
X72851956Y-137401879D01*
X73377947Y-138529870D01*
X72249956Y-139055861D01*
X72249956Y-139055861D01*
G37*
D14*
X77511813Y-135915584D03*
D10*
G36*
X77014242Y-137282650D02*
X76144747Y-135418013D01*
X78009384Y-134548518D01*
X78878879Y-136413155D01*
X77014242Y-137282650D01*
X77014242Y-137282650D01*
G37*
D15*
X75566604Y-136822650D03*
D10*
G36*
X75265604Y-137649641D02*
X74739613Y-136521650D01*
X75867604Y-135995659D01*
X76393595Y-137123650D01*
X75265604Y-137649641D01*
X75265604Y-137649641D01*
G37*
D14*
X77470000Y-118755160D03*
D16*
X77470000Y-116215160D03*
D14*
X77470000Y-90180160D03*
D16*
X77470000Y-87640160D03*
D14*
X71120000Y-70180200D03*
D16*
X73660000Y-70180200D03*
D17*
X139242800Y-37553900D03*
X138442700Y-35806380D03*
X137642600Y-37553900D03*
X136842500Y-35806380D03*
X136042400Y-37553900D03*
D18*
X133995160Y-32230060D03*
X141290040Y-32230060D03*
D14*
X140055600Y-40259000D03*
X143357600Y-34417000D03*
X137642600Y-40259000D03*
X131927600Y-34417000D03*
X135229600Y-40259000D03*
D19*
X77434621Y-138754526D03*
X72753017Y-143740174D03*
D20*
X72675456Y-146578921D03*
X81883544Y-142285119D03*
D19*
X79659082Y-140519823D03*
X72830577Y-140901427D03*
X60170241Y-146806326D03*
X55488637Y-151791974D03*
D21*
X60015120Y-152483820D03*
D20*
X55411076Y-154630721D03*
X64619164Y-150336919D03*
D19*
X62394702Y-148571623D03*
X55566197Y-148953227D03*
X85176179Y-167376434D03*
X89857783Y-162390786D03*
D21*
X85331300Y-161698940D03*
D20*
X89935344Y-159552039D03*
X80727256Y-163845841D03*
D19*
X82951718Y-165611137D03*
X89780223Y-165229533D03*
X67909259Y-175425694D03*
X72590863Y-170440046D03*
D21*
X68064380Y-169748200D03*
D20*
X72668424Y-167601299D03*
X63460336Y-171895101D03*
D19*
X65684798Y-173660397D03*
X72513303Y-173278793D03*
D14*
X152499602Y-41810398D03*
X145315398Y-48994602D03*
X150594602Y-39905398D03*
X143410398Y-47089602D03*
X130492500Y-46990000D03*
X120332500Y-46990000D03*
X101817898Y-36730398D03*
X109002102Y-43914602D03*
X98642898Y-38000398D03*
X105827102Y-45184602D03*
X78740000Y-40005000D03*
X78740000Y-37465000D03*
X78740000Y-34925000D03*
X93980000Y-40005000D03*
X93980000Y-37465000D03*
X93980000Y-34925000D03*
D12*
X161925000Y-50165000D03*
D11*
X164465000Y-50165000D03*
X167005000Y-50165000D03*
X169545000Y-50165000D03*
X172085000Y-50165000D03*
X174625000Y-50165000D03*
X177165000Y-50165000D03*
X179705000Y-50165000D03*
X182245000Y-50165000D03*
X184785000Y-50165000D03*
X187325000Y-50165000D03*
X189865000Y-50165000D03*
X189865000Y-34925000D03*
X187325000Y-34925000D03*
X184785000Y-34925000D03*
X182245000Y-34925000D03*
X179705000Y-34925000D03*
X177165000Y-34925000D03*
X174625000Y-34925000D03*
X167005000Y-34925000D03*
X164465000Y-34925000D03*
X161925000Y-34925000D03*
X172085000Y-34925000D03*
X169545000Y-34925000D03*
D22*
X187325000Y-40322500D03*
X187325000Y-41592500D03*
D23*
X90957400Y-33375600D03*
D11*
X82702400Y-38379400D03*
X87909400Y-41478200D03*
D23*
X81661000Y-33375600D03*
D11*
X84709000Y-41478200D03*
X89916000Y-38379400D03*
D24*
X86309200Y-33375600D03*
X86309200Y-38379400D03*
D25*
X69927083Y-145197966D03*
D21*
X93829648Y-160396270D03*
D25*
X65323823Y-147345789D03*
D21*
X61602126Y-175425496D03*
X51511692Y-153786490D03*
D26*
X53898800Y-165836600D03*
X59664600Y-121666000D03*
X105435400Y-157759400D03*
X201777600Y-140055600D03*
X139039600Y-91592400D03*
X201142600Y-37134800D03*
X118211600Y-37134800D03*
X67411600Y-37134800D03*
D19*
X193992500Y-80972660D03*
X187642500Y-83512660D03*
D27*
X196532500Y-86052660D03*
D28*
X195262500Y-83512660D03*
D19*
X188912500Y-80972660D03*
D14*
X187642500Y-91132660D03*
D16*
X195262500Y-91132660D03*
D14*
X187642500Y-93672660D03*
D16*
X195262500Y-93672660D03*
D29*
X189788800Y-93672660D03*
X193116200Y-93672660D03*
D30*
X181610000Y-83512660D03*
X184150000Y-82242660D03*
X184150000Y-89862660D03*
X181610000Y-88592660D03*
D31*
X189069980Y-86052660D03*
D27*
X186690000Y-91132660D03*
X186690000Y-80972660D03*
D19*
X193992500Y-119072660D03*
X187642500Y-121612660D03*
D27*
X196532500Y-124152660D03*
D28*
X195262500Y-121612660D03*
D19*
X188912500Y-119072660D03*
D14*
X187642500Y-129232660D03*
D16*
X195262500Y-129232660D03*
D14*
X187642500Y-131772660D03*
D16*
X195262500Y-131772660D03*
D29*
X189788800Y-131772660D03*
X193116200Y-131772660D03*
D30*
X181610000Y-121612660D03*
X184150000Y-120342660D03*
X184150000Y-127962660D03*
X181610000Y-126692660D03*
D31*
X189069980Y-124152660D03*
D27*
X186690000Y-129232660D03*
X186690000Y-119072660D03*
D19*
X193992500Y-61925200D03*
X187642500Y-64465200D03*
D27*
X196532500Y-67005200D03*
D28*
X195262500Y-64465200D03*
D19*
X188912500Y-61925200D03*
D14*
X187642500Y-72085200D03*
D16*
X195262500Y-72085200D03*
D14*
X187642500Y-74625200D03*
D16*
X195262500Y-74625200D03*
D29*
X189788800Y-74625200D03*
X193116200Y-74625200D03*
D30*
X181610000Y-64465200D03*
X184150000Y-63195200D03*
X184150000Y-70815200D03*
X181610000Y-69545200D03*
D31*
X189069980Y-67005200D03*
D27*
X186690000Y-72085200D03*
X186690000Y-61925200D03*
D19*
X193992500Y-100022660D03*
X187642500Y-102562660D03*
D27*
X196532500Y-105102660D03*
D28*
X195262500Y-102562660D03*
D19*
X188912500Y-100022660D03*
D14*
X187642500Y-110182660D03*
D16*
X195262500Y-110182660D03*
D14*
X187642500Y-112722660D03*
D16*
X195262500Y-112722660D03*
D29*
X189788800Y-112722660D03*
X193116200Y-112722660D03*
D30*
X181610000Y-102562660D03*
X184150000Y-101292660D03*
X184150000Y-108912660D03*
X181610000Y-107642660D03*
D31*
X189069980Y-105102660D03*
D27*
X186690000Y-110182660D03*
X186690000Y-100022660D03*
D19*
X93980000Y-60020200D03*
X87630000Y-62560200D03*
D32*
X91440000Y-65100200D03*
D27*
X86360000Y-65100200D03*
X96520000Y-65100200D03*
D19*
X95250000Y-62560200D03*
X88900000Y-60020200D03*
D14*
X87630000Y-70180200D03*
D16*
X95250000Y-70180200D03*
D14*
X87630000Y-72720200D03*
D16*
X95250000Y-72720200D03*
D29*
X89776300Y-72720200D03*
X93103700Y-72720200D03*
D19*
X151130000Y-77797660D03*
X144780000Y-80337660D03*
D32*
X148590000Y-82877660D03*
D27*
X143510000Y-82877660D03*
X153670000Y-82877660D03*
D19*
X152400000Y-80337660D03*
X146050000Y-77797660D03*
D14*
X144780000Y-87957660D03*
D16*
X152400000Y-87957660D03*
D14*
X144780000Y-90497660D03*
D16*
X152400000Y-90497660D03*
D29*
X146926300Y-90497660D03*
X150253700Y-90497660D03*
D19*
X58360986Y-160962159D03*
X63346634Y-165643763D03*
D32*
X64038480Y-161117280D03*
D27*
X66185381Y-165721324D03*
X61891579Y-156513236D03*
D19*
X60126283Y-158737698D03*
X60507887Y-165566203D03*
D14*
X70252699Y-162423412D03*
X67032348Y-155517347D03*
D10*
G36*
X68399414Y-156014918D02*
X66534777Y-156884413D01*
X65665282Y-155019776D01*
X67529919Y-154150281D01*
X68399414Y-156014918D01*
X68399414Y-156014918D01*
G37*
D14*
X72554721Y-161349962D03*
X69334370Y-154443896D03*
D10*
G36*
X70701436Y-154941467D02*
X68836799Y-155810962D01*
X67967304Y-153946325D01*
X69831941Y-153076830D01*
X70701436Y-154941467D01*
X70701436Y-154941467D01*
G37*
D15*
X71647655Y-159404753D03*
D10*
G36*
X72474646Y-159705753D02*
X71346655Y-160231744D01*
X70820664Y-159103753D01*
X71948655Y-158577762D01*
X72474646Y-159705753D01*
X72474646Y-159705753D01*
G37*
D15*
X70241435Y-156389105D03*
D10*
G36*
X71068426Y-156690105D02*
X69940435Y-157216096D01*
X69414444Y-156088105D01*
X70542435Y-155562114D01*
X71068426Y-156690105D01*
X71068426Y-156690105D01*
G37*
D19*
X75625366Y-152910359D03*
X80611014Y-157591963D03*
D32*
X81302860Y-153065480D03*
D27*
X83449761Y-157669524D03*
X79155959Y-148461436D03*
D19*
X77390663Y-150685898D03*
X77772267Y-157514403D03*
D14*
X87517079Y-154371612D03*
X84296728Y-147465547D03*
D10*
G36*
X85663794Y-147963118D02*
X83799157Y-148832613D01*
X82929662Y-146967976D01*
X84794299Y-146098481D01*
X85663794Y-147963118D01*
X85663794Y-147963118D01*
G37*
D14*
X89819101Y-153298162D03*
X86598750Y-146392096D03*
D10*
G36*
X87965816Y-146889667D02*
X86101179Y-147759162D01*
X85231684Y-145894525D01*
X87096321Y-145025030D01*
X87965816Y-146889667D01*
X87965816Y-146889667D01*
G37*
D15*
X88912035Y-151352953D03*
D10*
G36*
X89739026Y-151653953D02*
X88611035Y-152179944D01*
X88085044Y-151051953D01*
X89213035Y-150525962D01*
X89739026Y-151653953D01*
X89739026Y-151653953D01*
G37*
D15*
X87505815Y-148337305D03*
D10*
G36*
X88332806Y-148638305D02*
X87204815Y-149164296D01*
X86678824Y-148036305D01*
X87806815Y-147510314D01*
X88332806Y-148638305D01*
X88332806Y-148638305D01*
G37*
D19*
X113030000Y-134947660D03*
X106680000Y-137487660D03*
D32*
X110490000Y-140027660D03*
D27*
X105410000Y-140027660D03*
X115570000Y-140027660D03*
D19*
X114300000Y-137487660D03*
X107950000Y-134947660D03*
D14*
X106680000Y-145107660D03*
D16*
X114300000Y-145107660D03*
D14*
X106680000Y-147647660D03*
D16*
X114300000Y-147647660D03*
D29*
X108826300Y-147647660D03*
X112153700Y-147647660D03*
D19*
X132080000Y-133350000D03*
X125730000Y-135890000D03*
D32*
X129540000Y-138430000D03*
D27*
X124460000Y-138430000D03*
X134620000Y-138430000D03*
D19*
X133350000Y-135890000D03*
X127000000Y-133350000D03*
D14*
X125730000Y-143510000D03*
D16*
X133350000Y-143510000D03*
D14*
X125730000Y-146050000D03*
D16*
X133350000Y-146050000D03*
D29*
X127876300Y-146050000D03*
X131203700Y-146050000D03*
D19*
X170180000Y-138122660D03*
X163830000Y-140662660D03*
D32*
X167640000Y-143202660D03*
D27*
X162560000Y-143202660D03*
X172720000Y-143202660D03*
D19*
X171450000Y-140662660D03*
X165100000Y-138122660D03*
D14*
X163830000Y-148282660D03*
D16*
X171450000Y-148282660D03*
D14*
X163830000Y-150822660D03*
D16*
X171450000Y-150822660D03*
D29*
X165976300Y-150822660D03*
X169303700Y-150822660D03*
D19*
X93980000Y-117167660D03*
X87630000Y-119707660D03*
D32*
X91440000Y-122247660D03*
D27*
X86360000Y-122247660D03*
X96520000Y-122247660D03*
D19*
X95250000Y-119707660D03*
X88900000Y-117167660D03*
D14*
X87630000Y-127327660D03*
D16*
X95250000Y-127327660D03*
D14*
X87630000Y-129867660D03*
D16*
X95250000Y-129867660D03*
D29*
X89776300Y-129867660D03*
X93103700Y-129867660D03*
D19*
X113030000Y-115897660D03*
X106680000Y-118437660D03*
D32*
X110490000Y-120977660D03*
D27*
X105410000Y-120977660D03*
X115570000Y-120977660D03*
D19*
X114300000Y-118437660D03*
X107950000Y-115897660D03*
D14*
X106680000Y-126057660D03*
D16*
X114300000Y-126057660D03*
D14*
X106680000Y-128597660D03*
D16*
X114300000Y-128597660D03*
D29*
X108826300Y-128597660D03*
X112153700Y-128597660D03*
D19*
X132080000Y-114300000D03*
X125730000Y-116840000D03*
D32*
X129540000Y-119380000D03*
D27*
X124460000Y-119380000D03*
X134620000Y-119380000D03*
D19*
X133350000Y-116840000D03*
X127000000Y-114300000D03*
D14*
X125730000Y-124460000D03*
D16*
X133350000Y-124460000D03*
D14*
X125730000Y-127000000D03*
D16*
X133350000Y-127000000D03*
D29*
X127876300Y-127000000D03*
X131203700Y-127000000D03*
D19*
X151130000Y-115897660D03*
X144780000Y-118437660D03*
D32*
X148590000Y-120977660D03*
D27*
X143510000Y-120977660D03*
X153670000Y-120977660D03*
D19*
X152400000Y-118437660D03*
X146050000Y-115897660D03*
D14*
X144780000Y-126057660D03*
D16*
X152400000Y-126057660D03*
D14*
X144780000Y-128597660D03*
D16*
X152400000Y-128597660D03*
D29*
X146926300Y-128597660D03*
X150253700Y-128597660D03*
D19*
X170180000Y-119072660D03*
X163830000Y-121612660D03*
D32*
X167640000Y-124152660D03*
D27*
X162560000Y-124152660D03*
X172720000Y-124152660D03*
D19*
X171450000Y-121612660D03*
X165100000Y-119072660D03*
D14*
X163830000Y-129232660D03*
D16*
X171450000Y-129232660D03*
D14*
X163830000Y-131772660D03*
D16*
X171450000Y-131772660D03*
D29*
X165976300Y-131772660D03*
X169303700Y-131772660D03*
D19*
X93980000Y-98117660D03*
X87630000Y-100657660D03*
D32*
X91440000Y-103197660D03*
D27*
X86360000Y-103197660D03*
X96520000Y-103197660D03*
D19*
X95250000Y-100657660D03*
X88900000Y-98117660D03*
D14*
X87630000Y-108277660D03*
D16*
X95250000Y-108277660D03*
D14*
X87630000Y-110817660D03*
D16*
X95250000Y-110817660D03*
D29*
X89776300Y-110817660D03*
X93103700Y-110817660D03*
D19*
X113030000Y-96847660D03*
X106680000Y-99387660D03*
D32*
X110490000Y-101927660D03*
D27*
X105410000Y-101927660D03*
X115570000Y-101927660D03*
D19*
X114300000Y-99387660D03*
X107950000Y-96847660D03*
D14*
X106680000Y-107007660D03*
D16*
X114300000Y-107007660D03*
D14*
X106680000Y-109547660D03*
D16*
X114300000Y-109547660D03*
D29*
X108826300Y-109547660D03*
X112153700Y-109547660D03*
D19*
X132080000Y-95250000D03*
X125730000Y-97790000D03*
D32*
X129540000Y-100330000D03*
D27*
X124460000Y-100330000D03*
X134620000Y-100330000D03*
D19*
X133350000Y-97790000D03*
X127000000Y-95250000D03*
D14*
X125730000Y-105410000D03*
D16*
X133350000Y-105410000D03*
D14*
X125730000Y-107950000D03*
D16*
X133350000Y-107950000D03*
D29*
X127876300Y-107950000D03*
X131203700Y-107950000D03*
D19*
X151130000Y-96847660D03*
X144780000Y-99387660D03*
D32*
X148590000Y-101927660D03*
D27*
X143510000Y-101927660D03*
X153670000Y-101927660D03*
D19*
X152400000Y-99387660D03*
X146050000Y-96847660D03*
D14*
X144780000Y-107007660D03*
D16*
X152400000Y-107007660D03*
D14*
X144780000Y-109547660D03*
D16*
X152400000Y-109547660D03*
D29*
X146926300Y-109547660D03*
X150253700Y-109547660D03*
D19*
X113030000Y-77797660D03*
X106680000Y-80337660D03*
D32*
X110490000Y-82877660D03*
D27*
X105410000Y-82877660D03*
X115570000Y-82877660D03*
D19*
X114300000Y-80337660D03*
X107950000Y-77797660D03*
D14*
X106680000Y-87957660D03*
D16*
X114300000Y-87957660D03*
D14*
X106680000Y-90497660D03*
D16*
X114300000Y-90497660D03*
D29*
X108826300Y-90497660D03*
X112153700Y-90497660D03*
D19*
X132080000Y-76200000D03*
X125730000Y-78740000D03*
D32*
X129540000Y-81280000D03*
D27*
X124460000Y-81280000D03*
X134620000Y-81280000D03*
D19*
X133350000Y-78740000D03*
X127000000Y-76200000D03*
D14*
X125730000Y-86360000D03*
D16*
X133350000Y-86360000D03*
D14*
X125730000Y-88900000D03*
D16*
X133350000Y-88900000D03*
D29*
X127876300Y-88900000D03*
X131203700Y-88900000D03*
D19*
X170180000Y-80972660D03*
X163830000Y-83512660D03*
D32*
X167640000Y-86052660D03*
D27*
X162560000Y-86052660D03*
X172720000Y-86052660D03*
D19*
X171450000Y-83512660D03*
X165100000Y-80972660D03*
D14*
X163830000Y-91132660D03*
D16*
X171450000Y-91132660D03*
D14*
X163830000Y-93672660D03*
D16*
X171450000Y-93672660D03*
D29*
X165976300Y-93672660D03*
X169303700Y-93672660D03*
D19*
X151130000Y-134947660D03*
X144780000Y-137487660D03*
D32*
X148590000Y-140027660D03*
D27*
X143510000Y-140027660D03*
X153670000Y-140027660D03*
D19*
X152400000Y-137487660D03*
X146050000Y-134947660D03*
D14*
X144780000Y-145107660D03*
D16*
X152400000Y-145107660D03*
D14*
X144780000Y-147647660D03*
D16*
X152400000Y-147647660D03*
D29*
X146926300Y-147647660D03*
X150253700Y-147647660D03*
D19*
X113030000Y-58747660D03*
X106680000Y-61287660D03*
D32*
X110490000Y-63827660D03*
D27*
X105410000Y-63827660D03*
X115570000Y-63827660D03*
D19*
X114300000Y-61287660D03*
X107950000Y-58747660D03*
D14*
X106680000Y-68907660D03*
D16*
X114300000Y-68907660D03*
D14*
X106680000Y-71447660D03*
D16*
X114300000Y-71447660D03*
D29*
X108826300Y-71447660D03*
X112153700Y-71447660D03*
D19*
X132080000Y-57150000D03*
X125730000Y-59690000D03*
D32*
X129540000Y-62230000D03*
D27*
X124460000Y-62230000D03*
X134620000Y-62230000D03*
D19*
X133350000Y-59690000D03*
X127000000Y-57150000D03*
D14*
X125730000Y-67310000D03*
D16*
X133350000Y-67310000D03*
D14*
X125730000Y-69850000D03*
D16*
X133350000Y-69850000D03*
D29*
X127876300Y-69850000D03*
X131203700Y-69850000D03*
D19*
X151130000Y-58747660D03*
X144780000Y-61287660D03*
D32*
X148590000Y-63827660D03*
D27*
X143510000Y-63827660D03*
X153670000Y-63827660D03*
D19*
X152400000Y-61287660D03*
X146050000Y-58747660D03*
D14*
X144780000Y-68907660D03*
D16*
X152400000Y-68907660D03*
D14*
X144780000Y-71447660D03*
D16*
X152400000Y-71447660D03*
D29*
X146926300Y-71447660D03*
X150253700Y-71447660D03*
D19*
X170180000Y-61925200D03*
X163830000Y-64465200D03*
D32*
X167640000Y-67005200D03*
D27*
X162560000Y-67005200D03*
X172720000Y-67005200D03*
D19*
X171450000Y-64465200D03*
X165100000Y-61925200D03*
D14*
X163830000Y-72085200D03*
D16*
X171450000Y-72085200D03*
D14*
X163830000Y-74625200D03*
D16*
X171450000Y-74625200D03*
D29*
X165976300Y-74625200D03*
X169303700Y-74625200D03*
D19*
X52118441Y-129541946D03*
X47436837Y-134527594D03*
D32*
X51963320Y-135219440D03*
D27*
X47359276Y-137366341D03*
X56567364Y-133072539D03*
D19*
X54342902Y-131307243D03*
X47514397Y-131688847D03*
D14*
X50657188Y-141433659D03*
X57563253Y-138213308D03*
D10*
G36*
X57065682Y-139580374D02*
X56196187Y-137715737D01*
X58060824Y-136846242D01*
X58930319Y-138710879D01*
X57065682Y-139580374D01*
X57065682Y-139580374D01*
G37*
D14*
X51730638Y-143735681D03*
X58636704Y-140515330D03*
D10*
G36*
X58139133Y-141882396D02*
X57269638Y-140017759D01*
X59134275Y-139148264D01*
X60003770Y-141012901D01*
X58139133Y-141882396D01*
X58139133Y-141882396D01*
G37*
D15*
X53675847Y-142828615D03*
D10*
G36*
X53374847Y-143655606D02*
X52848856Y-142527615D01*
X53976847Y-142001624D01*
X54502838Y-143129615D01*
X53374847Y-143655606D01*
X53374847Y-143655606D01*
G37*
D15*
X56691495Y-141422395D03*
D10*
G36*
X56390495Y-142249386D02*
X55864504Y-141121395D01*
X56992495Y-140595404D01*
X57518486Y-141723395D01*
X56390495Y-142249386D01*
X56390495Y-142249386D01*
G37*
D19*
X34854061Y-137591206D03*
X30172457Y-142576854D03*
D32*
X34698940Y-143268700D03*
D27*
X30094896Y-145415601D03*
X39302984Y-141121799D03*
D19*
X37078522Y-139356503D03*
X30250017Y-139738107D03*
D14*
X33392808Y-149482919D03*
X40298873Y-146262568D03*
D10*
G36*
X39801302Y-147629634D02*
X38931807Y-145764997D01*
X40796444Y-144895502D01*
X41665939Y-146760139D01*
X39801302Y-147629634D01*
X39801302Y-147629634D01*
G37*
D14*
X34466258Y-151784941D03*
X41372324Y-148564590D03*
D10*
G36*
X40874753Y-149931656D02*
X40005258Y-148067019D01*
X41869895Y-147197524D01*
X42739390Y-149062161D01*
X40874753Y-149931656D01*
X40874753Y-149931656D01*
G37*
D15*
X36411467Y-150877875D03*
D10*
G36*
X36110467Y-151704866D02*
X35584476Y-150576875D01*
X36712467Y-150050884D01*
X37238458Y-151178875D01*
X36110467Y-151704866D01*
X36110467Y-151704866D01*
G37*
D15*
X39427115Y-149471655D03*
D10*
G36*
X39126115Y-150298646D02*
X38600124Y-149170655D01*
X39728115Y-148644664D01*
X40254106Y-149772655D01*
X39126115Y-150298646D01*
X39126115Y-150298646D01*
G37*
D19*
X50955121Y-172122506D03*
X46273517Y-177108154D03*
D32*
X50800000Y-177800000D03*
D27*
X46195956Y-179946901D03*
X55404044Y-175653099D03*
D19*
X53179582Y-173887803D03*
X46351077Y-174269407D03*
D14*
X49493868Y-184014219D03*
X56399933Y-180793868D03*
D10*
G36*
X55902362Y-182160934D02*
X55032867Y-180296297D01*
X56897504Y-179426802D01*
X57766999Y-181291439D01*
X55902362Y-182160934D01*
X55902362Y-182160934D01*
G37*
D14*
X50567318Y-186316241D03*
X57473384Y-183095890D03*
D10*
G36*
X56975813Y-184462956D02*
X56106318Y-182598319D01*
X57970955Y-181728824D01*
X58840450Y-183593461D01*
X56975813Y-184462956D01*
X56975813Y-184462956D01*
G37*
D15*
X52512527Y-185409175D03*
D10*
G36*
X52211527Y-186236166D02*
X51685536Y-185108175D01*
X52813527Y-184582184D01*
X53339518Y-185710175D01*
X52211527Y-186236166D01*
X52211527Y-186236166D01*
G37*
D15*
X55528175Y-184002955D03*
D10*
G36*
X55227175Y-184829946D02*
X54701184Y-183701955D01*
X55829175Y-183175964D01*
X56355166Y-184303955D01*
X55227175Y-184829946D01*
X55227175Y-184829946D01*
G37*
D19*
X42903321Y-154855586D03*
X38221717Y-159841234D03*
D32*
X42748200Y-160533080D03*
D27*
X38144156Y-162679981D03*
X47352244Y-158386179D03*
D19*
X45127782Y-156620883D03*
X38299277Y-157002487D03*
D14*
X41442068Y-166747299D03*
X48348133Y-163526948D03*
D10*
G36*
X47850562Y-164894014D02*
X46981067Y-163029377D01*
X48845704Y-162159882D01*
X49715199Y-164024519D01*
X47850562Y-164894014D01*
X47850562Y-164894014D01*
G37*
D14*
X42515518Y-169049321D03*
X49421584Y-165828970D03*
D10*
G36*
X48924013Y-167196036D02*
X48054518Y-165331399D01*
X49919155Y-164461904D01*
X50788650Y-166326541D01*
X48924013Y-167196036D01*
X48924013Y-167196036D01*
G37*
D15*
X44460727Y-168142255D03*
D10*
G36*
X44159727Y-168969246D02*
X43633736Y-167841255D01*
X44761727Y-167315264D01*
X45287718Y-168443255D01*
X44159727Y-168969246D01*
X44159727Y-168969246D01*
G37*
D15*
X47476375Y-166736035D03*
D10*
G36*
X47175375Y-167563026D02*
X46649384Y-166435035D01*
X47777375Y-165909044D01*
X48303366Y-167037035D01*
X47175375Y-167563026D01*
X47175375Y-167563026D01*
G37*
D19*
X93980000Y-79067660D03*
X87630000Y-81607660D03*
D32*
X91440000Y-84147660D03*
D27*
X86360000Y-84147660D03*
X96520000Y-84147660D03*
D19*
X95250000Y-81607660D03*
X88900000Y-79067660D03*
D14*
X87630000Y-89227660D03*
D16*
X95250000Y-89227660D03*
D14*
X87630000Y-91767660D03*
D16*
X95250000Y-91767660D03*
D29*
X89776300Y-91767660D03*
X93103700Y-91767660D03*
D19*
X189230000Y-138122660D03*
X182880000Y-140662660D03*
D32*
X186690000Y-143202660D03*
D27*
X181610000Y-143202660D03*
X191770000Y-143202660D03*
D19*
X190500000Y-140662660D03*
X184150000Y-138122660D03*
D14*
X182880000Y-148282660D03*
D16*
X190500000Y-148282660D03*
D14*
X182880000Y-150822660D03*
D16*
X190500000Y-150822660D03*
D29*
X185026300Y-150822660D03*
X188353700Y-150822660D03*
D19*
X67310000Y-114945160D03*
X69850000Y-121295160D03*
D32*
X72390000Y-117485160D03*
D27*
X72390000Y-122565160D03*
X72390000Y-112405160D03*
D19*
X69850000Y-113675160D03*
X67310000Y-120025160D03*
D14*
X77470000Y-121295160D03*
D16*
X77470000Y-113675160D03*
D14*
X80010000Y-121295160D03*
D16*
X80010000Y-113675160D03*
D29*
X80010000Y-119148860D03*
X80010000Y-115821460D03*
D19*
X67310000Y-86370160D03*
X69850000Y-92720160D03*
D32*
X72390000Y-88910160D03*
D27*
X72390000Y-93990160D03*
X72390000Y-83830160D03*
D19*
X69850000Y-85100160D03*
X67310000Y-91450160D03*
D14*
X77470000Y-92720160D03*
D16*
X77470000Y-85100160D03*
D14*
X80010000Y-92720160D03*
D16*
X80010000Y-85100160D03*
D29*
X80010000Y-90573860D03*
X80010000Y-87246460D03*
D19*
X74930000Y-60020200D03*
X68580000Y-62560200D03*
D32*
X72390000Y-65100200D03*
D27*
X67310000Y-65100200D03*
X77470000Y-65100200D03*
D19*
X76200000Y-62560200D03*
X69850000Y-60020200D03*
D14*
X68580000Y-70180200D03*
D16*
X76200000Y-70180200D03*
D14*
X68580000Y-72720200D03*
D16*
X76200000Y-72720200D03*
D29*
X70726300Y-72720200D03*
X74053700Y-72720200D03*
D19*
X170180000Y-100022660D03*
X163830000Y-102562660D03*
D32*
X167640000Y-105102660D03*
D27*
X162560000Y-105102660D03*
X172720000Y-105102660D03*
D19*
X171450000Y-102562660D03*
X165100000Y-100022660D03*
D14*
X163830000Y-110182660D03*
D16*
X171450000Y-110182660D03*
D14*
X163830000Y-112722660D03*
D16*
X171450000Y-112722660D03*
D29*
X165976300Y-112722660D03*
X169303700Y-112722660D03*
M02*
