G04 #@! TF.FileFunction,Other,ECO2*
%FSLAX46Y46*%
G04 Gerber Fmt 4.6, Leading zero omitted, Abs format (unit mm)*
G04 Created by KiCad (PCBNEW (2016-11-25 revision 30df041)-makepkg) date 12/02/16 00:31:02*
%MOMM*%
%LPD*%
G01*
G04 APERTURE LIST*
%ADD10C,0.150000*%
%ADD11C,0.152400*%
G04 APERTURE END LIST*
D10*
D11*
X81199854Y-138119710D02*
X82595339Y-141112338D01*
X82595339Y-141112338D02*
X69934220Y-147016315D01*
X69934220Y-147016315D02*
X68538734Y-144023687D01*
X68538734Y-144023687D02*
X81199854Y-138119710D01*
X91290287Y-159758715D02*
X92685773Y-162751343D01*
X92685773Y-162751343D02*
X80024653Y-168655320D01*
X80024653Y-168655320D02*
X78629168Y-165662692D01*
X78629168Y-165662692D02*
X91290287Y-159758715D01*
X64141486Y-176063050D02*
X62746001Y-173070422D01*
X62746001Y-173070422D02*
X75407120Y-167166445D01*
X75407120Y-167166445D02*
X76802606Y-170159073D01*
X76802606Y-170159073D02*
X64141486Y-176063050D01*
X54051053Y-154424045D02*
X52655567Y-151431417D01*
X52655567Y-151431417D02*
X65316687Y-145527440D01*
X65316687Y-145527440D02*
X66712172Y-148520068D01*
X66712172Y-148520068D02*
X54051053Y-154424045D01*
X184467500Y-79067660D02*
X198437500Y-79067660D01*
X198437500Y-79067660D02*
X198437500Y-80048100D01*
X198437500Y-80048100D02*
X199250300Y-80048100D01*
X199250300Y-80048100D02*
X199250300Y-83548220D01*
X199250300Y-83548220D02*
X198437500Y-83548220D01*
X198437500Y-83548220D02*
X198437500Y-88557100D01*
X198437500Y-88557100D02*
X199250300Y-88557100D01*
X199250300Y-88557100D02*
X199250300Y-92057220D01*
X199250300Y-92057220D02*
X198437500Y-92057220D01*
X198437500Y-92057220D02*
X198437500Y-93037660D01*
X198437500Y-93037660D02*
X184467500Y-93037660D01*
X184467500Y-93037660D02*
X184467500Y-92057220D01*
X184467500Y-92057220D02*
X183654700Y-92057220D01*
X183654700Y-92057220D02*
X183654700Y-88557100D01*
X183654700Y-88557100D02*
X184467500Y-88557100D01*
X184467500Y-88557100D02*
X184467500Y-83548220D01*
X184467500Y-83548220D02*
X183654700Y-83548220D01*
X183654700Y-83548220D02*
X183654700Y-80048100D01*
X183654700Y-80048100D02*
X184467500Y-80048100D01*
X184467500Y-80048100D02*
X184467500Y-79067660D01*
X184467500Y-117167660D02*
X198437500Y-117167660D01*
X198437500Y-117167660D02*
X198437500Y-118148100D01*
X198437500Y-118148100D02*
X199250300Y-118148100D01*
X199250300Y-118148100D02*
X199250300Y-121648220D01*
X199250300Y-121648220D02*
X198437500Y-121648220D01*
X198437500Y-121648220D02*
X198437500Y-126657100D01*
X198437500Y-126657100D02*
X199250300Y-126657100D01*
X199250300Y-126657100D02*
X199250300Y-130157220D01*
X199250300Y-130157220D02*
X198437500Y-130157220D01*
X198437500Y-130157220D02*
X198437500Y-131137660D01*
X198437500Y-131137660D02*
X184467500Y-131137660D01*
X184467500Y-131137660D02*
X184467500Y-130157220D01*
X184467500Y-130157220D02*
X183654700Y-130157220D01*
X183654700Y-130157220D02*
X183654700Y-126657100D01*
X183654700Y-126657100D02*
X184467500Y-126657100D01*
X184467500Y-126657100D02*
X184467500Y-121648220D01*
X184467500Y-121648220D02*
X183654700Y-121648220D01*
X183654700Y-121648220D02*
X183654700Y-118148100D01*
X183654700Y-118148100D02*
X184467500Y-118148100D01*
X184467500Y-118148100D02*
X184467500Y-117167660D01*
X184467500Y-60020200D02*
X198437500Y-60020200D01*
X198437500Y-60020200D02*
X198437500Y-61000640D01*
X198437500Y-61000640D02*
X199250300Y-61000640D01*
X199250300Y-61000640D02*
X199250300Y-64500760D01*
X199250300Y-64500760D02*
X198437500Y-64500760D01*
X198437500Y-64500760D02*
X198437500Y-69509640D01*
X198437500Y-69509640D02*
X199250300Y-69509640D01*
X199250300Y-69509640D02*
X199250300Y-73009760D01*
X199250300Y-73009760D02*
X198437500Y-73009760D01*
X198437500Y-73009760D02*
X198437500Y-73990200D01*
X198437500Y-73990200D02*
X184467500Y-73990200D01*
X184467500Y-73990200D02*
X184467500Y-73009760D01*
X184467500Y-73009760D02*
X183654700Y-73009760D01*
X183654700Y-73009760D02*
X183654700Y-69509640D01*
X183654700Y-69509640D02*
X184467500Y-69509640D01*
X184467500Y-69509640D02*
X184467500Y-64500760D01*
X184467500Y-64500760D02*
X183654700Y-64500760D01*
X183654700Y-64500760D02*
X183654700Y-61000640D01*
X183654700Y-61000640D02*
X184467500Y-61000640D01*
X184467500Y-61000640D02*
X184467500Y-60020200D01*
X184467500Y-98117660D02*
X198437500Y-98117660D01*
X198437500Y-98117660D02*
X198437500Y-99098100D01*
X198437500Y-99098100D02*
X199250300Y-99098100D01*
X199250300Y-99098100D02*
X199250300Y-102598220D01*
X199250300Y-102598220D02*
X198437500Y-102598220D01*
X198437500Y-102598220D02*
X198437500Y-107607100D01*
X198437500Y-107607100D02*
X199250300Y-107607100D01*
X199250300Y-107607100D02*
X199250300Y-111107220D01*
X199250300Y-111107220D02*
X198437500Y-111107220D01*
X198437500Y-111107220D02*
X198437500Y-112087660D01*
X198437500Y-112087660D02*
X184467500Y-112087660D01*
X184467500Y-112087660D02*
X184467500Y-111107220D01*
X184467500Y-111107220D02*
X183654700Y-111107220D01*
X183654700Y-111107220D02*
X183654700Y-107607100D01*
X183654700Y-107607100D02*
X184467500Y-107607100D01*
X184467500Y-107607100D02*
X184467500Y-102598220D01*
X184467500Y-102598220D02*
X183654700Y-102598220D01*
X183654700Y-102598220D02*
X183654700Y-99098100D01*
X183654700Y-99098100D02*
X184467500Y-99098100D01*
X184467500Y-99098100D02*
X184467500Y-98117660D01*
X84455000Y-58115200D02*
X98425000Y-58115200D01*
X98425000Y-58115200D02*
X98425000Y-59095640D01*
X98425000Y-59095640D02*
X99237800Y-59095640D01*
X99237800Y-59095640D02*
X99237800Y-62595760D01*
X99237800Y-62595760D02*
X98425000Y-62595760D01*
X98425000Y-62595760D02*
X98425000Y-67604640D01*
X98425000Y-67604640D02*
X99237800Y-67604640D01*
X99237800Y-67604640D02*
X99237800Y-71104760D01*
X99237800Y-71104760D02*
X98425000Y-71104760D01*
X98425000Y-71104760D02*
X98425000Y-72085200D01*
X98425000Y-72085200D02*
X84455000Y-72085200D01*
X84455000Y-72085200D02*
X84455000Y-71104760D01*
X84455000Y-71104760D02*
X83642200Y-71104760D01*
X83642200Y-71104760D02*
X83642200Y-67604640D01*
X83642200Y-67604640D02*
X84455000Y-67604640D01*
X84455000Y-67604640D02*
X84455000Y-62595760D01*
X84455000Y-62595760D02*
X83642200Y-62595760D01*
X83642200Y-62595760D02*
X83642200Y-59095640D01*
X83642200Y-59095640D02*
X84455000Y-59095640D01*
X84455000Y-59095640D02*
X84455000Y-58115200D01*
X141605000Y-75892660D02*
X155575000Y-75892660D01*
X155575000Y-75892660D02*
X155575000Y-76873100D01*
X155575000Y-76873100D02*
X156387800Y-76873100D01*
X156387800Y-76873100D02*
X156387800Y-80373220D01*
X156387800Y-80373220D02*
X155575000Y-80373220D01*
X155575000Y-80373220D02*
X155575000Y-85382100D01*
X155575000Y-85382100D02*
X156387800Y-85382100D01*
X156387800Y-85382100D02*
X156387800Y-88882220D01*
X156387800Y-88882220D02*
X155575000Y-88882220D01*
X155575000Y-88882220D02*
X155575000Y-89862660D01*
X155575000Y-89862660D02*
X141605000Y-89862660D01*
X141605000Y-89862660D02*
X141605000Y-88882220D01*
X141605000Y-88882220D02*
X140792200Y-88882220D01*
X140792200Y-88882220D02*
X140792200Y-85382100D01*
X140792200Y-85382100D02*
X141605000Y-85382100D01*
X141605000Y-85382100D02*
X141605000Y-80373220D01*
X141605000Y-80373220D02*
X140792200Y-80373220D01*
X140792200Y-80373220D02*
X140792200Y-76873100D01*
X140792200Y-76873100D02*
X141605000Y-76873100D01*
X141605000Y-76873100D02*
X141605000Y-75892660D01*
X60659909Y-170399828D02*
X54755932Y-157738709D01*
X54755932Y-157738709D02*
X55644512Y-157324357D01*
X55644512Y-157324357D02*
X55301008Y-156587710D01*
X55301008Y-156587710D02*
X58473194Y-155108495D01*
X58473194Y-155108495D02*
X58816698Y-155845142D01*
X58816698Y-155845142D02*
X63356285Y-153728298D01*
X63356285Y-153728298D02*
X63012781Y-152991651D01*
X63012781Y-152991651D02*
X66184967Y-151512436D01*
X66184967Y-151512436D02*
X66528471Y-152249083D01*
X66528471Y-152249083D02*
X67417051Y-151834732D01*
X67417051Y-151834732D02*
X73321028Y-164495851D01*
X73321028Y-164495851D02*
X72432448Y-164910203D01*
X72432448Y-164910203D02*
X72775952Y-165646850D01*
X72775952Y-165646850D02*
X69603766Y-167126065D01*
X69603766Y-167126065D02*
X69260262Y-166389418D01*
X69260262Y-166389418D02*
X64720675Y-168506262D01*
X64720675Y-168506262D02*
X65064179Y-169242909D01*
X65064179Y-169242909D02*
X61891993Y-170722124D01*
X61891993Y-170722124D02*
X61548489Y-169985477D01*
X61548489Y-169985477D02*
X60659909Y-170399828D01*
X77924289Y-162348028D02*
X72020312Y-149686909D01*
X72020312Y-149686909D02*
X72908892Y-149272557D01*
X72908892Y-149272557D02*
X72565388Y-148535910D01*
X72565388Y-148535910D02*
X75737574Y-147056695D01*
X75737574Y-147056695D02*
X76081078Y-147793342D01*
X76081078Y-147793342D02*
X80620665Y-145676498D01*
X80620665Y-145676498D02*
X80277161Y-144939851D01*
X80277161Y-144939851D02*
X83449347Y-143460636D01*
X83449347Y-143460636D02*
X83792851Y-144197283D01*
X83792851Y-144197283D02*
X84681431Y-143782932D01*
X84681431Y-143782932D02*
X90585408Y-156444051D01*
X90585408Y-156444051D02*
X89696828Y-156858403D01*
X89696828Y-156858403D02*
X90040332Y-157595050D01*
X90040332Y-157595050D02*
X86868146Y-159074265D01*
X86868146Y-159074265D02*
X86524642Y-158337618D01*
X86524642Y-158337618D02*
X81985055Y-160454462D01*
X81985055Y-160454462D02*
X82328559Y-161191109D01*
X82328559Y-161191109D02*
X79156373Y-162670324D01*
X79156373Y-162670324D02*
X78812869Y-161933677D01*
X78812869Y-161933677D02*
X77924289Y-162348028D01*
X103505000Y-133042660D02*
X117475000Y-133042660D01*
X117475000Y-133042660D02*
X117475000Y-134023100D01*
X117475000Y-134023100D02*
X118287800Y-134023100D01*
X118287800Y-134023100D02*
X118287800Y-137523220D01*
X118287800Y-137523220D02*
X117475000Y-137523220D01*
X117475000Y-137523220D02*
X117475000Y-142532100D01*
X117475000Y-142532100D02*
X118287800Y-142532100D01*
X118287800Y-142532100D02*
X118287800Y-146032220D01*
X118287800Y-146032220D02*
X117475000Y-146032220D01*
X117475000Y-146032220D02*
X117475000Y-147012660D01*
X117475000Y-147012660D02*
X103505000Y-147012660D01*
X103505000Y-147012660D02*
X103505000Y-146032220D01*
X103505000Y-146032220D02*
X102692200Y-146032220D01*
X102692200Y-146032220D02*
X102692200Y-142532100D01*
X102692200Y-142532100D02*
X103505000Y-142532100D01*
X103505000Y-142532100D02*
X103505000Y-137523220D01*
X103505000Y-137523220D02*
X102692200Y-137523220D01*
X102692200Y-137523220D02*
X102692200Y-134023100D01*
X102692200Y-134023100D02*
X103505000Y-134023100D01*
X103505000Y-134023100D02*
X103505000Y-133042660D01*
X122555000Y-131445000D02*
X136525000Y-131445000D01*
X136525000Y-131445000D02*
X136525000Y-132425440D01*
X136525000Y-132425440D02*
X137337800Y-132425440D01*
X137337800Y-132425440D02*
X137337800Y-135925560D01*
X137337800Y-135925560D02*
X136525000Y-135925560D01*
X136525000Y-135925560D02*
X136525000Y-140934440D01*
X136525000Y-140934440D02*
X137337800Y-140934440D01*
X137337800Y-140934440D02*
X137337800Y-144434560D01*
X137337800Y-144434560D02*
X136525000Y-144434560D01*
X136525000Y-144434560D02*
X136525000Y-145415000D01*
X136525000Y-145415000D02*
X122555000Y-145415000D01*
X122555000Y-145415000D02*
X122555000Y-144434560D01*
X122555000Y-144434560D02*
X121742200Y-144434560D01*
X121742200Y-144434560D02*
X121742200Y-140934440D01*
X121742200Y-140934440D02*
X122555000Y-140934440D01*
X122555000Y-140934440D02*
X122555000Y-135925560D01*
X122555000Y-135925560D02*
X121742200Y-135925560D01*
X121742200Y-135925560D02*
X121742200Y-132425440D01*
X121742200Y-132425440D02*
X122555000Y-132425440D01*
X122555000Y-132425440D02*
X122555000Y-131445000D01*
X160655000Y-136217660D02*
X174625000Y-136217660D01*
X174625000Y-136217660D02*
X174625000Y-137198100D01*
X174625000Y-137198100D02*
X175437800Y-137198100D01*
X175437800Y-137198100D02*
X175437800Y-140698220D01*
X175437800Y-140698220D02*
X174625000Y-140698220D01*
X174625000Y-140698220D02*
X174625000Y-145707100D01*
X174625000Y-145707100D02*
X175437800Y-145707100D01*
X175437800Y-145707100D02*
X175437800Y-149207220D01*
X175437800Y-149207220D02*
X174625000Y-149207220D01*
X174625000Y-149207220D02*
X174625000Y-150187660D01*
X174625000Y-150187660D02*
X160655000Y-150187660D01*
X160655000Y-150187660D02*
X160655000Y-149207220D01*
X160655000Y-149207220D02*
X159842200Y-149207220D01*
X159842200Y-149207220D02*
X159842200Y-145707100D01*
X159842200Y-145707100D02*
X160655000Y-145707100D01*
X160655000Y-145707100D02*
X160655000Y-140698220D01*
X160655000Y-140698220D02*
X159842200Y-140698220D01*
X159842200Y-140698220D02*
X159842200Y-137198100D01*
X159842200Y-137198100D02*
X160655000Y-137198100D01*
X160655000Y-137198100D02*
X160655000Y-136217660D01*
X84455000Y-115262660D02*
X98425000Y-115262660D01*
X98425000Y-115262660D02*
X98425000Y-116243100D01*
X98425000Y-116243100D02*
X99237800Y-116243100D01*
X99237800Y-116243100D02*
X99237800Y-119743220D01*
X99237800Y-119743220D02*
X98425000Y-119743220D01*
X98425000Y-119743220D02*
X98425000Y-124752100D01*
X98425000Y-124752100D02*
X99237800Y-124752100D01*
X99237800Y-124752100D02*
X99237800Y-128252220D01*
X99237800Y-128252220D02*
X98425000Y-128252220D01*
X98425000Y-128252220D02*
X98425000Y-129232660D01*
X98425000Y-129232660D02*
X84455000Y-129232660D01*
X84455000Y-129232660D02*
X84455000Y-128252220D01*
X84455000Y-128252220D02*
X83642200Y-128252220D01*
X83642200Y-128252220D02*
X83642200Y-124752100D01*
X83642200Y-124752100D02*
X84455000Y-124752100D01*
X84455000Y-124752100D02*
X84455000Y-119743220D01*
X84455000Y-119743220D02*
X83642200Y-119743220D01*
X83642200Y-119743220D02*
X83642200Y-116243100D01*
X83642200Y-116243100D02*
X84455000Y-116243100D01*
X84455000Y-116243100D02*
X84455000Y-115262660D01*
X103505000Y-113992660D02*
X117475000Y-113992660D01*
X117475000Y-113992660D02*
X117475000Y-114973100D01*
X117475000Y-114973100D02*
X118287800Y-114973100D01*
X118287800Y-114973100D02*
X118287800Y-118473220D01*
X118287800Y-118473220D02*
X117475000Y-118473220D01*
X117475000Y-118473220D02*
X117475000Y-123482100D01*
X117475000Y-123482100D02*
X118287800Y-123482100D01*
X118287800Y-123482100D02*
X118287800Y-126982220D01*
X118287800Y-126982220D02*
X117475000Y-126982220D01*
X117475000Y-126982220D02*
X117475000Y-127962660D01*
X117475000Y-127962660D02*
X103505000Y-127962660D01*
X103505000Y-127962660D02*
X103505000Y-126982220D01*
X103505000Y-126982220D02*
X102692200Y-126982220D01*
X102692200Y-126982220D02*
X102692200Y-123482100D01*
X102692200Y-123482100D02*
X103505000Y-123482100D01*
X103505000Y-123482100D02*
X103505000Y-118473220D01*
X103505000Y-118473220D02*
X102692200Y-118473220D01*
X102692200Y-118473220D02*
X102692200Y-114973100D01*
X102692200Y-114973100D02*
X103505000Y-114973100D01*
X103505000Y-114973100D02*
X103505000Y-113992660D01*
X122555000Y-112395000D02*
X136525000Y-112395000D01*
X136525000Y-112395000D02*
X136525000Y-113375440D01*
X136525000Y-113375440D02*
X137337800Y-113375440D01*
X137337800Y-113375440D02*
X137337800Y-116875560D01*
X137337800Y-116875560D02*
X136525000Y-116875560D01*
X136525000Y-116875560D02*
X136525000Y-121884440D01*
X136525000Y-121884440D02*
X137337800Y-121884440D01*
X137337800Y-121884440D02*
X137337800Y-125384560D01*
X137337800Y-125384560D02*
X136525000Y-125384560D01*
X136525000Y-125384560D02*
X136525000Y-126365000D01*
X136525000Y-126365000D02*
X122555000Y-126365000D01*
X122555000Y-126365000D02*
X122555000Y-125384560D01*
X122555000Y-125384560D02*
X121742200Y-125384560D01*
X121742200Y-125384560D02*
X121742200Y-121884440D01*
X121742200Y-121884440D02*
X122555000Y-121884440D01*
X122555000Y-121884440D02*
X122555000Y-116875560D01*
X122555000Y-116875560D02*
X121742200Y-116875560D01*
X121742200Y-116875560D02*
X121742200Y-113375440D01*
X121742200Y-113375440D02*
X122555000Y-113375440D01*
X122555000Y-113375440D02*
X122555000Y-112395000D01*
X141605000Y-113992660D02*
X155575000Y-113992660D01*
X155575000Y-113992660D02*
X155575000Y-114973100D01*
X155575000Y-114973100D02*
X156387800Y-114973100D01*
X156387800Y-114973100D02*
X156387800Y-118473220D01*
X156387800Y-118473220D02*
X155575000Y-118473220D01*
X155575000Y-118473220D02*
X155575000Y-123482100D01*
X155575000Y-123482100D02*
X156387800Y-123482100D01*
X156387800Y-123482100D02*
X156387800Y-126982220D01*
X156387800Y-126982220D02*
X155575000Y-126982220D01*
X155575000Y-126982220D02*
X155575000Y-127962660D01*
X155575000Y-127962660D02*
X141605000Y-127962660D01*
X141605000Y-127962660D02*
X141605000Y-126982220D01*
X141605000Y-126982220D02*
X140792200Y-126982220D01*
X140792200Y-126982220D02*
X140792200Y-123482100D01*
X140792200Y-123482100D02*
X141605000Y-123482100D01*
X141605000Y-123482100D02*
X141605000Y-118473220D01*
X141605000Y-118473220D02*
X140792200Y-118473220D01*
X140792200Y-118473220D02*
X140792200Y-114973100D01*
X140792200Y-114973100D02*
X141605000Y-114973100D01*
X141605000Y-114973100D02*
X141605000Y-113992660D01*
X160655000Y-117167660D02*
X174625000Y-117167660D01*
X174625000Y-117167660D02*
X174625000Y-118148100D01*
X174625000Y-118148100D02*
X175437800Y-118148100D01*
X175437800Y-118148100D02*
X175437800Y-121648220D01*
X175437800Y-121648220D02*
X174625000Y-121648220D01*
X174625000Y-121648220D02*
X174625000Y-126657100D01*
X174625000Y-126657100D02*
X175437800Y-126657100D01*
X175437800Y-126657100D02*
X175437800Y-130157220D01*
X175437800Y-130157220D02*
X174625000Y-130157220D01*
X174625000Y-130157220D02*
X174625000Y-131137660D01*
X174625000Y-131137660D02*
X160655000Y-131137660D01*
X160655000Y-131137660D02*
X160655000Y-130157220D01*
X160655000Y-130157220D02*
X159842200Y-130157220D01*
X159842200Y-130157220D02*
X159842200Y-126657100D01*
X159842200Y-126657100D02*
X160655000Y-126657100D01*
X160655000Y-126657100D02*
X160655000Y-121648220D01*
X160655000Y-121648220D02*
X159842200Y-121648220D01*
X159842200Y-121648220D02*
X159842200Y-118148100D01*
X159842200Y-118148100D02*
X160655000Y-118148100D01*
X160655000Y-118148100D02*
X160655000Y-117167660D01*
X84455000Y-96212660D02*
X98425000Y-96212660D01*
X98425000Y-96212660D02*
X98425000Y-97193100D01*
X98425000Y-97193100D02*
X99237800Y-97193100D01*
X99237800Y-97193100D02*
X99237800Y-100693220D01*
X99237800Y-100693220D02*
X98425000Y-100693220D01*
X98425000Y-100693220D02*
X98425000Y-105702100D01*
X98425000Y-105702100D02*
X99237800Y-105702100D01*
X99237800Y-105702100D02*
X99237800Y-109202220D01*
X99237800Y-109202220D02*
X98425000Y-109202220D01*
X98425000Y-109202220D02*
X98425000Y-110182660D01*
X98425000Y-110182660D02*
X84455000Y-110182660D01*
X84455000Y-110182660D02*
X84455000Y-109202220D01*
X84455000Y-109202220D02*
X83642200Y-109202220D01*
X83642200Y-109202220D02*
X83642200Y-105702100D01*
X83642200Y-105702100D02*
X84455000Y-105702100D01*
X84455000Y-105702100D02*
X84455000Y-100693220D01*
X84455000Y-100693220D02*
X83642200Y-100693220D01*
X83642200Y-100693220D02*
X83642200Y-97193100D01*
X83642200Y-97193100D02*
X84455000Y-97193100D01*
X84455000Y-97193100D02*
X84455000Y-96212660D01*
X103505000Y-94942660D02*
X117475000Y-94942660D01*
X117475000Y-94942660D02*
X117475000Y-95923100D01*
X117475000Y-95923100D02*
X118287800Y-95923100D01*
X118287800Y-95923100D02*
X118287800Y-99423220D01*
X118287800Y-99423220D02*
X117475000Y-99423220D01*
X117475000Y-99423220D02*
X117475000Y-104432100D01*
X117475000Y-104432100D02*
X118287800Y-104432100D01*
X118287800Y-104432100D02*
X118287800Y-107932220D01*
X118287800Y-107932220D02*
X117475000Y-107932220D01*
X117475000Y-107932220D02*
X117475000Y-108912660D01*
X117475000Y-108912660D02*
X103505000Y-108912660D01*
X103505000Y-108912660D02*
X103505000Y-107932220D01*
X103505000Y-107932220D02*
X102692200Y-107932220D01*
X102692200Y-107932220D02*
X102692200Y-104432100D01*
X102692200Y-104432100D02*
X103505000Y-104432100D01*
X103505000Y-104432100D02*
X103505000Y-99423220D01*
X103505000Y-99423220D02*
X102692200Y-99423220D01*
X102692200Y-99423220D02*
X102692200Y-95923100D01*
X102692200Y-95923100D02*
X103505000Y-95923100D01*
X103505000Y-95923100D02*
X103505000Y-94942660D01*
X122555000Y-93345000D02*
X136525000Y-93345000D01*
X136525000Y-93345000D02*
X136525000Y-94325440D01*
X136525000Y-94325440D02*
X137337800Y-94325440D01*
X137337800Y-94325440D02*
X137337800Y-97825560D01*
X137337800Y-97825560D02*
X136525000Y-97825560D01*
X136525000Y-97825560D02*
X136525000Y-102834440D01*
X136525000Y-102834440D02*
X137337800Y-102834440D01*
X137337800Y-102834440D02*
X137337800Y-106334560D01*
X137337800Y-106334560D02*
X136525000Y-106334560D01*
X136525000Y-106334560D02*
X136525000Y-107315000D01*
X136525000Y-107315000D02*
X122555000Y-107315000D01*
X122555000Y-107315000D02*
X122555000Y-106334560D01*
X122555000Y-106334560D02*
X121742200Y-106334560D01*
X121742200Y-106334560D02*
X121742200Y-102834440D01*
X121742200Y-102834440D02*
X122555000Y-102834440D01*
X122555000Y-102834440D02*
X122555000Y-97825560D01*
X122555000Y-97825560D02*
X121742200Y-97825560D01*
X121742200Y-97825560D02*
X121742200Y-94325440D01*
X121742200Y-94325440D02*
X122555000Y-94325440D01*
X122555000Y-94325440D02*
X122555000Y-93345000D01*
X141605000Y-94942660D02*
X155575000Y-94942660D01*
X155575000Y-94942660D02*
X155575000Y-95923100D01*
X155575000Y-95923100D02*
X156387800Y-95923100D01*
X156387800Y-95923100D02*
X156387800Y-99423220D01*
X156387800Y-99423220D02*
X155575000Y-99423220D01*
X155575000Y-99423220D02*
X155575000Y-104432100D01*
X155575000Y-104432100D02*
X156387800Y-104432100D01*
X156387800Y-104432100D02*
X156387800Y-107932220D01*
X156387800Y-107932220D02*
X155575000Y-107932220D01*
X155575000Y-107932220D02*
X155575000Y-108912660D01*
X155575000Y-108912660D02*
X141605000Y-108912660D01*
X141605000Y-108912660D02*
X141605000Y-107932220D01*
X141605000Y-107932220D02*
X140792200Y-107932220D01*
X140792200Y-107932220D02*
X140792200Y-104432100D01*
X140792200Y-104432100D02*
X141605000Y-104432100D01*
X141605000Y-104432100D02*
X141605000Y-99423220D01*
X141605000Y-99423220D02*
X140792200Y-99423220D01*
X140792200Y-99423220D02*
X140792200Y-95923100D01*
X140792200Y-95923100D02*
X141605000Y-95923100D01*
X141605000Y-95923100D02*
X141605000Y-94942660D01*
X103505000Y-75892660D02*
X117475000Y-75892660D01*
X117475000Y-75892660D02*
X117475000Y-76873100D01*
X117475000Y-76873100D02*
X118287800Y-76873100D01*
X118287800Y-76873100D02*
X118287800Y-80373220D01*
X118287800Y-80373220D02*
X117475000Y-80373220D01*
X117475000Y-80373220D02*
X117475000Y-85382100D01*
X117475000Y-85382100D02*
X118287800Y-85382100D01*
X118287800Y-85382100D02*
X118287800Y-88882220D01*
X118287800Y-88882220D02*
X117475000Y-88882220D01*
X117475000Y-88882220D02*
X117475000Y-89862660D01*
X117475000Y-89862660D02*
X103505000Y-89862660D01*
X103505000Y-89862660D02*
X103505000Y-88882220D01*
X103505000Y-88882220D02*
X102692200Y-88882220D01*
X102692200Y-88882220D02*
X102692200Y-85382100D01*
X102692200Y-85382100D02*
X103505000Y-85382100D01*
X103505000Y-85382100D02*
X103505000Y-80373220D01*
X103505000Y-80373220D02*
X102692200Y-80373220D01*
X102692200Y-80373220D02*
X102692200Y-76873100D01*
X102692200Y-76873100D02*
X103505000Y-76873100D01*
X103505000Y-76873100D02*
X103505000Y-75892660D01*
X122555000Y-74295000D02*
X136525000Y-74295000D01*
X136525000Y-74295000D02*
X136525000Y-75275440D01*
X136525000Y-75275440D02*
X137337800Y-75275440D01*
X137337800Y-75275440D02*
X137337800Y-78775560D01*
X137337800Y-78775560D02*
X136525000Y-78775560D01*
X136525000Y-78775560D02*
X136525000Y-83784440D01*
X136525000Y-83784440D02*
X137337800Y-83784440D01*
X137337800Y-83784440D02*
X137337800Y-87284560D01*
X137337800Y-87284560D02*
X136525000Y-87284560D01*
X136525000Y-87284560D02*
X136525000Y-88265000D01*
X136525000Y-88265000D02*
X122555000Y-88265000D01*
X122555000Y-88265000D02*
X122555000Y-87284560D01*
X122555000Y-87284560D02*
X121742200Y-87284560D01*
X121742200Y-87284560D02*
X121742200Y-83784440D01*
X121742200Y-83784440D02*
X122555000Y-83784440D01*
X122555000Y-83784440D02*
X122555000Y-78775560D01*
X122555000Y-78775560D02*
X121742200Y-78775560D01*
X121742200Y-78775560D02*
X121742200Y-75275440D01*
X121742200Y-75275440D02*
X122555000Y-75275440D01*
X122555000Y-75275440D02*
X122555000Y-74295000D01*
X160655000Y-79067660D02*
X174625000Y-79067660D01*
X174625000Y-79067660D02*
X174625000Y-80048100D01*
X174625000Y-80048100D02*
X175437800Y-80048100D01*
X175437800Y-80048100D02*
X175437800Y-83548220D01*
X175437800Y-83548220D02*
X174625000Y-83548220D01*
X174625000Y-83548220D02*
X174625000Y-88557100D01*
X174625000Y-88557100D02*
X175437800Y-88557100D01*
X175437800Y-88557100D02*
X175437800Y-92057220D01*
X175437800Y-92057220D02*
X174625000Y-92057220D01*
X174625000Y-92057220D02*
X174625000Y-93037660D01*
X174625000Y-93037660D02*
X160655000Y-93037660D01*
X160655000Y-93037660D02*
X160655000Y-92057220D01*
X160655000Y-92057220D02*
X159842200Y-92057220D01*
X159842200Y-92057220D02*
X159842200Y-88557100D01*
X159842200Y-88557100D02*
X160655000Y-88557100D01*
X160655000Y-88557100D02*
X160655000Y-83548220D01*
X160655000Y-83548220D02*
X159842200Y-83548220D01*
X159842200Y-83548220D02*
X159842200Y-80048100D01*
X159842200Y-80048100D02*
X160655000Y-80048100D01*
X160655000Y-80048100D02*
X160655000Y-79067660D01*
X141605000Y-133042660D02*
X155575000Y-133042660D01*
X155575000Y-133042660D02*
X155575000Y-134023100D01*
X155575000Y-134023100D02*
X156387800Y-134023100D01*
X156387800Y-134023100D02*
X156387800Y-137523220D01*
X156387800Y-137523220D02*
X155575000Y-137523220D01*
X155575000Y-137523220D02*
X155575000Y-142532100D01*
X155575000Y-142532100D02*
X156387800Y-142532100D01*
X156387800Y-142532100D02*
X156387800Y-146032220D01*
X156387800Y-146032220D02*
X155575000Y-146032220D01*
X155575000Y-146032220D02*
X155575000Y-147012660D01*
X155575000Y-147012660D02*
X141605000Y-147012660D01*
X141605000Y-147012660D02*
X141605000Y-146032220D01*
X141605000Y-146032220D02*
X140792200Y-146032220D01*
X140792200Y-146032220D02*
X140792200Y-142532100D01*
X140792200Y-142532100D02*
X141605000Y-142532100D01*
X141605000Y-142532100D02*
X141605000Y-137523220D01*
X141605000Y-137523220D02*
X140792200Y-137523220D01*
X140792200Y-137523220D02*
X140792200Y-134023100D01*
X140792200Y-134023100D02*
X141605000Y-134023100D01*
X141605000Y-134023100D02*
X141605000Y-133042660D01*
X103505000Y-56842660D02*
X117475000Y-56842660D01*
X117475000Y-56842660D02*
X117475000Y-57823100D01*
X117475000Y-57823100D02*
X118287800Y-57823100D01*
X118287800Y-57823100D02*
X118287800Y-61323220D01*
X118287800Y-61323220D02*
X117475000Y-61323220D01*
X117475000Y-61323220D02*
X117475000Y-66332100D01*
X117475000Y-66332100D02*
X118287800Y-66332100D01*
X118287800Y-66332100D02*
X118287800Y-69832220D01*
X118287800Y-69832220D02*
X117475000Y-69832220D01*
X117475000Y-69832220D02*
X117475000Y-70812660D01*
X117475000Y-70812660D02*
X103505000Y-70812660D01*
X103505000Y-70812660D02*
X103505000Y-69832220D01*
X103505000Y-69832220D02*
X102692200Y-69832220D01*
X102692200Y-69832220D02*
X102692200Y-66332100D01*
X102692200Y-66332100D02*
X103505000Y-66332100D01*
X103505000Y-66332100D02*
X103505000Y-61323220D01*
X103505000Y-61323220D02*
X102692200Y-61323220D01*
X102692200Y-61323220D02*
X102692200Y-57823100D01*
X102692200Y-57823100D02*
X103505000Y-57823100D01*
X103505000Y-57823100D02*
X103505000Y-56842660D01*
X122555000Y-55245000D02*
X136525000Y-55245000D01*
X136525000Y-55245000D02*
X136525000Y-56225440D01*
X136525000Y-56225440D02*
X137337800Y-56225440D01*
X137337800Y-56225440D02*
X137337800Y-59725560D01*
X137337800Y-59725560D02*
X136525000Y-59725560D01*
X136525000Y-59725560D02*
X136525000Y-64734440D01*
X136525000Y-64734440D02*
X137337800Y-64734440D01*
X137337800Y-64734440D02*
X137337800Y-68234560D01*
X137337800Y-68234560D02*
X136525000Y-68234560D01*
X136525000Y-68234560D02*
X136525000Y-69215000D01*
X136525000Y-69215000D02*
X122555000Y-69215000D01*
X122555000Y-69215000D02*
X122555000Y-68234560D01*
X122555000Y-68234560D02*
X121742200Y-68234560D01*
X121742200Y-68234560D02*
X121742200Y-64734440D01*
X121742200Y-64734440D02*
X122555000Y-64734440D01*
X122555000Y-64734440D02*
X122555000Y-59725560D01*
X122555000Y-59725560D02*
X121742200Y-59725560D01*
X121742200Y-59725560D02*
X121742200Y-56225440D01*
X121742200Y-56225440D02*
X122555000Y-56225440D01*
X122555000Y-56225440D02*
X122555000Y-55245000D01*
X141605000Y-56842660D02*
X155575000Y-56842660D01*
X155575000Y-56842660D02*
X155575000Y-57823100D01*
X155575000Y-57823100D02*
X156387800Y-57823100D01*
X156387800Y-57823100D02*
X156387800Y-61323220D01*
X156387800Y-61323220D02*
X155575000Y-61323220D01*
X155575000Y-61323220D02*
X155575000Y-66332100D01*
X155575000Y-66332100D02*
X156387800Y-66332100D01*
X156387800Y-66332100D02*
X156387800Y-69832220D01*
X156387800Y-69832220D02*
X155575000Y-69832220D01*
X155575000Y-69832220D02*
X155575000Y-70812660D01*
X155575000Y-70812660D02*
X141605000Y-70812660D01*
X141605000Y-70812660D02*
X141605000Y-69832220D01*
X141605000Y-69832220D02*
X140792200Y-69832220D01*
X140792200Y-69832220D02*
X140792200Y-66332100D01*
X140792200Y-66332100D02*
X141605000Y-66332100D01*
X141605000Y-66332100D02*
X141605000Y-61323220D01*
X141605000Y-61323220D02*
X140792200Y-61323220D01*
X140792200Y-61323220D02*
X140792200Y-57823100D01*
X140792200Y-57823100D02*
X141605000Y-57823100D01*
X141605000Y-57823100D02*
X141605000Y-56842660D01*
X160655000Y-60020200D02*
X174625000Y-60020200D01*
X174625000Y-60020200D02*
X174625000Y-61000640D01*
X174625000Y-61000640D02*
X175437800Y-61000640D01*
X175437800Y-61000640D02*
X175437800Y-64500760D01*
X175437800Y-64500760D02*
X174625000Y-64500760D01*
X174625000Y-64500760D02*
X174625000Y-69509640D01*
X174625000Y-69509640D02*
X175437800Y-69509640D01*
X175437800Y-69509640D02*
X175437800Y-73009760D01*
X175437800Y-73009760D02*
X174625000Y-73009760D01*
X174625000Y-73009760D02*
X174625000Y-73990200D01*
X174625000Y-73990200D02*
X160655000Y-73990200D01*
X160655000Y-73990200D02*
X160655000Y-73009760D01*
X160655000Y-73009760D02*
X159842200Y-73009760D01*
X159842200Y-73009760D02*
X159842200Y-69509640D01*
X159842200Y-69509640D02*
X160655000Y-69509640D01*
X160655000Y-69509640D02*
X160655000Y-64500760D01*
X160655000Y-64500760D02*
X159842200Y-64500760D01*
X159842200Y-64500760D02*
X159842200Y-61000640D01*
X159842200Y-61000640D02*
X160655000Y-61000640D01*
X160655000Y-61000640D02*
X160655000Y-60020200D01*
X42680772Y-131840869D02*
X55341891Y-125936892D01*
X55341891Y-125936892D02*
X55756243Y-126825472D01*
X55756243Y-126825472D02*
X56492890Y-126481968D01*
X56492890Y-126481968D02*
X57972105Y-129654154D01*
X57972105Y-129654154D02*
X57235458Y-129997658D01*
X57235458Y-129997658D02*
X59352302Y-134537245D01*
X59352302Y-134537245D02*
X60088949Y-134193741D01*
X60088949Y-134193741D02*
X61568164Y-137365927D01*
X61568164Y-137365927D02*
X60831517Y-137709431D01*
X60831517Y-137709431D02*
X61245868Y-138598011D01*
X61245868Y-138598011D02*
X48584749Y-144501988D01*
X48584749Y-144501988D02*
X48170397Y-143613408D01*
X48170397Y-143613408D02*
X47433750Y-143956912D01*
X47433750Y-143956912D02*
X45954535Y-140784726D01*
X45954535Y-140784726D02*
X46691182Y-140441222D01*
X46691182Y-140441222D02*
X44574338Y-135901635D01*
X44574338Y-135901635D02*
X43837691Y-136245139D01*
X43837691Y-136245139D02*
X42358476Y-133072953D01*
X42358476Y-133072953D02*
X43095123Y-132729449D01*
X43095123Y-132729449D02*
X42680772Y-131840869D01*
X25416392Y-139890129D02*
X38077511Y-133986152D01*
X38077511Y-133986152D02*
X38491863Y-134874732D01*
X38491863Y-134874732D02*
X39228510Y-134531228D01*
X39228510Y-134531228D02*
X40707725Y-137703414D01*
X40707725Y-137703414D02*
X39971078Y-138046918D01*
X39971078Y-138046918D02*
X42087922Y-142586505D01*
X42087922Y-142586505D02*
X42824569Y-142243001D01*
X42824569Y-142243001D02*
X44303784Y-145415187D01*
X44303784Y-145415187D02*
X43567137Y-145758691D01*
X43567137Y-145758691D02*
X43981488Y-146647271D01*
X43981488Y-146647271D02*
X31320369Y-152551248D01*
X31320369Y-152551248D02*
X30906017Y-151662668D01*
X30906017Y-151662668D02*
X30169370Y-152006172D01*
X30169370Y-152006172D02*
X28690155Y-148833986D01*
X28690155Y-148833986D02*
X29426802Y-148490482D01*
X29426802Y-148490482D02*
X27309958Y-143950895D01*
X27309958Y-143950895D02*
X26573311Y-144294399D01*
X26573311Y-144294399D02*
X25094096Y-141122213D01*
X25094096Y-141122213D02*
X25830743Y-140778709D01*
X25830743Y-140778709D02*
X25416392Y-139890129D01*
X41517452Y-174421429D02*
X54178571Y-168517452D01*
X54178571Y-168517452D02*
X54592923Y-169406032D01*
X54592923Y-169406032D02*
X55329570Y-169062528D01*
X55329570Y-169062528D02*
X56808785Y-172234714D01*
X56808785Y-172234714D02*
X56072138Y-172578218D01*
X56072138Y-172578218D02*
X58188982Y-177117805D01*
X58188982Y-177117805D02*
X58925629Y-176774301D01*
X58925629Y-176774301D02*
X60404844Y-179946487D01*
X60404844Y-179946487D02*
X59668197Y-180289991D01*
X59668197Y-180289991D02*
X60082548Y-181178571D01*
X60082548Y-181178571D02*
X47421429Y-187082548D01*
X47421429Y-187082548D02*
X47007077Y-186193968D01*
X47007077Y-186193968D02*
X46270430Y-186537472D01*
X46270430Y-186537472D02*
X44791215Y-183365286D01*
X44791215Y-183365286D02*
X45527862Y-183021782D01*
X45527862Y-183021782D02*
X43411018Y-178482195D01*
X43411018Y-178482195D02*
X42674371Y-178825699D01*
X42674371Y-178825699D02*
X41195156Y-175653513D01*
X41195156Y-175653513D02*
X41931803Y-175310009D01*
X41931803Y-175310009D02*
X41517452Y-174421429D01*
X33465652Y-157154509D02*
X46126771Y-151250532D01*
X46126771Y-151250532D02*
X46541123Y-152139112D01*
X46541123Y-152139112D02*
X47277770Y-151795608D01*
X47277770Y-151795608D02*
X48756985Y-154967794D01*
X48756985Y-154967794D02*
X48020338Y-155311298D01*
X48020338Y-155311298D02*
X50137182Y-159850885D01*
X50137182Y-159850885D02*
X50873829Y-159507381D01*
X50873829Y-159507381D02*
X52353044Y-162679567D01*
X52353044Y-162679567D02*
X51616397Y-163023071D01*
X51616397Y-163023071D02*
X52030748Y-163911651D01*
X52030748Y-163911651D02*
X39369629Y-169815628D01*
X39369629Y-169815628D02*
X38955277Y-168927048D01*
X38955277Y-168927048D02*
X38218630Y-169270552D01*
X38218630Y-169270552D02*
X36739415Y-166098366D01*
X36739415Y-166098366D02*
X37476062Y-165754862D01*
X37476062Y-165754862D02*
X35359218Y-161215275D01*
X35359218Y-161215275D02*
X34622571Y-161558779D01*
X34622571Y-161558779D02*
X33143356Y-158386593D01*
X33143356Y-158386593D02*
X33880003Y-158043089D01*
X33880003Y-158043089D02*
X33465652Y-157154509D01*
X84455000Y-77162660D02*
X98425000Y-77162660D01*
X98425000Y-77162660D02*
X98425000Y-78143100D01*
X98425000Y-78143100D02*
X99237800Y-78143100D01*
X99237800Y-78143100D02*
X99237800Y-81643220D01*
X99237800Y-81643220D02*
X98425000Y-81643220D01*
X98425000Y-81643220D02*
X98425000Y-86652100D01*
X98425000Y-86652100D02*
X99237800Y-86652100D01*
X99237800Y-86652100D02*
X99237800Y-90152220D01*
X99237800Y-90152220D02*
X98425000Y-90152220D01*
X98425000Y-90152220D02*
X98425000Y-91132660D01*
X98425000Y-91132660D02*
X84455000Y-91132660D01*
X84455000Y-91132660D02*
X84455000Y-90152220D01*
X84455000Y-90152220D02*
X83642200Y-90152220D01*
X83642200Y-90152220D02*
X83642200Y-86652100D01*
X83642200Y-86652100D02*
X84455000Y-86652100D01*
X84455000Y-86652100D02*
X84455000Y-81643220D01*
X84455000Y-81643220D02*
X83642200Y-81643220D01*
X83642200Y-81643220D02*
X83642200Y-78143100D01*
X83642200Y-78143100D02*
X84455000Y-78143100D01*
X84455000Y-78143100D02*
X84455000Y-77162660D01*
X179705000Y-136217660D02*
X193675000Y-136217660D01*
X193675000Y-136217660D02*
X193675000Y-137198100D01*
X193675000Y-137198100D02*
X194487800Y-137198100D01*
X194487800Y-137198100D02*
X194487800Y-140698220D01*
X194487800Y-140698220D02*
X193675000Y-140698220D01*
X193675000Y-140698220D02*
X193675000Y-145707100D01*
X193675000Y-145707100D02*
X194487800Y-145707100D01*
X194487800Y-145707100D02*
X194487800Y-149207220D01*
X194487800Y-149207220D02*
X193675000Y-149207220D01*
X193675000Y-149207220D02*
X193675000Y-150187660D01*
X193675000Y-150187660D02*
X179705000Y-150187660D01*
X179705000Y-150187660D02*
X179705000Y-149207220D01*
X179705000Y-149207220D02*
X178892200Y-149207220D01*
X178892200Y-149207220D02*
X178892200Y-145707100D01*
X178892200Y-145707100D02*
X179705000Y-145707100D01*
X179705000Y-145707100D02*
X179705000Y-140698220D01*
X179705000Y-140698220D02*
X178892200Y-140698220D01*
X178892200Y-140698220D02*
X178892200Y-137198100D01*
X178892200Y-137198100D02*
X179705000Y-137198100D01*
X179705000Y-137198100D02*
X179705000Y-136217660D01*
X65405000Y-124470160D02*
X65405000Y-110500160D01*
X65405000Y-110500160D02*
X66385440Y-110500160D01*
X66385440Y-110500160D02*
X66385440Y-109687360D01*
X66385440Y-109687360D02*
X69885560Y-109687360D01*
X69885560Y-109687360D02*
X69885560Y-110500160D01*
X69885560Y-110500160D02*
X74894440Y-110500160D01*
X74894440Y-110500160D02*
X74894440Y-109687360D01*
X74894440Y-109687360D02*
X78394560Y-109687360D01*
X78394560Y-109687360D02*
X78394560Y-110500160D01*
X78394560Y-110500160D02*
X79375000Y-110500160D01*
X79375000Y-110500160D02*
X79375000Y-124470160D01*
X79375000Y-124470160D02*
X78394560Y-124470160D01*
X78394560Y-124470160D02*
X78394560Y-125282960D01*
X78394560Y-125282960D02*
X74894440Y-125282960D01*
X74894440Y-125282960D02*
X74894440Y-124470160D01*
X74894440Y-124470160D02*
X69885560Y-124470160D01*
X69885560Y-124470160D02*
X69885560Y-125282960D01*
X69885560Y-125282960D02*
X66385440Y-125282960D01*
X66385440Y-125282960D02*
X66385440Y-124470160D01*
X66385440Y-124470160D02*
X65405000Y-124470160D01*
X65405000Y-95895160D02*
X65405000Y-81925160D01*
X65405000Y-81925160D02*
X66385440Y-81925160D01*
X66385440Y-81925160D02*
X66385440Y-81112360D01*
X66385440Y-81112360D02*
X69885560Y-81112360D01*
X69885560Y-81112360D02*
X69885560Y-81925160D01*
X69885560Y-81925160D02*
X74894440Y-81925160D01*
X74894440Y-81925160D02*
X74894440Y-81112360D01*
X74894440Y-81112360D02*
X78394560Y-81112360D01*
X78394560Y-81112360D02*
X78394560Y-81925160D01*
X78394560Y-81925160D02*
X79375000Y-81925160D01*
X79375000Y-81925160D02*
X79375000Y-95895160D01*
X79375000Y-95895160D02*
X78394560Y-95895160D01*
X78394560Y-95895160D02*
X78394560Y-96707960D01*
X78394560Y-96707960D02*
X74894440Y-96707960D01*
X74894440Y-96707960D02*
X74894440Y-95895160D01*
X74894440Y-95895160D02*
X69885560Y-95895160D01*
X69885560Y-95895160D02*
X69885560Y-96707960D01*
X69885560Y-96707960D02*
X66385440Y-96707960D01*
X66385440Y-96707960D02*
X66385440Y-95895160D01*
X66385440Y-95895160D02*
X65405000Y-95895160D01*
X65405000Y-58115200D02*
X79375000Y-58115200D01*
X79375000Y-58115200D02*
X79375000Y-59095640D01*
X79375000Y-59095640D02*
X80187800Y-59095640D01*
X80187800Y-59095640D02*
X80187800Y-62595760D01*
X80187800Y-62595760D02*
X79375000Y-62595760D01*
X79375000Y-62595760D02*
X79375000Y-67604640D01*
X79375000Y-67604640D02*
X80187800Y-67604640D01*
X80187800Y-67604640D02*
X80187800Y-71104760D01*
X80187800Y-71104760D02*
X79375000Y-71104760D01*
X79375000Y-71104760D02*
X79375000Y-72085200D01*
X79375000Y-72085200D02*
X65405000Y-72085200D01*
X65405000Y-72085200D02*
X65405000Y-71104760D01*
X65405000Y-71104760D02*
X64592200Y-71104760D01*
X64592200Y-71104760D02*
X64592200Y-67604640D01*
X64592200Y-67604640D02*
X65405000Y-67604640D01*
X65405000Y-67604640D02*
X65405000Y-62595760D01*
X65405000Y-62595760D02*
X64592200Y-62595760D01*
X64592200Y-62595760D02*
X64592200Y-59095640D01*
X64592200Y-59095640D02*
X65405000Y-59095640D01*
X65405000Y-59095640D02*
X65405000Y-58115200D01*
X160655000Y-98117660D02*
X174625000Y-98117660D01*
X174625000Y-98117660D02*
X174625000Y-99098100D01*
X174625000Y-99098100D02*
X175437800Y-99098100D01*
X175437800Y-99098100D02*
X175437800Y-102598220D01*
X175437800Y-102598220D02*
X174625000Y-102598220D01*
X174625000Y-102598220D02*
X174625000Y-107607100D01*
X174625000Y-107607100D02*
X175437800Y-107607100D01*
X175437800Y-107607100D02*
X175437800Y-111107220D01*
X175437800Y-111107220D02*
X174625000Y-111107220D01*
X174625000Y-111107220D02*
X174625000Y-112087660D01*
X174625000Y-112087660D02*
X160655000Y-112087660D01*
X160655000Y-112087660D02*
X160655000Y-111107220D01*
X160655000Y-111107220D02*
X159842200Y-111107220D01*
X159842200Y-111107220D02*
X159842200Y-107607100D01*
X159842200Y-107607100D02*
X160655000Y-107607100D01*
X160655000Y-107607100D02*
X160655000Y-102598220D01*
X160655000Y-102598220D02*
X159842200Y-102598220D01*
X159842200Y-102598220D02*
X159842200Y-99098100D01*
X159842200Y-99098100D02*
X160655000Y-99098100D01*
X160655000Y-99098100D02*
X160655000Y-98117660D01*
M02*
