G04 (created by PCBNEW (2013-01-02 BZR 3881)-testing) date Fri 08 Feb 2013 10:16:01 AM CET*
%MOIN*%
G04 Gerber Fmt 3.4, Leading zero omitted, Abs format*
%FSLAX34Y34*%
G01*
G70*
G90*
G04 APERTURE LIST*
%ADD10C,0.006*%
%ADD11C,0.012*%
%ADD12C,0.008*%
%ADD13C,0.02*%
%ADD14C,0.015*%
%ADD15C,0.1*%
%ADD16C,0.01*%
%ADD17C,0.018*%
G04 APERTURE END LIST*
G54D10*
G54D11*
X70573Y-49514D02*
X70192Y-49714D01*
X70573Y-49857D02*
X69773Y-49857D01*
X69773Y-49628D01*
X69811Y-49571D01*
X69850Y-49542D01*
X69926Y-49514D01*
X70040Y-49514D01*
X70116Y-49542D01*
X70154Y-49571D01*
X70192Y-49628D01*
X70192Y-49857D01*
X70535Y-49028D02*
X70573Y-49085D01*
X70573Y-49200D01*
X70535Y-49257D01*
X70459Y-49285D01*
X70154Y-49285D01*
X70078Y-49257D01*
X70040Y-49200D01*
X70040Y-49085D01*
X70078Y-49028D01*
X70154Y-49000D01*
X70230Y-49000D01*
X70307Y-49285D01*
X70040Y-48800D02*
X70573Y-48657D01*
X70040Y-48514D01*
X70573Y-48285D02*
X70040Y-48285D01*
X69773Y-48285D02*
X69811Y-48314D01*
X69850Y-48285D01*
X69811Y-48257D01*
X69773Y-48285D01*
X69850Y-48285D01*
X70535Y-48028D02*
X70573Y-47971D01*
X70573Y-47857D01*
X70535Y-47800D01*
X70459Y-47771D01*
X70421Y-47771D01*
X70345Y-47800D01*
X70307Y-47857D01*
X70307Y-47942D01*
X70269Y-48000D01*
X70192Y-48028D01*
X70154Y-48028D01*
X70078Y-48000D01*
X70040Y-47942D01*
X70040Y-47857D01*
X70078Y-47800D01*
X70573Y-47514D02*
X70040Y-47514D01*
X69773Y-47514D02*
X69811Y-47542D01*
X69850Y-47514D01*
X69811Y-47485D01*
X69773Y-47514D01*
X69850Y-47514D01*
X70573Y-47142D02*
X70535Y-47200D01*
X70497Y-47228D01*
X70421Y-47257D01*
X70192Y-47257D01*
X70116Y-47228D01*
X70078Y-47200D01*
X70040Y-47142D01*
X70040Y-47057D01*
X70078Y-47000D01*
X70116Y-46971D01*
X70192Y-46942D01*
X70421Y-46942D01*
X70497Y-46971D01*
X70535Y-47000D01*
X70573Y-47057D01*
X70573Y-47142D01*
X70040Y-46685D02*
X70573Y-46685D01*
X70116Y-46685D02*
X70078Y-46657D01*
X70040Y-46600D01*
X70040Y-46514D01*
X70078Y-46457D01*
X70154Y-46428D01*
X70573Y-46428D01*
X69850Y-45714D02*
X69811Y-45685D01*
X69773Y-45628D01*
X69773Y-45485D01*
X69811Y-45428D01*
X69850Y-45400D01*
X69926Y-45371D01*
X70002Y-45371D01*
X70116Y-45400D01*
X70573Y-45742D01*
X70573Y-45371D01*
X69773Y-45000D02*
X69773Y-44942D01*
X69811Y-44885D01*
X69850Y-44857D01*
X69926Y-44828D01*
X70078Y-44800D01*
X70269Y-44800D01*
X70421Y-44828D01*
X70497Y-44857D01*
X70535Y-44885D01*
X70573Y-44942D01*
X70573Y-45000D01*
X70535Y-45057D01*
X70497Y-45085D01*
X70421Y-45114D01*
X70269Y-45142D01*
X70078Y-45142D01*
X69926Y-45114D01*
X69850Y-45085D01*
X69811Y-45057D01*
X69773Y-45000D01*
X70573Y-44228D02*
X70573Y-44571D01*
X70573Y-44400D02*
X69773Y-44400D01*
X69888Y-44457D01*
X69964Y-44514D01*
X70002Y-44571D01*
X69850Y-43999D02*
X69811Y-43971D01*
X69773Y-43914D01*
X69773Y-43771D01*
X69811Y-43714D01*
X69850Y-43685D01*
X69926Y-43657D01*
X70002Y-43657D01*
X70116Y-43685D01*
X70573Y-44028D01*
X70573Y-43657D01*
X70269Y-43399D02*
X70269Y-42942D01*
X69773Y-42542D02*
X69773Y-42485D01*
X69811Y-42428D01*
X69850Y-42399D01*
X69926Y-42371D01*
X70078Y-42342D01*
X70269Y-42342D01*
X70421Y-42371D01*
X70497Y-42399D01*
X70535Y-42428D01*
X70573Y-42485D01*
X70573Y-42542D01*
X70535Y-42599D01*
X70497Y-42628D01*
X70421Y-42657D01*
X70269Y-42685D01*
X70078Y-42685D01*
X69926Y-42657D01*
X69850Y-42628D01*
X69811Y-42599D01*
X69773Y-42542D01*
X70116Y-41999D02*
X70078Y-42057D01*
X70040Y-42085D01*
X69964Y-42114D01*
X69926Y-42114D01*
X69850Y-42085D01*
X69811Y-42057D01*
X69773Y-41999D01*
X69773Y-41885D01*
X69811Y-41828D01*
X69850Y-41799D01*
X69926Y-41771D01*
X69964Y-41771D01*
X70040Y-41799D01*
X70078Y-41828D01*
X70116Y-41885D01*
X70116Y-41999D01*
X70154Y-42057D01*
X70192Y-42085D01*
X70269Y-42114D01*
X70421Y-42114D01*
X70497Y-42085D01*
X70535Y-42057D01*
X70573Y-41999D01*
X70573Y-41885D01*
X70535Y-41828D01*
X70497Y-41799D01*
X70421Y-41771D01*
X70269Y-41771D01*
X70192Y-41799D01*
X70154Y-41828D01*
X70116Y-41885D01*
X70269Y-41514D02*
X70269Y-41057D01*
X69773Y-40657D02*
X69773Y-40599D01*
X69811Y-40542D01*
X69850Y-40514D01*
X69926Y-40485D01*
X70078Y-40457D01*
X70269Y-40457D01*
X70421Y-40485D01*
X70497Y-40514D01*
X70535Y-40542D01*
X70573Y-40599D01*
X70573Y-40657D01*
X70535Y-40714D01*
X70497Y-40742D01*
X70421Y-40771D01*
X70269Y-40799D01*
X70078Y-40799D01*
X69926Y-40771D01*
X69850Y-40742D01*
X69811Y-40714D01*
X69773Y-40657D01*
X69850Y-40228D02*
X69811Y-40199D01*
X69773Y-40142D01*
X69773Y-39999D01*
X69811Y-39942D01*
X69850Y-39914D01*
X69926Y-39885D01*
X70002Y-39885D01*
X70116Y-39914D01*
X70573Y-40257D01*
X70573Y-39885D01*
X70535Y-39599D02*
X70573Y-39599D01*
X70650Y-39628D01*
X70688Y-39657D01*
X70573Y-38885D02*
X69773Y-38885D01*
X70345Y-38685D01*
X69773Y-38485D01*
X70573Y-38485D01*
X70573Y-37942D02*
X70154Y-37942D01*
X70078Y-37971D01*
X70040Y-38028D01*
X70040Y-38142D01*
X70078Y-38199D01*
X70535Y-37942D02*
X70573Y-37999D01*
X70573Y-38142D01*
X70535Y-38199D01*
X70459Y-38228D01*
X70383Y-38228D01*
X70307Y-38199D01*
X70269Y-38142D01*
X70269Y-37999D01*
X70230Y-37942D01*
X70040Y-37657D02*
X70573Y-37657D01*
X70116Y-37657D02*
X70078Y-37628D01*
X70040Y-37571D01*
X70040Y-37485D01*
X70078Y-37428D01*
X70154Y-37399D01*
X70573Y-37399D01*
X70040Y-36857D02*
X70573Y-36857D01*
X70040Y-37114D02*
X70459Y-37114D01*
X70535Y-37085D01*
X70573Y-37028D01*
X70573Y-36942D01*
X70535Y-36885D01*
X70497Y-36857D01*
X70040Y-36657D02*
X70040Y-36428D01*
X70573Y-36571D02*
X69888Y-36571D01*
X69811Y-36542D01*
X69773Y-36485D01*
X69773Y-36428D01*
X70573Y-35971D02*
X70154Y-35971D01*
X70078Y-35999D01*
X70040Y-36057D01*
X70040Y-36171D01*
X70078Y-36228D01*
X70535Y-35971D02*
X70573Y-36028D01*
X70573Y-36171D01*
X70535Y-36228D01*
X70459Y-36257D01*
X70383Y-36257D01*
X70307Y-36228D01*
X70269Y-36171D01*
X70269Y-36028D01*
X70230Y-35971D01*
X70535Y-35428D02*
X70573Y-35485D01*
X70573Y-35599D01*
X70535Y-35657D01*
X70497Y-35685D01*
X70421Y-35714D01*
X70192Y-35714D01*
X70116Y-35685D01*
X70078Y-35657D01*
X70040Y-35599D01*
X70040Y-35485D01*
X70078Y-35428D01*
X70040Y-35257D02*
X70040Y-35028D01*
X69773Y-35171D02*
X70459Y-35171D01*
X70535Y-35142D01*
X70573Y-35085D01*
X70573Y-35028D01*
X70040Y-34571D02*
X70573Y-34571D01*
X70040Y-34828D02*
X70459Y-34828D01*
X70535Y-34799D01*
X70573Y-34742D01*
X70573Y-34657D01*
X70535Y-34599D01*
X70497Y-34571D01*
X70573Y-34285D02*
X70040Y-34285D01*
X70192Y-34285D02*
X70116Y-34257D01*
X70078Y-34228D01*
X70040Y-34171D01*
X70040Y-34114D01*
X70535Y-33685D02*
X70573Y-33742D01*
X70573Y-33857D01*
X70535Y-33914D01*
X70459Y-33942D01*
X70154Y-33942D01*
X70078Y-33914D01*
X70040Y-33857D01*
X70040Y-33742D01*
X70078Y-33685D01*
X70154Y-33657D01*
X70230Y-33657D01*
X70307Y-33942D01*
X70573Y-33142D02*
X69773Y-33142D01*
X70535Y-33142D02*
X70573Y-33199D01*
X70573Y-33314D01*
X70535Y-33371D01*
X70497Y-33399D01*
X70421Y-33428D01*
X70192Y-33428D01*
X70116Y-33399D01*
X70078Y-33371D01*
X70040Y-33314D01*
X70040Y-33199D01*
X70078Y-33142D01*
X70573Y-32399D02*
X69773Y-32399D01*
X70078Y-32399D02*
X70040Y-32342D01*
X70040Y-32228D01*
X70078Y-32171D01*
X70116Y-32142D01*
X70192Y-32114D01*
X70421Y-32114D01*
X70497Y-32142D01*
X70535Y-32171D01*
X70573Y-32228D01*
X70573Y-32342D01*
X70535Y-32399D01*
X70040Y-31914D02*
X70573Y-31771D01*
X70040Y-31628D02*
X70573Y-31771D01*
X70764Y-31828D01*
X70802Y-31857D01*
X70840Y-31914D01*
X70040Y-30942D02*
X70840Y-30942D01*
X70078Y-30942D02*
X70040Y-30885D01*
X70040Y-30771D01*
X70078Y-30714D01*
X70116Y-30685D01*
X70192Y-30657D01*
X70421Y-30657D01*
X70497Y-30685D01*
X70535Y-30714D01*
X70573Y-30771D01*
X70573Y-30885D01*
X70535Y-30942D01*
X70535Y-30142D02*
X70573Y-30199D01*
X70573Y-30314D01*
X70535Y-30371D01*
X70497Y-30399D01*
X70421Y-30428D01*
X70192Y-30428D01*
X70116Y-30399D01*
X70078Y-30371D01*
X70040Y-30314D01*
X70040Y-30199D01*
X70078Y-30142D01*
X70573Y-29885D02*
X69773Y-29885D01*
X70078Y-29885D02*
X70040Y-29828D01*
X70040Y-29714D01*
X70078Y-29657D01*
X70116Y-29628D01*
X70192Y-29599D01*
X70421Y-29599D01*
X70497Y-29628D01*
X70535Y-29657D01*
X70573Y-29714D01*
X70573Y-29828D01*
X70535Y-29885D01*
X70040Y-29399D02*
X70573Y-29285D01*
X70192Y-29171D01*
X70573Y-29057D01*
X70040Y-28942D01*
X70573Y-28714D02*
X70040Y-28714D01*
X69773Y-28714D02*
X69811Y-28742D01*
X69850Y-28714D01*
X69811Y-28685D01*
X69773Y-28714D01*
X69850Y-28714D01*
X70040Y-28428D02*
X70573Y-28428D01*
X70116Y-28428D02*
X70078Y-28399D01*
X70040Y-28342D01*
X70040Y-28257D01*
X70078Y-28199D01*
X70154Y-28171D01*
X70573Y-28171D01*
X70040Y-27628D02*
X70688Y-27628D01*
X70764Y-27657D01*
X70802Y-27685D01*
X70840Y-27742D01*
X70840Y-27828D01*
X70802Y-27885D01*
X70535Y-27628D02*
X70573Y-27685D01*
X70573Y-27799D01*
X70535Y-27857D01*
X70497Y-27885D01*
X70421Y-27914D01*
X70192Y-27914D01*
X70116Y-27885D01*
X70078Y-27857D01*
X70040Y-27799D01*
X70040Y-27685D01*
X70078Y-27628D01*
G54D12*
X50850Y-13761D02*
X50850Y-13361D01*
X51088Y-13761D02*
X51088Y-13361D01*
X51207Y-13361D01*
X51278Y-13380D01*
X51326Y-13419D01*
X51350Y-13457D01*
X51373Y-13533D01*
X51373Y-13590D01*
X51350Y-13666D01*
X51326Y-13704D01*
X51278Y-13742D01*
X51207Y-13761D01*
X51088Y-13761D01*
X53759Y-16761D02*
X53759Y-16361D01*
X53878Y-16361D01*
X53950Y-16380D01*
X53997Y-16419D01*
X54021Y-16457D01*
X54045Y-16533D01*
X54045Y-16590D01*
X54021Y-16666D01*
X53997Y-16704D01*
X53950Y-16742D01*
X53878Y-16761D01*
X53759Y-16761D01*
X54259Y-16609D02*
X54640Y-16609D01*
X54450Y-16761D02*
X54450Y-16457D01*
X51669Y-15680D02*
X51621Y-15661D01*
X51550Y-15661D01*
X51478Y-15680D01*
X51430Y-15719D01*
X51407Y-15757D01*
X51383Y-15833D01*
X51383Y-15890D01*
X51407Y-15966D01*
X51430Y-16004D01*
X51478Y-16042D01*
X51550Y-16061D01*
X51597Y-16061D01*
X51669Y-16042D01*
X51692Y-16023D01*
X51692Y-15890D01*
X51597Y-15890D01*
X51907Y-16061D02*
X51907Y-15661D01*
X52192Y-16061D01*
X52192Y-15661D01*
X52430Y-16061D02*
X52430Y-15661D01*
X52550Y-15661D01*
X52621Y-15680D01*
X52669Y-15719D01*
X52692Y-15757D01*
X52716Y-15833D01*
X52716Y-15890D01*
X52692Y-15966D01*
X52669Y-16004D01*
X52621Y-16042D01*
X52550Y-16061D01*
X52430Y-16061D01*
X56004Y-15661D02*
X55766Y-15661D01*
X55742Y-15852D01*
X55766Y-15833D01*
X55814Y-15814D01*
X55933Y-15814D01*
X55980Y-15833D01*
X56004Y-15852D01*
X56028Y-15890D01*
X56028Y-15985D01*
X56004Y-16023D01*
X55980Y-16042D01*
X55933Y-16061D01*
X55814Y-16061D01*
X55766Y-16042D01*
X55742Y-16023D01*
X56171Y-15661D02*
X56338Y-16061D01*
X56504Y-15661D01*
X57158Y-13761D02*
X57158Y-13361D01*
X57277Y-13361D01*
X57349Y-13380D01*
X57396Y-13419D01*
X57420Y-13457D01*
X57444Y-13533D01*
X57444Y-13590D01*
X57420Y-13666D01*
X57396Y-13704D01*
X57349Y-13742D01*
X57277Y-13761D01*
X57158Y-13761D01*
X57658Y-13609D02*
X58039Y-13609D01*
G54D11*
X26235Y-18747D02*
X26207Y-18785D01*
X26121Y-18823D01*
X26064Y-18823D01*
X25978Y-18785D01*
X25921Y-18709D01*
X25892Y-18633D01*
X25864Y-18480D01*
X25864Y-18366D01*
X25892Y-18214D01*
X25921Y-18138D01*
X25978Y-18061D01*
X26064Y-18023D01*
X26121Y-18023D01*
X26207Y-18061D01*
X26235Y-18100D01*
X26578Y-18823D02*
X26521Y-18785D01*
X26492Y-18747D01*
X26464Y-18671D01*
X26464Y-18442D01*
X26492Y-18366D01*
X26521Y-18328D01*
X26578Y-18290D01*
X26664Y-18290D01*
X26721Y-18328D01*
X26750Y-18366D01*
X26778Y-18442D01*
X26778Y-18671D01*
X26750Y-18747D01*
X26721Y-18785D01*
X26664Y-18823D01*
X26578Y-18823D01*
X27035Y-18823D02*
X27035Y-18290D01*
X27035Y-18366D02*
X27064Y-18328D01*
X27121Y-18290D01*
X27207Y-18290D01*
X27264Y-18328D01*
X27292Y-18404D01*
X27292Y-18823D01*
X27292Y-18404D02*
X27321Y-18328D01*
X27378Y-18290D01*
X27464Y-18290D01*
X27521Y-18328D01*
X27550Y-18404D01*
X27550Y-18823D01*
X27835Y-18290D02*
X27835Y-19090D01*
X27835Y-18328D02*
X27892Y-18290D01*
X28007Y-18290D01*
X28064Y-18328D01*
X28092Y-18366D01*
X28121Y-18442D01*
X28121Y-18671D01*
X28092Y-18747D01*
X28064Y-18785D01*
X28007Y-18823D01*
X27892Y-18823D01*
X27835Y-18785D01*
X28464Y-18823D02*
X28407Y-18785D01*
X28378Y-18747D01*
X28350Y-18671D01*
X28350Y-18442D01*
X28378Y-18366D01*
X28407Y-18328D01*
X28464Y-18290D01*
X28550Y-18290D01*
X28607Y-18328D01*
X28635Y-18366D01*
X28664Y-18442D01*
X28664Y-18671D01*
X28635Y-18747D01*
X28607Y-18785D01*
X28550Y-18823D01*
X28464Y-18823D01*
X28921Y-18290D02*
X28921Y-18823D01*
X28921Y-18366D02*
X28950Y-18328D01*
X29007Y-18290D01*
X29092Y-18290D01*
X29150Y-18328D01*
X29178Y-18404D01*
X29178Y-18823D01*
X29692Y-18785D02*
X29635Y-18823D01*
X29521Y-18823D01*
X29464Y-18785D01*
X29435Y-18709D01*
X29435Y-18404D01*
X29464Y-18328D01*
X29521Y-18290D01*
X29635Y-18290D01*
X29692Y-18328D01*
X29721Y-18404D01*
X29721Y-18480D01*
X29435Y-18557D01*
X29978Y-18290D02*
X29978Y-18823D01*
X29978Y-18366D02*
X30007Y-18328D01*
X30064Y-18290D01*
X30150Y-18290D01*
X30207Y-18328D01*
X30235Y-18404D01*
X30235Y-18823D01*
X30435Y-18290D02*
X30664Y-18290D01*
X30521Y-18023D02*
X30521Y-18709D01*
X30550Y-18785D01*
X30607Y-18823D01*
X30664Y-18823D01*
X30835Y-18785D02*
X30892Y-18823D01*
X31007Y-18823D01*
X31064Y-18785D01*
X31092Y-18709D01*
X31092Y-18671D01*
X31064Y-18595D01*
X31007Y-18557D01*
X30921Y-18557D01*
X30864Y-18519D01*
X30835Y-18442D01*
X30835Y-18404D01*
X30864Y-18328D01*
X30921Y-18290D01*
X31007Y-18290D01*
X31064Y-18328D01*
X32064Y-18823D02*
X32064Y-18404D01*
X32035Y-18328D01*
X31978Y-18290D01*
X31864Y-18290D01*
X31807Y-18328D01*
X32064Y-18785D02*
X32007Y-18823D01*
X31864Y-18823D01*
X31807Y-18785D01*
X31778Y-18709D01*
X31778Y-18633D01*
X31807Y-18557D01*
X31864Y-18519D01*
X32007Y-18519D01*
X32064Y-18480D01*
X32349Y-18823D02*
X32349Y-18290D01*
X32349Y-18442D02*
X32378Y-18366D01*
X32407Y-18328D01*
X32464Y-18290D01*
X32521Y-18290D01*
X32950Y-18785D02*
X32892Y-18823D01*
X32778Y-18823D01*
X32721Y-18785D01*
X32692Y-18709D01*
X32692Y-18404D01*
X32721Y-18328D01*
X32778Y-18290D01*
X32892Y-18290D01*
X32950Y-18328D01*
X32978Y-18404D01*
X32978Y-18480D01*
X32692Y-18557D01*
X33692Y-18823D02*
X33692Y-18290D01*
X33692Y-18023D02*
X33664Y-18061D01*
X33692Y-18100D01*
X33721Y-18061D01*
X33692Y-18023D01*
X33692Y-18100D01*
X33978Y-18290D02*
X33978Y-18823D01*
X33978Y-18366D02*
X34007Y-18328D01*
X34064Y-18290D01*
X34150Y-18290D01*
X34207Y-18328D01*
X34235Y-18404D01*
X34235Y-18823D01*
X34435Y-18290D02*
X34664Y-18290D01*
X34521Y-18023D02*
X34521Y-18709D01*
X34550Y-18785D01*
X34607Y-18823D01*
X34664Y-18823D01*
X35092Y-18785D02*
X35035Y-18823D01*
X34921Y-18823D01*
X34864Y-18785D01*
X34835Y-18709D01*
X34835Y-18404D01*
X34864Y-18328D01*
X34921Y-18290D01*
X35035Y-18290D01*
X35092Y-18328D01*
X35121Y-18404D01*
X35121Y-18480D01*
X34835Y-18557D01*
X35378Y-18290D02*
X35378Y-18823D01*
X35378Y-18366D02*
X35407Y-18328D01*
X35464Y-18290D01*
X35550Y-18290D01*
X35607Y-18328D01*
X35635Y-18404D01*
X35635Y-18823D01*
X36178Y-18823D02*
X36178Y-18023D01*
X36178Y-18785D02*
X36121Y-18823D01*
X36007Y-18823D01*
X35950Y-18785D01*
X35921Y-18747D01*
X35892Y-18671D01*
X35892Y-18442D01*
X35921Y-18366D01*
X35950Y-18328D01*
X36007Y-18290D01*
X36121Y-18290D01*
X36178Y-18328D01*
X36692Y-18785D02*
X36635Y-18823D01*
X36521Y-18823D01*
X36464Y-18785D01*
X36435Y-18709D01*
X36435Y-18404D01*
X36464Y-18328D01*
X36521Y-18290D01*
X36635Y-18290D01*
X36692Y-18328D01*
X36721Y-18404D01*
X36721Y-18480D01*
X36435Y-18557D01*
X37235Y-18823D02*
X37235Y-18023D01*
X37235Y-18785D02*
X37178Y-18823D01*
X37064Y-18823D01*
X37007Y-18785D01*
X36978Y-18747D01*
X36950Y-18671D01*
X36950Y-18442D01*
X36978Y-18366D01*
X37007Y-18328D01*
X37064Y-18290D01*
X37178Y-18290D01*
X37235Y-18328D01*
X37892Y-18290D02*
X38121Y-18290D01*
X37978Y-18023D02*
X37978Y-18709D01*
X38007Y-18785D01*
X38064Y-18823D01*
X38121Y-18823D01*
X38407Y-18823D02*
X38350Y-18785D01*
X38321Y-18747D01*
X38292Y-18671D01*
X38292Y-18442D01*
X38321Y-18366D01*
X38350Y-18328D01*
X38407Y-18290D01*
X38492Y-18290D01*
X38550Y-18328D01*
X38578Y-18366D01*
X38607Y-18442D01*
X38607Y-18671D01*
X38578Y-18747D01*
X38550Y-18785D01*
X38492Y-18823D01*
X38407Y-18823D01*
X39321Y-18823D02*
X39321Y-18023D01*
X39321Y-18328D02*
X39378Y-18290D01*
X39492Y-18290D01*
X39550Y-18328D01*
X39578Y-18366D01*
X39607Y-18442D01*
X39607Y-18671D01*
X39578Y-18747D01*
X39550Y-18785D01*
X39492Y-18823D01*
X39378Y-18823D01*
X39321Y-18785D01*
X40092Y-18785D02*
X40035Y-18823D01*
X39921Y-18823D01*
X39864Y-18785D01*
X39835Y-18709D01*
X39835Y-18404D01*
X39864Y-18328D01*
X39921Y-18290D01*
X40035Y-18290D01*
X40092Y-18328D01*
X40121Y-18404D01*
X40121Y-18480D01*
X39835Y-18557D01*
X25892Y-19530D02*
X25892Y-20330D01*
X25892Y-19568D02*
X25950Y-19530D01*
X26064Y-19530D01*
X26121Y-19568D01*
X26150Y-19606D01*
X26178Y-19682D01*
X26178Y-19911D01*
X26150Y-19987D01*
X26121Y-20025D01*
X26064Y-20063D01*
X25950Y-20063D01*
X25892Y-20025D01*
X26521Y-20063D02*
X26464Y-20025D01*
X26435Y-19949D01*
X26435Y-19263D01*
X27007Y-20063D02*
X27007Y-19644D01*
X26978Y-19568D01*
X26921Y-19530D01*
X26807Y-19530D01*
X26750Y-19568D01*
X27007Y-20025D02*
X26950Y-20063D01*
X26807Y-20063D01*
X26750Y-20025D01*
X26721Y-19949D01*
X26721Y-19873D01*
X26750Y-19797D01*
X26807Y-19759D01*
X26950Y-19759D01*
X27007Y-19720D01*
X27550Y-20025D02*
X27492Y-20063D01*
X27378Y-20063D01*
X27321Y-20025D01*
X27292Y-19987D01*
X27264Y-19911D01*
X27264Y-19682D01*
X27292Y-19606D01*
X27321Y-19568D01*
X27378Y-19530D01*
X27492Y-19530D01*
X27550Y-19568D01*
X28035Y-20025D02*
X27978Y-20063D01*
X27864Y-20063D01*
X27807Y-20025D01*
X27778Y-19949D01*
X27778Y-19644D01*
X27807Y-19568D01*
X27864Y-19530D01*
X27978Y-19530D01*
X28035Y-19568D01*
X28064Y-19644D01*
X28064Y-19720D01*
X27778Y-19797D01*
X28578Y-20063D02*
X28578Y-19263D01*
X28578Y-20025D02*
X28521Y-20063D01*
X28407Y-20063D01*
X28350Y-20025D01*
X28321Y-19987D01*
X28292Y-19911D01*
X28292Y-19682D01*
X28321Y-19606D01*
X28350Y-19568D01*
X28407Y-19530D01*
X28521Y-19530D01*
X28578Y-19568D01*
X29407Y-20063D02*
X29350Y-20025D01*
X29321Y-19987D01*
X29292Y-19911D01*
X29292Y-19682D01*
X29321Y-19606D01*
X29350Y-19568D01*
X29407Y-19530D01*
X29492Y-19530D01*
X29550Y-19568D01*
X29578Y-19606D01*
X29607Y-19682D01*
X29607Y-19911D01*
X29578Y-19987D01*
X29550Y-20025D01*
X29492Y-20063D01*
X29407Y-20063D01*
X29864Y-19530D02*
X29864Y-20063D01*
X29864Y-19606D02*
X29892Y-19568D01*
X29950Y-19530D01*
X30035Y-19530D01*
X30092Y-19568D01*
X30121Y-19644D01*
X30121Y-20063D01*
X30778Y-19530D02*
X31007Y-19530D01*
X30864Y-19263D02*
X30864Y-19949D01*
X30892Y-20025D01*
X30950Y-20063D01*
X31007Y-20063D01*
X31207Y-20063D02*
X31207Y-19263D01*
X31464Y-20063D02*
X31464Y-19644D01*
X31435Y-19568D01*
X31378Y-19530D01*
X31292Y-19530D01*
X31235Y-19568D01*
X31207Y-19606D01*
X31978Y-20025D02*
X31921Y-20063D01*
X31807Y-20063D01*
X31750Y-20025D01*
X31721Y-19949D01*
X31721Y-19644D01*
X31750Y-19568D01*
X31807Y-19530D01*
X31921Y-19530D01*
X31978Y-19568D01*
X32007Y-19644D01*
X32007Y-19720D01*
X31721Y-19797D01*
X32692Y-20025D02*
X32750Y-20063D01*
X32864Y-20063D01*
X32921Y-20025D01*
X32950Y-19949D01*
X32950Y-19911D01*
X32921Y-19835D01*
X32864Y-19797D01*
X32778Y-19797D01*
X32721Y-19759D01*
X32692Y-19682D01*
X32692Y-19644D01*
X32721Y-19568D01*
X32778Y-19530D01*
X32864Y-19530D01*
X32921Y-19568D01*
X33207Y-20063D02*
X33207Y-19530D01*
X33207Y-19263D02*
X33178Y-19301D01*
X33207Y-19340D01*
X33235Y-19301D01*
X33207Y-19263D01*
X33207Y-19340D01*
X33750Y-20063D02*
X33750Y-19263D01*
X33750Y-20025D02*
X33692Y-20063D01*
X33578Y-20063D01*
X33521Y-20025D01*
X33492Y-19987D01*
X33464Y-19911D01*
X33464Y-19682D01*
X33492Y-19606D01*
X33521Y-19568D01*
X33578Y-19530D01*
X33692Y-19530D01*
X33750Y-19568D01*
X34264Y-20025D02*
X34207Y-20063D01*
X34092Y-20063D01*
X34035Y-20025D01*
X34007Y-19949D01*
X34007Y-19644D01*
X34035Y-19568D01*
X34092Y-19530D01*
X34207Y-19530D01*
X34264Y-19568D01*
X34292Y-19644D01*
X34292Y-19720D01*
X34007Y-19797D01*
X34921Y-19530D02*
X35150Y-19530D01*
X35007Y-19263D02*
X35007Y-19949D01*
X35035Y-20025D01*
X35092Y-20063D01*
X35150Y-20063D01*
X35350Y-20063D02*
X35350Y-19263D01*
X35607Y-20063D02*
X35607Y-19644D01*
X35578Y-19568D01*
X35521Y-19530D01*
X35435Y-19530D01*
X35378Y-19568D01*
X35350Y-19606D01*
X36121Y-20025D02*
X36064Y-20063D01*
X35950Y-20063D01*
X35892Y-20025D01*
X35864Y-19949D01*
X35864Y-19644D01*
X35892Y-19568D01*
X35950Y-19530D01*
X36064Y-19530D01*
X36121Y-19568D01*
X36150Y-19644D01*
X36150Y-19720D01*
X35864Y-19797D01*
X36350Y-19530D02*
X36492Y-20063D01*
X36635Y-19530D02*
X36492Y-20063D01*
X36435Y-20254D01*
X36407Y-20292D01*
X36350Y-20330D01*
X37578Y-20063D02*
X37578Y-19644D01*
X37550Y-19568D01*
X37492Y-19530D01*
X37378Y-19530D01*
X37321Y-19568D01*
X37578Y-20025D02*
X37521Y-20063D01*
X37378Y-20063D01*
X37321Y-20025D01*
X37292Y-19949D01*
X37292Y-19873D01*
X37321Y-19797D01*
X37378Y-19759D01*
X37521Y-19759D01*
X37578Y-19720D01*
X37864Y-20063D02*
X37864Y-19530D01*
X37864Y-19682D02*
X37892Y-19606D01*
X37921Y-19568D01*
X37978Y-19530D01*
X38035Y-19530D01*
X38464Y-20025D02*
X38407Y-20063D01*
X38292Y-20063D01*
X38235Y-20025D01*
X38207Y-19949D01*
X38207Y-19644D01*
X38235Y-19568D01*
X38292Y-19530D01*
X38407Y-19530D01*
X38464Y-19568D01*
X38492Y-19644D01*
X38492Y-19720D01*
X38207Y-19797D01*
X39464Y-20063D02*
X39464Y-19263D01*
X39464Y-20025D02*
X39407Y-20063D01*
X39292Y-20063D01*
X39235Y-20025D01*
X39207Y-19987D01*
X39178Y-19911D01*
X39178Y-19682D01*
X39207Y-19606D01*
X39235Y-19568D01*
X39292Y-19530D01*
X39407Y-19530D01*
X39464Y-19568D01*
X39750Y-20063D02*
X39750Y-19530D01*
X39750Y-19682D02*
X39778Y-19606D01*
X39807Y-19568D01*
X39864Y-19530D01*
X39921Y-19530D01*
X40378Y-20063D02*
X40378Y-19644D01*
X40350Y-19568D01*
X40292Y-19530D01*
X40178Y-19530D01*
X40121Y-19568D01*
X40378Y-20025D02*
X40321Y-20063D01*
X40178Y-20063D01*
X40121Y-20025D01*
X40092Y-19949D01*
X40092Y-19873D01*
X40121Y-19797D01*
X40178Y-19759D01*
X40321Y-19759D01*
X40378Y-19720D01*
X40607Y-19530D02*
X40721Y-20063D01*
X40835Y-19682D01*
X40950Y-20063D01*
X41064Y-19530D01*
X41292Y-19530D02*
X41292Y-20063D01*
X41292Y-19606D02*
X41321Y-19568D01*
X41378Y-19530D01*
X41464Y-19530D01*
X41521Y-19568D01*
X41550Y-19644D01*
X41550Y-20063D01*
X41835Y-19987D02*
X41864Y-20025D01*
X41835Y-20063D01*
X41807Y-20025D01*
X41835Y-19987D01*
X41835Y-20063D01*
X42578Y-20063D02*
X42578Y-19263D01*
X42778Y-19530D02*
X43007Y-19530D01*
X42864Y-19263D02*
X42864Y-19949D01*
X42892Y-20025D01*
X42950Y-20063D01*
X43007Y-20063D01*
X43664Y-20063D02*
X43664Y-19530D01*
X43664Y-19263D02*
X43635Y-19301D01*
X43664Y-19340D01*
X43692Y-19301D01*
X43664Y-19263D01*
X43664Y-19340D01*
X43921Y-20025D02*
X43978Y-20063D01*
X44092Y-20063D01*
X44150Y-20025D01*
X44178Y-19949D01*
X44178Y-19911D01*
X44150Y-19835D01*
X44092Y-19797D01*
X44007Y-19797D01*
X43950Y-19759D01*
X43921Y-19682D01*
X43921Y-19644D01*
X43950Y-19568D01*
X44007Y-19530D01*
X44092Y-19530D01*
X44150Y-19568D01*
X44892Y-20063D02*
X44892Y-19263D01*
X45150Y-20063D02*
X45150Y-19644D01*
X45121Y-19568D01*
X45064Y-19530D01*
X44978Y-19530D01*
X44921Y-19568D01*
X44892Y-19606D01*
X45521Y-20063D02*
X45464Y-20025D01*
X45435Y-19987D01*
X45407Y-19911D01*
X45407Y-19682D01*
X45435Y-19606D01*
X45464Y-19568D01*
X45521Y-19530D01*
X45607Y-19530D01*
X45664Y-19568D01*
X45692Y-19606D01*
X45721Y-19682D01*
X45721Y-19911D01*
X45692Y-19987D01*
X45664Y-20025D01*
X45607Y-20063D01*
X45521Y-20063D01*
X45921Y-19530D02*
X46035Y-20063D01*
X46150Y-19682D01*
X46264Y-20063D01*
X46378Y-19530D01*
X46835Y-20025D02*
X46778Y-20063D01*
X46664Y-20063D01*
X46607Y-20025D01*
X46578Y-19949D01*
X46578Y-19644D01*
X46607Y-19568D01*
X46664Y-19530D01*
X46778Y-19530D01*
X46835Y-19568D01*
X46864Y-19644D01*
X46864Y-19720D01*
X46578Y-19797D01*
X47064Y-19530D02*
X47207Y-20063D01*
X47350Y-19530D01*
X47807Y-20025D02*
X47750Y-20063D01*
X47635Y-20063D01*
X47578Y-20025D01*
X47550Y-19949D01*
X47550Y-19644D01*
X47578Y-19568D01*
X47635Y-19530D01*
X47750Y-19530D01*
X47807Y-19568D01*
X47835Y-19644D01*
X47835Y-19720D01*
X47550Y-19797D01*
X48092Y-20063D02*
X48092Y-19530D01*
X48092Y-19682D02*
X48121Y-19606D01*
X48150Y-19568D01*
X48207Y-19530D01*
X48264Y-19530D01*
X48921Y-19530D02*
X48921Y-20330D01*
X48921Y-19568D02*
X48978Y-19530D01*
X49092Y-19530D01*
X49150Y-19568D01*
X49178Y-19606D01*
X49207Y-19682D01*
X49207Y-19911D01*
X49178Y-19987D01*
X49150Y-20025D01*
X49092Y-20063D01*
X48978Y-20063D01*
X48921Y-20025D01*
X49550Y-20063D02*
X49492Y-20025D01*
X49464Y-19987D01*
X49435Y-19911D01*
X49435Y-19682D01*
X49464Y-19606D01*
X49492Y-19568D01*
X49550Y-19530D01*
X49635Y-19530D01*
X49692Y-19568D01*
X49721Y-19606D01*
X49750Y-19682D01*
X49750Y-19911D01*
X49721Y-19987D01*
X49692Y-20025D01*
X49635Y-20063D01*
X49550Y-20063D01*
X49978Y-20025D02*
X50035Y-20063D01*
X50150Y-20063D01*
X50207Y-20025D01*
X50235Y-19949D01*
X50235Y-19911D01*
X50207Y-19835D01*
X50150Y-19797D01*
X50064Y-19797D01*
X50007Y-19759D01*
X49978Y-19682D01*
X49978Y-19644D01*
X50007Y-19568D01*
X50064Y-19530D01*
X50150Y-19530D01*
X50207Y-19568D01*
X50464Y-20025D02*
X50521Y-20063D01*
X50635Y-20063D01*
X50692Y-20025D01*
X50721Y-19949D01*
X50721Y-19911D01*
X50692Y-19835D01*
X50635Y-19797D01*
X50550Y-19797D01*
X50492Y-19759D01*
X50464Y-19682D01*
X50464Y-19644D01*
X50492Y-19568D01*
X50550Y-19530D01*
X50635Y-19530D01*
X50692Y-19568D01*
X50978Y-20063D02*
X50978Y-19530D01*
X50978Y-19263D02*
X50950Y-19301D01*
X50978Y-19340D01*
X51007Y-19301D01*
X50978Y-19263D01*
X50978Y-19340D01*
X51264Y-20063D02*
X51264Y-19263D01*
X51264Y-19568D02*
X51321Y-19530D01*
X51435Y-19530D01*
X51492Y-19568D01*
X51521Y-19606D01*
X51549Y-19682D01*
X51549Y-19911D01*
X51521Y-19987D01*
X51492Y-20025D01*
X51435Y-20063D01*
X51321Y-20063D01*
X51264Y-20025D01*
X51892Y-20063D02*
X51835Y-20025D01*
X51807Y-19949D01*
X51807Y-19263D01*
X52350Y-20025D02*
X52292Y-20063D01*
X52178Y-20063D01*
X52121Y-20025D01*
X52092Y-19949D01*
X52092Y-19644D01*
X52121Y-19568D01*
X52178Y-19530D01*
X52292Y-19530D01*
X52350Y-19568D01*
X52378Y-19644D01*
X52378Y-19720D01*
X52092Y-19797D01*
X53007Y-19530D02*
X53235Y-19530D01*
X53092Y-19263D02*
X53092Y-19949D01*
X53121Y-20025D01*
X53178Y-20063D01*
X53235Y-20063D01*
X53521Y-20063D02*
X53464Y-20025D01*
X53435Y-19987D01*
X53407Y-19911D01*
X53407Y-19682D01*
X53435Y-19606D01*
X53464Y-19568D01*
X53521Y-19530D01*
X53607Y-19530D01*
X53664Y-19568D01*
X53692Y-19606D01*
X53721Y-19682D01*
X53721Y-19911D01*
X53692Y-19987D01*
X53664Y-20025D01*
X53607Y-20063D01*
X53521Y-20063D01*
X25892Y-21303D02*
X25892Y-20770D01*
X25892Y-20503D02*
X25864Y-20541D01*
X25892Y-20580D01*
X25921Y-20541D01*
X25892Y-20503D01*
X25892Y-20580D01*
X26178Y-20770D02*
X26178Y-21303D01*
X26178Y-20846D02*
X26207Y-20808D01*
X26264Y-20770D01*
X26350Y-20770D01*
X26407Y-20808D01*
X26435Y-20884D01*
X26435Y-21303D01*
X26664Y-20770D02*
X26807Y-21303D01*
X26950Y-20770D01*
X27407Y-21265D02*
X27350Y-21303D01*
X27235Y-21303D01*
X27178Y-21265D01*
X27150Y-21189D01*
X27150Y-20884D01*
X27178Y-20808D01*
X27235Y-20770D01*
X27350Y-20770D01*
X27407Y-20808D01*
X27435Y-20884D01*
X27435Y-20960D01*
X27150Y-21037D01*
X27692Y-21303D02*
X27692Y-20770D01*
X27692Y-20922D02*
X27721Y-20846D01*
X27750Y-20808D01*
X27807Y-20770D01*
X27864Y-20770D01*
X27978Y-20770D02*
X28207Y-20770D01*
X28064Y-20503D02*
X28064Y-21189D01*
X28092Y-21265D01*
X28150Y-21303D01*
X28207Y-21303D01*
X28778Y-20770D02*
X29007Y-20770D01*
X28864Y-20503D02*
X28864Y-21189D01*
X28892Y-21265D01*
X28950Y-21303D01*
X29007Y-21303D01*
X29207Y-21303D02*
X29207Y-20503D01*
X29464Y-21303D02*
X29464Y-20884D01*
X29435Y-20808D01*
X29378Y-20770D01*
X29292Y-20770D01*
X29235Y-20808D01*
X29207Y-20846D01*
X29978Y-21265D02*
X29921Y-21303D01*
X29807Y-21303D01*
X29750Y-21265D01*
X29721Y-21189D01*
X29721Y-20884D01*
X29750Y-20808D01*
X29807Y-20770D01*
X29921Y-20770D01*
X29978Y-20808D01*
X30007Y-20884D01*
X30007Y-20960D01*
X29721Y-21037D01*
X30978Y-21303D02*
X30978Y-20503D01*
X30978Y-21265D02*
X30921Y-21303D01*
X30807Y-21303D01*
X30750Y-21265D01*
X30721Y-21227D01*
X30692Y-21151D01*
X30692Y-20922D01*
X30721Y-20846D01*
X30750Y-20808D01*
X30807Y-20770D01*
X30921Y-20770D01*
X30978Y-20808D01*
X31492Y-21265D02*
X31435Y-21303D01*
X31321Y-21303D01*
X31264Y-21265D01*
X31235Y-21189D01*
X31235Y-20884D01*
X31264Y-20808D01*
X31321Y-20770D01*
X31435Y-20770D01*
X31492Y-20808D01*
X31521Y-20884D01*
X31521Y-20960D01*
X31235Y-21037D01*
X31750Y-21265D02*
X31807Y-21303D01*
X31921Y-21303D01*
X31978Y-21265D01*
X32007Y-21189D01*
X32007Y-21151D01*
X31978Y-21075D01*
X31921Y-21037D01*
X31835Y-21037D01*
X31778Y-20999D01*
X31750Y-20922D01*
X31750Y-20884D01*
X31778Y-20808D01*
X31835Y-20770D01*
X31921Y-20770D01*
X31978Y-20808D01*
X32264Y-21303D02*
X32264Y-20770D01*
X32264Y-20503D02*
X32235Y-20541D01*
X32264Y-20580D01*
X32292Y-20541D01*
X32264Y-20503D01*
X32264Y-20580D01*
X32807Y-20770D02*
X32807Y-21418D01*
X32778Y-21494D01*
X32750Y-21532D01*
X32692Y-21570D01*
X32607Y-21570D01*
X32550Y-21532D01*
X32807Y-21265D02*
X32750Y-21303D01*
X32635Y-21303D01*
X32578Y-21265D01*
X32550Y-21227D01*
X32521Y-21151D01*
X32521Y-20922D01*
X32550Y-20846D01*
X32578Y-20808D01*
X32635Y-20770D01*
X32750Y-20770D01*
X32807Y-20808D01*
X33092Y-20770D02*
X33092Y-21303D01*
X33092Y-20846D02*
X33121Y-20808D01*
X33178Y-20770D01*
X33264Y-20770D01*
X33321Y-20808D01*
X33350Y-20884D01*
X33350Y-21303D01*
X33635Y-21227D02*
X33664Y-21265D01*
X33635Y-21303D01*
X33607Y-21265D01*
X33635Y-21227D01*
X33635Y-21303D01*
X34350Y-21265D02*
X34435Y-21303D01*
X34578Y-21303D01*
X34635Y-21265D01*
X34664Y-21227D01*
X34692Y-21151D01*
X34692Y-21075D01*
X34664Y-20999D01*
X34635Y-20960D01*
X34578Y-20922D01*
X34464Y-20884D01*
X34407Y-20846D01*
X34378Y-20808D01*
X34350Y-20732D01*
X34350Y-20656D01*
X34378Y-20580D01*
X34407Y-20541D01*
X34464Y-20503D01*
X34607Y-20503D01*
X34692Y-20541D01*
X35178Y-21265D02*
X35121Y-21303D01*
X35007Y-21303D01*
X34950Y-21265D01*
X34921Y-21189D01*
X34921Y-20884D01*
X34950Y-20808D01*
X35007Y-20770D01*
X35121Y-20770D01*
X35178Y-20808D01*
X35207Y-20884D01*
X35207Y-20960D01*
X34921Y-21037D01*
X35692Y-21265D02*
X35635Y-21303D01*
X35521Y-21303D01*
X35464Y-21265D01*
X35435Y-21189D01*
X35435Y-20884D01*
X35464Y-20808D01*
X35521Y-20770D01*
X35635Y-20770D01*
X35692Y-20808D01*
X35721Y-20884D01*
X35721Y-20960D01*
X35435Y-21037D01*
X36350Y-20770D02*
X36578Y-20770D01*
X36435Y-20503D02*
X36435Y-21189D01*
X36464Y-21265D01*
X36521Y-21303D01*
X36578Y-21303D01*
X36778Y-21303D02*
X36778Y-20503D01*
X37035Y-21303D02*
X37035Y-20884D01*
X37007Y-20808D01*
X36950Y-20770D01*
X36864Y-20770D01*
X36807Y-20808D01*
X36778Y-20846D01*
X37550Y-21265D02*
X37492Y-21303D01*
X37378Y-21303D01*
X37321Y-21265D01*
X37292Y-21189D01*
X37292Y-20884D01*
X37321Y-20808D01*
X37378Y-20770D01*
X37492Y-20770D01*
X37550Y-20808D01*
X37578Y-20884D01*
X37578Y-20960D01*
X37292Y-21037D01*
X38235Y-20770D02*
X38350Y-21303D01*
X38464Y-20922D01*
X38578Y-21303D01*
X38692Y-20770D01*
X39150Y-21265D02*
X39092Y-21303D01*
X38978Y-21303D01*
X38921Y-21265D01*
X38892Y-21189D01*
X38892Y-20884D01*
X38921Y-20808D01*
X38978Y-20770D01*
X39092Y-20770D01*
X39150Y-20808D01*
X39178Y-20884D01*
X39178Y-20960D01*
X38892Y-21037D01*
X39435Y-21303D02*
X39435Y-20503D01*
X39435Y-20808D02*
X39492Y-20770D01*
X39607Y-20770D01*
X39664Y-20808D01*
X39692Y-20846D01*
X39721Y-20922D01*
X39721Y-21151D01*
X39692Y-21227D01*
X39664Y-21265D01*
X39607Y-21303D01*
X39492Y-21303D01*
X39435Y-21265D01*
X39978Y-20770D02*
X39978Y-21570D01*
X39978Y-20808D02*
X40035Y-20770D01*
X40150Y-20770D01*
X40207Y-20808D01*
X40235Y-20846D01*
X40264Y-20922D01*
X40264Y-21151D01*
X40235Y-21227D01*
X40207Y-21265D01*
X40150Y-21303D01*
X40035Y-21303D01*
X39978Y-21265D01*
X40778Y-21303D02*
X40778Y-20884D01*
X40750Y-20808D01*
X40692Y-20770D01*
X40578Y-20770D01*
X40521Y-20808D01*
X40778Y-21265D02*
X40721Y-21303D01*
X40578Y-21303D01*
X40521Y-21265D01*
X40492Y-21189D01*
X40492Y-21113D01*
X40521Y-21037D01*
X40578Y-20999D01*
X40721Y-20999D01*
X40778Y-20960D01*
X41321Y-20770D02*
X41321Y-21418D01*
X41292Y-21494D01*
X41264Y-21532D01*
X41207Y-21570D01*
X41121Y-21570D01*
X41064Y-21532D01*
X41321Y-21265D02*
X41264Y-21303D01*
X41150Y-21303D01*
X41092Y-21265D01*
X41064Y-21227D01*
X41035Y-21151D01*
X41035Y-20922D01*
X41064Y-20846D01*
X41092Y-20808D01*
X41150Y-20770D01*
X41264Y-20770D01*
X41321Y-20808D01*
X41835Y-21265D02*
X41778Y-21303D01*
X41664Y-21303D01*
X41607Y-21265D01*
X41578Y-21189D01*
X41578Y-20884D01*
X41607Y-20808D01*
X41664Y-20770D01*
X41778Y-20770D01*
X41835Y-20808D01*
X41864Y-20884D01*
X41864Y-20960D01*
X41578Y-21037D01*
X42492Y-20770D02*
X42721Y-20770D01*
X42578Y-21303D02*
X42578Y-20618D01*
X42607Y-20541D01*
X42664Y-20503D01*
X42721Y-20503D01*
X43007Y-21303D02*
X42950Y-21265D01*
X42921Y-21227D01*
X42892Y-21151D01*
X42892Y-20922D01*
X42921Y-20846D01*
X42950Y-20808D01*
X43007Y-20770D01*
X43092Y-20770D01*
X43150Y-20808D01*
X43178Y-20846D01*
X43207Y-20922D01*
X43207Y-21151D01*
X43178Y-21227D01*
X43150Y-21265D01*
X43092Y-21303D01*
X43007Y-21303D01*
X43464Y-21303D02*
X43464Y-20770D01*
X43464Y-20922D02*
X43492Y-20846D01*
X43521Y-20808D01*
X43578Y-20770D01*
X43635Y-20770D01*
X44207Y-20770D02*
X44435Y-20770D01*
X44292Y-21303D02*
X44292Y-20618D01*
X44321Y-20541D01*
X44378Y-20503D01*
X44435Y-20503D01*
X44892Y-20770D02*
X44892Y-21303D01*
X44635Y-20770D02*
X44635Y-21189D01*
X44664Y-21265D01*
X44721Y-21303D01*
X44807Y-21303D01*
X44864Y-21265D01*
X44892Y-21227D01*
X45178Y-21303D02*
X45178Y-20770D01*
X45178Y-20922D02*
X45207Y-20846D01*
X45235Y-20808D01*
X45292Y-20770D01*
X45350Y-20770D01*
X45464Y-20770D02*
X45692Y-20770D01*
X45550Y-20503D02*
X45550Y-21189D01*
X45578Y-21265D01*
X45635Y-21303D01*
X45692Y-21303D01*
X45892Y-21303D02*
X45892Y-20503D01*
X46150Y-21303D02*
X46150Y-20884D01*
X46121Y-20808D01*
X46064Y-20770D01*
X45978Y-20770D01*
X45921Y-20808D01*
X45892Y-20846D01*
X46664Y-21265D02*
X46607Y-21303D01*
X46492Y-21303D01*
X46435Y-21265D01*
X46407Y-21189D01*
X46407Y-20884D01*
X46435Y-20808D01*
X46492Y-20770D01*
X46607Y-20770D01*
X46664Y-20808D01*
X46692Y-20884D01*
X46692Y-20960D01*
X46407Y-21037D01*
X46950Y-21303D02*
X46950Y-20770D01*
X46950Y-20922D02*
X46978Y-20846D01*
X47007Y-20808D01*
X47064Y-20770D01*
X47121Y-20770D01*
X47778Y-21303D02*
X47778Y-20770D01*
X47778Y-20503D02*
X47750Y-20541D01*
X47778Y-20580D01*
X47807Y-20541D01*
X47778Y-20503D01*
X47778Y-20580D01*
X48064Y-20770D02*
X48064Y-21303D01*
X48064Y-20846D02*
X48092Y-20808D01*
X48150Y-20770D01*
X48235Y-20770D01*
X48292Y-20808D01*
X48321Y-20884D01*
X48321Y-21303D01*
X48578Y-21265D02*
X48635Y-21303D01*
X48750Y-21303D01*
X48807Y-21265D01*
X48835Y-21189D01*
X48835Y-21151D01*
X48807Y-21075D01*
X48750Y-21037D01*
X48664Y-21037D01*
X48607Y-20999D01*
X48578Y-20922D01*
X48578Y-20884D01*
X48607Y-20808D01*
X48664Y-20770D01*
X48750Y-20770D01*
X48807Y-20808D01*
X49007Y-20770D02*
X49235Y-20770D01*
X49092Y-20503D02*
X49092Y-21189D01*
X49121Y-21265D01*
X49178Y-21303D01*
X49235Y-21303D01*
X49435Y-21303D02*
X49435Y-20770D01*
X49435Y-20922D02*
X49464Y-20846D01*
X49492Y-20808D01*
X49550Y-20770D01*
X49607Y-20770D01*
X50064Y-20770D02*
X50064Y-21303D01*
X49807Y-20770D02*
X49807Y-21189D01*
X49835Y-21265D01*
X49892Y-21303D01*
X49978Y-21303D01*
X50035Y-21265D01*
X50064Y-21227D01*
X50607Y-21265D02*
X50550Y-21303D01*
X50435Y-21303D01*
X50378Y-21265D01*
X50350Y-21227D01*
X50321Y-21151D01*
X50321Y-20922D01*
X50350Y-20846D01*
X50378Y-20808D01*
X50435Y-20770D01*
X50550Y-20770D01*
X50607Y-20808D01*
X50778Y-20770D02*
X51007Y-20770D01*
X50864Y-20503D02*
X50864Y-21189D01*
X50892Y-21265D01*
X50950Y-21303D01*
X51007Y-21303D01*
X51207Y-21303D02*
X51207Y-20770D01*
X51207Y-20503D02*
X51178Y-20541D01*
X51207Y-20580D01*
X51235Y-20541D01*
X51207Y-20503D01*
X51207Y-20580D01*
X51578Y-21303D02*
X51521Y-21265D01*
X51492Y-21227D01*
X51464Y-21151D01*
X51464Y-20922D01*
X51492Y-20846D01*
X51521Y-20808D01*
X51578Y-20770D01*
X51664Y-20770D01*
X51721Y-20808D01*
X51750Y-20846D01*
X51778Y-20922D01*
X51778Y-21151D01*
X51750Y-21227D01*
X51721Y-21265D01*
X51664Y-21303D01*
X51578Y-21303D01*
X52035Y-20770D02*
X52035Y-21303D01*
X52035Y-20846D02*
X52064Y-20808D01*
X52121Y-20770D01*
X52207Y-20770D01*
X52264Y-20808D01*
X52292Y-20884D01*
X52292Y-21303D01*
X52550Y-21265D02*
X52607Y-21303D01*
X52721Y-21303D01*
X52778Y-21265D01*
X52807Y-21189D01*
X52807Y-21151D01*
X52778Y-21075D01*
X52721Y-21037D01*
X52635Y-21037D01*
X52578Y-20999D01*
X52550Y-20922D01*
X52550Y-20884D01*
X52578Y-20808D01*
X52635Y-20770D01*
X52721Y-20770D01*
X52778Y-20808D01*
X53064Y-21227D02*
X53092Y-21265D01*
X53064Y-21303D01*
X53035Y-21265D01*
X53064Y-21227D01*
X53064Y-21303D01*
X25835Y-22010D02*
X25950Y-22543D01*
X26064Y-22162D01*
X26178Y-22543D01*
X26292Y-22010D01*
X26464Y-22010D02*
X26578Y-22543D01*
X26692Y-22162D01*
X26807Y-22543D01*
X26921Y-22010D01*
X27092Y-22010D02*
X27207Y-22543D01*
X27321Y-22162D01*
X27435Y-22543D01*
X27549Y-22010D01*
X27778Y-22467D02*
X27807Y-22505D01*
X27778Y-22543D01*
X27749Y-22505D01*
X27778Y-22467D01*
X27778Y-22543D01*
X28292Y-22505D02*
X28235Y-22543D01*
X28121Y-22543D01*
X28064Y-22505D01*
X28035Y-22429D01*
X28035Y-22124D01*
X28064Y-22048D01*
X28121Y-22010D01*
X28235Y-22010D01*
X28292Y-22048D01*
X28321Y-22124D01*
X28321Y-22200D01*
X28035Y-22277D01*
X28578Y-22543D02*
X28578Y-22010D01*
X28578Y-22162D02*
X28607Y-22086D01*
X28635Y-22048D01*
X28692Y-22010D01*
X28749Y-22010D01*
X29207Y-22010D02*
X29207Y-22658D01*
X29178Y-22734D01*
X29149Y-22772D01*
X29092Y-22810D01*
X29007Y-22810D01*
X28949Y-22772D01*
X29207Y-22505D02*
X29149Y-22543D01*
X29035Y-22543D01*
X28978Y-22505D01*
X28949Y-22467D01*
X28921Y-22391D01*
X28921Y-22162D01*
X28949Y-22086D01*
X28978Y-22048D01*
X29035Y-22010D01*
X29149Y-22010D01*
X29207Y-22048D01*
X29578Y-22543D02*
X29521Y-22505D01*
X29492Y-22467D01*
X29464Y-22391D01*
X29464Y-22162D01*
X29492Y-22086D01*
X29521Y-22048D01*
X29578Y-22010D01*
X29664Y-22010D01*
X29721Y-22048D01*
X29749Y-22086D01*
X29778Y-22162D01*
X29778Y-22391D01*
X29749Y-22467D01*
X29721Y-22505D01*
X29664Y-22543D01*
X29578Y-22543D01*
X30292Y-22543D02*
X30292Y-21743D01*
X30292Y-22505D02*
X30235Y-22543D01*
X30121Y-22543D01*
X30064Y-22505D01*
X30035Y-22467D01*
X30007Y-22391D01*
X30007Y-22162D01*
X30035Y-22086D01*
X30064Y-22048D01*
X30121Y-22010D01*
X30235Y-22010D01*
X30292Y-22048D01*
X30664Y-22543D02*
X30607Y-22505D01*
X30578Y-22467D01*
X30549Y-22391D01*
X30549Y-22162D01*
X30578Y-22086D01*
X30607Y-22048D01*
X30664Y-22010D01*
X30749Y-22010D01*
X30807Y-22048D01*
X30835Y-22086D01*
X30864Y-22162D01*
X30864Y-22391D01*
X30835Y-22467D01*
X30807Y-22505D01*
X30749Y-22543D01*
X30664Y-22543D01*
X31064Y-22543D02*
X31378Y-22010D01*
X31064Y-22010D02*
X31378Y-22543D01*
X31607Y-22467D02*
X31635Y-22505D01*
X31607Y-22543D01*
X31578Y-22505D01*
X31607Y-22467D01*
X31607Y-22543D01*
X31978Y-22543D02*
X31921Y-22505D01*
X31892Y-22467D01*
X31864Y-22391D01*
X31864Y-22162D01*
X31892Y-22086D01*
X31921Y-22048D01*
X31978Y-22010D01*
X32064Y-22010D01*
X32121Y-22048D01*
X32149Y-22086D01*
X32178Y-22162D01*
X32178Y-22391D01*
X32149Y-22467D01*
X32121Y-22505D01*
X32064Y-22543D01*
X31978Y-22543D01*
X32435Y-22543D02*
X32435Y-22010D01*
X32435Y-22162D02*
X32464Y-22086D01*
X32492Y-22048D01*
X32549Y-22010D01*
X32607Y-22010D01*
X33064Y-22010D02*
X33064Y-22658D01*
X33035Y-22734D01*
X33007Y-22772D01*
X32949Y-22810D01*
X32864Y-22810D01*
X32807Y-22772D01*
X33064Y-22505D02*
X33007Y-22543D01*
X32892Y-22543D01*
X32835Y-22505D01*
X32807Y-22467D01*
X32778Y-22391D01*
X32778Y-22162D01*
X32807Y-22086D01*
X32835Y-22048D01*
X32892Y-22010D01*
X33007Y-22010D01*
X33064Y-22048D01*
G54D13*
X27309Y-40235D02*
X26976Y-39664D01*
X26738Y-40235D02*
X26738Y-39035D01*
X27119Y-39035D01*
X27214Y-39092D01*
X27261Y-39150D01*
X27309Y-39264D01*
X27309Y-39435D01*
X27261Y-39550D01*
X27214Y-39607D01*
X27119Y-39664D01*
X26738Y-39664D01*
X27738Y-40235D02*
X27738Y-39035D01*
X28738Y-39092D02*
X28642Y-39035D01*
X28500Y-39035D01*
X28357Y-39092D01*
X28261Y-39207D01*
X28214Y-39321D01*
X28166Y-39550D01*
X28166Y-39721D01*
X28214Y-39950D01*
X28261Y-40064D01*
X28357Y-40178D01*
X28500Y-40235D01*
X28595Y-40235D01*
X28738Y-40178D01*
X28785Y-40121D01*
X28785Y-39721D01*
X28595Y-39721D01*
X29214Y-40235D02*
X29214Y-39035D01*
X29214Y-39607D02*
X29785Y-39607D01*
X29785Y-40235D02*
X29785Y-39035D01*
X30119Y-39035D02*
X30690Y-39035D01*
X30404Y-40235D02*
X30404Y-39035D01*
X26738Y-42115D02*
X26738Y-40915D01*
X26738Y-41487D02*
X27309Y-41487D01*
X27309Y-42115D02*
X27309Y-40915D01*
X27738Y-41772D02*
X28214Y-41772D01*
X27642Y-42115D02*
X27976Y-40915D01*
X28309Y-42115D01*
X28642Y-42115D02*
X28642Y-40915D01*
X29214Y-42115D01*
X29214Y-40915D01*
X29690Y-42115D02*
X29690Y-40915D01*
X29928Y-40915D01*
X30071Y-40972D01*
X30166Y-41087D01*
X30214Y-41201D01*
X30261Y-41430D01*
X30261Y-41601D01*
X30214Y-41830D01*
X30166Y-41944D01*
X30071Y-42058D01*
X29928Y-42115D01*
X29690Y-42115D01*
G54D11*
X63592Y-21404D02*
X63392Y-21404D01*
X63392Y-21823D02*
X63392Y-21023D01*
X63678Y-21023D01*
X64250Y-21823D02*
X64050Y-21442D01*
X63907Y-21823D02*
X63907Y-21023D01*
X64135Y-21023D01*
X64192Y-21061D01*
X64221Y-21100D01*
X64250Y-21176D01*
X64250Y-21290D01*
X64221Y-21366D01*
X64192Y-21404D01*
X64135Y-21442D01*
X63907Y-21442D01*
X64764Y-21290D02*
X64764Y-21823D01*
X64621Y-20985D02*
X64478Y-21557D01*
X64850Y-21557D01*
X65450Y-21023D02*
X65792Y-21023D01*
X65621Y-21823D02*
X65621Y-21023D01*
X66250Y-21290D02*
X66250Y-21938D01*
X66221Y-22014D01*
X66192Y-22052D01*
X66135Y-22090D01*
X66050Y-22090D01*
X65992Y-22052D01*
X66250Y-21785D02*
X66192Y-21823D01*
X66078Y-21823D01*
X66021Y-21785D01*
X65992Y-21747D01*
X65964Y-21671D01*
X65964Y-21442D01*
X65992Y-21366D01*
X66021Y-21328D01*
X66078Y-21290D01*
X66192Y-21290D01*
X66250Y-21328D01*
X66850Y-21823D02*
X66507Y-21823D01*
X66678Y-21823D02*
X66678Y-21023D01*
X66621Y-21138D01*
X66564Y-21214D01*
X66507Y-21252D01*
X67050Y-21023D02*
X67450Y-21023D01*
X67192Y-21823D01*
X67792Y-21023D02*
X67850Y-21023D01*
X67907Y-21061D01*
X67935Y-21100D01*
X67964Y-21176D01*
X67992Y-21328D01*
X67992Y-21519D01*
X67964Y-21671D01*
X67935Y-21747D01*
X67907Y-21785D01*
X67850Y-21823D01*
X67792Y-21823D01*
X67735Y-21785D01*
X67707Y-21747D01*
X67678Y-21671D01*
X67650Y-21519D01*
X67650Y-21328D01*
X67678Y-21176D01*
X67707Y-21100D01*
X67735Y-21061D01*
X67792Y-21023D01*
X68335Y-21023D02*
X68278Y-21061D01*
X68250Y-21138D01*
X68278Y-21214D01*
X68335Y-21252D01*
X68392Y-21214D01*
X68421Y-21138D01*
X68392Y-21061D01*
X68335Y-21023D01*
X69450Y-21823D02*
X69164Y-21823D01*
X69164Y-21023D01*
X69907Y-21823D02*
X69907Y-21404D01*
X69878Y-21328D01*
X69821Y-21290D01*
X69707Y-21290D01*
X69650Y-21328D01*
X69907Y-21785D02*
X69850Y-21823D01*
X69707Y-21823D01*
X69650Y-21785D01*
X69621Y-21709D01*
X69621Y-21633D01*
X69650Y-21557D01*
X69707Y-21519D01*
X69850Y-21519D01*
X69907Y-21480D01*
X70192Y-21823D02*
X70192Y-21290D01*
X70192Y-21366D02*
X70221Y-21328D01*
X70278Y-21290D01*
X70364Y-21290D01*
X70421Y-21328D01*
X70450Y-21404D01*
X70450Y-21823D01*
X70450Y-21404D02*
X70478Y-21328D01*
X70535Y-21290D01*
X70621Y-21290D01*
X70678Y-21328D01*
X70707Y-21404D01*
X70707Y-21823D01*
X70992Y-21823D02*
X70992Y-21290D01*
X70992Y-21023D02*
X70964Y-21061D01*
X70992Y-21100D01*
X71021Y-21061D01*
X70992Y-21023D01*
X70992Y-21100D01*
X71278Y-21290D02*
X71278Y-21823D01*
X71278Y-21366D02*
X71307Y-21328D01*
X71364Y-21290D01*
X71450Y-21290D01*
X71507Y-21328D01*
X71535Y-21404D01*
X71535Y-21823D01*
X72078Y-21823D02*
X72078Y-21404D01*
X72050Y-21328D01*
X71992Y-21290D01*
X71878Y-21290D01*
X71821Y-21328D01*
X72078Y-21785D02*
X72021Y-21823D01*
X71878Y-21823D01*
X71821Y-21785D01*
X71792Y-21709D01*
X71792Y-21633D01*
X71821Y-21557D01*
X71878Y-21519D01*
X72021Y-21519D01*
X72078Y-21480D01*
X72278Y-21290D02*
X72507Y-21290D01*
X72364Y-21023D02*
X72364Y-21709D01*
X72392Y-21785D01*
X72450Y-21823D01*
X72507Y-21823D01*
X72935Y-21785D02*
X72878Y-21823D01*
X72764Y-21823D01*
X72707Y-21785D01*
X72678Y-21709D01*
X72678Y-21404D01*
X72707Y-21328D01*
X72764Y-21290D01*
X72878Y-21290D01*
X72935Y-21328D01*
X72964Y-21404D01*
X72964Y-21480D01*
X72678Y-21557D01*
X63364Y-22340D02*
X63392Y-22301D01*
X63450Y-22263D01*
X63592Y-22263D01*
X63650Y-22301D01*
X63678Y-22340D01*
X63707Y-22416D01*
X63707Y-22492D01*
X63678Y-22606D01*
X63335Y-23063D01*
X63707Y-23063D01*
X64221Y-22530D02*
X64221Y-23063D01*
X64078Y-22225D02*
X63935Y-22797D01*
X64307Y-22797D01*
X64535Y-23063D02*
X64535Y-22530D01*
X64535Y-22606D02*
X64564Y-22568D01*
X64621Y-22530D01*
X64707Y-22530D01*
X64764Y-22568D01*
X64792Y-22644D01*
X64792Y-23063D01*
X64792Y-22644D02*
X64821Y-22568D01*
X64878Y-22530D01*
X64964Y-22530D01*
X65021Y-22568D01*
X65050Y-22644D01*
X65050Y-23063D01*
X65335Y-23063D02*
X65335Y-22530D01*
X65335Y-22263D02*
X65307Y-22301D01*
X65335Y-22340D01*
X65364Y-22301D01*
X65335Y-22263D01*
X65335Y-22340D01*
X65707Y-23063D02*
X65650Y-23025D01*
X65621Y-22949D01*
X65621Y-22263D01*
X66307Y-22530D02*
X66535Y-22530D01*
X66392Y-22263D02*
X66392Y-22949D01*
X66421Y-23025D01*
X66478Y-23063D01*
X66535Y-23063D01*
X66735Y-23063D02*
X66735Y-22530D01*
X66735Y-22682D02*
X66764Y-22606D01*
X66792Y-22568D01*
X66850Y-22530D01*
X66907Y-22530D01*
X67364Y-23063D02*
X67364Y-22644D01*
X67335Y-22568D01*
X67278Y-22530D01*
X67164Y-22530D01*
X67107Y-22568D01*
X67364Y-23025D02*
X67307Y-23063D01*
X67164Y-23063D01*
X67107Y-23025D01*
X67078Y-22949D01*
X67078Y-22873D01*
X67107Y-22797D01*
X67164Y-22759D01*
X67307Y-22759D01*
X67364Y-22720D01*
X67907Y-23025D02*
X67850Y-23063D01*
X67735Y-23063D01*
X67678Y-23025D01*
X67650Y-22987D01*
X67621Y-22911D01*
X67621Y-22682D01*
X67650Y-22606D01*
X67678Y-22568D01*
X67735Y-22530D01*
X67850Y-22530D01*
X67907Y-22568D01*
X68392Y-23025D02*
X68335Y-23063D01*
X68221Y-23063D01*
X68164Y-23025D01*
X68135Y-22949D01*
X68135Y-22644D01*
X68164Y-22568D01*
X68221Y-22530D01*
X68335Y-22530D01*
X68392Y-22568D01*
X68421Y-22644D01*
X68421Y-22720D01*
X68135Y-22797D01*
X68650Y-23025D02*
X68707Y-23063D01*
X68821Y-23063D01*
X68878Y-23025D01*
X68907Y-22949D01*
X68907Y-22911D01*
X68878Y-22835D01*
X68821Y-22797D01*
X68735Y-22797D01*
X68678Y-22759D01*
X68650Y-22682D01*
X68650Y-22644D01*
X68678Y-22568D01*
X68735Y-22530D01*
X68821Y-22530D01*
X68878Y-22568D01*
X69707Y-23063D02*
X69650Y-23025D01*
X69621Y-22987D01*
X69592Y-22911D01*
X69592Y-22682D01*
X69621Y-22606D01*
X69650Y-22568D01*
X69707Y-22530D01*
X69792Y-22530D01*
X69850Y-22568D01*
X69878Y-22606D01*
X69907Y-22682D01*
X69907Y-22911D01*
X69878Y-22987D01*
X69850Y-23025D01*
X69792Y-23063D01*
X69707Y-23063D01*
X70164Y-22530D02*
X70164Y-23063D01*
X70164Y-22606D02*
X70192Y-22568D01*
X70250Y-22530D01*
X70335Y-22530D01*
X70392Y-22568D01*
X70421Y-22644D01*
X70421Y-23063D01*
X71478Y-23063D02*
X71135Y-23063D01*
X71307Y-23063D02*
X71307Y-22263D01*
X71250Y-22378D01*
X71192Y-22454D01*
X71135Y-22492D01*
X71821Y-23063D02*
X71764Y-23025D01*
X71735Y-22987D01*
X71707Y-22911D01*
X71707Y-22682D01*
X71735Y-22606D01*
X71764Y-22568D01*
X71821Y-22530D01*
X71907Y-22530D01*
X71964Y-22568D01*
X71992Y-22606D01*
X72021Y-22682D01*
X72021Y-22911D01*
X71992Y-22987D01*
X71964Y-23025D01*
X71907Y-23063D01*
X71821Y-23063D01*
X72221Y-22530D02*
X72535Y-22530D01*
X72221Y-23063D01*
X72535Y-23063D01*
X73478Y-23025D02*
X73421Y-23063D01*
X73307Y-23063D01*
X73250Y-23025D01*
X73221Y-22987D01*
X73192Y-22911D01*
X73192Y-22682D01*
X73221Y-22606D01*
X73250Y-22568D01*
X73307Y-22530D01*
X73421Y-22530D01*
X73478Y-22568D01*
X73821Y-23063D02*
X73764Y-23025D01*
X73735Y-22987D01*
X73707Y-22911D01*
X73707Y-22682D01*
X73735Y-22606D01*
X73764Y-22568D01*
X73821Y-22530D01*
X73907Y-22530D01*
X73964Y-22568D01*
X73992Y-22606D01*
X74021Y-22682D01*
X74021Y-22911D01*
X73992Y-22987D01*
X73964Y-23025D01*
X73907Y-23063D01*
X73821Y-23063D01*
X74278Y-22530D02*
X74278Y-23330D01*
X74278Y-22568D02*
X74335Y-22530D01*
X74450Y-22530D01*
X74507Y-22568D01*
X74535Y-22606D01*
X74564Y-22682D01*
X74564Y-22911D01*
X74535Y-22987D01*
X74507Y-23025D01*
X74450Y-23063D01*
X74335Y-23063D01*
X74278Y-23025D01*
X74821Y-22530D02*
X74821Y-23330D01*
X74821Y-22568D02*
X74878Y-22530D01*
X74992Y-22530D01*
X75050Y-22568D01*
X75078Y-22606D01*
X75107Y-22682D01*
X75107Y-22911D01*
X75078Y-22987D01*
X75050Y-23025D01*
X74992Y-23063D01*
X74878Y-23063D01*
X74821Y-23025D01*
X75592Y-23025D02*
X75535Y-23063D01*
X75421Y-23063D01*
X75364Y-23025D01*
X75335Y-22949D01*
X75335Y-22644D01*
X75364Y-22568D01*
X75421Y-22530D01*
X75535Y-22530D01*
X75592Y-22568D01*
X75621Y-22644D01*
X75621Y-22720D01*
X75335Y-22797D01*
X75878Y-23063D02*
X75878Y-22530D01*
X75878Y-22682D02*
X75907Y-22606D01*
X75935Y-22568D01*
X75992Y-22530D01*
X76050Y-22530D01*
X79823Y-49857D02*
X79023Y-49857D01*
X79023Y-49714D01*
X79061Y-49628D01*
X79138Y-49571D01*
X79214Y-49542D01*
X79366Y-49514D01*
X79480Y-49514D01*
X79633Y-49542D01*
X79709Y-49571D01*
X79785Y-49628D01*
X79823Y-49714D01*
X79823Y-49857D01*
X79823Y-49257D02*
X79290Y-49257D01*
X79442Y-49257D02*
X79366Y-49228D01*
X79328Y-49200D01*
X79290Y-49142D01*
X79290Y-49085D01*
X79823Y-48628D02*
X79404Y-48628D01*
X79328Y-48657D01*
X79290Y-48714D01*
X79290Y-48828D01*
X79328Y-48885D01*
X79785Y-48628D02*
X79823Y-48685D01*
X79823Y-48828D01*
X79785Y-48885D01*
X79709Y-48914D01*
X79633Y-48914D01*
X79557Y-48885D01*
X79519Y-48828D01*
X79519Y-48685D01*
X79480Y-48628D01*
X79290Y-48400D02*
X79823Y-48285D01*
X79442Y-48171D01*
X79823Y-48057D01*
X79290Y-47942D01*
X79290Y-47714D02*
X79823Y-47714D01*
X79366Y-47714D02*
X79328Y-47685D01*
X79290Y-47628D01*
X79290Y-47542D01*
X79328Y-47485D01*
X79404Y-47457D01*
X79823Y-47457D01*
X79823Y-46714D02*
X79290Y-46714D01*
X79023Y-46714D02*
X79061Y-46742D01*
X79100Y-46714D01*
X79061Y-46685D01*
X79023Y-46714D01*
X79100Y-46714D01*
X79290Y-46428D02*
X79823Y-46428D01*
X79366Y-46428D02*
X79328Y-46400D01*
X79290Y-46342D01*
X79290Y-46257D01*
X79328Y-46200D01*
X79404Y-46171D01*
X79823Y-46171D01*
X79823Y-45428D02*
X79023Y-45428D01*
X79823Y-45085D02*
X79366Y-45342D01*
X79023Y-45085D02*
X79480Y-45428D01*
X79823Y-44828D02*
X79290Y-44828D01*
X79023Y-44828D02*
X79061Y-44857D01*
X79100Y-44828D01*
X79061Y-44800D01*
X79023Y-44828D01*
X79100Y-44828D01*
X79747Y-44200D02*
X79785Y-44228D01*
X79823Y-44314D01*
X79823Y-44371D01*
X79785Y-44457D01*
X79709Y-44514D01*
X79633Y-44542D01*
X79480Y-44571D01*
X79366Y-44571D01*
X79214Y-44542D01*
X79138Y-44514D01*
X79061Y-44457D01*
X79023Y-44371D01*
X79023Y-44314D01*
X79061Y-44228D01*
X79100Y-44200D01*
X79595Y-43971D02*
X79595Y-43685D01*
X79823Y-44028D02*
X79023Y-43828D01*
X79823Y-43628D01*
X79823Y-43428D02*
X79023Y-43428D01*
X79023Y-43285D01*
X79061Y-43200D01*
X79138Y-43142D01*
X79214Y-43114D01*
X79366Y-43085D01*
X79480Y-43085D01*
X79633Y-43114D01*
X79709Y-43142D01*
X79785Y-43200D01*
X79823Y-43285D01*
X79823Y-43428D01*
X79823Y-42371D02*
X79023Y-42371D01*
X79328Y-42371D02*
X79290Y-42314D01*
X79290Y-42200D01*
X79328Y-42142D01*
X79366Y-42114D01*
X79442Y-42085D01*
X79671Y-42085D01*
X79747Y-42114D01*
X79785Y-42142D01*
X79823Y-42200D01*
X79823Y-42314D01*
X79785Y-42371D01*
X79290Y-41885D02*
X79823Y-41742D01*
X79290Y-41600D02*
X79823Y-41742D01*
X80014Y-41800D01*
X80052Y-41828D01*
X80090Y-41885D01*
X79404Y-40714D02*
X79404Y-40914D01*
X79823Y-40914D02*
X79023Y-40914D01*
X79023Y-40628D01*
X79823Y-40400D02*
X79290Y-40400D01*
X79442Y-40400D02*
X79366Y-40371D01*
X79328Y-40342D01*
X79290Y-40285D01*
X79290Y-40228D01*
X79785Y-39799D02*
X79823Y-39857D01*
X79823Y-39971D01*
X79785Y-40028D01*
X79709Y-40057D01*
X79404Y-40057D01*
X79328Y-40028D01*
X79290Y-39971D01*
X79290Y-39857D01*
X79328Y-39799D01*
X79404Y-39771D01*
X79480Y-39771D01*
X79557Y-40057D01*
X79823Y-39257D02*
X79023Y-39257D01*
X79785Y-39257D02*
X79823Y-39314D01*
X79823Y-39428D01*
X79785Y-39485D01*
X79747Y-39514D01*
X79671Y-39542D01*
X79442Y-39542D01*
X79366Y-39514D01*
X79328Y-39485D01*
X79290Y-39428D01*
X79290Y-39314D01*
X79328Y-39257D01*
X79823Y-38971D02*
X79290Y-38971D01*
X79442Y-38971D02*
X79366Y-38942D01*
X79328Y-38914D01*
X79290Y-38857D01*
X79290Y-38799D01*
X79823Y-38599D02*
X79290Y-38599D01*
X79023Y-38599D02*
X79061Y-38628D01*
X79100Y-38599D01*
X79061Y-38571D01*
X79023Y-38599D01*
X79100Y-38599D01*
X79823Y-38314D02*
X79023Y-38314D01*
X79519Y-38257D02*
X79823Y-38085D01*
X79290Y-38085D02*
X79595Y-38314D01*
X79595Y-37399D02*
X79595Y-37114D01*
X79823Y-37457D02*
X79023Y-37257D01*
X79823Y-37057D01*
X79290Y-36942D02*
X79290Y-36714D01*
X79023Y-36857D02*
X79709Y-36857D01*
X79785Y-36828D01*
X79823Y-36771D01*
X79823Y-36714D01*
X79823Y-36514D02*
X79290Y-36514D01*
X79366Y-36514D02*
X79328Y-36485D01*
X79290Y-36428D01*
X79290Y-36342D01*
X79328Y-36285D01*
X79404Y-36257D01*
X79823Y-36257D01*
X79404Y-36257D02*
X79328Y-36228D01*
X79290Y-36171D01*
X79290Y-36085D01*
X79328Y-36028D01*
X79404Y-35999D01*
X79823Y-35999D01*
X79785Y-35485D02*
X79823Y-35542D01*
X79823Y-35657D01*
X79785Y-35714D01*
X79709Y-35742D01*
X79404Y-35742D01*
X79328Y-35714D01*
X79290Y-35657D01*
X79290Y-35542D01*
X79328Y-35485D01*
X79404Y-35457D01*
X79480Y-35457D01*
X79557Y-35742D01*
X79823Y-35199D02*
X79290Y-35199D01*
X79442Y-35199D02*
X79366Y-35171D01*
X79328Y-35142D01*
X79290Y-35085D01*
X79290Y-35028D01*
X79785Y-34799D02*
X79823Y-34799D01*
X79900Y-34828D01*
X79938Y-34857D01*
X79404Y-33885D02*
X79442Y-33799D01*
X79480Y-33771D01*
X79557Y-33742D01*
X79671Y-33742D01*
X79747Y-33771D01*
X79785Y-33799D01*
X79823Y-33857D01*
X79823Y-34085D01*
X79023Y-34085D01*
X79023Y-33885D01*
X79061Y-33828D01*
X79100Y-33799D01*
X79176Y-33771D01*
X79252Y-33771D01*
X79328Y-33799D01*
X79366Y-33828D01*
X79404Y-33885D01*
X79404Y-34085D01*
X79823Y-33228D02*
X79404Y-33228D01*
X79328Y-33257D01*
X79290Y-33314D01*
X79290Y-33428D01*
X79328Y-33485D01*
X79785Y-33228D02*
X79823Y-33285D01*
X79823Y-33428D01*
X79785Y-33485D01*
X79709Y-33514D01*
X79633Y-33514D01*
X79557Y-33485D01*
X79519Y-33428D01*
X79519Y-33285D01*
X79480Y-33228D01*
X79290Y-33028D02*
X79290Y-32799D01*
X79023Y-32942D02*
X79709Y-32942D01*
X79785Y-32914D01*
X79823Y-32857D01*
X79823Y-32799D01*
X79823Y-32599D02*
X79023Y-32599D01*
X79823Y-32342D02*
X79404Y-32342D01*
X79328Y-32371D01*
X79290Y-32428D01*
X79290Y-32514D01*
X79328Y-32571D01*
X79366Y-32599D01*
X79823Y-32057D02*
X79290Y-32057D01*
X79442Y-32057D02*
X79366Y-32028D01*
X79328Y-31999D01*
X79290Y-31942D01*
X79290Y-31885D01*
X79823Y-31599D02*
X79785Y-31657D01*
X79747Y-31685D01*
X79671Y-31714D01*
X79442Y-31714D01*
X79366Y-31685D01*
X79328Y-31657D01*
X79290Y-31599D01*
X79290Y-31514D01*
X79328Y-31457D01*
X79366Y-31428D01*
X79442Y-31399D01*
X79671Y-31399D01*
X79747Y-31428D01*
X79785Y-31457D01*
X79823Y-31514D01*
X79823Y-31599D01*
X79823Y-31057D02*
X79785Y-31114D01*
X79747Y-31142D01*
X79671Y-31171D01*
X79442Y-31171D01*
X79366Y-31142D01*
X79328Y-31114D01*
X79290Y-31057D01*
X79290Y-30971D01*
X79328Y-30914D01*
X79366Y-30885D01*
X79442Y-30857D01*
X79671Y-30857D01*
X79747Y-30885D01*
X79785Y-30914D01*
X79823Y-30971D01*
X79823Y-31057D01*
X79823Y-30599D02*
X79290Y-30599D01*
X79366Y-30599D02*
X79328Y-30571D01*
X79290Y-30514D01*
X79290Y-30428D01*
X79328Y-30371D01*
X79404Y-30342D01*
X79823Y-30342D01*
X79404Y-30342D02*
X79328Y-30314D01*
X79290Y-30257D01*
X79290Y-30171D01*
X79328Y-30114D01*
X79404Y-30085D01*
X79823Y-30085D01*
X79404Y-29342D02*
X79404Y-29142D01*
X79823Y-29057D02*
X79823Y-29342D01*
X79023Y-29342D01*
X79023Y-29057D01*
X79290Y-28799D02*
X80090Y-28799D01*
X79328Y-28799D02*
X79290Y-28742D01*
X79290Y-28628D01*
X79328Y-28571D01*
X79366Y-28542D01*
X79442Y-28514D01*
X79671Y-28514D01*
X79747Y-28542D01*
X79785Y-28571D01*
X79823Y-28628D01*
X79823Y-28742D01*
X79785Y-28799D01*
X79823Y-28257D02*
X79290Y-28257D01*
X79023Y-28257D02*
X79061Y-28285D01*
X79100Y-28257D01*
X79061Y-28228D01*
X79023Y-28257D01*
X79100Y-28257D01*
X79290Y-27971D02*
X80090Y-27971D01*
X79328Y-27971D02*
X79290Y-27914D01*
X79290Y-27799D01*
X79328Y-27742D01*
X79366Y-27714D01*
X79442Y-27685D01*
X79671Y-27685D01*
X79747Y-27714D01*
X79785Y-27742D01*
X79823Y-27799D01*
X79823Y-27914D01*
X79785Y-27971D01*
X79823Y-27428D02*
X79023Y-27428D01*
X79823Y-27171D02*
X79404Y-27171D01*
X79328Y-27199D01*
X79290Y-27257D01*
X79290Y-27342D01*
X79328Y-27399D01*
X79366Y-27428D01*
X79823Y-26628D02*
X79404Y-26628D01*
X79328Y-26657D01*
X79290Y-26714D01*
X79290Y-26828D01*
X79328Y-26885D01*
X79785Y-26628D02*
X79823Y-26685D01*
X79823Y-26828D01*
X79785Y-26885D01*
X79709Y-26914D01*
X79633Y-26914D01*
X79557Y-26885D01*
X79519Y-26828D01*
X79519Y-26685D01*
X79480Y-26628D01*
X79290Y-26342D02*
X79823Y-26342D01*
X79366Y-26342D02*
X79328Y-26314D01*
X79290Y-26257D01*
X79290Y-26171D01*
X79328Y-26114D01*
X79404Y-26085D01*
X79823Y-26085D01*
X79823Y-25800D02*
X79290Y-25800D01*
X79023Y-25800D02*
X79061Y-25828D01*
X79100Y-25800D01*
X79061Y-25771D01*
X79023Y-25800D01*
X79100Y-25800D01*
X79785Y-25285D02*
X79823Y-25342D01*
X79823Y-25457D01*
X79785Y-25514D01*
X79709Y-25542D01*
X79404Y-25542D01*
X79328Y-25514D01*
X79290Y-25457D01*
X79290Y-25342D01*
X79328Y-25285D01*
X79404Y-25257D01*
X79480Y-25257D01*
X79557Y-25542D01*
X79785Y-25028D02*
X79823Y-24971D01*
X79823Y-24857D01*
X79785Y-24800D01*
X79709Y-24771D01*
X79671Y-24771D01*
X79595Y-24800D01*
X79557Y-24857D01*
X79557Y-24942D01*
X79519Y-25000D01*
X79442Y-25028D01*
X79404Y-25028D01*
X79328Y-25000D01*
X79290Y-24942D01*
X79290Y-24857D01*
X79328Y-24800D01*
G54D14*
X55706Y-11213D02*
X55706Y-14756D01*
X55706Y-14756D02*
X52674Y-14756D01*
X52674Y-14756D02*
X52674Y-11213D01*
X52674Y-11213D02*
X55706Y-11213D01*
X59862Y-17344D02*
X58094Y-19112D01*
X58094Y-19112D02*
X57387Y-18405D01*
X57387Y-18405D02*
X59155Y-16637D01*
X59155Y-16637D02*
X59862Y-17344D01*
X57210Y-19289D02*
X57741Y-18758D01*
X60039Y-16460D02*
X59508Y-16991D01*
X59112Y-16594D02*
X57344Y-18362D01*
X57344Y-18362D02*
X56637Y-17655D01*
X56637Y-17655D02*
X58405Y-15887D01*
X58405Y-15887D02*
X59112Y-16594D01*
X56460Y-18539D02*
X56991Y-18008D01*
X59289Y-15710D02*
X58758Y-16241D01*
X50625Y-19000D02*
X48125Y-19000D01*
X48125Y-19000D02*
X48125Y-18000D01*
X48125Y-18000D02*
X50625Y-18000D01*
X50625Y-18000D02*
X50625Y-19000D01*
X47375Y-18500D02*
X48125Y-18500D01*
X51375Y-18500D02*
X50625Y-18500D01*
X40969Y-14637D02*
X42737Y-16405D01*
X42737Y-16405D02*
X42030Y-17112D01*
X42030Y-17112D02*
X40262Y-15344D01*
X40262Y-15344D02*
X40969Y-14637D01*
X42914Y-17289D02*
X42383Y-16758D01*
X40085Y-14460D02*
X40616Y-14991D01*
X39719Y-15137D02*
X41487Y-16905D01*
X41487Y-16905D02*
X40780Y-17612D01*
X40780Y-17612D02*
X39012Y-15844D01*
X39012Y-15844D02*
X39719Y-15137D01*
X41664Y-17789D02*
X41133Y-17258D01*
X38835Y-14960D02*
X39366Y-15491D01*
G54D15*
X31000Y-15750D02*
X31000Y-14750D01*
X37000Y-14750D02*
X37000Y-13750D01*
G54D14*
X63250Y-13250D02*
X63250Y-20250D01*
X63250Y-20250D02*
X75250Y-20250D01*
X75250Y-20250D02*
X75250Y-13250D01*
X75250Y-13250D02*
X63250Y-13250D01*
X63250Y-19250D02*
X64250Y-19250D01*
X64250Y-19250D02*
X64250Y-20250D01*
X35870Y-12000D02*
X35870Y-16750D01*
X35870Y-16750D02*
X32090Y-16750D01*
X32090Y-16750D02*
X32090Y-12000D01*
X26000Y-23130D02*
X26700Y-23130D01*
X30300Y-23130D02*
X31000Y-23130D01*
X31000Y-23130D02*
X31000Y-23830D01*
X31000Y-27430D02*
X31000Y-28130D01*
X31000Y-28130D02*
X30300Y-28130D01*
X26700Y-28130D02*
X26000Y-28130D01*
X26000Y-28130D02*
X26000Y-27430D01*
X26000Y-23830D02*
X26000Y-23130D01*
X26000Y-37504D02*
X26000Y-36804D01*
X26000Y-33204D02*
X26000Y-32504D01*
X26000Y-32504D02*
X26700Y-32504D01*
X30300Y-32504D02*
X31000Y-32504D01*
X31000Y-32504D02*
X31000Y-33204D01*
X31000Y-36804D02*
X31000Y-37504D01*
X31000Y-37504D02*
X30300Y-37504D01*
X26700Y-37504D02*
X26000Y-37504D01*
X26000Y-48754D02*
X26000Y-48054D01*
X26000Y-44454D02*
X26000Y-43754D01*
X26000Y-43754D02*
X26700Y-43754D01*
X30300Y-43754D02*
X31000Y-43754D01*
X31000Y-43754D02*
X31000Y-44454D01*
X31000Y-48054D02*
X31000Y-48754D01*
X31000Y-48754D02*
X30300Y-48754D01*
X26700Y-48754D02*
X26000Y-48754D01*
X71000Y-53879D02*
X71700Y-53879D01*
X75300Y-53879D02*
X76000Y-53879D01*
X76000Y-53879D02*
X76000Y-54579D01*
X76000Y-58179D02*
X76000Y-58879D01*
X76000Y-58879D02*
X75300Y-58879D01*
X71700Y-58879D02*
X71000Y-58879D01*
X71000Y-58879D02*
X71000Y-58179D01*
X71000Y-54579D02*
X71000Y-53879D01*
X33500Y-30629D02*
X34200Y-30629D01*
X37800Y-30629D02*
X38500Y-30629D01*
X38500Y-30629D02*
X38500Y-31329D01*
X38500Y-34929D02*
X38500Y-35629D01*
X38500Y-35629D02*
X37800Y-35629D01*
X34200Y-35629D02*
X33500Y-35629D01*
X33500Y-35629D02*
X33500Y-34929D01*
X33500Y-31329D02*
X33500Y-30629D01*
X13507Y-61992D02*
X14142Y-61696D01*
X17404Y-60175D02*
X18039Y-59879D01*
X18039Y-59879D02*
X18335Y-60514D01*
X19856Y-63776D02*
X20152Y-64411D01*
X20152Y-64411D02*
X19517Y-64707D01*
X16255Y-66228D02*
X15620Y-66524D01*
X15620Y-66524D02*
X15324Y-65889D01*
X13803Y-62627D02*
X13507Y-61992D01*
X16677Y-68790D02*
X17312Y-68494D01*
X20574Y-66973D02*
X21209Y-66677D01*
X21209Y-66677D02*
X21505Y-67312D01*
X23026Y-70574D02*
X23322Y-71209D01*
X23322Y-71209D02*
X22687Y-71505D01*
X19425Y-73026D02*
X18790Y-73322D01*
X18790Y-73322D02*
X18494Y-72687D01*
X16973Y-69425D02*
X16677Y-68790D01*
X10338Y-55195D02*
X10973Y-54899D01*
X14235Y-53378D02*
X14870Y-53082D01*
X14870Y-53082D02*
X15166Y-53717D01*
X16687Y-56979D02*
X16983Y-57614D01*
X16983Y-57614D02*
X16348Y-57910D01*
X13086Y-59431D02*
X12451Y-59727D01*
X12451Y-59727D02*
X12155Y-59092D01*
X10634Y-55830D02*
X10338Y-55195D01*
X17135Y-52026D02*
X17770Y-51730D01*
X21032Y-50209D02*
X21667Y-49913D01*
X21667Y-49913D02*
X21963Y-50548D01*
X23484Y-53810D02*
X23780Y-54445D01*
X23780Y-54445D02*
X23145Y-54741D01*
X19883Y-56262D02*
X19248Y-56558D01*
X19248Y-56558D02*
X18952Y-55923D01*
X17431Y-52661D02*
X17135Y-52026D01*
X63500Y-23880D02*
X64200Y-23880D01*
X67800Y-23880D02*
X68500Y-23880D01*
X68500Y-23880D02*
X68500Y-24580D01*
X68500Y-28180D02*
X68500Y-28880D01*
X68500Y-28880D02*
X67800Y-28880D01*
X64200Y-28880D02*
X63500Y-28880D01*
X63500Y-28880D02*
X63500Y-28180D01*
X63500Y-24580D02*
X63500Y-23880D01*
X56000Y-22629D02*
X56700Y-22629D01*
X60300Y-22629D02*
X61000Y-22629D01*
X61000Y-22629D02*
X61000Y-23329D01*
X61000Y-26929D02*
X61000Y-27629D01*
X61000Y-27629D02*
X60300Y-27629D01*
X56700Y-27629D02*
X56000Y-27629D01*
X56000Y-27629D02*
X56000Y-26929D01*
X56000Y-23329D02*
X56000Y-22629D01*
X48500Y-22000D02*
X49200Y-22000D01*
X52800Y-22000D02*
X53500Y-22000D01*
X53500Y-22000D02*
X53500Y-22700D01*
X53500Y-26300D02*
X53500Y-27000D01*
X53500Y-27000D02*
X52800Y-27000D01*
X49200Y-27000D02*
X48500Y-27000D01*
X48500Y-27000D02*
X48500Y-26300D01*
X48500Y-22700D02*
X48500Y-22000D01*
X41000Y-22629D02*
X41700Y-22629D01*
X45300Y-22629D02*
X46000Y-22629D01*
X46000Y-22629D02*
X46000Y-23329D01*
X46000Y-26929D02*
X46000Y-27629D01*
X46000Y-27629D02*
X45300Y-27629D01*
X41700Y-27629D02*
X41000Y-27629D01*
X41000Y-27629D02*
X41000Y-26929D01*
X41000Y-23329D02*
X41000Y-22629D01*
X56000Y-52629D02*
X56700Y-52629D01*
X60300Y-52629D02*
X61000Y-52629D01*
X61000Y-52629D02*
X61000Y-53329D01*
X61000Y-56929D02*
X61000Y-57629D01*
X61000Y-57629D02*
X60300Y-57629D01*
X56700Y-57629D02*
X56000Y-57629D01*
X56000Y-57629D02*
X56000Y-56929D01*
X56000Y-53329D02*
X56000Y-52629D01*
X63500Y-31379D02*
X64200Y-31379D01*
X67800Y-31379D02*
X68500Y-31379D01*
X68500Y-31379D02*
X68500Y-32079D01*
X68500Y-35679D02*
X68500Y-36379D01*
X68500Y-36379D02*
X67800Y-36379D01*
X64200Y-36379D02*
X63500Y-36379D01*
X63500Y-36379D02*
X63500Y-35679D01*
X63500Y-32079D02*
X63500Y-31379D01*
X48500Y-29500D02*
X49200Y-29500D01*
X52800Y-29500D02*
X53500Y-29500D01*
X53500Y-29500D02*
X53500Y-30200D01*
X53500Y-33800D02*
X53500Y-34500D01*
X53500Y-34500D02*
X52800Y-34500D01*
X49200Y-34500D02*
X48500Y-34500D01*
X48500Y-34500D02*
X48500Y-33800D01*
X48500Y-30200D02*
X48500Y-29500D01*
X41000Y-30129D02*
X41700Y-30129D01*
X45300Y-30129D02*
X46000Y-30129D01*
X46000Y-30129D02*
X46000Y-30829D01*
X46000Y-34429D02*
X46000Y-35129D01*
X46000Y-35129D02*
X45300Y-35129D01*
X41700Y-35129D02*
X41000Y-35129D01*
X41000Y-35129D02*
X41000Y-34429D01*
X41000Y-30829D02*
X41000Y-30129D01*
X63500Y-38879D02*
X64200Y-38879D01*
X67800Y-38879D02*
X68500Y-38879D01*
X68500Y-38879D02*
X68500Y-39579D01*
X68500Y-43179D02*
X68500Y-43879D01*
X68500Y-43879D02*
X67800Y-43879D01*
X64200Y-43879D02*
X63500Y-43879D01*
X63500Y-43879D02*
X63500Y-43179D01*
X63500Y-39579D02*
X63500Y-38879D01*
X56000Y-37629D02*
X56700Y-37629D01*
X60300Y-37629D02*
X61000Y-37629D01*
X61000Y-37629D02*
X61000Y-38329D01*
X61000Y-41929D02*
X61000Y-42629D01*
X61000Y-42629D02*
X60300Y-42629D01*
X56700Y-42629D02*
X56000Y-42629D01*
X56000Y-42629D02*
X56000Y-41929D01*
X56000Y-38329D02*
X56000Y-37629D01*
X48500Y-37000D02*
X49200Y-37000D01*
X52800Y-37000D02*
X53500Y-37000D01*
X53500Y-37000D02*
X53500Y-37700D01*
X53500Y-41300D02*
X53500Y-42000D01*
X53500Y-42000D02*
X52800Y-42000D01*
X49200Y-42000D02*
X48500Y-42000D01*
X48500Y-42000D02*
X48500Y-41300D01*
X48500Y-37700D02*
X48500Y-37000D01*
X41000Y-37629D02*
X41700Y-37629D01*
X45300Y-37629D02*
X46000Y-37629D01*
X46000Y-37629D02*
X46000Y-38329D01*
X46000Y-41929D02*
X46000Y-42629D01*
X46000Y-42629D02*
X45300Y-42629D01*
X41700Y-42629D02*
X41000Y-42629D01*
X41000Y-42629D02*
X41000Y-41929D01*
X41000Y-38329D02*
X41000Y-37629D01*
X33500Y-38129D02*
X34200Y-38129D01*
X37800Y-38129D02*
X38500Y-38129D01*
X38500Y-38129D02*
X38500Y-38829D01*
X38500Y-42429D02*
X38500Y-43129D01*
X38500Y-43129D02*
X37800Y-43129D01*
X34200Y-43129D02*
X33500Y-43129D01*
X33500Y-43129D02*
X33500Y-42429D01*
X33500Y-38829D02*
X33500Y-38129D01*
X63500Y-46379D02*
X64200Y-46379D01*
X67800Y-46379D02*
X68500Y-46379D01*
X68500Y-46379D02*
X68500Y-47079D01*
X68500Y-50679D02*
X68500Y-51379D01*
X68500Y-51379D02*
X67800Y-51379D01*
X64200Y-51379D02*
X63500Y-51379D01*
X63500Y-51379D02*
X63500Y-50679D01*
X63500Y-47079D02*
X63500Y-46379D01*
X56000Y-45129D02*
X56700Y-45129D01*
X60300Y-45129D02*
X61000Y-45129D01*
X61000Y-45129D02*
X61000Y-45829D01*
X61000Y-49429D02*
X61000Y-50129D01*
X61000Y-50129D02*
X60300Y-50129D01*
X56700Y-50129D02*
X56000Y-50129D01*
X56000Y-50129D02*
X56000Y-49429D01*
X56000Y-45829D02*
X56000Y-45129D01*
X48500Y-44500D02*
X49200Y-44500D01*
X52800Y-44500D02*
X53500Y-44500D01*
X53500Y-44500D02*
X53500Y-45200D01*
X53500Y-48800D02*
X53500Y-49500D01*
X53500Y-49500D02*
X52800Y-49500D01*
X49200Y-49500D02*
X48500Y-49500D01*
X48500Y-49500D02*
X48500Y-48800D01*
X48500Y-45200D02*
X48500Y-44500D01*
X41000Y-45129D02*
X41700Y-45129D01*
X45300Y-45129D02*
X46000Y-45129D01*
X46000Y-45129D02*
X46000Y-45829D01*
X46000Y-49429D02*
X46000Y-50129D01*
X46000Y-50129D02*
X45300Y-50129D01*
X41700Y-50129D02*
X41000Y-50129D01*
X41000Y-50129D02*
X41000Y-49429D01*
X41000Y-45829D02*
X41000Y-45129D01*
X33500Y-45629D02*
X34200Y-45629D01*
X37800Y-45629D02*
X38500Y-45629D01*
X38500Y-45629D02*
X38500Y-46329D01*
X38500Y-49929D02*
X38500Y-50629D01*
X38500Y-50629D02*
X37800Y-50629D01*
X34200Y-50629D02*
X33500Y-50629D01*
X33500Y-50629D02*
X33500Y-49929D01*
X33500Y-46329D02*
X33500Y-45629D01*
X63500Y-53879D02*
X64200Y-53879D01*
X67800Y-53879D02*
X68500Y-53879D01*
X68500Y-53879D02*
X68500Y-54579D01*
X68500Y-58179D02*
X68500Y-58879D01*
X68500Y-58879D02*
X67800Y-58879D01*
X64200Y-58879D02*
X63500Y-58879D01*
X63500Y-58879D02*
X63500Y-58179D01*
X63500Y-54579D02*
X63500Y-53879D01*
X48500Y-52000D02*
X49200Y-52000D01*
X52800Y-52000D02*
X53500Y-52000D01*
X53500Y-52000D02*
X53500Y-52700D01*
X53500Y-56300D02*
X53500Y-57000D01*
X53500Y-57000D02*
X52800Y-57000D01*
X49200Y-57000D02*
X48500Y-57000D01*
X48500Y-57000D02*
X48500Y-56300D01*
X48500Y-52700D02*
X48500Y-52000D01*
X41000Y-52629D02*
X41700Y-52629D01*
X45300Y-52629D02*
X46000Y-52629D01*
X46000Y-52629D02*
X46000Y-53329D01*
X46000Y-56929D02*
X46000Y-57629D01*
X46000Y-57629D02*
X45300Y-57629D01*
X41700Y-57629D02*
X41000Y-57629D01*
X41000Y-57629D02*
X41000Y-56929D01*
X41000Y-53329D02*
X41000Y-52629D01*
X30799Y-63584D02*
X30503Y-62949D01*
X28982Y-59687D02*
X28686Y-59052D01*
X28686Y-59052D02*
X29321Y-58756D01*
X32583Y-57235D02*
X33218Y-56939D01*
X33218Y-56939D02*
X33514Y-57574D01*
X35035Y-60836D02*
X35331Y-61471D01*
X35331Y-61471D02*
X34696Y-61767D01*
X31434Y-63288D02*
X30799Y-63584D01*
X24002Y-66754D02*
X23706Y-66119D01*
X22185Y-62857D02*
X21889Y-62222D01*
X21889Y-62222D02*
X22524Y-61926D01*
X25786Y-60405D02*
X26421Y-60109D01*
X26421Y-60109D02*
X26717Y-60744D01*
X28238Y-64006D02*
X28534Y-64641D01*
X28534Y-64641D02*
X27899Y-64937D01*
X24637Y-66458D02*
X24002Y-66754D01*
X56000Y-30129D02*
X56700Y-30129D01*
X60300Y-30129D02*
X61000Y-30129D01*
X61000Y-30129D02*
X61000Y-30829D01*
X61000Y-34429D02*
X61000Y-35129D01*
X61000Y-35129D02*
X60300Y-35129D01*
X56700Y-35129D02*
X56000Y-35129D01*
X56000Y-35129D02*
X56000Y-34429D01*
X56000Y-30829D02*
X56000Y-30129D01*
X33500Y-23130D02*
X34200Y-23130D01*
X37800Y-23130D02*
X38500Y-23130D01*
X38500Y-23130D02*
X38500Y-23830D01*
X38500Y-27430D02*
X38500Y-28130D01*
X38500Y-28130D02*
X37800Y-28130D01*
X34200Y-28130D02*
X33500Y-28130D01*
X33500Y-28130D02*
X33500Y-27430D01*
X33500Y-23830D02*
X33500Y-23130D01*
X72875Y-23880D02*
X73575Y-23880D01*
X77175Y-23880D02*
X77875Y-23880D01*
X77875Y-23880D02*
X77875Y-24580D01*
X77875Y-28180D02*
X77875Y-28880D01*
X77875Y-28880D02*
X77175Y-28880D01*
X73575Y-28880D02*
X72875Y-28880D01*
X72875Y-28880D02*
X72875Y-28180D01*
X72875Y-24580D02*
X72875Y-23880D01*
X72875Y-31379D02*
X73575Y-31379D01*
X77175Y-31379D02*
X77875Y-31379D01*
X77875Y-31379D02*
X77875Y-32079D01*
X77875Y-35679D02*
X77875Y-36379D01*
X77875Y-36379D02*
X77175Y-36379D01*
X73575Y-36379D02*
X72875Y-36379D01*
X72875Y-36379D02*
X72875Y-35679D01*
X72875Y-32079D02*
X72875Y-31379D01*
X72875Y-38879D02*
X73575Y-38879D01*
X77175Y-38879D02*
X77875Y-38879D01*
X77875Y-38879D02*
X77875Y-39579D01*
X77875Y-43179D02*
X77875Y-43879D01*
X77875Y-43879D02*
X77175Y-43879D01*
X73575Y-43879D02*
X72875Y-43879D01*
X72875Y-43879D02*
X72875Y-43179D01*
X72875Y-39579D02*
X72875Y-38879D01*
X72875Y-46379D02*
X73575Y-46379D01*
X77175Y-46379D02*
X77875Y-46379D01*
X77875Y-46379D02*
X77875Y-47079D01*
X77875Y-50679D02*
X77875Y-51379D01*
X77875Y-51379D02*
X77175Y-51379D01*
X73575Y-51379D02*
X72875Y-51379D01*
X72875Y-51379D02*
X72875Y-50679D01*
X72875Y-47079D02*
X72875Y-46379D01*
G54D16*
X32763Y-46896D02*
X32763Y-47182D01*
X32113Y-47182D01*
X32422Y-46696D02*
X32422Y-46496D01*
X32763Y-46411D02*
X32763Y-46696D01*
X32113Y-46696D01*
X32113Y-46411D01*
X32763Y-46154D02*
X32113Y-46154D01*
X32113Y-46011D01*
X32144Y-45925D01*
X32205Y-45868D01*
X32267Y-45839D01*
X32391Y-45811D01*
X32484Y-45811D01*
X32608Y-45839D01*
X32670Y-45868D01*
X32732Y-45925D01*
X32763Y-46011D01*
X32763Y-46154D01*
X32732Y-45296D02*
X32763Y-45354D01*
X32763Y-45468D01*
X32732Y-45525D01*
X32701Y-45554D01*
X32639Y-45582D01*
X32453Y-45582D01*
X32391Y-45554D01*
X32360Y-45525D01*
X32329Y-45468D01*
X32329Y-45354D01*
X32360Y-45296D01*
X32763Y-35661D02*
X32763Y-35946D01*
X32113Y-35946D01*
X32422Y-35461D02*
X32422Y-35261D01*
X32763Y-35175D02*
X32763Y-35461D01*
X32113Y-35461D01*
X32113Y-35175D01*
X32763Y-34918D02*
X32113Y-34918D01*
X32113Y-34775D01*
X32144Y-34689D01*
X32205Y-34632D01*
X32267Y-34604D01*
X32391Y-34575D01*
X32484Y-34575D01*
X32608Y-34604D01*
X32670Y-34632D01*
X32732Y-34689D01*
X32763Y-34775D01*
X32763Y-34918D01*
X32763Y-34318D02*
X32113Y-34318D01*
X32360Y-34318D02*
X32329Y-34261D01*
X32329Y-34146D01*
X32360Y-34089D01*
X32391Y-34061D01*
X32453Y-34032D01*
X32639Y-34032D01*
X32701Y-34061D01*
X32732Y-34089D01*
X32763Y-34146D01*
X32763Y-34261D01*
X32732Y-34318D01*
X27842Y-29893D02*
X27557Y-29893D01*
X27557Y-29243D01*
X28042Y-29552D02*
X28242Y-29552D01*
X28328Y-29893D02*
X28042Y-29893D01*
X28042Y-29243D01*
X28328Y-29243D01*
X28585Y-29893D02*
X28585Y-29243D01*
X28728Y-29243D01*
X28814Y-29274D01*
X28871Y-29335D01*
X28900Y-29397D01*
X28928Y-29521D01*
X28928Y-29614D01*
X28900Y-29738D01*
X28871Y-29800D01*
X28814Y-29862D01*
X28728Y-29893D01*
X28585Y-29893D01*
X29442Y-29893D02*
X29442Y-29552D01*
X29414Y-29490D01*
X29357Y-29459D01*
X29242Y-29459D01*
X29185Y-29490D01*
X29442Y-29862D02*
X29385Y-29893D01*
X29242Y-29893D01*
X29185Y-29862D01*
X29157Y-29800D01*
X29157Y-29738D01*
X29185Y-29676D01*
X29242Y-29645D01*
X29385Y-29645D01*
X29442Y-29614D01*
G54D11*
X53306Y-12583D02*
X53306Y-13150D01*
X53340Y-13216D01*
X53373Y-13250D01*
X53440Y-13283D01*
X53573Y-13283D01*
X53640Y-13250D01*
X53673Y-13216D01*
X53706Y-13150D01*
X53706Y-12583D01*
X54006Y-13250D02*
X54106Y-13283D01*
X54273Y-13283D01*
X54340Y-13250D01*
X54373Y-13216D01*
X54406Y-13150D01*
X54406Y-13083D01*
X54373Y-13016D01*
X54340Y-12983D01*
X54273Y-12950D01*
X54140Y-12916D01*
X54073Y-12883D01*
X54040Y-12850D01*
X54006Y-12783D01*
X54006Y-12716D01*
X54040Y-12650D01*
X54073Y-12616D01*
X54140Y-12583D01*
X54306Y-12583D01*
X54406Y-12616D01*
X54940Y-12916D02*
X55040Y-12950D01*
X55073Y-12983D01*
X55106Y-13050D01*
X55106Y-13150D01*
X55073Y-13216D01*
X55040Y-13250D01*
X54973Y-13283D01*
X54706Y-13283D01*
X54706Y-12583D01*
X54940Y-12583D01*
X55006Y-12616D01*
X55040Y-12650D01*
X55073Y-12716D01*
X55073Y-12783D01*
X55040Y-12850D01*
X55006Y-12883D01*
X54940Y-12916D01*
X54706Y-12916D01*
G54D16*
X29826Y-58812D02*
X29929Y-58796D01*
X30080Y-58726D01*
X30128Y-58672D01*
X30146Y-58632D01*
X30152Y-58566D01*
X30128Y-58514D01*
X30074Y-58476D01*
X30031Y-58464D01*
X29959Y-58467D01*
X29826Y-58497D01*
X29753Y-58499D01*
X29711Y-58488D01*
X29657Y-58450D01*
X29633Y-58398D01*
X29639Y-58332D01*
X29657Y-58292D01*
X29705Y-58238D01*
X29856Y-58168D01*
X29959Y-58151D01*
X30158Y-58027D02*
X30835Y-58374D01*
X30581Y-57830D02*
X30412Y-58571D01*
X31409Y-58106D02*
X31046Y-58275D01*
X31228Y-58190D02*
X30974Y-57647D01*
X30950Y-57752D01*
X30914Y-57832D01*
X30865Y-57886D01*
X31657Y-57927D02*
X31699Y-57939D01*
X31681Y-57979D01*
X31638Y-57967D01*
X31657Y-57927D01*
X31681Y-57979D01*
X31524Y-57642D02*
X31566Y-57654D01*
X31548Y-57694D01*
X31506Y-57682D01*
X31524Y-57642D01*
X31548Y-57694D01*
X31929Y-57485D02*
X31856Y-57487D01*
X31814Y-57476D01*
X31759Y-57438D01*
X31747Y-57412D01*
X31753Y-57346D01*
X31772Y-57306D01*
X31820Y-57252D01*
X31941Y-57196D01*
X32013Y-57194D01*
X32056Y-57205D01*
X32110Y-57243D01*
X32122Y-57269D01*
X32116Y-57335D01*
X32098Y-57375D01*
X32049Y-57429D01*
X31929Y-57485D01*
X31880Y-57539D01*
X31862Y-57579D01*
X31856Y-57645D01*
X31904Y-57749D01*
X31959Y-57786D01*
X32001Y-57798D01*
X32073Y-57796D01*
X32194Y-57740D01*
X32243Y-57686D01*
X32261Y-57646D01*
X32267Y-57580D01*
X32219Y-57476D01*
X32164Y-57438D01*
X32122Y-57427D01*
X32049Y-57429D01*
X23029Y-61982D02*
X23132Y-61966D01*
X23283Y-61896D01*
X23331Y-61842D01*
X23349Y-61802D01*
X23355Y-61736D01*
X23331Y-61684D01*
X23277Y-61646D01*
X23234Y-61634D01*
X23162Y-61637D01*
X23029Y-61667D01*
X22956Y-61669D01*
X22914Y-61658D01*
X22860Y-61620D01*
X22836Y-61568D01*
X22842Y-61502D01*
X22860Y-61462D01*
X22908Y-61408D01*
X23059Y-61338D01*
X23162Y-61321D01*
X23361Y-61197D02*
X24038Y-61544D01*
X23784Y-61000D02*
X23615Y-61741D01*
X24612Y-61276D02*
X24249Y-61445D01*
X24431Y-61360D02*
X24177Y-60817D01*
X24153Y-60922D01*
X24117Y-61002D01*
X24068Y-61056D01*
X24860Y-61097D02*
X24902Y-61109D01*
X24884Y-61149D01*
X24841Y-61137D01*
X24860Y-61097D01*
X24884Y-61149D01*
X24727Y-60812D02*
X24769Y-60824D01*
X24751Y-60864D01*
X24709Y-60852D01*
X24727Y-60812D01*
X24751Y-60864D01*
X24872Y-60493D02*
X25295Y-60295D01*
X25276Y-60966D01*
X31595Y-63395D02*
X31698Y-63379D01*
X31849Y-63308D01*
X31897Y-63254D01*
X31915Y-63214D01*
X31921Y-63148D01*
X31897Y-63096D01*
X31843Y-63059D01*
X31800Y-63047D01*
X31728Y-63049D01*
X31595Y-63080D01*
X31523Y-63082D01*
X31480Y-63070D01*
X31426Y-63032D01*
X31402Y-62981D01*
X31408Y-62915D01*
X31426Y-62875D01*
X31474Y-62821D01*
X31625Y-62750D01*
X31728Y-62734D01*
X31927Y-62609D02*
X32604Y-62956D01*
X32350Y-62412D02*
X32181Y-63153D01*
X32713Y-62243D02*
X32773Y-62215D01*
X32846Y-62213D01*
X32888Y-62224D01*
X32942Y-62262D01*
X33021Y-62352D01*
X33081Y-62481D01*
X33099Y-62599D01*
X33093Y-62665D01*
X33075Y-62705D01*
X33027Y-62759D01*
X32966Y-62787D01*
X32894Y-62789D01*
X32852Y-62777D01*
X32797Y-62740D01*
X32719Y-62650D01*
X32658Y-62521D01*
X32640Y-62403D01*
X32646Y-62337D01*
X32665Y-62297D01*
X32713Y-62243D01*
X33426Y-62510D02*
X33468Y-62522D01*
X33450Y-62562D01*
X33408Y-62550D01*
X33426Y-62510D01*
X33450Y-62562D01*
X33293Y-62225D02*
X33335Y-62237D01*
X33317Y-62277D01*
X33275Y-62265D01*
X33293Y-62225D01*
X33317Y-62277D01*
X34084Y-62266D02*
X33722Y-62435D01*
X33903Y-62350D02*
X33649Y-61806D01*
X33625Y-61912D01*
X33589Y-61992D01*
X33541Y-62046D01*
X34223Y-61539D02*
X34284Y-61511D01*
X34356Y-61508D01*
X34399Y-61520D01*
X34453Y-61558D01*
X34531Y-61647D01*
X34592Y-61777D01*
X34610Y-61894D01*
X34604Y-61960D01*
X34586Y-62000D01*
X34537Y-62054D01*
X34477Y-62083D01*
X34404Y-62085D01*
X34362Y-62073D01*
X34308Y-62035D01*
X34229Y-61946D01*
X34169Y-61816D01*
X34151Y-61699D01*
X34157Y-61633D01*
X34175Y-61593D01*
X34223Y-61539D01*
X24797Y-66564D02*
X24900Y-66548D01*
X25051Y-66477D01*
X25099Y-66423D01*
X25117Y-66383D01*
X25123Y-66317D01*
X25099Y-66265D01*
X25045Y-66228D01*
X25002Y-66216D01*
X24930Y-66218D01*
X24797Y-66249D01*
X24725Y-66251D01*
X24682Y-66239D01*
X24628Y-66201D01*
X24604Y-66150D01*
X24610Y-66084D01*
X24628Y-66044D01*
X24676Y-65990D01*
X24827Y-65919D01*
X24930Y-65903D01*
X25129Y-65778D02*
X25806Y-66125D01*
X25552Y-65581D02*
X25383Y-66322D01*
X25915Y-65412D02*
X25975Y-65384D01*
X26048Y-65382D01*
X26090Y-65393D01*
X26144Y-65431D01*
X26223Y-65521D01*
X26283Y-65650D01*
X26301Y-65768D01*
X26295Y-65834D01*
X26277Y-65874D01*
X26229Y-65928D01*
X26168Y-65956D01*
X26096Y-65958D01*
X26054Y-65946D01*
X25999Y-65909D01*
X25921Y-65819D01*
X25860Y-65690D01*
X25842Y-65572D01*
X25848Y-65506D01*
X25867Y-65466D01*
X25915Y-65412D01*
X26628Y-65679D02*
X26670Y-65691D01*
X26652Y-65731D01*
X26610Y-65719D01*
X26628Y-65679D01*
X26652Y-65731D01*
X26495Y-65394D02*
X26537Y-65406D01*
X26519Y-65446D01*
X26477Y-65434D01*
X26495Y-65394D01*
X26519Y-65446D01*
X27286Y-65435D02*
X26924Y-65604D01*
X27105Y-65519D02*
X26851Y-64975D01*
X26827Y-65081D01*
X26791Y-65161D01*
X26743Y-65215D01*
X27890Y-65153D02*
X27528Y-65322D01*
X27709Y-65237D02*
X27456Y-64694D01*
X27431Y-64800D01*
X27395Y-64880D01*
X27347Y-64934D01*
G54D12*
X58458Y-18327D02*
X58323Y-18462D01*
X57970Y-18109D01*
X58367Y-18048D02*
X58461Y-17954D01*
X58687Y-18098D02*
X58552Y-18233D01*
X58199Y-17880D01*
X58333Y-17745D01*
X58808Y-17977D02*
X58454Y-17624D01*
X58522Y-17556D01*
X58579Y-17533D01*
X58640Y-17539D01*
X58687Y-17560D01*
X58768Y-17614D01*
X58818Y-17664D01*
X58872Y-17745D01*
X58892Y-17792D01*
X58899Y-17853D01*
X58875Y-17910D01*
X58808Y-17977D01*
X59212Y-17573D02*
X59027Y-17388D01*
X58980Y-17368D01*
X58936Y-17378D01*
X58882Y-17432D01*
X58872Y-17475D01*
X59195Y-17556D02*
X59185Y-17600D01*
X59118Y-17667D01*
X59074Y-17678D01*
X59027Y-17657D01*
X58993Y-17624D01*
X58973Y-17577D01*
X58983Y-17533D01*
X59050Y-17465D01*
X59061Y-17422D01*
X57708Y-17577D02*
X57573Y-17712D01*
X57220Y-17359D01*
X57617Y-17298D02*
X57711Y-17204D01*
X57937Y-17348D02*
X57802Y-17483D01*
X57449Y-17130D01*
X57583Y-16995D01*
X58058Y-17227D02*
X57704Y-16874D01*
X57772Y-16806D01*
X57829Y-16783D01*
X57890Y-16789D01*
X57937Y-16810D01*
X58018Y-16864D01*
X58068Y-16914D01*
X58122Y-16995D01*
X58142Y-17042D01*
X58149Y-17103D01*
X58125Y-17160D01*
X58058Y-17227D01*
X58341Y-16944D02*
X57987Y-16591D01*
X58122Y-16725D02*
X58132Y-16682D01*
X58186Y-16628D01*
X58230Y-16618D01*
X58260Y-16621D01*
X58307Y-16641D01*
X58408Y-16742D01*
X58428Y-16789D01*
X58432Y-16820D01*
X58422Y-16864D01*
X58368Y-16917D01*
X58324Y-16928D01*
X48946Y-18702D02*
X48755Y-18702D01*
X48755Y-18202D01*
X49079Y-18440D02*
X49213Y-18440D01*
X49270Y-18702D02*
X49079Y-18702D01*
X49079Y-18202D01*
X49270Y-18202D01*
X49441Y-18702D02*
X49441Y-18202D01*
X49536Y-18202D01*
X49594Y-18226D01*
X49632Y-18273D01*
X49651Y-18321D01*
X49670Y-18416D01*
X49670Y-18488D01*
X49651Y-18583D01*
X49632Y-18630D01*
X49594Y-18678D01*
X49536Y-18702D01*
X49441Y-18702D01*
X50013Y-18678D02*
X49975Y-18702D01*
X49898Y-18702D01*
X49860Y-18678D01*
X49841Y-18654D01*
X49822Y-18607D01*
X49822Y-18464D01*
X49841Y-18416D01*
X49860Y-18392D01*
X49898Y-18369D01*
X49975Y-18369D01*
X50013Y-18392D01*
X41117Y-15139D02*
X41148Y-15135D01*
X41191Y-15146D01*
X41259Y-15213D01*
X41269Y-15257D01*
X41265Y-15287D01*
X41245Y-15334D01*
X41212Y-15368D01*
X41148Y-15405D01*
X40784Y-15445D01*
X40959Y-15620D01*
X41114Y-15708D02*
X41111Y-15738D01*
X41080Y-15741D01*
X41084Y-15711D01*
X41114Y-15708D01*
X41080Y-15741D01*
X41521Y-15543D02*
X41552Y-15539D01*
X41595Y-15550D01*
X41663Y-15617D01*
X41673Y-15661D01*
X41670Y-15691D01*
X41649Y-15738D01*
X41616Y-15772D01*
X41552Y-15809D01*
X41188Y-15849D01*
X41363Y-16024D01*
X41484Y-16146D02*
X41838Y-15792D01*
X41646Y-16038D02*
X41592Y-16253D01*
X41828Y-16018D02*
X41585Y-16045D01*
X41700Y-16361D02*
X41767Y-16428D01*
X41835Y-16361D01*
X41824Y-16317D01*
X41831Y-16257D01*
X41868Y-16193D01*
X41952Y-16109D01*
X42016Y-16071D01*
X42077Y-16065D01*
X42134Y-16088D01*
X42188Y-16142D01*
X42212Y-16199D01*
X42205Y-16260D01*
X42168Y-16324D01*
X42084Y-16408D01*
X42020Y-16445D01*
X41959Y-16452D01*
X41915Y-16442D01*
X41848Y-16509D01*
X41915Y-16577D01*
X39867Y-15639D02*
X39898Y-15635D01*
X39941Y-15646D01*
X40009Y-15713D01*
X40019Y-15757D01*
X40015Y-15787D01*
X39995Y-15834D01*
X39962Y-15868D01*
X39898Y-15905D01*
X39534Y-15945D01*
X39709Y-16120D01*
X39864Y-16208D02*
X39861Y-16238D01*
X39830Y-16241D01*
X39834Y-16211D01*
X39864Y-16208D01*
X39830Y-16241D01*
X40271Y-16043D02*
X40302Y-16039D01*
X40345Y-16050D01*
X40413Y-16117D01*
X40423Y-16161D01*
X40420Y-16191D01*
X40399Y-16238D01*
X40366Y-16272D01*
X40302Y-16309D01*
X39938Y-16349D01*
X40113Y-16524D01*
X40234Y-16646D02*
X40588Y-16292D01*
X40396Y-16538D02*
X40342Y-16753D01*
X40578Y-16518D02*
X40335Y-16545D01*
X40450Y-16861D02*
X40517Y-16928D01*
X40585Y-16861D01*
X40574Y-16817D01*
X40581Y-16757D01*
X40618Y-16693D01*
X40702Y-16609D01*
X40766Y-16571D01*
X40827Y-16565D01*
X40884Y-16588D01*
X40938Y-16642D01*
X40962Y-16699D01*
X40955Y-16760D01*
X40918Y-16824D01*
X40834Y-16908D01*
X40770Y-16945D01*
X40709Y-16952D01*
X40665Y-16942D01*
X40598Y-17009D01*
X40665Y-17077D01*
G54D17*
X65440Y-16035D02*
X66011Y-16035D01*
X65726Y-17235D02*
X65726Y-16035D01*
X66345Y-16607D02*
X66678Y-16607D01*
X66821Y-17235D02*
X66345Y-17235D01*
X66345Y-16035D01*
X66821Y-16035D01*
X67250Y-16607D02*
X67583Y-16607D01*
X67726Y-17235D02*
X67250Y-17235D01*
X67250Y-16035D01*
X67726Y-16035D01*
X68154Y-17235D02*
X68154Y-16035D01*
X68726Y-17235D01*
X68726Y-16035D01*
X69154Y-17178D02*
X69297Y-17235D01*
X69535Y-17235D01*
X69630Y-17178D01*
X69678Y-17121D01*
X69726Y-17007D01*
X69726Y-16892D01*
X69678Y-16778D01*
X69630Y-16721D01*
X69535Y-16664D01*
X69345Y-16607D01*
X69249Y-16550D01*
X69202Y-16492D01*
X69154Y-16378D01*
X69154Y-16264D01*
X69202Y-16150D01*
X69249Y-16092D01*
X69345Y-16035D01*
X69583Y-16035D01*
X69726Y-16092D01*
X70345Y-16664D02*
X70345Y-17235D01*
X70011Y-16035D02*
X70345Y-16664D01*
X70678Y-16035D01*
X70964Y-16150D02*
X71011Y-16092D01*
X71107Y-16035D01*
X71345Y-16035D01*
X71440Y-16092D01*
X71488Y-16150D01*
X71535Y-16264D01*
X71535Y-16378D01*
X71488Y-16550D01*
X70916Y-17235D01*
X71535Y-17235D01*
X71964Y-17121D02*
X72011Y-17178D01*
X71964Y-17235D01*
X71916Y-17178D01*
X71964Y-17121D01*
X71964Y-17235D01*
X72630Y-16035D02*
X72726Y-16035D01*
X72821Y-16092D01*
X72869Y-16150D01*
X72916Y-16264D01*
X72964Y-16492D01*
X72964Y-16778D01*
X72916Y-17007D01*
X72869Y-17121D01*
X72821Y-17178D01*
X72726Y-17235D01*
X72630Y-17235D01*
X72535Y-17178D01*
X72488Y-17121D01*
X72440Y-17007D01*
X72392Y-16778D01*
X72392Y-16492D01*
X72440Y-16264D01*
X72488Y-16150D01*
X72535Y-16092D01*
X72630Y-16035D01*
G54D11*
X32313Y-13892D02*
X32746Y-13892D01*
X32513Y-14121D01*
X32613Y-14121D01*
X32680Y-14150D01*
X32713Y-14178D01*
X32746Y-14235D01*
X32746Y-14378D01*
X32713Y-14435D01*
X32680Y-14464D01*
X32613Y-14492D01*
X32413Y-14492D01*
X32346Y-14464D01*
X32313Y-14435D01*
X33046Y-14435D02*
X33080Y-14464D01*
X33046Y-14492D01*
X33013Y-14464D01*
X33046Y-14435D01*
X33046Y-14492D01*
X33713Y-13892D02*
X33380Y-13892D01*
X33346Y-14178D01*
X33380Y-14150D01*
X33446Y-14121D01*
X33613Y-14121D01*
X33680Y-14150D01*
X33713Y-14178D01*
X33746Y-14235D01*
X33746Y-14378D01*
X33713Y-14435D01*
X33680Y-14464D01*
X33613Y-14492D01*
X33446Y-14492D01*
X33380Y-14464D01*
X33346Y-14435D01*
X34046Y-14492D02*
X34046Y-14092D01*
X34046Y-14150D02*
X34080Y-14121D01*
X34146Y-14092D01*
X34246Y-14092D01*
X34313Y-14121D01*
X34346Y-14178D01*
X34346Y-14492D01*
X34346Y-14178D02*
X34380Y-14121D01*
X34446Y-14092D01*
X34546Y-14092D01*
X34613Y-14121D01*
X34646Y-14178D01*
X34646Y-14492D01*
X34980Y-14492D02*
X34980Y-14092D01*
X34980Y-14150D02*
X35013Y-14121D01*
X35080Y-14092D01*
X35180Y-14092D01*
X35246Y-14121D01*
X35280Y-14178D01*
X35280Y-14492D01*
X35280Y-14178D02*
X35313Y-14121D01*
X35380Y-14092D01*
X35480Y-14092D01*
X35546Y-14121D01*
X35580Y-14178D01*
X35580Y-14492D01*
G54D16*
X27066Y-27144D02*
X27166Y-27172D01*
X27333Y-27172D01*
X27400Y-27144D01*
X27433Y-27115D01*
X27466Y-27058D01*
X27466Y-27001D01*
X27433Y-26944D01*
X27400Y-26915D01*
X27333Y-26887D01*
X27200Y-26858D01*
X27133Y-26830D01*
X27100Y-26801D01*
X27066Y-26744D01*
X27066Y-26687D01*
X27100Y-26630D01*
X27133Y-26601D01*
X27200Y-26572D01*
X27366Y-26572D01*
X27466Y-26601D01*
X27700Y-26572D02*
X27866Y-27172D01*
X28000Y-26744D01*
X28133Y-27172D01*
X28300Y-26572D01*
X28900Y-26572D02*
X28566Y-26572D01*
X28533Y-26858D01*
X28566Y-26830D01*
X28633Y-26801D01*
X28800Y-26801D01*
X28866Y-26830D01*
X28900Y-26858D01*
X28933Y-26915D01*
X28933Y-27058D01*
X28900Y-27115D01*
X28866Y-27144D01*
X28800Y-27172D01*
X28633Y-27172D01*
X28566Y-27144D01*
X28533Y-27115D01*
X29233Y-27115D02*
X29266Y-27144D01*
X29233Y-27172D01*
X29200Y-27144D01*
X29233Y-27115D01*
X29233Y-27172D01*
X29233Y-26801D02*
X29266Y-26830D01*
X29233Y-26858D01*
X29200Y-26830D01*
X29233Y-26801D01*
X29233Y-26858D01*
X29500Y-26572D02*
X29966Y-26572D01*
X29666Y-27172D01*
X30014Y-36437D02*
X30042Y-36337D01*
X30042Y-36170D01*
X30014Y-36104D01*
X29985Y-36070D01*
X29928Y-36037D01*
X29871Y-36037D01*
X29814Y-36070D01*
X29785Y-36104D01*
X29757Y-36170D01*
X29728Y-36304D01*
X29700Y-36370D01*
X29671Y-36404D01*
X29614Y-36437D01*
X29557Y-36437D01*
X29500Y-36404D01*
X29471Y-36370D01*
X29442Y-36304D01*
X29442Y-36137D01*
X29471Y-36037D01*
X29442Y-35804D02*
X30042Y-35637D01*
X29614Y-35504D01*
X30042Y-35370D01*
X29442Y-35204D01*
X29642Y-34637D02*
X30042Y-34637D01*
X29414Y-34804D02*
X29842Y-34970D01*
X29842Y-34537D01*
X29985Y-34270D02*
X30014Y-34237D01*
X30042Y-34270D01*
X30014Y-34304D01*
X29985Y-34270D01*
X30042Y-34270D01*
X29671Y-34270D02*
X29700Y-34237D01*
X29728Y-34270D01*
X29700Y-34304D01*
X29671Y-34270D01*
X29728Y-34270D01*
X29442Y-34004D02*
X29442Y-33537D01*
X30042Y-33837D01*
X30014Y-47687D02*
X30042Y-47587D01*
X30042Y-47420D01*
X30014Y-47354D01*
X29985Y-47320D01*
X29928Y-47287D01*
X29871Y-47287D01*
X29814Y-47320D01*
X29785Y-47354D01*
X29757Y-47420D01*
X29728Y-47554D01*
X29700Y-47620D01*
X29671Y-47654D01*
X29614Y-47687D01*
X29557Y-47687D01*
X29500Y-47654D01*
X29471Y-47620D01*
X29442Y-47554D01*
X29442Y-47387D01*
X29471Y-47287D01*
X29442Y-47054D02*
X30042Y-46887D01*
X29614Y-46754D01*
X30042Y-46620D01*
X29442Y-46454D01*
X29500Y-46220D02*
X29471Y-46187D01*
X29442Y-46120D01*
X29442Y-45954D01*
X29471Y-45887D01*
X29500Y-45854D01*
X29557Y-45820D01*
X29614Y-45820D01*
X29700Y-45854D01*
X30042Y-46254D01*
X30042Y-45820D01*
X29985Y-45520D02*
X30014Y-45487D01*
X30042Y-45520D01*
X30014Y-45554D01*
X29985Y-45520D01*
X30042Y-45520D01*
X29671Y-45520D02*
X29700Y-45487D01*
X29728Y-45520D01*
X29700Y-45554D01*
X29671Y-45520D01*
X29728Y-45520D01*
X29442Y-45254D02*
X29442Y-44787D01*
X30042Y-45087D01*
X71733Y-57893D02*
X71833Y-57921D01*
X72000Y-57921D01*
X72066Y-57893D01*
X72100Y-57864D01*
X72133Y-57807D01*
X72133Y-57750D01*
X72100Y-57693D01*
X72066Y-57664D01*
X72000Y-57636D01*
X71866Y-57607D01*
X71800Y-57579D01*
X71766Y-57550D01*
X71733Y-57493D01*
X71733Y-57436D01*
X71766Y-57379D01*
X71800Y-57350D01*
X71866Y-57321D01*
X72033Y-57321D01*
X72133Y-57350D01*
X72366Y-57321D02*
X72533Y-57921D01*
X72666Y-57493D01*
X72800Y-57921D01*
X72966Y-57321D01*
X73600Y-57921D02*
X73200Y-57921D01*
X73400Y-57921D02*
X73400Y-57321D01*
X73333Y-57407D01*
X73266Y-57464D01*
X73200Y-57493D01*
X73900Y-57864D02*
X73933Y-57893D01*
X73900Y-57921D01*
X73866Y-57893D01*
X73900Y-57864D01*
X73900Y-57921D01*
X73900Y-57550D02*
X73933Y-57579D01*
X73900Y-57607D01*
X73866Y-57579D01*
X73900Y-57550D01*
X73900Y-57607D01*
X74600Y-57921D02*
X74200Y-57921D01*
X74400Y-57921D02*
X74400Y-57321D01*
X74333Y-57407D01*
X74266Y-57464D01*
X74200Y-57493D01*
X74833Y-57321D02*
X75266Y-57321D01*
X75033Y-57550D01*
X75133Y-57550D01*
X75200Y-57579D01*
X75233Y-57607D01*
X75266Y-57664D01*
X75266Y-57807D01*
X75233Y-57864D01*
X75200Y-57893D01*
X75133Y-57921D01*
X74933Y-57921D01*
X74866Y-57893D01*
X74833Y-57864D01*
X34566Y-34643D02*
X34666Y-34671D01*
X34833Y-34671D01*
X34900Y-34643D01*
X34933Y-34614D01*
X34966Y-34557D01*
X34966Y-34500D01*
X34933Y-34443D01*
X34900Y-34414D01*
X34833Y-34386D01*
X34700Y-34357D01*
X34633Y-34329D01*
X34600Y-34300D01*
X34566Y-34243D01*
X34566Y-34186D01*
X34600Y-34129D01*
X34633Y-34100D01*
X34700Y-34071D01*
X34866Y-34071D01*
X34966Y-34100D01*
X35200Y-34071D02*
X35366Y-34671D01*
X35500Y-34243D01*
X35633Y-34671D01*
X35800Y-34071D01*
X36366Y-34271D02*
X36366Y-34671D01*
X36200Y-34043D02*
X36033Y-34471D01*
X36466Y-34471D01*
X36733Y-34614D02*
X36766Y-34643D01*
X36733Y-34671D01*
X36700Y-34643D01*
X36733Y-34614D01*
X36733Y-34671D01*
X36733Y-34300D02*
X36766Y-34329D01*
X36733Y-34357D01*
X36700Y-34329D01*
X36733Y-34300D01*
X36733Y-34357D01*
X37166Y-34329D02*
X37100Y-34300D01*
X37066Y-34271D01*
X37033Y-34214D01*
X37033Y-34186D01*
X37066Y-34129D01*
X37100Y-34100D01*
X37166Y-34071D01*
X37300Y-34071D01*
X37366Y-34100D01*
X37400Y-34129D01*
X37433Y-34186D01*
X37433Y-34214D01*
X37400Y-34271D01*
X37366Y-34300D01*
X37300Y-34329D01*
X37166Y-34329D01*
X37100Y-34357D01*
X37066Y-34386D01*
X37033Y-34443D01*
X37033Y-34557D01*
X37066Y-34614D01*
X37100Y-34643D01*
X37166Y-34671D01*
X37300Y-34671D01*
X37366Y-34643D01*
X37400Y-34614D01*
X37433Y-34557D01*
X37433Y-34443D01*
X37400Y-34386D01*
X37366Y-34357D01*
X37300Y-34329D01*
X16170Y-65180D02*
X16273Y-65163D01*
X16424Y-65093D01*
X16473Y-65039D01*
X16491Y-64999D01*
X16497Y-64933D01*
X16473Y-64881D01*
X16418Y-64843D01*
X16376Y-64832D01*
X16303Y-64834D01*
X16171Y-64864D01*
X16098Y-64867D01*
X16056Y-64855D01*
X16001Y-64817D01*
X15977Y-64765D01*
X15983Y-64699D01*
X16001Y-64659D01*
X16050Y-64605D01*
X16201Y-64535D01*
X16304Y-64519D01*
X16503Y-64394D02*
X16908Y-64867D01*
X16847Y-64423D01*
X17149Y-64755D01*
X17047Y-64141D01*
X17409Y-63971D02*
X17470Y-63943D01*
X17542Y-63941D01*
X17584Y-63953D01*
X17639Y-63991D01*
X17717Y-64080D01*
X17778Y-64210D01*
X17796Y-64327D01*
X17790Y-64393D01*
X17772Y-64433D01*
X17723Y-64487D01*
X17663Y-64515D01*
X17590Y-64518D01*
X17548Y-64506D01*
X17494Y-64468D01*
X17415Y-64379D01*
X17355Y-64249D01*
X17337Y-64131D01*
X17343Y-64066D01*
X17361Y-64026D01*
X17409Y-63971D01*
X18122Y-64238D02*
X18164Y-64250D01*
X18146Y-64290D01*
X18104Y-64278D01*
X18122Y-64238D01*
X18146Y-64290D01*
X17989Y-63953D02*
X18031Y-63965D01*
X18013Y-64005D01*
X17971Y-63993D01*
X17989Y-63953D01*
X18013Y-64005D01*
X18478Y-64135D02*
X18599Y-64079D01*
X18648Y-64025D01*
X18666Y-63985D01*
X18690Y-63879D01*
X18672Y-63761D01*
X18575Y-63554D01*
X18521Y-63516D01*
X18479Y-63504D01*
X18406Y-63507D01*
X18285Y-63563D01*
X18237Y-63617D01*
X18219Y-63657D01*
X18213Y-63723D01*
X18273Y-63852D01*
X18328Y-63890D01*
X18370Y-63902D01*
X18442Y-63900D01*
X18563Y-63843D01*
X18611Y-63789D01*
X18630Y-63749D01*
X18636Y-63683D01*
X19038Y-72119D02*
X19141Y-72102D01*
X19292Y-72032D01*
X19340Y-71978D01*
X19359Y-71938D01*
X19365Y-71872D01*
X19340Y-71820D01*
X19286Y-71782D01*
X19244Y-71771D01*
X19171Y-71773D01*
X19038Y-71803D01*
X18966Y-71806D01*
X18924Y-71794D01*
X18869Y-71756D01*
X18845Y-71704D01*
X18851Y-71638D01*
X18869Y-71598D01*
X18918Y-71544D01*
X19069Y-71474D01*
X19171Y-71457D01*
X19371Y-71333D02*
X19775Y-71806D01*
X19715Y-71362D01*
X20017Y-71694D01*
X19915Y-71079D01*
X20277Y-70910D02*
X20338Y-70882D01*
X20410Y-70880D01*
X20452Y-70892D01*
X20507Y-70929D01*
X20585Y-71019D01*
X20646Y-71148D01*
X20664Y-71266D01*
X20658Y-71332D01*
X20639Y-71372D01*
X20591Y-71426D01*
X20531Y-71454D01*
X20458Y-71456D01*
X20416Y-71445D01*
X20362Y-71407D01*
X20283Y-71317D01*
X20223Y-71188D01*
X20205Y-71070D01*
X20211Y-71004D01*
X20229Y-70964D01*
X20277Y-70910D01*
X20990Y-71177D02*
X21032Y-71189D01*
X21014Y-71229D01*
X20972Y-71217D01*
X20990Y-71177D01*
X21014Y-71229D01*
X20857Y-70892D02*
X20899Y-70904D01*
X20881Y-70944D01*
X20839Y-70932D01*
X20857Y-70892D01*
X20881Y-70944D01*
X21648Y-70933D02*
X21286Y-71102D01*
X21467Y-71017D02*
X21214Y-70474D01*
X21189Y-70580D01*
X21153Y-70659D01*
X21105Y-70714D01*
X21661Y-70328D02*
X21679Y-70288D01*
X21727Y-70234D01*
X21878Y-70164D01*
X21951Y-70161D01*
X21993Y-70173D01*
X22047Y-70211D01*
X22072Y-70263D01*
X22078Y-70355D01*
X21860Y-70834D01*
X22253Y-70651D01*
X13001Y-58383D02*
X13104Y-58366D01*
X13255Y-58296D01*
X13304Y-58242D01*
X13322Y-58202D01*
X13328Y-58136D01*
X13304Y-58084D01*
X13249Y-58046D01*
X13207Y-58035D01*
X13134Y-58037D01*
X13002Y-58067D01*
X12929Y-58070D01*
X12887Y-58058D01*
X12832Y-58020D01*
X12808Y-57968D01*
X12814Y-57902D01*
X12832Y-57862D01*
X12881Y-57808D01*
X13032Y-57738D01*
X13135Y-57722D01*
X13334Y-57597D02*
X13739Y-58070D01*
X13678Y-57626D01*
X13980Y-57958D01*
X13878Y-57344D01*
X14240Y-57174D02*
X14301Y-57146D01*
X14373Y-57144D01*
X14415Y-57156D01*
X14470Y-57194D01*
X14548Y-57283D01*
X14609Y-57413D01*
X14627Y-57530D01*
X14621Y-57596D01*
X14603Y-57636D01*
X14554Y-57690D01*
X14494Y-57718D01*
X14421Y-57721D01*
X14379Y-57709D01*
X14325Y-57671D01*
X14246Y-57582D01*
X14186Y-57452D01*
X14168Y-57334D01*
X14174Y-57269D01*
X14192Y-57229D01*
X14240Y-57174D01*
X14953Y-57441D02*
X14995Y-57453D01*
X14977Y-57493D01*
X14935Y-57481D01*
X14953Y-57441D01*
X14977Y-57493D01*
X14820Y-57156D02*
X14862Y-57168D01*
X14844Y-57208D01*
X14802Y-57196D01*
X14820Y-57156D01*
X14844Y-57208D01*
X14965Y-56836D02*
X15388Y-56639D01*
X15370Y-57310D01*
X19798Y-55214D02*
X19901Y-55197D01*
X20052Y-55127D01*
X20101Y-55073D01*
X20119Y-55033D01*
X20125Y-54967D01*
X20101Y-54915D01*
X20046Y-54877D01*
X20004Y-54866D01*
X19931Y-54868D01*
X19799Y-54898D01*
X19726Y-54901D01*
X19684Y-54889D01*
X19629Y-54851D01*
X19605Y-54799D01*
X19611Y-54733D01*
X19629Y-54693D01*
X19678Y-54639D01*
X19829Y-54569D01*
X19932Y-54553D01*
X20131Y-54428D02*
X20536Y-54901D01*
X20475Y-54457D01*
X20777Y-54789D01*
X20675Y-54175D01*
X21037Y-54005D02*
X21098Y-53977D01*
X21170Y-53975D01*
X21212Y-53987D01*
X21267Y-54025D01*
X21345Y-54114D01*
X21406Y-54244D01*
X21424Y-54361D01*
X21418Y-54427D01*
X21400Y-54467D01*
X21351Y-54521D01*
X21291Y-54549D01*
X21218Y-54552D01*
X21176Y-54540D01*
X21122Y-54502D01*
X21043Y-54413D01*
X20983Y-54283D01*
X20965Y-54165D01*
X20971Y-54100D01*
X20989Y-54060D01*
X21037Y-54005D01*
X21750Y-54272D02*
X21792Y-54284D01*
X21774Y-54324D01*
X21732Y-54312D01*
X21750Y-54272D01*
X21774Y-54324D01*
X21617Y-53987D02*
X21659Y-53999D01*
X21641Y-54039D01*
X21599Y-54027D01*
X21617Y-53987D01*
X21641Y-54039D01*
X22022Y-53830D02*
X21950Y-53832D01*
X21907Y-53820D01*
X21853Y-53783D01*
X21841Y-53757D01*
X21847Y-53691D01*
X21865Y-53651D01*
X21913Y-53597D01*
X22034Y-53541D01*
X22107Y-53538D01*
X22149Y-53550D01*
X22203Y-53588D01*
X22215Y-53614D01*
X22209Y-53680D01*
X22191Y-53720D01*
X22143Y-53774D01*
X22022Y-53830D01*
X21974Y-53884D01*
X21956Y-53924D01*
X21949Y-53990D01*
X21998Y-54094D01*
X22052Y-54131D01*
X22094Y-54143D01*
X22167Y-54141D01*
X22288Y-54084D01*
X22336Y-54030D01*
X22354Y-53990D01*
X22360Y-53924D01*
X22312Y-53821D01*
X22258Y-53783D01*
X22215Y-53771D01*
X22143Y-53774D01*
X64233Y-27894D02*
X64333Y-27922D01*
X64500Y-27922D01*
X64566Y-27894D01*
X64600Y-27865D01*
X64633Y-27808D01*
X64633Y-27751D01*
X64600Y-27694D01*
X64566Y-27665D01*
X64500Y-27637D01*
X64366Y-27608D01*
X64300Y-27580D01*
X64266Y-27551D01*
X64233Y-27494D01*
X64233Y-27437D01*
X64266Y-27380D01*
X64300Y-27351D01*
X64366Y-27322D01*
X64533Y-27322D01*
X64633Y-27351D01*
X64866Y-27322D02*
X65033Y-27922D01*
X65166Y-27494D01*
X65300Y-27922D01*
X65466Y-27322D01*
X66066Y-27322D02*
X65733Y-27322D01*
X65700Y-27608D01*
X65733Y-27580D01*
X65800Y-27551D01*
X65966Y-27551D01*
X66033Y-27580D01*
X66066Y-27608D01*
X66100Y-27665D01*
X66100Y-27808D01*
X66066Y-27865D01*
X66033Y-27894D01*
X65966Y-27922D01*
X65800Y-27922D01*
X65733Y-27894D01*
X65700Y-27865D01*
X66400Y-27865D02*
X66433Y-27894D01*
X66400Y-27922D01*
X66366Y-27894D01*
X66400Y-27865D01*
X66400Y-27922D01*
X66400Y-27551D02*
X66433Y-27580D01*
X66400Y-27608D01*
X66366Y-27580D01*
X66400Y-27551D01*
X66400Y-27608D01*
X67100Y-27922D02*
X66700Y-27922D01*
X66900Y-27922D02*
X66900Y-27322D01*
X66833Y-27408D01*
X66766Y-27465D01*
X66700Y-27494D01*
X67366Y-27380D02*
X67400Y-27351D01*
X67466Y-27322D01*
X67633Y-27322D01*
X67700Y-27351D01*
X67733Y-27380D01*
X67766Y-27437D01*
X67766Y-27494D01*
X67733Y-27580D01*
X67333Y-27922D01*
X67766Y-27922D01*
X56733Y-26643D02*
X56833Y-26671D01*
X57000Y-26671D01*
X57066Y-26643D01*
X57100Y-26614D01*
X57133Y-26557D01*
X57133Y-26500D01*
X57100Y-26443D01*
X57066Y-26414D01*
X57000Y-26386D01*
X56866Y-26357D01*
X56800Y-26329D01*
X56766Y-26300D01*
X56733Y-26243D01*
X56733Y-26186D01*
X56766Y-26129D01*
X56800Y-26100D01*
X56866Y-26071D01*
X57033Y-26071D01*
X57133Y-26100D01*
X57366Y-26071D02*
X57533Y-26671D01*
X57666Y-26243D01*
X57800Y-26671D01*
X57966Y-26071D01*
X58566Y-26071D02*
X58233Y-26071D01*
X58200Y-26357D01*
X58233Y-26329D01*
X58300Y-26300D01*
X58466Y-26300D01*
X58533Y-26329D01*
X58566Y-26357D01*
X58600Y-26414D01*
X58600Y-26557D01*
X58566Y-26614D01*
X58533Y-26643D01*
X58466Y-26671D01*
X58300Y-26671D01*
X58233Y-26643D01*
X58200Y-26614D01*
X58900Y-26614D02*
X58933Y-26643D01*
X58900Y-26671D01*
X58866Y-26643D01*
X58900Y-26614D01*
X58900Y-26671D01*
X58900Y-26300D02*
X58933Y-26329D01*
X58900Y-26357D01*
X58866Y-26329D01*
X58900Y-26300D01*
X58900Y-26357D01*
X59600Y-26671D02*
X59200Y-26671D01*
X59400Y-26671D02*
X59400Y-26071D01*
X59333Y-26157D01*
X59266Y-26214D01*
X59200Y-26243D01*
X60266Y-26671D02*
X59866Y-26671D01*
X60066Y-26671D02*
X60066Y-26071D01*
X60000Y-26157D01*
X59933Y-26214D01*
X59866Y-26243D01*
X49233Y-26014D02*
X49333Y-26042D01*
X49500Y-26042D01*
X49566Y-26014D01*
X49600Y-25985D01*
X49633Y-25928D01*
X49633Y-25871D01*
X49600Y-25814D01*
X49566Y-25785D01*
X49500Y-25757D01*
X49366Y-25728D01*
X49300Y-25700D01*
X49266Y-25671D01*
X49233Y-25614D01*
X49233Y-25557D01*
X49266Y-25500D01*
X49300Y-25471D01*
X49366Y-25442D01*
X49533Y-25442D01*
X49633Y-25471D01*
X49866Y-25442D02*
X50033Y-26042D01*
X50166Y-25614D01*
X50300Y-26042D01*
X50466Y-25442D01*
X51066Y-25442D02*
X50733Y-25442D01*
X50700Y-25728D01*
X50733Y-25700D01*
X50800Y-25671D01*
X50966Y-25671D01*
X51033Y-25700D01*
X51066Y-25728D01*
X51100Y-25785D01*
X51100Y-25928D01*
X51066Y-25985D01*
X51033Y-26014D01*
X50966Y-26042D01*
X50800Y-26042D01*
X50733Y-26014D01*
X50700Y-25985D01*
X51400Y-25985D02*
X51433Y-26014D01*
X51400Y-26042D01*
X51366Y-26014D01*
X51400Y-25985D01*
X51400Y-26042D01*
X51400Y-25671D02*
X51433Y-25700D01*
X51400Y-25728D01*
X51366Y-25700D01*
X51400Y-25671D01*
X51400Y-25728D01*
X52100Y-26042D02*
X51700Y-26042D01*
X51900Y-26042D02*
X51900Y-25442D01*
X51833Y-25528D01*
X51766Y-25585D01*
X51700Y-25614D01*
X52533Y-25442D02*
X52600Y-25442D01*
X52666Y-25471D01*
X52700Y-25500D01*
X52733Y-25557D01*
X52766Y-25671D01*
X52766Y-25814D01*
X52733Y-25928D01*
X52700Y-25985D01*
X52666Y-26014D01*
X52600Y-26042D01*
X52533Y-26042D01*
X52466Y-26014D01*
X52433Y-25985D01*
X52400Y-25928D01*
X52366Y-25814D01*
X52366Y-25671D01*
X52400Y-25557D01*
X52433Y-25500D01*
X52466Y-25471D01*
X52533Y-25442D01*
X42066Y-26643D02*
X42166Y-26671D01*
X42333Y-26671D01*
X42400Y-26643D01*
X42433Y-26614D01*
X42466Y-26557D01*
X42466Y-26500D01*
X42433Y-26443D01*
X42400Y-26414D01*
X42333Y-26386D01*
X42200Y-26357D01*
X42133Y-26329D01*
X42100Y-26300D01*
X42066Y-26243D01*
X42066Y-26186D01*
X42100Y-26129D01*
X42133Y-26100D01*
X42200Y-26071D01*
X42366Y-26071D01*
X42466Y-26100D01*
X42700Y-26071D02*
X42866Y-26671D01*
X43000Y-26243D01*
X43133Y-26671D01*
X43300Y-26071D01*
X43900Y-26071D02*
X43566Y-26071D01*
X43533Y-26357D01*
X43566Y-26329D01*
X43633Y-26300D01*
X43800Y-26300D01*
X43866Y-26329D01*
X43900Y-26357D01*
X43933Y-26414D01*
X43933Y-26557D01*
X43900Y-26614D01*
X43866Y-26643D01*
X43800Y-26671D01*
X43633Y-26671D01*
X43566Y-26643D01*
X43533Y-26614D01*
X44233Y-26614D02*
X44266Y-26643D01*
X44233Y-26671D01*
X44200Y-26643D01*
X44233Y-26614D01*
X44233Y-26671D01*
X44233Y-26300D02*
X44266Y-26329D01*
X44233Y-26357D01*
X44200Y-26329D01*
X44233Y-26300D01*
X44233Y-26357D01*
X44600Y-26671D02*
X44733Y-26671D01*
X44800Y-26643D01*
X44833Y-26614D01*
X44900Y-26529D01*
X44933Y-26414D01*
X44933Y-26186D01*
X44900Y-26129D01*
X44866Y-26100D01*
X44800Y-26071D01*
X44666Y-26071D01*
X44600Y-26100D01*
X44566Y-26129D01*
X44533Y-26186D01*
X44533Y-26329D01*
X44566Y-26386D01*
X44600Y-26414D01*
X44666Y-26443D01*
X44800Y-26443D01*
X44866Y-26414D01*
X44900Y-26386D01*
X44933Y-26329D01*
X56733Y-56643D02*
X56833Y-56671D01*
X57000Y-56671D01*
X57066Y-56643D01*
X57100Y-56614D01*
X57133Y-56557D01*
X57133Y-56500D01*
X57100Y-56443D01*
X57066Y-56414D01*
X57000Y-56386D01*
X56866Y-56357D01*
X56800Y-56329D01*
X56766Y-56300D01*
X56733Y-56243D01*
X56733Y-56186D01*
X56766Y-56129D01*
X56800Y-56100D01*
X56866Y-56071D01*
X57033Y-56071D01*
X57133Y-56100D01*
X57366Y-56071D02*
X57533Y-56671D01*
X57666Y-56243D01*
X57800Y-56671D01*
X57966Y-56071D01*
X58600Y-56671D02*
X58200Y-56671D01*
X58400Y-56671D02*
X58400Y-56071D01*
X58333Y-56157D01*
X58266Y-56214D01*
X58200Y-56243D01*
X58900Y-56614D02*
X58933Y-56643D01*
X58900Y-56671D01*
X58866Y-56643D01*
X58900Y-56614D01*
X58900Y-56671D01*
X58900Y-56300D02*
X58933Y-56329D01*
X58900Y-56357D01*
X58866Y-56329D01*
X58900Y-56300D01*
X58900Y-56357D01*
X59600Y-56671D02*
X59200Y-56671D01*
X59400Y-56671D02*
X59400Y-56071D01*
X59333Y-56157D01*
X59266Y-56214D01*
X59200Y-56243D01*
X60266Y-56671D02*
X59866Y-56671D01*
X60066Y-56671D02*
X60066Y-56071D01*
X60000Y-56157D01*
X59933Y-56214D01*
X59866Y-56243D01*
X64233Y-35393D02*
X64333Y-35421D01*
X64500Y-35421D01*
X64566Y-35393D01*
X64600Y-35364D01*
X64633Y-35307D01*
X64633Y-35250D01*
X64600Y-35193D01*
X64566Y-35164D01*
X64500Y-35136D01*
X64366Y-35107D01*
X64300Y-35079D01*
X64266Y-35050D01*
X64233Y-34993D01*
X64233Y-34936D01*
X64266Y-34879D01*
X64300Y-34850D01*
X64366Y-34821D01*
X64533Y-34821D01*
X64633Y-34850D01*
X64866Y-34821D02*
X65033Y-35421D01*
X65166Y-34993D01*
X65300Y-35421D01*
X65466Y-34821D01*
X66033Y-35021D02*
X66033Y-35421D01*
X65866Y-34793D02*
X65700Y-35221D01*
X66133Y-35221D01*
X66400Y-35364D02*
X66433Y-35393D01*
X66400Y-35421D01*
X66366Y-35393D01*
X66400Y-35364D01*
X66400Y-35421D01*
X66400Y-35050D02*
X66433Y-35079D01*
X66400Y-35107D01*
X66366Y-35079D01*
X66400Y-35050D01*
X66400Y-35107D01*
X67100Y-35421D02*
X66700Y-35421D01*
X66900Y-35421D02*
X66900Y-34821D01*
X66833Y-34907D01*
X66766Y-34964D01*
X66700Y-34993D01*
X67366Y-34879D02*
X67400Y-34850D01*
X67466Y-34821D01*
X67633Y-34821D01*
X67700Y-34850D01*
X67733Y-34879D01*
X67766Y-34936D01*
X67766Y-34993D01*
X67733Y-35079D01*
X67333Y-35421D01*
X67766Y-35421D01*
X49233Y-33514D02*
X49333Y-33542D01*
X49500Y-33542D01*
X49566Y-33514D01*
X49600Y-33485D01*
X49633Y-33428D01*
X49633Y-33371D01*
X49600Y-33314D01*
X49566Y-33285D01*
X49500Y-33257D01*
X49366Y-33228D01*
X49300Y-33200D01*
X49266Y-33171D01*
X49233Y-33114D01*
X49233Y-33057D01*
X49266Y-33000D01*
X49300Y-32971D01*
X49366Y-32942D01*
X49533Y-32942D01*
X49633Y-32971D01*
X49866Y-32942D02*
X50033Y-33542D01*
X50166Y-33114D01*
X50300Y-33542D01*
X50466Y-32942D01*
X51033Y-33142D02*
X51033Y-33542D01*
X50866Y-32914D02*
X50700Y-33342D01*
X51133Y-33342D01*
X51400Y-33485D02*
X51433Y-33514D01*
X51400Y-33542D01*
X51366Y-33514D01*
X51400Y-33485D01*
X51400Y-33542D01*
X51400Y-33171D02*
X51433Y-33200D01*
X51400Y-33228D01*
X51366Y-33200D01*
X51400Y-33171D01*
X51400Y-33228D01*
X52100Y-33542D02*
X51700Y-33542D01*
X51900Y-33542D02*
X51900Y-32942D01*
X51833Y-33028D01*
X51766Y-33085D01*
X51700Y-33114D01*
X52533Y-32942D02*
X52600Y-32942D01*
X52666Y-32971D01*
X52700Y-33000D01*
X52733Y-33057D01*
X52766Y-33171D01*
X52766Y-33314D01*
X52733Y-33428D01*
X52700Y-33485D01*
X52666Y-33514D01*
X52600Y-33542D01*
X52533Y-33542D01*
X52466Y-33514D01*
X52433Y-33485D01*
X52400Y-33428D01*
X52366Y-33314D01*
X52366Y-33171D01*
X52400Y-33057D01*
X52433Y-33000D01*
X52466Y-32971D01*
X52533Y-32942D01*
X42066Y-34143D02*
X42166Y-34171D01*
X42333Y-34171D01*
X42400Y-34143D01*
X42433Y-34114D01*
X42466Y-34057D01*
X42466Y-34000D01*
X42433Y-33943D01*
X42400Y-33914D01*
X42333Y-33886D01*
X42200Y-33857D01*
X42133Y-33829D01*
X42100Y-33800D01*
X42066Y-33743D01*
X42066Y-33686D01*
X42100Y-33629D01*
X42133Y-33600D01*
X42200Y-33571D01*
X42366Y-33571D01*
X42466Y-33600D01*
X42700Y-33571D02*
X42866Y-34171D01*
X43000Y-33743D01*
X43133Y-34171D01*
X43300Y-33571D01*
X43866Y-33771D02*
X43866Y-34171D01*
X43700Y-33543D02*
X43533Y-33971D01*
X43966Y-33971D01*
X44233Y-34114D02*
X44266Y-34143D01*
X44233Y-34171D01*
X44200Y-34143D01*
X44233Y-34114D01*
X44233Y-34171D01*
X44233Y-33800D02*
X44266Y-33829D01*
X44233Y-33857D01*
X44200Y-33829D01*
X44233Y-33800D01*
X44233Y-33857D01*
X44600Y-34171D02*
X44733Y-34171D01*
X44800Y-34143D01*
X44833Y-34114D01*
X44900Y-34029D01*
X44933Y-33914D01*
X44933Y-33686D01*
X44900Y-33629D01*
X44866Y-33600D01*
X44800Y-33571D01*
X44666Y-33571D01*
X44600Y-33600D01*
X44566Y-33629D01*
X44533Y-33686D01*
X44533Y-33829D01*
X44566Y-33886D01*
X44600Y-33914D01*
X44666Y-33943D01*
X44800Y-33943D01*
X44866Y-33914D01*
X44900Y-33886D01*
X44933Y-33829D01*
X64233Y-42893D02*
X64333Y-42921D01*
X64500Y-42921D01*
X64566Y-42893D01*
X64600Y-42864D01*
X64633Y-42807D01*
X64633Y-42750D01*
X64600Y-42693D01*
X64566Y-42664D01*
X64500Y-42636D01*
X64366Y-42607D01*
X64300Y-42579D01*
X64266Y-42550D01*
X64233Y-42493D01*
X64233Y-42436D01*
X64266Y-42379D01*
X64300Y-42350D01*
X64366Y-42321D01*
X64533Y-42321D01*
X64633Y-42350D01*
X64866Y-42321D02*
X65033Y-42921D01*
X65166Y-42493D01*
X65300Y-42921D01*
X65466Y-42321D01*
X65666Y-42321D02*
X66100Y-42321D01*
X65866Y-42550D01*
X65966Y-42550D01*
X66033Y-42579D01*
X66066Y-42607D01*
X66100Y-42664D01*
X66100Y-42807D01*
X66066Y-42864D01*
X66033Y-42893D01*
X65966Y-42921D01*
X65766Y-42921D01*
X65700Y-42893D01*
X65666Y-42864D01*
X66400Y-42864D02*
X66433Y-42893D01*
X66400Y-42921D01*
X66366Y-42893D01*
X66400Y-42864D01*
X66400Y-42921D01*
X66400Y-42550D02*
X66433Y-42579D01*
X66400Y-42607D01*
X66366Y-42579D01*
X66400Y-42550D01*
X66400Y-42607D01*
X67100Y-42921D02*
X66700Y-42921D01*
X66900Y-42921D02*
X66900Y-42321D01*
X66833Y-42407D01*
X66766Y-42464D01*
X66700Y-42493D01*
X67366Y-42379D02*
X67400Y-42350D01*
X67466Y-42321D01*
X67633Y-42321D01*
X67700Y-42350D01*
X67733Y-42379D01*
X67766Y-42436D01*
X67766Y-42493D01*
X67733Y-42579D01*
X67333Y-42921D01*
X67766Y-42921D01*
X56733Y-41643D02*
X56833Y-41671D01*
X57000Y-41671D01*
X57066Y-41643D01*
X57100Y-41614D01*
X57133Y-41557D01*
X57133Y-41500D01*
X57100Y-41443D01*
X57066Y-41414D01*
X57000Y-41386D01*
X56866Y-41357D01*
X56800Y-41329D01*
X56766Y-41300D01*
X56733Y-41243D01*
X56733Y-41186D01*
X56766Y-41129D01*
X56800Y-41100D01*
X56866Y-41071D01*
X57033Y-41071D01*
X57133Y-41100D01*
X57366Y-41071D02*
X57533Y-41671D01*
X57666Y-41243D01*
X57800Y-41671D01*
X57966Y-41071D01*
X58166Y-41071D02*
X58600Y-41071D01*
X58366Y-41300D01*
X58466Y-41300D01*
X58533Y-41329D01*
X58566Y-41357D01*
X58600Y-41414D01*
X58600Y-41557D01*
X58566Y-41614D01*
X58533Y-41643D01*
X58466Y-41671D01*
X58266Y-41671D01*
X58200Y-41643D01*
X58166Y-41614D01*
X58900Y-41614D02*
X58933Y-41643D01*
X58900Y-41671D01*
X58866Y-41643D01*
X58900Y-41614D01*
X58900Y-41671D01*
X58900Y-41300D02*
X58933Y-41329D01*
X58900Y-41357D01*
X58866Y-41329D01*
X58900Y-41300D01*
X58900Y-41357D01*
X59600Y-41671D02*
X59200Y-41671D01*
X59400Y-41671D02*
X59400Y-41071D01*
X59333Y-41157D01*
X59266Y-41214D01*
X59200Y-41243D01*
X60266Y-41671D02*
X59866Y-41671D01*
X60066Y-41671D02*
X60066Y-41071D01*
X60000Y-41157D01*
X59933Y-41214D01*
X59866Y-41243D01*
X49233Y-41014D02*
X49333Y-41042D01*
X49500Y-41042D01*
X49566Y-41014D01*
X49600Y-40985D01*
X49633Y-40928D01*
X49633Y-40871D01*
X49600Y-40814D01*
X49566Y-40785D01*
X49500Y-40757D01*
X49366Y-40728D01*
X49300Y-40700D01*
X49266Y-40671D01*
X49233Y-40614D01*
X49233Y-40557D01*
X49266Y-40500D01*
X49300Y-40471D01*
X49366Y-40442D01*
X49533Y-40442D01*
X49633Y-40471D01*
X49866Y-40442D02*
X50033Y-41042D01*
X50166Y-40614D01*
X50300Y-41042D01*
X50466Y-40442D01*
X50666Y-40442D02*
X51100Y-40442D01*
X50866Y-40671D01*
X50966Y-40671D01*
X51033Y-40700D01*
X51066Y-40728D01*
X51100Y-40785D01*
X51100Y-40928D01*
X51066Y-40985D01*
X51033Y-41014D01*
X50966Y-41042D01*
X50766Y-41042D01*
X50700Y-41014D01*
X50666Y-40985D01*
X51400Y-40985D02*
X51433Y-41014D01*
X51400Y-41042D01*
X51366Y-41014D01*
X51400Y-40985D01*
X51400Y-41042D01*
X51400Y-40671D02*
X51433Y-40700D01*
X51400Y-40728D01*
X51366Y-40700D01*
X51400Y-40671D01*
X51400Y-40728D01*
X52100Y-41042D02*
X51700Y-41042D01*
X51900Y-41042D02*
X51900Y-40442D01*
X51833Y-40528D01*
X51766Y-40585D01*
X51700Y-40614D01*
X52533Y-40442D02*
X52600Y-40442D01*
X52666Y-40471D01*
X52700Y-40500D01*
X52733Y-40557D01*
X52766Y-40671D01*
X52766Y-40814D01*
X52733Y-40928D01*
X52700Y-40985D01*
X52666Y-41014D01*
X52600Y-41042D01*
X52533Y-41042D01*
X52466Y-41014D01*
X52433Y-40985D01*
X52400Y-40928D01*
X52366Y-40814D01*
X52366Y-40671D01*
X52400Y-40557D01*
X52433Y-40500D01*
X52466Y-40471D01*
X52533Y-40442D01*
X42066Y-41643D02*
X42166Y-41671D01*
X42333Y-41671D01*
X42400Y-41643D01*
X42433Y-41614D01*
X42466Y-41557D01*
X42466Y-41500D01*
X42433Y-41443D01*
X42400Y-41414D01*
X42333Y-41386D01*
X42200Y-41357D01*
X42133Y-41329D01*
X42100Y-41300D01*
X42066Y-41243D01*
X42066Y-41186D01*
X42100Y-41129D01*
X42133Y-41100D01*
X42200Y-41071D01*
X42366Y-41071D01*
X42466Y-41100D01*
X42700Y-41071D02*
X42866Y-41671D01*
X43000Y-41243D01*
X43133Y-41671D01*
X43300Y-41071D01*
X43500Y-41071D02*
X43933Y-41071D01*
X43700Y-41300D01*
X43800Y-41300D01*
X43866Y-41329D01*
X43900Y-41357D01*
X43933Y-41414D01*
X43933Y-41557D01*
X43900Y-41614D01*
X43866Y-41643D01*
X43800Y-41671D01*
X43600Y-41671D01*
X43533Y-41643D01*
X43500Y-41614D01*
X44233Y-41614D02*
X44266Y-41643D01*
X44233Y-41671D01*
X44200Y-41643D01*
X44233Y-41614D01*
X44233Y-41671D01*
X44233Y-41300D02*
X44266Y-41329D01*
X44233Y-41357D01*
X44200Y-41329D01*
X44233Y-41300D01*
X44233Y-41357D01*
X44600Y-41671D02*
X44733Y-41671D01*
X44800Y-41643D01*
X44833Y-41614D01*
X44900Y-41529D01*
X44933Y-41414D01*
X44933Y-41186D01*
X44900Y-41129D01*
X44866Y-41100D01*
X44800Y-41071D01*
X44666Y-41071D01*
X44600Y-41100D01*
X44566Y-41129D01*
X44533Y-41186D01*
X44533Y-41329D01*
X44566Y-41386D01*
X44600Y-41414D01*
X44666Y-41443D01*
X44800Y-41443D01*
X44866Y-41414D01*
X44900Y-41386D01*
X44933Y-41329D01*
X34566Y-42143D02*
X34666Y-42171D01*
X34833Y-42171D01*
X34900Y-42143D01*
X34933Y-42114D01*
X34966Y-42057D01*
X34966Y-42000D01*
X34933Y-41943D01*
X34900Y-41914D01*
X34833Y-41886D01*
X34700Y-41857D01*
X34633Y-41829D01*
X34600Y-41800D01*
X34566Y-41743D01*
X34566Y-41686D01*
X34600Y-41629D01*
X34633Y-41600D01*
X34700Y-41571D01*
X34866Y-41571D01*
X34966Y-41600D01*
X35200Y-41571D02*
X35366Y-42171D01*
X35500Y-41743D01*
X35633Y-42171D01*
X35800Y-41571D01*
X36000Y-41571D02*
X36433Y-41571D01*
X36200Y-41800D01*
X36300Y-41800D01*
X36366Y-41829D01*
X36400Y-41857D01*
X36433Y-41914D01*
X36433Y-42057D01*
X36400Y-42114D01*
X36366Y-42143D01*
X36300Y-42171D01*
X36100Y-42171D01*
X36033Y-42143D01*
X36000Y-42114D01*
X36733Y-42114D02*
X36766Y-42143D01*
X36733Y-42171D01*
X36700Y-42143D01*
X36733Y-42114D01*
X36733Y-42171D01*
X36733Y-41800D02*
X36766Y-41829D01*
X36733Y-41857D01*
X36700Y-41829D01*
X36733Y-41800D01*
X36733Y-41857D01*
X37166Y-41829D02*
X37100Y-41800D01*
X37066Y-41771D01*
X37033Y-41714D01*
X37033Y-41686D01*
X37066Y-41629D01*
X37100Y-41600D01*
X37166Y-41571D01*
X37300Y-41571D01*
X37366Y-41600D01*
X37400Y-41629D01*
X37433Y-41686D01*
X37433Y-41714D01*
X37400Y-41771D01*
X37366Y-41800D01*
X37300Y-41829D01*
X37166Y-41829D01*
X37100Y-41857D01*
X37066Y-41886D01*
X37033Y-41943D01*
X37033Y-42057D01*
X37066Y-42114D01*
X37100Y-42143D01*
X37166Y-42171D01*
X37300Y-42171D01*
X37366Y-42143D01*
X37400Y-42114D01*
X37433Y-42057D01*
X37433Y-41943D01*
X37400Y-41886D01*
X37366Y-41857D01*
X37300Y-41829D01*
X64233Y-50393D02*
X64333Y-50421D01*
X64500Y-50421D01*
X64566Y-50393D01*
X64600Y-50364D01*
X64633Y-50307D01*
X64633Y-50250D01*
X64600Y-50193D01*
X64566Y-50164D01*
X64500Y-50136D01*
X64366Y-50107D01*
X64300Y-50079D01*
X64266Y-50050D01*
X64233Y-49993D01*
X64233Y-49936D01*
X64266Y-49879D01*
X64300Y-49850D01*
X64366Y-49821D01*
X64533Y-49821D01*
X64633Y-49850D01*
X64866Y-49821D02*
X65033Y-50421D01*
X65166Y-49993D01*
X65300Y-50421D01*
X65466Y-49821D01*
X65700Y-49879D02*
X65733Y-49850D01*
X65800Y-49821D01*
X65966Y-49821D01*
X66033Y-49850D01*
X66066Y-49879D01*
X66100Y-49936D01*
X66100Y-49993D01*
X66066Y-50079D01*
X65666Y-50421D01*
X66100Y-50421D01*
X66400Y-50364D02*
X66433Y-50393D01*
X66400Y-50421D01*
X66366Y-50393D01*
X66400Y-50364D01*
X66400Y-50421D01*
X66400Y-50050D02*
X66433Y-50079D01*
X66400Y-50107D01*
X66366Y-50079D01*
X66400Y-50050D01*
X66400Y-50107D01*
X67100Y-50421D02*
X66700Y-50421D01*
X66900Y-50421D02*
X66900Y-49821D01*
X66833Y-49907D01*
X66766Y-49964D01*
X66700Y-49993D01*
X67366Y-49879D02*
X67400Y-49850D01*
X67466Y-49821D01*
X67633Y-49821D01*
X67700Y-49850D01*
X67733Y-49879D01*
X67766Y-49936D01*
X67766Y-49993D01*
X67733Y-50079D01*
X67333Y-50421D01*
X67766Y-50421D01*
X56733Y-49143D02*
X56833Y-49171D01*
X57000Y-49171D01*
X57066Y-49143D01*
X57100Y-49114D01*
X57133Y-49057D01*
X57133Y-49000D01*
X57100Y-48943D01*
X57066Y-48914D01*
X57000Y-48886D01*
X56866Y-48857D01*
X56800Y-48829D01*
X56766Y-48800D01*
X56733Y-48743D01*
X56733Y-48686D01*
X56766Y-48629D01*
X56800Y-48600D01*
X56866Y-48571D01*
X57033Y-48571D01*
X57133Y-48600D01*
X57366Y-48571D02*
X57533Y-49171D01*
X57666Y-48743D01*
X57800Y-49171D01*
X57966Y-48571D01*
X58200Y-48629D02*
X58233Y-48600D01*
X58300Y-48571D01*
X58466Y-48571D01*
X58533Y-48600D01*
X58566Y-48629D01*
X58600Y-48686D01*
X58600Y-48743D01*
X58566Y-48829D01*
X58166Y-49171D01*
X58600Y-49171D01*
X58900Y-49114D02*
X58933Y-49143D01*
X58900Y-49171D01*
X58866Y-49143D01*
X58900Y-49114D01*
X58900Y-49171D01*
X58900Y-48800D02*
X58933Y-48829D01*
X58900Y-48857D01*
X58866Y-48829D01*
X58900Y-48800D01*
X58900Y-48857D01*
X59600Y-49171D02*
X59200Y-49171D01*
X59400Y-49171D02*
X59400Y-48571D01*
X59333Y-48657D01*
X59266Y-48714D01*
X59200Y-48743D01*
X60266Y-49171D02*
X59866Y-49171D01*
X60066Y-49171D02*
X60066Y-48571D01*
X60000Y-48657D01*
X59933Y-48714D01*
X59866Y-48743D01*
X49233Y-48514D02*
X49333Y-48542D01*
X49500Y-48542D01*
X49566Y-48514D01*
X49600Y-48485D01*
X49633Y-48428D01*
X49633Y-48371D01*
X49600Y-48314D01*
X49566Y-48285D01*
X49500Y-48257D01*
X49366Y-48228D01*
X49300Y-48200D01*
X49266Y-48171D01*
X49233Y-48114D01*
X49233Y-48057D01*
X49266Y-48000D01*
X49300Y-47971D01*
X49366Y-47942D01*
X49533Y-47942D01*
X49633Y-47971D01*
X49866Y-47942D02*
X50033Y-48542D01*
X50166Y-48114D01*
X50300Y-48542D01*
X50466Y-47942D01*
X50700Y-48000D02*
X50733Y-47971D01*
X50800Y-47942D01*
X50966Y-47942D01*
X51033Y-47971D01*
X51066Y-48000D01*
X51100Y-48057D01*
X51100Y-48114D01*
X51066Y-48200D01*
X50666Y-48542D01*
X51100Y-48542D01*
X51400Y-48485D02*
X51433Y-48514D01*
X51400Y-48542D01*
X51366Y-48514D01*
X51400Y-48485D01*
X51400Y-48542D01*
X51400Y-48171D02*
X51433Y-48200D01*
X51400Y-48228D01*
X51366Y-48200D01*
X51400Y-48171D01*
X51400Y-48228D01*
X52100Y-48542D02*
X51700Y-48542D01*
X51900Y-48542D02*
X51900Y-47942D01*
X51833Y-48028D01*
X51766Y-48085D01*
X51700Y-48114D01*
X52533Y-47942D02*
X52600Y-47942D01*
X52666Y-47971D01*
X52700Y-48000D01*
X52733Y-48057D01*
X52766Y-48171D01*
X52766Y-48314D01*
X52733Y-48428D01*
X52700Y-48485D01*
X52666Y-48514D01*
X52600Y-48542D01*
X52533Y-48542D01*
X52466Y-48514D01*
X52433Y-48485D01*
X52400Y-48428D01*
X52366Y-48314D01*
X52366Y-48171D01*
X52400Y-48057D01*
X52433Y-48000D01*
X52466Y-47971D01*
X52533Y-47942D01*
X42066Y-49143D02*
X42166Y-49171D01*
X42333Y-49171D01*
X42400Y-49143D01*
X42433Y-49114D01*
X42466Y-49057D01*
X42466Y-49000D01*
X42433Y-48943D01*
X42400Y-48914D01*
X42333Y-48886D01*
X42200Y-48857D01*
X42133Y-48829D01*
X42100Y-48800D01*
X42066Y-48743D01*
X42066Y-48686D01*
X42100Y-48629D01*
X42133Y-48600D01*
X42200Y-48571D01*
X42366Y-48571D01*
X42466Y-48600D01*
X42700Y-48571D02*
X42866Y-49171D01*
X43000Y-48743D01*
X43133Y-49171D01*
X43300Y-48571D01*
X43533Y-48629D02*
X43566Y-48600D01*
X43633Y-48571D01*
X43800Y-48571D01*
X43866Y-48600D01*
X43900Y-48629D01*
X43933Y-48686D01*
X43933Y-48743D01*
X43900Y-48829D01*
X43500Y-49171D01*
X43933Y-49171D01*
X44233Y-49114D02*
X44266Y-49143D01*
X44233Y-49171D01*
X44200Y-49143D01*
X44233Y-49114D01*
X44233Y-49171D01*
X44233Y-48800D02*
X44266Y-48829D01*
X44233Y-48857D01*
X44200Y-48829D01*
X44233Y-48800D01*
X44233Y-48857D01*
X44600Y-49171D02*
X44733Y-49171D01*
X44800Y-49143D01*
X44833Y-49114D01*
X44900Y-49029D01*
X44933Y-48914D01*
X44933Y-48686D01*
X44900Y-48629D01*
X44866Y-48600D01*
X44800Y-48571D01*
X44666Y-48571D01*
X44600Y-48600D01*
X44566Y-48629D01*
X44533Y-48686D01*
X44533Y-48829D01*
X44566Y-48886D01*
X44600Y-48914D01*
X44666Y-48943D01*
X44800Y-48943D01*
X44866Y-48914D01*
X44900Y-48886D01*
X44933Y-48829D01*
X34566Y-49643D02*
X34666Y-49671D01*
X34833Y-49671D01*
X34900Y-49643D01*
X34933Y-49614D01*
X34966Y-49557D01*
X34966Y-49500D01*
X34933Y-49443D01*
X34900Y-49414D01*
X34833Y-49386D01*
X34700Y-49357D01*
X34633Y-49329D01*
X34600Y-49300D01*
X34566Y-49243D01*
X34566Y-49186D01*
X34600Y-49129D01*
X34633Y-49100D01*
X34700Y-49071D01*
X34866Y-49071D01*
X34966Y-49100D01*
X35200Y-49071D02*
X35366Y-49671D01*
X35500Y-49243D01*
X35633Y-49671D01*
X35800Y-49071D01*
X36033Y-49129D02*
X36066Y-49100D01*
X36133Y-49071D01*
X36300Y-49071D01*
X36366Y-49100D01*
X36400Y-49129D01*
X36433Y-49186D01*
X36433Y-49243D01*
X36400Y-49329D01*
X36000Y-49671D01*
X36433Y-49671D01*
X36733Y-49614D02*
X36766Y-49643D01*
X36733Y-49671D01*
X36700Y-49643D01*
X36733Y-49614D01*
X36733Y-49671D01*
X36733Y-49300D02*
X36766Y-49329D01*
X36733Y-49357D01*
X36700Y-49329D01*
X36733Y-49300D01*
X36733Y-49357D01*
X37166Y-49329D02*
X37100Y-49300D01*
X37066Y-49271D01*
X37033Y-49214D01*
X37033Y-49186D01*
X37066Y-49129D01*
X37100Y-49100D01*
X37166Y-49071D01*
X37300Y-49071D01*
X37366Y-49100D01*
X37400Y-49129D01*
X37433Y-49186D01*
X37433Y-49214D01*
X37400Y-49271D01*
X37366Y-49300D01*
X37300Y-49329D01*
X37166Y-49329D01*
X37100Y-49357D01*
X37066Y-49386D01*
X37033Y-49443D01*
X37033Y-49557D01*
X37066Y-49614D01*
X37100Y-49643D01*
X37166Y-49671D01*
X37300Y-49671D01*
X37366Y-49643D01*
X37400Y-49614D01*
X37433Y-49557D01*
X37433Y-49443D01*
X37400Y-49386D01*
X37366Y-49357D01*
X37300Y-49329D01*
X64233Y-57893D02*
X64333Y-57921D01*
X64500Y-57921D01*
X64566Y-57893D01*
X64600Y-57864D01*
X64633Y-57807D01*
X64633Y-57750D01*
X64600Y-57693D01*
X64566Y-57664D01*
X64500Y-57636D01*
X64366Y-57607D01*
X64300Y-57579D01*
X64266Y-57550D01*
X64233Y-57493D01*
X64233Y-57436D01*
X64266Y-57379D01*
X64300Y-57350D01*
X64366Y-57321D01*
X64533Y-57321D01*
X64633Y-57350D01*
X64866Y-57321D02*
X65033Y-57921D01*
X65166Y-57493D01*
X65300Y-57921D01*
X65466Y-57321D01*
X66100Y-57921D02*
X65700Y-57921D01*
X65900Y-57921D02*
X65900Y-57321D01*
X65833Y-57407D01*
X65766Y-57464D01*
X65700Y-57493D01*
X66400Y-57864D02*
X66433Y-57893D01*
X66400Y-57921D01*
X66366Y-57893D01*
X66400Y-57864D01*
X66400Y-57921D01*
X66400Y-57550D02*
X66433Y-57579D01*
X66400Y-57607D01*
X66366Y-57579D01*
X66400Y-57550D01*
X66400Y-57607D01*
X67100Y-57921D02*
X66700Y-57921D01*
X66900Y-57921D02*
X66900Y-57321D01*
X66833Y-57407D01*
X66766Y-57464D01*
X66700Y-57493D01*
X67366Y-57379D02*
X67400Y-57350D01*
X67466Y-57321D01*
X67633Y-57321D01*
X67700Y-57350D01*
X67733Y-57379D01*
X67766Y-57436D01*
X67766Y-57493D01*
X67733Y-57579D01*
X67333Y-57921D01*
X67766Y-57921D01*
X49233Y-56014D02*
X49333Y-56042D01*
X49500Y-56042D01*
X49566Y-56014D01*
X49600Y-55985D01*
X49633Y-55928D01*
X49633Y-55871D01*
X49600Y-55814D01*
X49566Y-55785D01*
X49500Y-55757D01*
X49366Y-55728D01*
X49300Y-55700D01*
X49266Y-55671D01*
X49233Y-55614D01*
X49233Y-55557D01*
X49266Y-55500D01*
X49300Y-55471D01*
X49366Y-55442D01*
X49533Y-55442D01*
X49633Y-55471D01*
X49866Y-55442D02*
X50033Y-56042D01*
X50166Y-55614D01*
X50300Y-56042D01*
X50466Y-55442D01*
X51100Y-56042D02*
X50700Y-56042D01*
X50900Y-56042D02*
X50900Y-55442D01*
X50833Y-55528D01*
X50766Y-55585D01*
X50700Y-55614D01*
X51400Y-55985D02*
X51433Y-56014D01*
X51400Y-56042D01*
X51366Y-56014D01*
X51400Y-55985D01*
X51400Y-56042D01*
X51400Y-55671D02*
X51433Y-55700D01*
X51400Y-55728D01*
X51366Y-55700D01*
X51400Y-55671D01*
X51400Y-55728D01*
X52100Y-56042D02*
X51700Y-56042D01*
X51900Y-56042D02*
X51900Y-55442D01*
X51833Y-55528D01*
X51766Y-55585D01*
X51700Y-55614D01*
X52533Y-55442D02*
X52600Y-55442D01*
X52666Y-55471D01*
X52700Y-55500D01*
X52733Y-55557D01*
X52766Y-55671D01*
X52766Y-55814D01*
X52733Y-55928D01*
X52700Y-55985D01*
X52666Y-56014D01*
X52600Y-56042D01*
X52533Y-56042D01*
X52466Y-56014D01*
X52433Y-55985D01*
X52400Y-55928D01*
X52366Y-55814D01*
X52366Y-55671D01*
X52400Y-55557D01*
X52433Y-55500D01*
X52466Y-55471D01*
X52533Y-55442D01*
X42066Y-56643D02*
X42166Y-56671D01*
X42333Y-56671D01*
X42400Y-56643D01*
X42433Y-56614D01*
X42466Y-56557D01*
X42466Y-56500D01*
X42433Y-56443D01*
X42400Y-56414D01*
X42333Y-56386D01*
X42200Y-56357D01*
X42133Y-56329D01*
X42100Y-56300D01*
X42066Y-56243D01*
X42066Y-56186D01*
X42100Y-56129D01*
X42133Y-56100D01*
X42200Y-56071D01*
X42366Y-56071D01*
X42466Y-56100D01*
X42700Y-56071D02*
X42866Y-56671D01*
X43000Y-56243D01*
X43133Y-56671D01*
X43300Y-56071D01*
X43933Y-56671D02*
X43533Y-56671D01*
X43733Y-56671D02*
X43733Y-56071D01*
X43666Y-56157D01*
X43600Y-56214D01*
X43533Y-56243D01*
X44233Y-56614D02*
X44266Y-56643D01*
X44233Y-56671D01*
X44200Y-56643D01*
X44233Y-56614D01*
X44233Y-56671D01*
X44233Y-56300D02*
X44266Y-56329D01*
X44233Y-56357D01*
X44200Y-56329D01*
X44233Y-56300D01*
X44233Y-56357D01*
X44600Y-56671D02*
X44733Y-56671D01*
X44800Y-56643D01*
X44833Y-56614D01*
X44900Y-56529D01*
X44933Y-56414D01*
X44933Y-56186D01*
X44900Y-56129D01*
X44866Y-56100D01*
X44800Y-56071D01*
X44666Y-56071D01*
X44600Y-56100D01*
X44566Y-56129D01*
X44533Y-56186D01*
X44533Y-56329D01*
X44566Y-56386D01*
X44600Y-56414D01*
X44666Y-56443D01*
X44800Y-56443D01*
X44866Y-56414D01*
X44900Y-56386D01*
X44933Y-56329D01*
X32246Y-58202D02*
X32262Y-58304D01*
X32333Y-58455D01*
X32387Y-58504D01*
X32427Y-58522D01*
X32493Y-58528D01*
X32544Y-58504D01*
X32582Y-58449D01*
X32594Y-58407D01*
X32592Y-58335D01*
X32561Y-58202D01*
X32559Y-58129D01*
X32571Y-58087D01*
X32608Y-58032D01*
X32660Y-58008D01*
X32726Y-58014D01*
X32766Y-58033D01*
X32820Y-58081D01*
X32891Y-58232D01*
X32907Y-58335D01*
X33031Y-58534D02*
X32558Y-58939D01*
X33003Y-58878D01*
X32671Y-59180D01*
X33285Y-59078D01*
X33454Y-59440D02*
X33482Y-59501D01*
X33484Y-59573D01*
X33473Y-59616D01*
X33435Y-59670D01*
X33345Y-59748D01*
X33216Y-59809D01*
X33098Y-59827D01*
X33032Y-59821D01*
X32992Y-59803D01*
X32938Y-59754D01*
X32910Y-59694D01*
X32908Y-59621D01*
X32920Y-59579D01*
X32957Y-59525D01*
X33047Y-59446D01*
X33176Y-59386D01*
X33294Y-59368D01*
X33360Y-59374D01*
X33400Y-59392D01*
X33454Y-59440D01*
X33187Y-60153D02*
X33176Y-60195D01*
X33136Y-60177D01*
X33147Y-60135D01*
X33187Y-60153D01*
X33136Y-60177D01*
X33472Y-60020D02*
X33460Y-60063D01*
X33420Y-60044D01*
X33432Y-60002D01*
X33472Y-60020D01*
X33420Y-60044D01*
X33431Y-60812D02*
X33262Y-60449D01*
X33347Y-60630D02*
X33891Y-60377D01*
X33785Y-60353D01*
X33705Y-60316D01*
X33651Y-60268D01*
X34158Y-60951D02*
X34187Y-61011D01*
X34189Y-61084D01*
X34177Y-61126D01*
X34139Y-61180D01*
X34050Y-61259D01*
X33920Y-61319D01*
X33803Y-61337D01*
X33737Y-61331D01*
X33697Y-61313D01*
X33643Y-61265D01*
X33615Y-61204D01*
X33612Y-61132D01*
X33624Y-61090D01*
X33662Y-61035D01*
X33751Y-60957D01*
X33881Y-60896D01*
X33998Y-60878D01*
X34064Y-60884D01*
X34104Y-60902D01*
X34158Y-60951D01*
X25449Y-61372D02*
X25465Y-61474D01*
X25536Y-61625D01*
X25590Y-61674D01*
X25630Y-61692D01*
X25696Y-61698D01*
X25747Y-61674D01*
X25785Y-61619D01*
X25797Y-61577D01*
X25795Y-61505D01*
X25764Y-61372D01*
X25762Y-61299D01*
X25774Y-61257D01*
X25811Y-61202D01*
X25863Y-61178D01*
X25929Y-61184D01*
X25969Y-61203D01*
X26023Y-61251D01*
X26094Y-61402D01*
X26110Y-61505D01*
X26234Y-61704D02*
X25761Y-62109D01*
X26206Y-62048D01*
X25874Y-62350D01*
X26488Y-62248D01*
X26657Y-62610D02*
X26685Y-62671D01*
X26687Y-62743D01*
X26676Y-62786D01*
X26638Y-62840D01*
X26548Y-62918D01*
X26419Y-62979D01*
X26301Y-62997D01*
X26235Y-62991D01*
X26195Y-62973D01*
X26141Y-62924D01*
X26113Y-62864D01*
X26111Y-62791D01*
X26123Y-62749D01*
X26160Y-62695D01*
X26250Y-62616D01*
X26379Y-62556D01*
X26497Y-62538D01*
X26563Y-62544D01*
X26603Y-62562D01*
X26657Y-62610D01*
X26390Y-63323D02*
X26379Y-63365D01*
X26339Y-63347D01*
X26350Y-63305D01*
X26390Y-63323D01*
X26339Y-63347D01*
X26675Y-63190D02*
X26663Y-63233D01*
X26623Y-63214D01*
X26635Y-63172D01*
X26675Y-63190D01*
X26623Y-63214D01*
X26634Y-63982D02*
X26465Y-63619D01*
X26550Y-63800D02*
X27094Y-63547D01*
X26988Y-63523D01*
X26908Y-63486D01*
X26854Y-63438D01*
X26916Y-64586D02*
X26747Y-64223D01*
X26832Y-64405D02*
X27375Y-64151D01*
X27270Y-64127D01*
X27190Y-64091D01*
X27136Y-64042D01*
X56733Y-34143D02*
X56833Y-34171D01*
X57000Y-34171D01*
X57066Y-34143D01*
X57100Y-34114D01*
X57133Y-34057D01*
X57133Y-34000D01*
X57100Y-33943D01*
X57066Y-33914D01*
X57000Y-33886D01*
X56866Y-33857D01*
X56800Y-33829D01*
X56766Y-33800D01*
X56733Y-33743D01*
X56733Y-33686D01*
X56766Y-33629D01*
X56800Y-33600D01*
X56866Y-33571D01*
X57033Y-33571D01*
X57133Y-33600D01*
X57366Y-33571D02*
X57533Y-34171D01*
X57666Y-33743D01*
X57800Y-34171D01*
X57966Y-33571D01*
X58533Y-33771D02*
X58533Y-34171D01*
X58366Y-33543D02*
X58200Y-33971D01*
X58633Y-33971D01*
X58900Y-34114D02*
X58933Y-34143D01*
X58900Y-34171D01*
X58866Y-34143D01*
X58900Y-34114D01*
X58900Y-34171D01*
X58900Y-33800D02*
X58933Y-33829D01*
X58900Y-33857D01*
X58866Y-33829D01*
X58900Y-33800D01*
X58900Y-33857D01*
X59600Y-34171D02*
X59200Y-34171D01*
X59400Y-34171D02*
X59400Y-33571D01*
X59333Y-33657D01*
X59266Y-33714D01*
X59200Y-33743D01*
X60266Y-34171D02*
X59866Y-34171D01*
X60066Y-34171D02*
X60066Y-33571D01*
X60000Y-33657D01*
X59933Y-33714D01*
X59866Y-33743D01*
X34566Y-27144D02*
X34666Y-27172D01*
X34833Y-27172D01*
X34900Y-27144D01*
X34933Y-27115D01*
X34966Y-27058D01*
X34966Y-27001D01*
X34933Y-26944D01*
X34900Y-26915D01*
X34833Y-26887D01*
X34700Y-26858D01*
X34633Y-26830D01*
X34600Y-26801D01*
X34566Y-26744D01*
X34566Y-26687D01*
X34600Y-26630D01*
X34633Y-26601D01*
X34700Y-26572D01*
X34866Y-26572D01*
X34966Y-26601D01*
X35200Y-26572D02*
X35366Y-27172D01*
X35500Y-26744D01*
X35633Y-27172D01*
X35800Y-26572D01*
X36400Y-26572D02*
X36066Y-26572D01*
X36033Y-26858D01*
X36066Y-26830D01*
X36133Y-26801D01*
X36300Y-26801D01*
X36366Y-26830D01*
X36400Y-26858D01*
X36433Y-26915D01*
X36433Y-27058D01*
X36400Y-27115D01*
X36366Y-27144D01*
X36300Y-27172D01*
X36133Y-27172D01*
X36066Y-27144D01*
X36033Y-27115D01*
X36733Y-27115D02*
X36766Y-27144D01*
X36733Y-27172D01*
X36700Y-27144D01*
X36733Y-27115D01*
X36733Y-27172D01*
X36733Y-26801D02*
X36766Y-26830D01*
X36733Y-26858D01*
X36700Y-26830D01*
X36733Y-26801D01*
X36733Y-26858D01*
X37166Y-26830D02*
X37100Y-26801D01*
X37066Y-26772D01*
X37033Y-26715D01*
X37033Y-26687D01*
X37066Y-26630D01*
X37100Y-26601D01*
X37166Y-26572D01*
X37300Y-26572D01*
X37366Y-26601D01*
X37400Y-26630D01*
X37433Y-26687D01*
X37433Y-26715D01*
X37400Y-26772D01*
X37366Y-26801D01*
X37300Y-26830D01*
X37166Y-26830D01*
X37100Y-26858D01*
X37066Y-26887D01*
X37033Y-26944D01*
X37033Y-27058D01*
X37066Y-27115D01*
X37100Y-27144D01*
X37166Y-27172D01*
X37300Y-27172D01*
X37366Y-27144D01*
X37400Y-27115D01*
X37433Y-27058D01*
X37433Y-26944D01*
X37400Y-26887D01*
X37366Y-26858D01*
X37300Y-26830D01*
X73608Y-27894D02*
X73708Y-27922D01*
X73875Y-27922D01*
X73941Y-27894D01*
X73975Y-27865D01*
X74008Y-27808D01*
X74008Y-27751D01*
X73975Y-27694D01*
X73941Y-27665D01*
X73875Y-27637D01*
X73741Y-27608D01*
X73675Y-27580D01*
X73641Y-27551D01*
X73608Y-27494D01*
X73608Y-27437D01*
X73641Y-27380D01*
X73675Y-27351D01*
X73741Y-27322D01*
X73908Y-27322D01*
X74008Y-27351D01*
X74241Y-27322D02*
X74408Y-27922D01*
X74541Y-27494D01*
X74675Y-27922D01*
X74841Y-27322D01*
X75441Y-27322D02*
X75108Y-27322D01*
X75075Y-27608D01*
X75108Y-27580D01*
X75175Y-27551D01*
X75341Y-27551D01*
X75408Y-27580D01*
X75441Y-27608D01*
X75475Y-27665D01*
X75475Y-27808D01*
X75441Y-27865D01*
X75408Y-27894D01*
X75341Y-27922D01*
X75175Y-27922D01*
X75108Y-27894D01*
X75075Y-27865D01*
X75775Y-27865D02*
X75808Y-27894D01*
X75775Y-27922D01*
X75741Y-27894D01*
X75775Y-27865D01*
X75775Y-27922D01*
X75775Y-27551D02*
X75808Y-27580D01*
X75775Y-27608D01*
X75741Y-27580D01*
X75775Y-27551D01*
X75775Y-27608D01*
X76475Y-27922D02*
X76075Y-27922D01*
X76275Y-27922D02*
X76275Y-27322D01*
X76208Y-27408D01*
X76141Y-27465D01*
X76075Y-27494D01*
X76708Y-27322D02*
X77141Y-27322D01*
X76908Y-27551D01*
X77008Y-27551D01*
X77075Y-27580D01*
X77108Y-27608D01*
X77141Y-27665D01*
X77141Y-27808D01*
X77108Y-27865D01*
X77075Y-27894D01*
X77008Y-27922D01*
X76808Y-27922D01*
X76741Y-27894D01*
X76708Y-27865D01*
X73608Y-35393D02*
X73708Y-35421D01*
X73875Y-35421D01*
X73941Y-35393D01*
X73975Y-35364D01*
X74008Y-35307D01*
X74008Y-35250D01*
X73975Y-35193D01*
X73941Y-35164D01*
X73875Y-35136D01*
X73741Y-35107D01*
X73675Y-35079D01*
X73641Y-35050D01*
X73608Y-34993D01*
X73608Y-34936D01*
X73641Y-34879D01*
X73675Y-34850D01*
X73741Y-34821D01*
X73908Y-34821D01*
X74008Y-34850D01*
X74241Y-34821D02*
X74408Y-35421D01*
X74541Y-34993D01*
X74675Y-35421D01*
X74841Y-34821D01*
X75408Y-35021D02*
X75408Y-35421D01*
X75241Y-34793D02*
X75075Y-35221D01*
X75508Y-35221D01*
X75775Y-35364D02*
X75808Y-35393D01*
X75775Y-35421D01*
X75741Y-35393D01*
X75775Y-35364D01*
X75775Y-35421D01*
X75775Y-35050D02*
X75808Y-35079D01*
X75775Y-35107D01*
X75741Y-35079D01*
X75775Y-35050D01*
X75775Y-35107D01*
X76475Y-35421D02*
X76075Y-35421D01*
X76275Y-35421D02*
X76275Y-34821D01*
X76208Y-34907D01*
X76141Y-34964D01*
X76075Y-34993D01*
X76708Y-34821D02*
X77141Y-34821D01*
X76908Y-35050D01*
X77008Y-35050D01*
X77075Y-35079D01*
X77108Y-35107D01*
X77141Y-35164D01*
X77141Y-35307D01*
X77108Y-35364D01*
X77075Y-35393D01*
X77008Y-35421D01*
X76808Y-35421D01*
X76741Y-35393D01*
X76708Y-35364D01*
X73608Y-42893D02*
X73708Y-42921D01*
X73875Y-42921D01*
X73941Y-42893D01*
X73975Y-42864D01*
X74008Y-42807D01*
X74008Y-42750D01*
X73975Y-42693D01*
X73941Y-42664D01*
X73875Y-42636D01*
X73741Y-42607D01*
X73675Y-42579D01*
X73641Y-42550D01*
X73608Y-42493D01*
X73608Y-42436D01*
X73641Y-42379D01*
X73675Y-42350D01*
X73741Y-42321D01*
X73908Y-42321D01*
X74008Y-42350D01*
X74241Y-42321D02*
X74408Y-42921D01*
X74541Y-42493D01*
X74675Y-42921D01*
X74841Y-42321D01*
X75041Y-42321D02*
X75475Y-42321D01*
X75241Y-42550D01*
X75341Y-42550D01*
X75408Y-42579D01*
X75441Y-42607D01*
X75475Y-42664D01*
X75475Y-42807D01*
X75441Y-42864D01*
X75408Y-42893D01*
X75341Y-42921D01*
X75141Y-42921D01*
X75075Y-42893D01*
X75041Y-42864D01*
X75775Y-42864D02*
X75808Y-42893D01*
X75775Y-42921D01*
X75741Y-42893D01*
X75775Y-42864D01*
X75775Y-42921D01*
X75775Y-42550D02*
X75808Y-42579D01*
X75775Y-42607D01*
X75741Y-42579D01*
X75775Y-42550D01*
X75775Y-42607D01*
X76475Y-42921D02*
X76075Y-42921D01*
X76275Y-42921D02*
X76275Y-42321D01*
X76208Y-42407D01*
X76141Y-42464D01*
X76075Y-42493D01*
X76708Y-42321D02*
X77141Y-42321D01*
X76908Y-42550D01*
X77008Y-42550D01*
X77075Y-42579D01*
X77108Y-42607D01*
X77141Y-42664D01*
X77141Y-42807D01*
X77108Y-42864D01*
X77075Y-42893D01*
X77008Y-42921D01*
X76808Y-42921D01*
X76741Y-42893D01*
X76708Y-42864D01*
X73608Y-50393D02*
X73708Y-50421D01*
X73875Y-50421D01*
X73941Y-50393D01*
X73975Y-50364D01*
X74008Y-50307D01*
X74008Y-50250D01*
X73975Y-50193D01*
X73941Y-50164D01*
X73875Y-50136D01*
X73741Y-50107D01*
X73675Y-50079D01*
X73641Y-50050D01*
X73608Y-49993D01*
X73608Y-49936D01*
X73641Y-49879D01*
X73675Y-49850D01*
X73741Y-49821D01*
X73908Y-49821D01*
X74008Y-49850D01*
X74241Y-49821D02*
X74408Y-50421D01*
X74541Y-49993D01*
X74675Y-50421D01*
X74841Y-49821D01*
X75075Y-49879D02*
X75108Y-49850D01*
X75175Y-49821D01*
X75341Y-49821D01*
X75408Y-49850D01*
X75441Y-49879D01*
X75475Y-49936D01*
X75475Y-49993D01*
X75441Y-50079D01*
X75041Y-50421D01*
X75475Y-50421D01*
X75775Y-50364D02*
X75808Y-50393D01*
X75775Y-50421D01*
X75741Y-50393D01*
X75775Y-50364D01*
X75775Y-50421D01*
X75775Y-50050D02*
X75808Y-50079D01*
X75775Y-50107D01*
X75741Y-50079D01*
X75775Y-50050D01*
X75775Y-50107D01*
X76475Y-50421D02*
X76075Y-50421D01*
X76275Y-50421D02*
X76275Y-49821D01*
X76208Y-49907D01*
X76141Y-49964D01*
X76075Y-49993D01*
X76708Y-49821D02*
X77141Y-49821D01*
X76908Y-50050D01*
X77008Y-50050D01*
X77075Y-50079D01*
X77108Y-50107D01*
X77141Y-50164D01*
X77141Y-50307D01*
X77108Y-50364D01*
X77075Y-50393D01*
X77008Y-50421D01*
X76808Y-50421D01*
X76741Y-50393D01*
X76708Y-50364D01*
M02*
