G04 (created by PCBNEW (2013-01-02 BZR 3881)-testing) date Fri 08 Feb 2013 10:16:01 AM CET*
%MOIN*%
G04 Gerber Fmt 3.4, Leading zero omitted, Abs format*
%FSLAX34Y34*%
G01*
G70*
G90*
G04 APERTURE LIST*
%ADD10C,0.006*%
%ADD11C,0.015*%
G04 APERTURE END LIST*
G54D10*
G54D11*
X50060Y-60200D02*
X77320Y-60200D01*
X77320Y-60200D02*
X81070Y-56450D01*
X81070Y-56450D02*
X81070Y-13950D01*
X81070Y-13950D02*
X79820Y-12700D01*
X79820Y-12700D02*
X56460Y-12700D01*
X56460Y-12700D02*
X56460Y-12000D01*
X56460Y-12000D02*
X51930Y-12000D01*
X51930Y-12000D02*
X51930Y-12700D01*
X51930Y-12700D02*
X37420Y-12700D01*
X37420Y-12700D02*
X37420Y-12000D01*
X37420Y-12000D02*
X34925Y-12000D01*
X34925Y-12000D02*
X34925Y-12500D01*
X34925Y-12500D02*
X33155Y-12500D01*
X33155Y-12500D02*
X33155Y-12000D01*
X33155Y-12000D02*
X30660Y-12000D01*
X30660Y-12000D02*
X30660Y-12700D01*
X30660Y-12700D02*
X25910Y-12700D01*
X25910Y-12700D02*
X24650Y-13950D01*
X24650Y-13950D02*
X24650Y-47900D01*
X24650Y-47900D02*
X22720Y-47900D01*
X22720Y-47900D02*
X9692Y-53975D01*
X9692Y-53975D02*
X9087Y-55636D01*
X9087Y-55636D02*
X17624Y-73944D01*
X17624Y-73944D02*
X19285Y-74548D01*
X19285Y-74548D02*
X50060Y-60200D01*
M02*
