  0
SECTION
  2
HEADER
  9
$ACADVER
  1
AC1015
  9
$ACADMAINTVER
 70
               6
  9
$DWGCODEPAGE
  3
ANSI_932
  9
$INSBASE
 10
0.0
 20
0.0
 30
0.0
  9
$EXTMIN
 10
11.551279138286077
 20
5.7104072707464297
 30
0.0
  9
$EXTMAX
 10
223.73207329988227
 20
182.54700850918508
 30
0.0
  9
$LIMMIN
 10
0.0
 20
0.0
  9
$LIMMAX
 10
0.0
 20
0.0
  9
$ORTHOMODE
 70
               0
  9
$REGENMODE
 70
               1
  9
$FILLMODE
 70
               1
  9
$QTEXTMODE
 70
               0
  9
$MIRRTEXT
 70
               1
  9
$LTSCALE
 40
5.0800000000000001
  9
$ATTMODE
 70
               1
  9
$TEXTSIZE
 40
0.2
  9
$TRACEWID
 40
1.0
  9
$TEXTSTYLE
  7
Standard
  9
$CLAYER
  8
0
  9
$CELTYPE
  6
Continuous
  9
$CECOLOR
 62
             256
  9
$CELTSCALE
 40
1.0
  9
$DISPSILH
 70
               0
  9
$DIMSCALE
 40
1.0
  9
$DIMASZ
 40
0.18
  9
$DIMEXO
 40
0.0625
  9
$DIMDLI
 40
0.38
  9
$DIMRND
 40
0.0
  9
$DIMDLE
 40
0.0
  9
$DIMEXE
 40
0.18
  9
$DIMTP
 40
0.0
  9
$DIMTM
 40
0.0
  9
$DIMTXT
 40
0.18
  9
$DIMCEN
 40
0.09
  9
$DIMTSZ
 40
0.0
  9
$DIMTOL
 70
               0
  9
$DIMLIM
 70
               0
  9
$DIMTIH
 70
               1
  9
$DIMTOH
 70
               1
  9
$DIMSE1
 70
               0
  9
$DIMSE2
 70
               0
  9
$DIMTAD
 70
               0
  9
$DIMZIN
 70
               0
  9
$DIMBLK
  1

  9
$DIMASO
 70
               1
  9
$DIMSHO
 70
               1
  9
$DIMPOST
  1

  9
$DIMAPOST
  1

  9
$DIMALT
 70
               0
  9
$DIMALTD
 70
               2
  9
$DIMALTF
 40
25.399999999999999
  9
$DIMLFAC
 40
1.0
  9
$DIMTOFL
 70
               0
  9
$DIMTVP
 40
0.0
  9
$DIMTIX
 70
               0
  9
$DIMSOXD
 70
               0
  9
$DIMSAH
 70
               0
  9
$DIMBLK1
  1

  9
$DIMBLK2
  1

  9
$DIMSTYLE
  2
Standard
  9
$DIMCLRD
 70
               0
  9
$DIMCLRE
 70
               0
  9
$DIMCLRT
 70
               0
  9
$DIMTFAC
 40
1.0
  9
$DIMGAP
 40
0.09
  9
$DIMJUST
 70
               0
  9
$DIMSD1
 70
               0
  9
$DIMSD2
 70
               0
  9
$DIMTOLJ
 70
               1
  9
$DIMTZIN
 70
               0
  9
$DIMALTZ
 70
               0
  9
$DIMALTTZ
 70
               0
  9
$DIMUPT
 70
               0
  9
$DIMDEC
 70
               4
  9
$DIMTDEC
 70
               4
  9
$DIMALTU
 70
               2
  9
$DIMALTTD
 70
               2
  9
$DIMTXSTY
  7
Standard
  9
$DIMAUNIT
 70
               0
  9
$DIMADEC
 70
               0
  9
$DIMALTRND
 40
0.0
  9
$DIMAZIN
 70
               0
  9
$DIMDSEP
 70
               0
  9
$DIMATFIT
 70
               3
  9
$DIMFRAC
 70
               0
  9
$DIMLDRBLK
  1

  9
$DIMLUNIT
 70
               2
  9
$DIMLWD
 70
               0
  9
$DIMLWE
 70
               0
  9
$DIMTMOVE
 70
               0
  9
$LUNITS
 70
               2
  9
$LUPREC
 70
               4
  9
$SKETCHINC
 40
0.1
  9
$FILLETRAD
 40
0.0
  9
$AUNITS
 70
               0
  9
$AUPREC
 70
               0
  9
$MENU
  1
acad
  9
$ELEVATION
 40
0.0
  9
$PELEVATION
 40
0.0
  9
$THICKNESS
 40
0.0
  9
$LIMCHECK
 70
               0
  9
$CHAMFERA
 40
0.0
  9
$CHAMFERB
 40
0.0
  9
$CHAMFERC
 40
0.0
  9
$CHAMFERD
 40
0.0
  9
$SKPOLY
 70
               0
  9
$TDCREATE
 40
2457576.940173611
  9
$TDUCREATE
 40
0.000000000
  9
$TDUPDATE
 40
2457576.940173611
  9
$TDUUPDATE
 40
0.000000000
  9
$TDINDWG
 40
0.0000000000
  9
$TDUSRTIMER
 40
0.0000000000
  9
$USRTIMER
 70
               1
  9
$ANGBASE
 50
0.0
  9
$ANGDIR
 70
               0
  9
$PDMODE
 70
               1
  9
$PDSIZE
 40
-2.0
  9
$PLINEWID
 40
0.0
  9
$SPLFRAME
 70
               0
  9
$SPLINETYPE
 70
               6
  9
$SPLINESEGS
 70
               8
  9
$HANDSEED
  5
7D
  9
$SURFTAB1
 70
               6
  9
$SURFTAB2
 70
               6
  9
$SURFTYPE
 70
               6
  9
$SURFU
 70
               6
  9
$SURFV
 70
               6
  9
$UCSBASE
  2

  9
$UCSNAME
  2

  9
$UCSORG
 10
0.0
 20
0.0
 30
0.0
  9
$UCSXDIR
 10
1.0
 20
0.0
 30
0.0
  9
$UCSYDIR
 10
0.0
 20
1.0
 30
0.0
  9
$UCSORTHOREF
  2

  9
$UCSORTHOVIEW
 70
               0
  9
$UCSORGTOP
 10
0.0
 20
0.0
 30
0.0
  9
$UCSORGBOTTOM
 10
0.0
 20
0.0
 30
0.0
  9
$UCSORGLEFT
 10
0.0
 20
0.0
 30
0.0
  9
$UCSORGRIGHT
 10
0.0
 20
0.0
 30
0.0
  9
$UCSORGFRONT
 10
0.0
 20
0.0
 30
0.0
  9
$UCSORGBACK
 10
0.0
 20
0.0
 30
0.0
  9
$PUCSBASE
  2

  9
$PUCSNAME
  2

  9
$PUCSORG
 10
0.0
 20
0.0
 30
0.0
  9
$PUCSXDIR
 10
1.0
 20
0.0
 30
0.0
  9
$PUCSYDIR
 10
0.0
 20
1.0
 30
0.0
  9
$PUCSORTHOREF
  2

  9
$PUCSORTHOVIEW
 70
               0
  9
$PUCSORGTOP
 10
0.0
 20
0.0
 30
0.0
  9
$PUCSORGBOTTOM
 10
0.0
 20
0.0
 30
0.0
  9
$PUCSORGLEFT
 10
0.0
 20
0.0
 30
0.0
  9
$PUCSORGRIGHT
 10
0.0
 20
0.0
 30
0.0
  9
$PUCSORGFRONT
 10
0.0
 20
0.0
 30
0.0
  9
$PUCSORGBACK
 10
0.0
 20
0.0
 30
0.0
  9
$USERI1
 70
               0
  9
$USERI2
 70
               0
  9
$USERI3
 70
               0
  9
$USERI4
 70
               0
  9
$USERI5
 70
               0
  9
$USERR1
 40
0.0
  9
$USERR2
 40
0.0
  9
$USERR3
 40
0.0
  9
$USERR4
 40
0.0
  9
$USERR5
 40
0.0
  9
$WORLDVIEW
 70
               1
  9
$SHADEDGE
 70
               3
  9
$SHADEDIF
 70
              70
  9
$TILEMODE
 70
               1
  9
$MAXACTVP
 70
              64
  9
$PINSBASE
 10
0.0
 20
0.0
 30
0.0
  9
$PLIMCHECK
 70
               0
  9
$PEXTMIN
 10
1.0000000000000000E+20
 20
1.0000000000000000E+20
 30
1.0000000000000000E+20
  9
$PEXTMAX
 10
-1.0000000000000000E+20
 20
-1.0000000000000000E+20
 30
-1.0000000000000000E+20
  9
$PLIMMIN
 10
0.0
 20
0.0
  9
$PLIMMAX
 10
12.0
 20
9.0
  9
$UNITMODE
 70
               0
  9
$VISRETAIN
 70
               0
  9
$PLINEGEN
 70
               1
  9
$PSLTSCALE
 70
               0
  9
$TREEDEPTH
 70
            3020
  9
$CMLSTYLE
  2
Standard
  9
$CMLJUST
 70
               0
  9
$CMLSCALE
 40
1.0
  9
$PROXYGRAPHICS
 70
               0
  9
$MEASUREMENT
 70
               1
  9
$CELWEIGHT
370
               0
  9
$ENDCAPS
280
               0
  9
$JOINSTYLE
280
               0
  9
$LWDISPLAY
290
               1
  9
$INSUNITS
 70
               4
  9
$HYPERLINKBASE
  1

  9
$STYLESHEET
  1

  9
$XEDIT
290
               1
  9
$CEPSNTYPE
380
               0
  9
$PSTYLEMODE
290
               1
  9
$FINGERPRINTGUID
  2

  9
$VERSIONGUID
  2

  9
$EXTNAMES
290
               1
  9
$PSVPSCALE
 40
0.0
  0
ENDSEC
  0
SECTION
  2
CLASSES
  0
CLASS
  1
LWPOLYLINE
  2
AcDbPolyline
  3
AutoCAD 2000
 90
    32768
280
               0
281
               1
  0
CLASS
  1
IMAGE
  2
AcDbRasterImage
  3
ISM
 90
    32895
280
               0
281
               1
  0
CLASS
  1
OLE2FRAME
  2
AcDbOle2Frame
  3
AutoCAD 2000
 90
    32768
280
               0
281
               1
  0
CLASS
  1
HATCH
  2
AcDbHatch
  3
AutoCAD 2000
 90
    32768
280
               0
281
               1
  0
CLASS
  1
DICTIONARYVAR
  2
AcDbDictionaryVar
  3
AutoCAD 2000
 90
    32768
280
               0
281
               0
  0
CLASS
  1
RASTERVARIABLES
  2
AcDbRasterVariables
  3
ISM
 90
    32768
280
               0
281
               0
  0
CLASS
  1
IMAGEDEF
  2
AcDbRasterImageDef
  3
ISM
 90
    32768
280
               0
281
               0
  0
CLASS
  1
IMAGEDEF_REACTOR
  2
AcDbRasterImageDefReactor
  3
ISM
 90
    32769
280
               0
281
               0
  0
CLASS
  1
IDBUFFER
  2
AcDbIdBuffer
  3
AutoCAD 2000
 90
    32768
280
               0
281
               0
  0
CLASS
  1
SPATIAL_FILTER
  2
AcDbSpatialFilter
  3
AutoCAD 2000
 90
    32768
280
               0
281
               0
  0
CLASS
  1
XRECORD
  2
AcDbXrecord
  3
AutoCAD 2000
 90
    32768
280
               0
281
               0
  0
CLASS
  1
SORTENTSTABLE
  2
AcDbSortentsTable
  3
AutoCAD 2000
 90
    32768
280
               0
281
               0
  0
CLASS
  1
LAYER_INDEX
  2
AcDbLayerIndex
  3
AutoCAD 2000
 90
    32768
280
               0
281
               0
  0
CLASS
  1
SPATIAL_INDEX
  2
AcDbSpatialIndex
  3
AutoCAD 2000
 90
    32768
280
               0
281
               0
  0
CLASS
  1
OBJECT_PTR
  2
CAseDLPNTableRecord
  3
"ASE-LPNTableRecord"
 90
    32769
280
               0
281
               0
  0
CLASS
  1
LAYOUT
  2
AcDbLayout
  3
AutoCAD 2000
 90
        0
280
               0
281
               0
  0
CLASS
  1
PLOTSETTINGS
  2
AcDbPlotSettings
  3
AutoCAD 2000
 90
    32768
280
               0
281
               0
  0
CLASS
  1
ACDBDICTIONARYWDFLT
  2
AcDbDictionaryWithDefault
  3
AutoCAD 2000
 90
        0
280
               0
281
               0
  0
CLASS
  1
ACDBPLACEHOLDER
  2
AcDbPlaceHolder
  3
AutoCAD 2000
 90
        0
280
               0
281
               0
  0
CLASS
  1
VBA_PROJECT
  2
AcDbVbaProject
  3
acadvba
 90
    32768
280
               0
281
               0
  0
CLASS
  1
WIPEOUT
  2
AcDbWipeout
  3
WipeOut|AutoCAD Express Tool|expresstools@autodesk.com
 90
    32895
280
               0
281
               1
  0
CLASS
  1
WIPEOUTVARIABLES
  2
AcDbWipeoutVariables
  3
WipeOut|AutoCAD Express Tool|expresstools@autodesk.com
 90
        0
280
               0
281
               0
  0
CLASS
  1
RTEXT
  2
RText
  3
RText|AutoCAD Express Tool|expresstools@autodesk.com
 90
    32768
280
               0
281
               1
  0
CLASS
  1
ARCALIGNEDTEXT
  2
AcDbArcAlignedText
  3
ATEXT|AutoCAD Express Tool|expresstools@autodesk.com
 90
    32768
280
               0
281
               1
  0
ENDSEC
  0
SECTION
  2
TABLES
  0
TABLE
  2
VPORT
  5
7
100
AcDbSymbolTable
 70
               1
  0
VPORT
  5
15
100
AcDbSymbolTableRecord
100
AcDbViewportTableRecord
  2
*ACTIVE
 70
               0
 10
0.0
 20
0.0
 11
1.0
 21
1.0
 12
117.64167621908418
 22
94.128707889965753
 13
0.0
 23
0.0
 14
1.0
 24
1.0
 15
0.0
 25
0.0
 16
0.0
 26
0.0
 36
1.0
 17
0.0
 27
0.0
 37
0.0
 40
176.83660123843865
 41
0.688564
 42
50.0
 43
0.0
 44
0.0
 50
0.0
 51
0.0
 71
               0
 72
            2000
 73
               1
 74
               1
 75
               0
 76
               0
 77
               0
 78
               0
281
               0
 65
               0
110
0.0
120
0.0
130
0.0
111
1.0
121
0.0
131
0.0
112
0.0
122
1.0
132
0.0
345
0
346
0
 79
               0
146
0.0
  0
ENDTAB
  0
TABLE
  2
LTYPE
  5
4
100
AcDbSymbolTable
 70
              13
  0
LTYPE
  5
11
100
AcDbSymbolTableRecord
100
AcDbLinetypeTableRecord
  2
ByBlock
 70
              64
  3

 72
              65
 73
               0
 40
0.0
  0
LTYPE
  5
12
100
AcDbSymbolTableRecord
100
AcDbLinetypeTableRecord
  2
ByLayer
 70
              64
  3

 72
              65
 73
               0
 40
0.0
  0
LTYPE
  5
13
100
AcDbSymbolTableRecord
100
AcDbLinetypeTableRecord
  2
Continuous
 70
              64
  3
Solid line
 72
              65
 73
               0
 40
0.0
  0
LTYPE
  5
24
100
AcDbSymbolTableRecord
100
AcDbLinetypeTableRecord
  2
STYLE_01
 70
               0
  3

 72
              65
 73
               2
 40
0.41664
 49
0.20828
 74
               0
 49
-0.20836
 74
               0
  0
LTYPE
  5
25
100
AcDbSymbolTableRecord
100
AcDbLinetypeTableRecord
  2
STYLE_02
 70
               0
  3

 72
              65
 73
               2
 40
0.6944250000000001
 49
0.48607
 74
               0
 49
-0.2083550000000001
 74
               0
  0
LTYPE
  5
26
100
AcDbSymbolTableRecord
100
AcDbLinetypeTableRecord
  2
STYLE_03
 70
               0
  3

 72
              65
 73
               2
 40
1.25
 49
1.0416400000000001
 74
               0
 49
-0.2083599999999999
 74
               0
  0
LTYPE
  5
27
100
AcDbSymbolTableRecord
100
AcDbLinetypeTableRecord
  2
STYLE_04
 70
               0
  3

 72
              65
 73
               2
 40
1.5277099999999999
 49
1.3194249999999998
 74
               0
 49
-0.208285
 74
               0
  0
LTYPE
  5
28
100
AcDbSymbolTableRecord
100
AcDbLinetypeTableRecord
  2
STYLE_05
 70
               0
  3

 72
              65
 73
               2
 40
0.20828
 49
0.069425
 74
               0
 49
-0.138855
 74
               0
  0
LTYPE
  5
29
100
AcDbSymbolTableRecord
100
AcDbLinetypeTableRecord
  2
STYLE_06
 70
               0
  3

 72
              65
 73
               4
 40
1.0416400000000001
 49
0.625
 74
               0
 49
-0.20828
 74
               0
 49
0.06943
 74
               0
 49
-0.13893
 74
               0
  0
LTYPE
  5
2A
100
AcDbSymbolTableRecord
100
AcDbLinetypeTableRecord
  2
STYLE_07
 70
               0
  3

 72
              65
 73
               6
 40
1.875
 49
0.625
 74
               0
 49
-0.20828
 74
               0
 49
0.6250000000000001
 74
               0
 49
-0.2083599999999999
 74
               0
 49
0.06943
 74
               0
 49
-0.1389299999999999
 74
               0
  0
LTYPE
  5
2B
100
AcDbSymbolTableRecord
100
AcDbLinetypeTableRecord
  2
STYLE_08
 70
               0
  3

 72
              65
 73
               6
 40
1.25
 49
0.625
 74
               0
 49
-0.20828
 74
               0
 49
0.06943
 74
               0
 49
-0.13893
 74
               0
 49
0.0694299999999999
 74
               0
 49
-0.13893
 74
               0
  0
LTYPE
  5
2C
100
AcDbSymbolTableRecord
100
AcDbLinetypeTableRecord
  2
STYLE_09
 70
               0
  3

 72
              65
 73
               4
 40
5.0
 49
3.75
 74
               0
 49
-0.2777849999999998
 74
               0
 49
0.6944300000000003
 74
               0
 49
-0.2777849999999998
 74
               0
  0
LTYPE
  5
2D
100
AcDbSymbolTableRecord
100
AcDbLinetypeTableRecord
  2
STYLE_10
 70
               0
  3

 72
              65
 73
               6
 40
5.9375
 49
3.75
 74
               0
 49
-0.2777849999999998
 74
               0
 49
0.6944300000000003
 74
               0
 49
-0.2777849999999998
 74
               0
 49
0.625
 74
               0
 49
-0.3125
 74
               0
  0
ENDTAB
  0
TABLE
  2
LAYER
  5
2
100
AcDbSymbolTable
 70
               5
  0
LAYER
  5
14
100
AcDbSymbolTableRecord
100
AcDbLayerTableRecord
  2
0
 70
               0
 62
             255
  6
Continuous
290
               1
370
              25
390
1D
  0
LAYER
  5
2E
100
AcDbSymbolTableRecord
100
AcDbLayerTableRecord
  2
àÍî 
 70
               0
 62
               7
  6
Continuous
290
               1
370
               5
390
1D
  0
LAYER
  5
2F
100
AcDbSymbolTableRecord
100
AcDbLayerTableRecord
  2
ê°ñ@
 70
               0
 62
               7
  6
Continuous
290
               1
370
               5
390
1D
  0
LAYER
  5
30
100
AcDbSymbolTableRecord
100
AcDbLayerTableRecord
  2
WHITE
 70
               0
 62
              16
  6
Continuous
290
               1
370
              15
390
1D
  0
LAYER
  5
31
100
AcDbSymbolTableRecord
100
AcDbLayerTableRecord
  2
BLACK
 70
               0
 62
               1
  6
Continuous
290
               1
370
              15
390
1D
  0
ENDTAB
  0
TABLE
  2
STYLE
  5
3
100
AcDbSymbolTable
 70
               1
  0
STYLE
  5
17
100
AcDbSymbolTableRecord
100
AcDbTextStyleTableRecord
  2
Standard
 70
               0
 40
0.0
 41
1.0
 50
0.0
 71
               0
 42
0.0
  3
txt
  4
BIGFONT.SHX
  0
ENDTAB
  0
TABLE
  2
VIEW
  5
5
100
AcDbSymbolTable
 70
               0
  0
ENDTAB
  0
TABLE
  2
UCS
  5
6
100
AcDbSymbolTable
 70
               0
  0
ENDTAB
  0
TABLE
  2
APPID
  5
8
100
AcDbSymbolTable
 70
               1
  0
APPID
  5
16
100
AcDbSymbolTableRecord
100
AcDbRegAppTableRecord
  2
ACAD
 70
               0
  0
ENDTAB
  0
TABLE
  2
DIMSTYLE
  5
9
100
AcDbSymbolTable
 70
               1
100
AcDbDimStyleTable
 71
               0
  0
DIMSTYLE
105
18
100
AcDbSymbolTableRecord
100
AcDbDimStyleTableRecord
  2
Standard
 70
               0
  3

  4

 40
1.0
 41
0.18
 42
0.0625
 43
0.38
 44
0.18
 45
0.0
 46
0.0
 47
0.0
 48
0.0
 71
               0
 72
               0
 73
               1
 74
               1
 75
               0
 76
               0
 77
               0
 78
               0
 79
               0
140
0.18
141
0.09
142
0.0
143
25.399999999999999
144
1.0
145
0.0
146
1.0
147
0.09
148
0.0
170
               0
171
               2
172
               0
173
               0
174
               0
175
               0
176
               0
177
               0
178
               0
179
               0
271
               4
272
               4
273
               2
274
               2
275
               0
276
               0
277
               2
278
              46
279
               0
280
               0
281
               0
282
               0
283
               1
284
               0
285
               0
286
               0
288
               0
340
17
341
0
342
0
343
0
344
0
371
              -2
372
              -2
  0
ENDTAB
  0
TABLE
  2
BLOCK_RECORD
  5
1
100
AcDbSymbolTable
 70
               0
  0
BLOCK_RECORD
  5
A
100
AcDbSymbolTableRecord
100
AcDbBlockTableRecord
  2
*MODEL_SPACE
340
20
  0
BLOCK_RECORD
  5
B
100
AcDbSymbolTableRecord
100
AcDbBlockTableRecord
  2
*PAPER_SPACE
340
21
  0
ENDTAB
  0
ENDSEC
  0
SECTION
  2
BLOCKS
  0
BLOCK
  5
D
100
AcDbEntity
  8
0
100
AcDbBlockBegin
  2
*MODEL_SPACE
 70
               0
 10
0.0
 20
0.0
 30
0.0
  3
*MODEL_SPACE
  1

  0
ENDBLK
  5
E
100
AcDbEntity
  8
0
100
AcDbBlockEnd
  0
BLOCK
  5
F
100
AcDbEntity
 67
               1
  8
0
100
AcDbBlockBegin
  2
*PAPER_SPACE
 70
               0
 10
0.0
 20
0.0
 30
0.0
  3
*PAPER_SPACE
  1

  0
ENDBLK
  5
10
100
AcDbEntity
 67
               1
  8
0
100
AcDbBlockEnd
  0
ENDSEC
  0
SECTION
  2
ENTITIES
  0
ARC
  5
32
100
AcDbEntity
  8
0
370
               5
  6
Continuous
 62
               1
100
AcDbCircle
 10
189.2380791382862
 20
96.658310802081189
 30
0.0
 40
7.0
100
AcDbArc
 50
180.0
 51
245.0018728803382
  0
ARC
  5
33
100
AcDbEntity
  8
0
370
               5
  6
Continuous
 62
               1
100
AcDbCircle
 10
21.441279138286063
 20
147.67619989120328
 30
0.0
 40
1.0
100
AcDbArc
 50
90.0
 51
180.0
  0
ARC
  5
34
100
AcDbEntity
  8
0
370
               5
  6
Continuous
 62
               1
100
AcDbCircle
 10
21.441279138286063
 20
72.968199891203199
 30
0.0
 40
1.0
100
AcDbArc
 50
180.0
 51
270.0
  0
LINE
  5
35
100
AcDbEntity
  8
0
370
               5
  6
Continuous
 62
               1
100
AcDbLine
 10
223.07623749304139
 20
65.433382412033467
 30
0.0
 11
197.1118510872046
 21
9.7521002058468014
 31
0.0
  0
LINE
  5
36
100
AcDbEntity
  8
0
370
               5
  6
Continuous
 62
               1
100
AcDbLine
 10
187.80986813301149
 20
6.3660154025773323
 30
0.0
 11
108.24188990493109
 21
43.461400377360413
 31
0.0
  0
CIRCLE
  5
37
100
AcDbEntity
  8
0
370
               5
  6
Continuous
 62
               1
100
AcDbCircle
 10
122.48457913828608
 20
178.10200850918508
 30
0.0
 40
1.5
  0
LINE
  5
38
100
AcDbEntity
  8
0
370
               5
  6
Continuous
 62
               1
100
AcDbLine
 10
105.28407114389648
 20
44.117008509274562
 30
0.0
 11
18.551279138286617
 21
44.117008509186412
 31
0.0
  0
CIRCLE
  5
39
100
AcDbEntity
  8
0
370
               5
  6
Continuous
 62
               1
100
AcDbCircle
 10
175.96785287243898
 20
176.28313224333797
 30
0.0
 40
1.5
  0
ARC
  5
3A
100
AcDbEntity
  8
0
370
               5
  6
Continuous
 62
               1
100
AcDbCircle
 10
18.551279138286105
 20
175.54700850918488
 30
0.0
 40
7.0
100
AcDbArc
 50
90.0
 51
180.0
  0
ARC
  5
3B
100
AcDbEntity
  8
0
370
               5
  6
Continuous
 62
               1
100
AcDbCircle
 10
175.2380791382862
 20
175.54700850918508
 30
0.0
 40
7.0
100
AcDbArc
 50
0.0
 51
90.000000000002103
  0
ARC
  5
3C
100
AcDbEntity
  8
0
370
               5
  6
Continuous
 62
               1
100
AcDbCircle
 10
18.551279138286077
 20
51.117008509186412
 30
0.0
 40
7.0
100
AcDbArc
 50
180.0
 51
270.00000000000443
  0
ARC
  5
3D
100
AcDbEntity
  8
0
370
               5
  6
Continuous
 62
               1
100
AcDbCircle
 10
190.76768689404548
 20
12.71040727074643
 30
0.0
 40
7.0000000000000018
100
AcDbArc
 50
245.00459747358505
 51
335.00018755483688
  0
ARC
  5
3E
100
AcDbEntity
  8
0
370
               5
  6
Continuous
 62
               1
100
AcDbCircle
 10
216.73207329988227
 20
68.391689476933436
 30
0.0
 40
6.9999999999999947
100
AcDbArc
 50
335.00018755483688
 51
65.001872880338112
  0
CIRCLE
  5
3F
100
AcDbEntity
  8
0
370
               5
  6
Continuous
 62
               1
100
AcDbCircle
 10
217.70981386715087
 20
68.747493631627862
 30
0.0
 40
1.5
  0
ARC
  5
40
100
AcDbEntity
  8
0
370
               5
  6
Continuous
 62
               1
100
AcDbCircle
 10
105.28407114389708
 20
37.117008509192438
 30
0.0
 40
7.0000000000000018
100
AcDbArc
 50
65.004597473585065
 51
90.000000000004434
  0
CIRCLE
  5
41
100
AcDbEntity
  8
0
370
               5
  6
Continuous
 62
               1
100
AcDbCircle
 10
191.12337585319207
 20
11.731413706454617
 30
0.0
 40
1.5
  0
CIRCLE
  5
42
100
AcDbEntity
  8
0
370
               5
  6
Continuous
 62
               1
100
AcDbCircle
 10
107.82115913828609
 20
48.562008509183883
 30
0.0
 40
1.5
  0
CIRCLE
  5
43
100
AcDbEntity
  8
0
370
               5
  6
Continuous
 62
               1
100
AcDbCircle
 10
17.815155138286059
 20
51.968384775032547
 30
0.0
 40
1.5
  0
LINE
  5
44
100
AcDbEntity
  8
0
370
               5
  6
Continuous
 62
               1
100
AcDbLine
 10
182.2380791382862
 20
175.54700850918499
 30
0.0
 11
182.23807913828608
 21
96.658310802081274
 31
0.0
  0
LINE
  5
45
100
AcDbEntity
  8
0
370
               5
  6
Continuous
 62
               1
100
AcDbLine
 10
11.551279138286191
 20
51.117008509186427
 30
0.0
 11
11.551279138286219
 21
175.54700850918488
 31
0.0
  0
LINE
  5
46
100
AcDbEntity
  8
0
370
               5
  6
Continuous
 62
               1
100
AcDbLine
 10
18.551279138286105
 20
182.54700850918488
 30
0.0
 11
175.23807913828588
 21
182.54700850918508
 31
0.0
  0
LINE
  5
47
100
AcDbEntity
  8
0
370
               5
  6
Continuous
 62
               1
100
AcDbLine
 10
20.441279138286063
 20
72.968199891203199
 30
0.0
 11
20.441279138286092
 21
147.67619989120328
 31
0.0
  0
LINE
  5
48
100
AcDbEntity
  8
0
370
               5
  6
Continuous
 62
               1
100
AcDbLine
 10
186.27995868494997
 20
90.314059594605766
 30
0.0
 11
219.69019375321838
 21
74.735940684409002
 31
0.0
  0
LINE
  5
49
100
AcDbEntity
  8
0
370
               5
  6
Continuous
 62
               1
100
AcDbLine
 10
173.33542041244129
 20
149.56519989120318
 30
0.0
 11
173.34807913828598
 21
84.24900850918516
 31
0.0
  0
CIRCLE
  5
4A
100
AcDbEntity
  8
0
370
               5
  6
Continuous
 62
               1
100
AcDbCircle
 10
17.815155404133208
 20
176.28313224333789
 30
0.0
 40
1.5
  0
ARC
  5
4B
100
AcDbEntity
  8
0
370
               5
  6
Continuous
 62
               1
100
AcDbCircle
 10
159.76002020998129
 20
72.857199891203152
 30
0.0
 40
1.0159999999999911
100
AcDbArc
 50
90.0
 51
244.99999999989933
  0
LINE
  5
4C
100
AcDbEntity
  8
0
370
               5
  6
Continuous
 62
               1
100
AcDbLine
 10
159.33064005782117
 20
71.93639117910314
 30
0.0
 11
169.79251354856117
 21
67.057939450123143
 31
0.0
  0
ARC
  5
4D
100
AcDbEntity
  8
0
370
               5
  6
Continuous
 62
               1
100
AcDbCircle
 10
170.43658377934128
 20
68.439152519543001
 30
0.0
 40
1.5239999999999867
100
AcDbArc
 50
244.9999999998997
 51
334.99999999989996
  0
LINE
  5
4E
100
AcDbEntity
  8
0
370
               5
  6
Continuous
 62
               1
100
AcDbLine
 10
171.81779684622117
 20
67.795082288763211
 30
0.0
 11
178.79522434676127
 21
82.758223850863203
 31
0.0
  0
ARC
  5
4F
100
AcDbEntity
  8
0
370
               5
  6
Continuous
 62
               1
100
AcDbCircle
 10
179.71603305886129
 20
82.328843698703167
 30
0.0
 40
1.0160000000000124
100
AcDbArc
 50
64.999999999899671
 51
154.99999999989967
  0
LINE
  5
50
100
AcDbEntity
  8
0
370
               5
  6
Continuous
 62
               1
100
AcDbLine
 10
180.1454132135612
 20
83.249652408263103
 30
0.0
 11
213.29452683138129
 21
67.791966867003367
 31
0.0
  0
ARC
  5
51
100
AcDbEntity
  8
0
370
               5
  6
Continuous
 62
               1
100
AcDbCircle
 10
212.86514667668129
 20
66.871158157443119
 30
0.0
 40
1.0160000000000065
100
AcDbArc
 50
334.99999999990047
 51
64.99999999989933
  0
LINE
  5
52
100
AcDbEntity
  8
0
370
               5
  6
Continuous
 62
               1
100
AcDbLine
 10
213.78595538830979
 20
66.441778003512923
 30
0.0
 11
190.27739196102979
 21
16.027501042072899
 31
0.0
  0
ARC
  5
53
100
AcDbEntity
  8
0
370
               5
  6
Continuous
 62
               1
100
AcDbCircle
 10
189.3565832494013
 20
16.456881193463218
 30
0.0
 40
1.0159999999999618
100
AcDbArc
 50
244.9999999999001
 51
334.99999999989973
  0
LINE
  5
54
100
AcDbEntity
  8
0
370
               5
  6
Continuous
 62
               1
100
AcDbLine
 10
188.9272030947013
 20
15.53607248390324
 30
0.0
 11
138.51292613326117
 21
39.044635911183256
 31
0.0
  0
ARC
  5
55
100
AcDbEntity
  8
0
370
               5
  6
Continuous
 62
               1
100
AcDbCircle
 10
138.94230628796129
 20
39.965444623283247
 30
0.0
 40
1.0160000000000065
100
AcDbArc
 50
154.99999999990041
 51
244.99999999989933
  0
LINE
  5
56
100
AcDbEntity
  8
0
370
               5
  6
Continuous
 62
               1
100
AcDbLine
 10
138.02149757586119
 20
40.394824775443453
 30
0.0
 11
152.62173252316117
 21
71.705129660423097
 31
0.0
  0
ARC
  5
57
100
AcDbEntity
  8
0
370
               5
  6
Continuous
 62
               1
100
AcDbCircle
 10
151.24051945628128
 20
72.349199891203227
 30
0.0
 40
1.5240000000000633
100
AcDbArc
 50
334.99999999989996
 51
90.000000000000014
  0
LINE
  5
58
100
AcDbEntity
  8
0
370
               5
  6
Continuous
 62
               1
100
AcDbLine
 10
151.24051945628128
 20
73.873199891203171
 30
0.0
 11
136.75942041244127
 21
73.873199891203143
 31
0.0
  0
ARC
  5
59
100
AcDbEntity
  8
0
370
               5
  6
Continuous
 62
               1
100
AcDbCircle
 10
136.75942041244127
 20
72.349199891203227
 30
0.0
 40
1.5239999999999725
100
AcDbArc
 50
90.0
 51
180.0
  0
LINE
  5
5A
100
AcDbEntity
  8
0
370
               5
  6
Continuous
 62
               1
100
AcDbLine
 10
135.23542041244127
 20
72.349199891203114
 30
0.0
 11
135.23542041244127
 21
57.109199891202941
 31
0.0
  0
ARC
  5
5B
100
AcDbEntity
  8
0
370
               5
  6
Continuous
 62
               1
100
AcDbCircle
 10
134.21942041244128
 20
57.109199891203282
 30
0.0
 40
1.0159999999999769
100
AcDbArc
 50
270.0
 51
0.0
  0
LINE
  5
5C
100
AcDbEntity
  8
0
370
               5
  6
Continuous
 62
               1
100
AcDbLine
 10
134.21942041244128
 20
56.093199891203426
 30
0.0
 11
116.50806342984129
 21
56.093199891203334
 31
0.0
  0
ARC
  5
5D
100
AcDbEntity
  8
0
370
               5
  6
Continuous
 62
               1
100
AcDbCircle
 10
116.50806342984129
 20
57.109199891203254
 30
0.0
 40
1.0160000000000193
100
AcDbArc
 50
202.0243128370002
 51
270.0
  0
ARC
  5
5E
100
AcDbEntity
  8
0
370
               5
  6
Continuous
 62
               1
100
AcDbCircle
 10
114.15342041244128
 20
56.156699891203111
 30
0.0
 40
1.5239999999999725
100
AcDbArc
 50
22.02431283699995
 51
90.0
  0
LINE
  5
5F
100
AcDbEntity
  8
0
370
               5
  6
Continuous
 62
               1
100
AcDbLine
 10
114.15342041244128
 20
57.680699891203126
 30
0.0
 11
98.659420412441278
 21
57.680699891203133
 31
0.0
  0
ARC
  5
60
100
AcDbEntity
  8
0
370
               5
  6
Continuous
 62
               1
100
AcDbCircle
 10
98.659420412441278
 20
56.156699891203061
 30
0.0
 40
1.5239999999999796
100
AcDbArc
 50
90.0
 51
157.975687163
  0
ARC
  5
61
100
AcDbEntity
  8
0
370
               5
  6
Continuous
 62
               1
100
AcDbCircle
 10
96.304777392501279
 20
57.109199891203197
 30
0.0
 40
1.015999999999984
100
AcDbArc
 50
270.0
 51
337.97568716299986
  0
LINE
  5
62
100
AcDbEntity
  8
0
370
               5
  6
Continuous
 62
               1
100
AcDbLine
 10
96.304777392501279
 20
56.093199891203277
 30
0.0
 11
79.609420412441267
 21
56.093199891203227
 31
0.0
  0
ARC
  5
63
100
AcDbEntity
  8
0
370
               5
  6
Continuous
 62
               1
100
AcDbCircle
 10
79.609420412441267
 20
54.569199891203127
 30
0.0
 40
1.5240000000000578
100
AcDbArc
 50
90.0
 51
180.0
  0
LINE
  5
64
100
AcDbEntity
  8
0
370
               5
  6
Continuous
 62
               1
100
AcDbLine
 10
78.085420412441266
 20
54.569199891203205
 30
0.0
 11
78.085420412441266
 21
53.934199891203242
 31
0.0
  0
ARC
  5
65
100
AcDbEntity
  8
0
370
               5
  6
Continuous
 62
               1
100
AcDbCircle
 10
77.069420412441303
 20
53.934199891203157
 30
0.0
 40
1.0160000000000267
100
AcDbArc
 50
270.0
 51
0.0
  0
LINE
  5
66
100
AcDbEntity
  8
0
370
               5
  6
Continuous
 62
               1
100
AcDbLine
 10
77.069420412441303
 20
52.918199891203052
 30
0.0
 11
40.493420412441282
 21
52.918199891203187
 31
0.0
  0
ARC
  5
67
100
AcDbEntity
  8
0
370
               5
  6
Continuous
 62
               1
100
AcDbCircle
 10
40.493420412441282
 20
53.934199891203171
 30
0.0
 40
1.0160000000000764
100
AcDbArc
 50
180.0
 51
270.0
  0
LINE
  5
68
100
AcDbEntity
  8
0
370
               5
  6
Continuous
 62
               1
100
AcDbLine
 10
39.477420412441205
 20
53.934199891203171
 30
0.0
 11
39.477420412441205
 21
70.444199891203141
 31
0.0
  0
ARC
  5
69
100
AcDbEntity
  8
0
370
               5
  6
Continuous
 62
               1
100
AcDbCircle
 10
37.953420412441261
 20
70.444199891203141
 30
0.0
 40
1.5240000000000578
100
AcDbArc
 50
0.0
 51
90.0
  0
LINE
  5
6A
100
AcDbEntity
  8
0
370
               5
  6
Continuous
 62
               1
100
AcDbLine
 10
37.953420412441261
 20
71.968199891203199
 30
0.0
 11
21.441279138286063
 21
71.968199891203199
 31
0.0
  0
LINE
  5
6B
100
AcDbEntity
  8
0
370
               5
  6
Continuous
 62
               1
100
AcDbLine
 10
21.441279138286063
 20
148.67619989120328
 30
0.0
 11
76.053420412441284
 21
148.67619989120328
 31
0.0
  0
ARC
  5
6C
100
AcDbEntity
  8
0
370
               5
  6
Continuous
 62
               1
100
AcDbCircle
 10
76.053420412441284
 20
150.2001998912032
 30
0.0
 40
1.5240000000000009
100
AcDbArc
 50
270.0
 51
0.0
  0
LINE
  5
6D
100
AcDbEntity
  8
0
370
               5
  6
Continuous
 62
               1
100
AcDbLine
 10
77.577420412441342
 20
150.20019989120308
 30
0.0
 11
77.577420412441285
 21
150.83519989120319
 31
0.0
  0
ARC
  5
6E
100
AcDbEntity
  8
0
370
               5
  6
Continuous
 62
               1
100
AcDbCircle
 10
78.593420412441304
 20
150.83519989120327
 30
0.0
 40
1.0160000000000764
100
AcDbArc
 50
90.0
 51
180.0
  0
LINE
  5
6F
100
AcDbEntity
  8
0
370
               5
  6
Continuous
 62
               1
100
AcDbLine
 10
78.593420412441304
 20
151.85119989120318
 30
0.0
 11
95.103420412441309
 21
151.85119989120318
 31
0.0
  0
ARC
  5
70
100
AcDbEntity
  8
0
370
               5
  6
Continuous
 62
               1
100
AcDbCircle
 10
95.103420412441338
 20
153.3751998912031
 30
0.0
 40
1.5240000000000578
100
AcDbArc
 50
270.0
 51
337.97568716299958
  0
ARC
  5
71
100
AcDbEntity
  8
0
370
               5
  6
Continuous
 62
               1
100
AcDbCircle
 10
97.458063429841332
 20
152.42269989120319
 30
0.0
 40
1.0159999999999911
100
AcDbArc
 50
90.0
 51
157.97568716300066
  0
LINE
  5
72
100
AcDbEntity
  8
0
370
               5
  6
Continuous
 62
               1
100
AcDbLine
 10
97.458063429841346
 20
153.43869989120307
 30
0.0
 11
115.35477739250129
 21
153.43869989120307
 31
0.0
  0
ARC
  5
73
100
AcDbEntity
  8
0
370
               5
  6
Continuous
 62
               1
100
AcDbCircle
 10
115.35477739250129
 20
152.42269989120319
 30
0.0
 40
1.0159999999999825
100
AcDbArc
 50
22.024312836999353
 51
90.0
  0
ARC
  5
74
100
AcDbEntity
  8
0
370
               5
  6
Continuous
 62
               1
100
AcDbCircle
 10
117.70942041244129
 20
153.3751998912031
 30
0.0
 40
1.524000000000004
100
AcDbArc
 50
202.02431283700005
 51
270.0
  0
LINE
  5
75
100
AcDbEntity
  8
0
370
               5
  6
Continuous
 62
               1
100
AcDbLine
 10
117.70942041244129
 20
151.85119989120318
 30
0.0
 11
134.55971588628128
 21
151.85119989120318
 31
0.0
  0
ARC
  5
76
100
AcDbEntity
  8
0
370
               5
  6
Continuous
 62
               1
100
AcDbCircle
 10
134.55971588628128
 20
150.83519989120319
 30
0.0
 40
1.0160000000000735
100
AcDbArc
 50
30.000000000000092
 51
90.0
  0
ARC
  5
77
100
AcDbEntity
  8
0
370
               5
  6
Continuous
 62
               1
100
AcDbCircle
 10
136.75942041244127
 20
152.10519989120309
 30
0.0
 40
1.5240000000000593
100
AcDbArc
 50
209.99999999999997
 51
270.0
  0
LINE
  5
78
100
AcDbEntity
  8
0
370
               5
  6
Continuous
 62
               1
100
AcDbLine
 10
136.75942041244127
 20
150.5811998912032
 30
0.0
 11
172.31942041244127
 21
150.5811998912032
 31
0.0
  0
ARC
  5
79
100
AcDbEntity
  8
0
370
               5
  6
Continuous
 62
               1
100
AcDbCircle
 10
172.31942041244127
 20
149.56519989120318
 30
0.0
 40
1.0160000000000764
100
AcDbArc
 50
0.0
 51
90.0
  0
LINE
  5
7A
100
AcDbEntity
  8
0
370
               5
  6
Continuous
 62
               1
100
AcDbLine
 10
173.33542041244129
 20
149.56519989120318
 30
0.0
 11
173.33542041244129
 21
74.889199891203077
 31
0.0
  0
ARC
  5
7B
100
AcDbEntity
  8
0
370
               5
  6
Continuous
 62
               1
100
AcDbCircle
 10
172.31942041244127
 20
74.889199891203162
 30
0.0
 40
1.0160000000000622
100
AcDbArc
 50
270.0
 51
0.0
  0
LINE
  5
7C
100
AcDbEntity
  8
0
370
               5
  6
Continuous
 62
               1
100
AcDbLine
 10
172.31942041244127
 20
73.873199891203228
 30
0.0
 11
159.76002020998129
 21
73.873199891203086
 31
0.0
  0
ENDSEC
  0
SECTION
  2
OBJECTS
  0
DICTIONARY
  5
19
100
AcDbDictionary
280
               0
281
               1
  3
ACAD_GROUP
350
1A
  3
ACAD_MLINESTYLE
350
1B
  3
ACAD_LAYOUT
350
1E
  3
ACAD_PLOTSETTINGS
350
22
  3
ACAD_PLOTSTYLENAME
350
1F
  3
ACAD_WIPEOUT_VARS
350
23
  0
DICTIONARY
  5
1A
102
{ACAD_REACTORS
330
19
102
}
100
AcDbDictionary
280
               0
281
               1
  0
DICTIONARY
  5
1B
102
{ACAD_REACTORS
330
19
102
}
100
AcDbDictionary
280
               0
281
               1
  3
Standard
350
1C
  0
MLINESTYLE
  5
1C
102
{ACAD_REACTORS
330
1B
102
}
100
AcDbMlineStyle
  2
Standard
 70
               0
  3

 62
               0
 51
90.0
 52
90.0
 71
               2
 49
0.5
 62
             256
  6
ByLayer
 49
-0.5
 62
             256
  6
ByLayer
  0
ACDBDICTIONARYWDFLT
  5
1F
102
{ACAD_REACTORS
330
19
102
}
100
AcDbDictionary
281
               1
  3
Normal
350
1D
100
AcDbDictionaryWithDefault
340
1D
  0
ACDBPLACEHOLDER
  5
1D
102
{ACAD_REACTORS
330
1F
102
}
  0
LAYOUT
  5
20
102
{ACAD_REACTORS
330
1E
102
}
100
AcDbPlotSettings
  1

  2

  4

  6

 40
0.0
 41
0.0
 42
0.0
 43
0.0
 44
0.0
 45
0.0
 46
0.0
 47
0.0
 48
0.0
 49
0.0
140
0.0
141
0.0
142
1.0
143
1.0
 70
            1024
 72
               0
 73
               0
 74
               0
  7

 75
               0
147
1.0
148
0.0
149
0.0
100
AcDbLayout
  1
Model
 70
               0
 71
               0
 10
0.0
 20
0.0
 11
0.0
 21
0.0
 12
0.0
 22
0.0
 32
0.0
 14
0.0
 24
0.0
 34
0.0
 15
0.0
 25
0.0
 35
0.0
146
0.0
 13
0.0
 23
0.0
 33
0.0
 16
0.0
 26
0.0
 36
0.0
 17
0.0
 27
0.0
 37
0.0
 76
               0
330
A
331
0
345
0
346
0
  0
LAYOUT
  5
21
102
{ACAD_REACTORS
330
1E
102
}
100
AcDbPlotSettings
  1

  2

  4

  6

 40
0.0
 41
0.0
 42
0.0
 43
0.0
 44
0.0
 45
0.0
 46
0.0
 47
0.0
 48
0.0
 49
0.0
140
0.0
141
0.0
142
1.0
143
1.0
 70
               0
 72
               0
 73
               0
 74
               0
  7

 75
               0
147
1.0
148
0.0
149
0.0
100
AcDbLayout
  1
Layout1
 70
               0
 71
               0
 10
0.0
 20
0.0
 11
0.0
 21
0.0
 12
0.0
 22
0.0
 32
0.0
 14
0.0
 24
0.0
 34
0.0
 15
0.0
 25
0.0
 35
0.0
146
0.0
 13
0.0
 23
0.0
 33
0.0
 16
0.0
 26
0.0
 36
0.0
 17
0.0
 27
0.0
 37
0.0
 76
               0
330
B
331
0
345
0
346
0
  0
DICTIONARY
  5
1E
102
{ACAD_REACTORS
330
19
102
}
100
AcDbDictionary
280
               0
281
               1
  3
Layout1
350
21
  3
Model
350
20
  0
DICTIONARY
  5
22
102
{ACAD_REACTORS
330
19
102
}
100
AcDbDictionary
280
               0
281
               1
  0
WIPEOUTVARIABLES
  5
23
100
AcDbWipeoutVariables
 70
               0
  0
ENDSEC
  0
EOF
