  0
SECTION
  2
HEADER
  9
$ACADVER
  1
AC1015
  9
$ACADMAINTVER
 70
               6
  9
$DWGCODEPAGE
  3
ANSI_932
  9
$INSBASE
 10
0.0
 20
0.0
 30
0.0
  9
$EXTMIN
 10
12.227005838403841
 20
9.7771987615619622
 30
0.0
  9
$EXTMAX
 10
224.40780000000009
 20
186.61380000000051
 30
0.0
  9
$LIMMIN
 10
0.0
 20
0.0
  9
$LIMMAX
 10
0.0
 20
0.0
  9
$ORTHOMODE
 70
               0
  9
$REGENMODE
 70
               1
  9
$FILLMODE
 70
               1
  9
$QTEXTMODE
 70
               0
  9
$MIRRTEXT
 70
               1
  9
$LTSCALE
 40
5.0800000000000001
  9
$ATTMODE
 70
               1
  9
$TEXTSIZE
 40
0.2
  9
$TRACEWID
 40
1.0
  9
$TEXTSTYLE
  7
Standard
  9
$CLAYER
  8
0
  9
$CELTYPE
  6
Continuous
  9
$CECOLOR
 62
             256
  9
$CELTSCALE
 40
1.0
  9
$DISPSILH
 70
               0
  9
$DIMSCALE
 40
1.0
  9
$DIMASZ
 40
0.18
  9
$DIMEXO
 40
0.0625
  9
$DIMDLI
 40
0.38
  9
$DIMRND
 40
0.0
  9
$DIMDLE
 40
0.0
  9
$DIMEXE
 40
0.18
  9
$DIMTP
 40
0.0
  9
$DIMTM
 40
0.0
  9
$DIMTXT
 40
0.18
  9
$DIMCEN
 40
0.09
  9
$DIMTSZ
 40
0.0
  9
$DIMTOL
 70
               0
  9
$DIMLIM
 70
               0
  9
$DIMTIH
 70
               1
  9
$DIMTOH
 70
               1
  9
$DIMSE1
 70
               0
  9
$DIMSE2
 70
               0
  9
$DIMTAD
 70
               0
  9
$DIMZIN
 70
               0
  9
$DIMBLK
  1

  9
$DIMASO
 70
               1
  9
$DIMSHO
 70
               1
  9
$DIMPOST
  1

  9
$DIMAPOST
  1

  9
$DIMALT
 70
               0
  9
$DIMALTD
 70
               2
  9
$DIMALTF
 40
25.399999999999999
  9
$DIMLFAC
 40
1.0
  9
$DIMTOFL
 70
               0
  9
$DIMTVP
 40
0.0
  9
$DIMTIX
 70
               0
  9
$DIMSOXD
 70
               0
  9
$DIMSAH
 70
               0
  9
$DIMBLK1
  1

  9
$DIMBLK2
  1

  9
$DIMSTYLE
  2
Standard
  9
$DIMCLRD
 70
               0
  9
$DIMCLRE
 70
               0
  9
$DIMCLRT
 70
               0
  9
$DIMTFAC
 40
1.0
  9
$DIMGAP
 40
0.09
  9
$DIMJUST
 70
               0
  9
$DIMSD1
 70
               0
  9
$DIMSD2
 70
               0
  9
$DIMTOLJ
 70
               1
  9
$DIMTZIN
 70
               0
  9
$DIMALTZ
 70
               0
  9
$DIMALTTZ
 70
               0
  9
$DIMUPT
 70
               0
  9
$DIMDEC
 70
               4
  9
$DIMTDEC
 70
               4
  9
$DIMALTU
 70
               2
  9
$DIMALTTD
 70
               2
  9
$DIMTXSTY
  7
Standard
  9
$DIMAUNIT
 70
               0
  9
$DIMADEC
 70
               0
  9
$DIMALTRND
 40
0.0
  9
$DIMAZIN
 70
               0
  9
$DIMDSEP
 70
               0
  9
$DIMATFIT
 70
               3
  9
$DIMFRAC
 70
               0
  9
$DIMLDRBLK
  1

  9
$DIMLUNIT
 70
               2
  9
$DIMLWD
 70
               0
  9
$DIMLWE
 70
               0
  9
$DIMTMOVE
 70
               0
  9
$LUNITS
 70
               2
  9
$LUPREC
 70
               4
  9
$SKETCHINC
 40
0.1
  9
$FILLETRAD
 40
0.0
  9
$AUNITS
 70
               0
  9
$AUPREC
 70
               0
  9
$MENU
  1
acad
  9
$ELEVATION
 40
0.0
  9
$PELEVATION
 40
0.0
  9
$THICKNESS
 40
0.0
  9
$LIMCHECK
 70
               0
  9
$CHAMFERA
 40
0.0
  9
$CHAMFERB
 40
0.0
  9
$CHAMFERC
 40
0.0
  9
$CHAMFERD
 40
0.0
  9
$SKPOLY
 70
               0
  9
$TDCREATE
 40
2457576.942523148
  9
$TDUCREATE
 40
0.000000000
  9
$TDUPDATE
 40
2457576.942523148
  9
$TDUUPDATE
 40
0.000000000
  9
$TDINDWG
 40
0.0000000000
  9
$TDUSRTIMER
 40
0.0000000000
  9
$USRTIMER
 70
               1
  9
$ANGBASE
 50
0.0
  9
$ANGDIR
 70
               0
  9
$PDMODE
 70
               1
  9
$PDSIZE
 40
-2.0
  9
$PLINEWID
 40
0.0
  9
$SPLFRAME
 70
               0
  9
$SPLINETYPE
 70
               6
  9
$SPLINESEGS
 70
               8
  9
$HANDSEED
  5
95
  9
$SURFTAB1
 70
               6
  9
$SURFTAB2
 70
               6
  9
$SURFTYPE
 70
               6
  9
$SURFU
 70
               6
  9
$SURFV
 70
               6
  9
$UCSBASE
  2

  9
$UCSNAME
  2

  9
$UCSORG
 10
0.0
 20
0.0
 30
0.0
  9
$UCSXDIR
 10
1.0
 20
0.0
 30
0.0
  9
$UCSYDIR
 10
0.0
 20
1.0
 30
0.0
  9
$UCSORTHOREF
  2

  9
$UCSORTHOVIEW
 70
               0
  9
$UCSORGTOP
 10
0.0
 20
0.0
 30
0.0
  9
$UCSORGBOTTOM
 10
0.0
 20
0.0
 30
0.0
  9
$UCSORGLEFT
 10
0.0
 20
0.0
 30
0.0
  9
$UCSORGRIGHT
 10
0.0
 20
0.0
 30
0.0
  9
$UCSORGFRONT
 10
0.0
 20
0.0
 30
0.0
  9
$UCSORGBACK
 10
0.0
 20
0.0
 30
0.0
  9
$PUCSBASE
  2

  9
$PUCSNAME
  2

  9
$PUCSORG
 10
0.0
 20
0.0
 30
0.0
  9
$PUCSXDIR
 10
1.0
 20
0.0
 30
0.0
  9
$PUCSYDIR
 10
0.0
 20
1.0
 30
0.0
  9
$PUCSORTHOREF
  2

  9
$PUCSORTHOVIEW
 70
               0
  9
$PUCSORGTOP
 10
0.0
 20
0.0
 30
0.0
  9
$PUCSORGBOTTOM
 10
0.0
 20
0.0
 30
0.0
  9
$PUCSORGLEFT
 10
0.0
 20
0.0
 30
0.0
  9
$PUCSORGRIGHT
 10
0.0
 20
0.0
 30
0.0
  9
$PUCSORGFRONT
 10
0.0
 20
0.0
 30
0.0
  9
$PUCSORGBACK
 10
0.0
 20
0.0
 30
0.0
  9
$USERI1
 70
               0
  9
$USERI2
 70
               0
  9
$USERI3
 70
               0
  9
$USERI4
 70
               0
  9
$USERI5
 70
               0
  9
$USERR1
 40
0.0
  9
$USERR2
 40
0.0
  9
$USERR3
 40
0.0
  9
$USERR4
 40
0.0
  9
$USERR5
 40
0.0
  9
$WORLDVIEW
 70
               1
  9
$SHADEDGE
 70
               3
  9
$SHADEDIF
 70
              70
  9
$TILEMODE
 70
               1
  9
$MAXACTVP
 70
              64
  9
$PINSBASE
 10
0.0
 20
0.0
 30
0.0
  9
$PLIMCHECK
 70
               0
  9
$PEXTMIN
 10
1.0000000000000000E+20
 20
1.0000000000000000E+20
 30
1.0000000000000000E+20
  9
$PEXTMAX
 10
-1.0000000000000000E+20
 20
-1.0000000000000000E+20
 30
-1.0000000000000000E+20
  9
$PLIMMIN
 10
0.0
 20
0.0
  9
$PLIMMAX
 10
12.0
 20
9.0
  9
$UNITMODE
 70
               0
  9
$VISRETAIN
 70
               0
  9
$PLINEGEN
 70
               1
  9
$PSLTSCALE
 70
               0
  9
$TREEDEPTH
 70
            3020
  9
$CMLSTYLE
  2
Standard
  9
$CMLJUST
 70
               0
  9
$CMLSCALE
 40
1.0
  9
$PROXYGRAPHICS
 70
               0
  9
$MEASUREMENT
 70
               1
  9
$CELWEIGHT
370
               0
  9
$ENDCAPS
280
               0
  9
$JOINSTYLE
280
               0
  9
$LWDISPLAY
290
               1
  9
$INSUNITS
 70
               4
  9
$HYPERLINKBASE
  1

  9
$STYLESHEET
  1

  9
$XEDIT
290
               1
  9
$CEPSNTYPE
380
               0
  9
$PSTYLEMODE
290
               1
  9
$FINGERPRINTGUID
  2

  9
$VERSIONGUID
  2

  9
$EXTNAMES
290
               1
  9
$PSVPSCALE
 40
0.0
  0
ENDSEC
  0
SECTION
  2
CLASSES
  0
CLASS
  1
LWPOLYLINE
  2
AcDbPolyline
  3
AutoCAD 2000
 90
    32768
280
               0
281
               1
  0
CLASS
  1
IMAGE
  2
AcDbRasterImage
  3
ISM
 90
    32895
280
               0
281
               1
  0
CLASS
  1
OLE2FRAME
  2
AcDbOle2Frame
  3
AutoCAD 2000
 90
    32768
280
               0
281
               1
  0
CLASS
  1
HATCH
  2
AcDbHatch
  3
AutoCAD 2000
 90
    32768
280
               0
281
               1
  0
CLASS
  1
DICTIONARYVAR
  2
AcDbDictionaryVar
  3
AutoCAD 2000
 90
    32768
280
               0
281
               0
  0
CLASS
  1
RASTERVARIABLES
  2
AcDbRasterVariables
  3
ISM
 90
    32768
280
               0
281
               0
  0
CLASS
  1
IMAGEDEF
  2
AcDbRasterImageDef
  3
ISM
 90
    32768
280
               0
281
               0
  0
CLASS
  1
IMAGEDEF_REACTOR
  2
AcDbRasterImageDefReactor
  3
ISM
 90
    32769
280
               0
281
               0
  0
CLASS
  1
IDBUFFER
  2
AcDbIdBuffer
  3
AutoCAD 2000
 90
    32768
280
               0
281
               0
  0
CLASS
  1
SPATIAL_FILTER
  2
AcDbSpatialFilter
  3
AutoCAD 2000
 90
    32768
280
               0
281
               0
  0
CLASS
  1
XRECORD
  2
AcDbXrecord
  3
AutoCAD 2000
 90
    32768
280
               0
281
               0
  0
CLASS
  1
SORTENTSTABLE
  2
AcDbSortentsTable
  3
AutoCAD 2000
 90
    32768
280
               0
281
               0
  0
CLASS
  1
LAYER_INDEX
  2
AcDbLayerIndex
  3
AutoCAD 2000
 90
    32768
280
               0
281
               0
  0
CLASS
  1
SPATIAL_INDEX
  2
AcDbSpatialIndex
  3
AutoCAD 2000
 90
    32768
280
               0
281
               0
  0
CLASS
  1
OBJECT_PTR
  2
CAseDLPNTableRecord
  3
"ASE-LPNTableRecord"
 90
    32769
280
               0
281
               0
  0
CLASS
  1
LAYOUT
  2
AcDbLayout
  3
AutoCAD 2000
 90
        0
280
               0
281
               0
  0
CLASS
  1
PLOTSETTINGS
  2
AcDbPlotSettings
  3
AutoCAD 2000
 90
    32768
280
               0
281
               0
  0
CLASS
  1
ACDBDICTIONARYWDFLT
  2
AcDbDictionaryWithDefault
  3
AutoCAD 2000
 90
        0
280
               0
281
               0
  0
CLASS
  1
ACDBPLACEHOLDER
  2
AcDbPlaceHolder
  3
AutoCAD 2000
 90
        0
280
               0
281
               0
  0
CLASS
  1
VBA_PROJECT
  2
AcDbVbaProject
  3
acadvba
 90
    32768
280
               0
281
               0
  0
CLASS
  1
WIPEOUT
  2
AcDbWipeout
  3
WipeOut|AutoCAD Express Tool|expresstools@autodesk.com
 90
    32895
280
               0
281
               1
  0
CLASS
  1
WIPEOUTVARIABLES
  2
AcDbWipeoutVariables
  3
WipeOut|AutoCAD Express Tool|expresstools@autodesk.com
 90
        0
280
               0
281
               0
  0
CLASS
  1
RTEXT
  2
RText
  3
RText|AutoCAD Express Tool|expresstools@autodesk.com
 90
    32768
280
               0
281
               1
  0
CLASS
  1
ARCALIGNEDTEXT
  2
AcDbArcAlignedText
  3
ATEXT|AutoCAD Express Tool|expresstools@autodesk.com
 90
    32768
280
               0
281
               1
  0
ENDSEC
  0
SECTION
  2
TABLES
  0
TABLE
  2
VPORT
  5
7
100
AcDbSymbolTable
 70
               1
  0
VPORT
  5
15
100
AcDbSymbolTableRecord
100
AcDbViewportTableRecord
  2
*ACTIVE
 70
               0
 10
0.0
 20
0.0
 11
1.0
 21
1.0
 12
118.31740291920197
 22
98.195499380781243
 13
0.0
 23
0.0
 14
1.0
 24
1.0
 15
0.0
 25
0.0
 16
0.0
 26
0.0
 36
1.0
 17
0.0
 27
0.0
 37
0.0
 40
176.83660123843856
 41
0.688564
 42
50.0
 43
0.0
 44
0.0
 50
0.0
 51
0.0
 71
               0
 72
            2000
 73
               1
 74
               1
 75
               0
 76
               0
 77
               0
 78
               0
281
               0
 65
               0
110
0.0
120
0.0
130
0.0
111
1.0
121
0.0
131
0.0
112
0.0
122
1.0
132
0.0
345
0
346
0
 79
               0
146
0.0
  0
ENDTAB
  0
TABLE
  2
LTYPE
  5
4
100
AcDbSymbolTable
 70
              13
  0
LTYPE
  5
11
100
AcDbSymbolTableRecord
100
AcDbLinetypeTableRecord
  2
ByBlock
 70
              64
  3

 72
              65
 73
               0
 40
0.0
  0
LTYPE
  5
12
100
AcDbSymbolTableRecord
100
AcDbLinetypeTableRecord
  2
ByLayer
 70
              64
  3

 72
              65
 73
               0
 40
0.0
  0
LTYPE
  5
13
100
AcDbSymbolTableRecord
100
AcDbLinetypeTableRecord
  2
Continuous
 70
              64
  3
Solid line
 72
              65
 73
               0
 40
0.0
  0
LTYPE
  5
24
100
AcDbSymbolTableRecord
100
AcDbLinetypeTableRecord
  2
STYLE_01
 70
               0
  3

 72
              65
 73
               2
 40
0.41664
 49
0.20828
 74
               0
 49
-0.20836
 74
               0
  0
LTYPE
  5
25
100
AcDbSymbolTableRecord
100
AcDbLinetypeTableRecord
  2
STYLE_02
 70
               0
  3

 72
              65
 73
               2
 40
0.6944250000000001
 49
0.48607
 74
               0
 49
-0.2083550000000001
 74
               0
  0
LTYPE
  5
26
100
AcDbSymbolTableRecord
100
AcDbLinetypeTableRecord
  2
STYLE_03
 70
               0
  3

 72
              65
 73
               2
 40
1.25
 49
1.0416400000000001
 74
               0
 49
-0.2083599999999999
 74
               0
  0
LTYPE
  5
27
100
AcDbSymbolTableRecord
100
AcDbLinetypeTableRecord
  2
STYLE_04
 70
               0
  3

 72
              65
 73
               2
 40
1.5277099999999999
 49
1.3194249999999998
 74
               0
 49
-0.208285
 74
               0
  0
LTYPE
  5
28
100
AcDbSymbolTableRecord
100
AcDbLinetypeTableRecord
  2
STYLE_05
 70
               0
  3

 72
              65
 73
               2
 40
0.20828
 49
0.069425
 74
               0
 49
-0.138855
 74
               0
  0
LTYPE
  5
29
100
AcDbSymbolTableRecord
100
AcDbLinetypeTableRecord
  2
STYLE_06
 70
               0
  3

 72
              65
 73
               4
 40
1.0416400000000001
 49
0.625
 74
               0
 49
-0.20828
 74
               0
 49
0.06943
 74
               0
 49
-0.13893
 74
               0
  0
LTYPE
  5
2A
100
AcDbSymbolTableRecord
100
AcDbLinetypeTableRecord
  2
STYLE_07
 70
               0
  3

 72
              65
 73
               6
 40
1.875
 49
0.625
 74
               0
 49
-0.20828
 74
               0
 49
0.6250000000000001
 74
               0
 49
-0.2083599999999999
 74
               0
 49
0.06943
 74
               0
 49
-0.1389299999999999
 74
               0
  0
LTYPE
  5
2B
100
AcDbSymbolTableRecord
100
AcDbLinetypeTableRecord
  2
STYLE_08
 70
               0
  3

 72
              65
 73
               6
 40
1.25
 49
0.625
 74
               0
 49
-0.20828
 74
               0
 49
0.06943
 74
               0
 49
-0.13893
 74
               0
 49
0.0694299999999999
 74
               0
 49
-0.13893
 74
               0
  0
LTYPE
  5
2C
100
AcDbSymbolTableRecord
100
AcDbLinetypeTableRecord
  2
STYLE_09
 70
               0
  3

 72
              65
 73
               4
 40
5.0
 49
3.75
 74
               0
 49
-0.2777849999999998
 74
               0
 49
0.6944300000000003
 74
               0
 49
-0.2777849999999998
 74
               0
  0
LTYPE
  5
2D
100
AcDbSymbolTableRecord
100
AcDbLinetypeTableRecord
  2
STYLE_10
 70
               0
  3

 72
              65
 73
               6
 40
5.9375
 49
3.75
 74
               0
 49
-0.2777849999999998
 74
               0
 49
0.6944300000000003
 74
               0
 49
-0.2777849999999998
 74
               0
 49
0.625
 74
               0
 49
-0.3125
 74
               0
  0
ENDTAB
  0
TABLE
  2
LAYER
  5
2
100
AcDbSymbolTable
 70
              27
  0
LAYER
  5
14
100
AcDbSymbolTableRecord
100
AcDbLayerTableRecord
  2
0
 70
               0
 62
               7
  6
Continuous
290
               1
370
              15
390
1D
  0
LAYER
  5
2E
100
AcDbSymbolTableRecord
100
AcDbLayerTableRecord
  2
àÍî 
 70
               0
 62
               7
  6
Continuous
290
               1
370
               5
390
1D
  0
LAYER
  5
2F
100
AcDbSymbolTableRecord
100
AcDbLayerTableRecord
  2
ê°ñ@
 70
               0
 62
               7
  6
Continuous
290
               1
370
               5
390
1D
  0
LAYER
  5
30
100
AcDbSymbolTableRecord
100
AcDbLayerTableRecord
  2
WHITE
 70
               0
 62
              16
  6
Continuous
290
               1
370
              15
390
1D
  0
LAYER
  5
31
100
AcDbSymbolTableRecord
100
AcDbLayerTableRecord
  2
BLACK
 70
               0
 62
               1
  6
Continuous
290
               1
370
              15
390
1D
  0
LAYER
  5
32
100
AcDbSymbolTableRecord
100
AcDbLayerTableRecord
  2
DARKMAGENTA
 70
               0
 62
              12
  6
Continuous
290
               1
370
              15
390
1D
  0
LAYER
  5
33
100
AcDbSymbolTableRecord
100
AcDbLayerTableRecord
  2
DARKBROWN
 70
               0
 62
              23
  6
Continuous
290
               1
370
              15
390
1D
  0
LAYER
  5
34
100
AcDbSymbolTableRecord
100
AcDbLayerTableRecord
  2
LIGHTYELLOW
 70
               0
 62
              14
  6
Continuous
290
               1
370
              15
390
1D
  0
LAYER
  5
35
100
AcDbSymbolTableRecord
100
AcDbLayerTableRecord
  2
BLUE
 70
               0
 62
               2
  6
Continuous
290
               1
370
              15
390
1D
  0
LAYER
  5
36
100
AcDbSymbolTableRecord
100
AcDbLayerTableRecord
  2
CYAN
 70
               0
 62
               4
  6
Continuous
290
               1
370
              15
390
1D
  0
LAYER
  5
37
100
AcDbSymbolTableRecord
100
AcDbLayerTableRecord
  2
RED
 70
               0
 62
               5
  6
Continuous
290
               1
370
              15
390
1D
  0
LAYER
  5
38
100
AcDbSymbolTableRecord
100
AcDbLayerTableRecord
  2
MAGENTA
 70
               0
 62
               6
  6
Continuous
290
               1
370
              15
390
1D
  0
LAYER
  5
39
100
AcDbSymbolTableRecord
100
AcDbLayerTableRecord
  2
BROWN
 70
               0
 62
               7
  6
Continuous
290
               1
370
              15
390
1D
  0
LAYER
  5
3A
100
AcDbSymbolTableRecord
100
AcDbLayerTableRecord
  2
GRAY
 70
               0
 62
               8
  6
Continuous
290
               1
370
              15
390
1D
  0
LAYER
  5
3B
100
AcDbSymbolTableRecord
100
AcDbLayerTableRecord
  2
DARKGRAY
 70
               0
 62
               9
  6
Continuous
290
               1
370
              15
390
1D
  0
LAYER
  5
3C
100
AcDbSymbolTableRecord
100
AcDbLayerTableRecord
  2
LIGHTBLUE
 70
               0
 62
               1
  6
Continuous
290
               1
370
              15
390
1D
  0
LAYER
  5
3D
100
AcDbSymbolTableRecord
100
AcDbLayerTableRecord
  2
LIGHTGREEN
 70
               0
 62
              21
  6
Continuous
290
               1
370
              15
390
1D
  0
LAYER
  5
3E
100
AcDbSymbolTableRecord
100
AcDbLayerTableRecord
  2
LIGHTCYAN
 70
               0
 62
              12
  6
Continuous
290
               1
370
              15
390
1D
  0
LAYER
  5
3F
100
AcDbSymbolTableRecord
100
AcDbLayerTableRecord
  2
LIGHTRED
 70
               0
 62
              13
  6
Continuous
290
               1
370
              15
390
1D
  0
LAYER
  5
40
100
AcDbSymbolTableRecord
100
AcDbLayerTableRecord
  2
LIGHTMAGENTA
 70
               0
 62
              14
  6
Continuous
290
               1
370
              15
390
1D
  0
LAYER
  5
41
100
AcDbSymbolTableRecord
100
AcDbLayerTableRecord
  2
DARKDARKGRAY
 70
               0
 62
              37
  6
Continuous
290
               1
370
              15
390
1D
  0
LAYER
  5
42
100
AcDbSymbolTableRecord
100
AcDbLayerTableRecord
  2
DARKBLUE
 70
               0
 62
              18
  6
Continuous
290
               1
370
              15
390
1D
  0
LAYER
  5
43
100
AcDbSymbolTableRecord
100
AcDbLayerTableRecord
  2
DARKGREEN
 70
               0
 62
              19
  6
Continuous
290
               1
370
              15
390
1D
  0
LAYER
  5
44
100
AcDbSymbolTableRecord
100
AcDbLayerTableRecord
  2
DARKCYAN
 70
               0
 62
              20
  6
Continuous
290
               1
370
              15
390
1D
  0
LAYER
  5
45
100
AcDbSymbolTableRecord
100
AcDbLayerTableRecord
  2
DARKRED
 70
               0
 62
              21
  6
Continuous
290
               1
370
              15
390
1D
  0
LAYER
  5
46
100
AcDbSymbolTableRecord
100
AcDbLayerTableRecord
  2
YELLOW
 70
               0
 62
              25
  6
Continuous
290
               1
370
              15
390
1D
  0
LAYER
  5
47
100
AcDbSymbolTableRecord
100
AcDbLayerTableRecord
  2
GREEN
 70
               0
 62
               3
  6
Continuous
290
               1
370
              15
390
1D
  0
ENDTAB
  0
TABLE
  2
STYLE
  5
3
100
AcDbSymbolTable
 70
               1
  0
STYLE
  5
17
100
AcDbSymbolTableRecord
100
AcDbTextStyleTableRecord
  2
Standard
 70
               0
 40
0.0
 41
1.0
 50
0.0
 71
               0
 42
0.0
  3
txt
  4
BIGFONT.SHX
  0
ENDTAB
  0
TABLE
  2
VIEW
  5
5
100
AcDbSymbolTable
 70
               0
  0
ENDTAB
  0
TABLE
  2
UCS
  5
6
100
AcDbSymbolTable
 70
               0
  0
ENDTAB
  0
TABLE
  2
APPID
  5
8
100
AcDbSymbolTable
 70
               1
  0
APPID
  5
16
100
AcDbSymbolTableRecord
100
AcDbRegAppTableRecord
  2
ACAD
 70
               0
  0
ENDTAB
  0
TABLE
  2
DIMSTYLE
  5
9
100
AcDbSymbolTable
 70
               1
100
AcDbDimStyleTable
 71
               0
  0
DIMSTYLE
105
18
100
AcDbSymbolTableRecord
100
AcDbDimStyleTableRecord
  2
Standard
 70
               0
  3

  4

 40
1.0
 41
0.18
 42
0.0625
 43
0.38
 44
0.18
 45
0.0
 46
0.0
 47
0.0
 48
0.0
 71
               0
 72
               0
 73
               1
 74
               1
 75
               0
 76
               0
 77
               0
 78
               0
 79
               0
140
0.18
141
0.09
142
0.0
143
25.399999999999999
144
1.0
145
0.0
146
1.0
147
0.09
148
0.0
170
               0
171
               2
172
               0
173
               0
174
               0
175
               0
176
               0
177
               0
178
               0
179
               0
271
               4
272
               4
273
               2
274
               2
275
               0
276
               0
277
               2
278
              46
279
               0
280
               0
281
               0
282
               0
283
               1
284
               0
285
               0
286
               0
288
               0
340
17
341
0
342
0
343
0
344
0
371
              -2
372
              -2
  0
ENDTAB
  0
TABLE
  2
BLOCK_RECORD
  5
1
100
AcDbSymbolTable
 70
               0
  0
BLOCK_RECORD
  5
A
100
AcDbSymbolTableRecord
100
AcDbBlockTableRecord
  2
*MODEL_SPACE
340
20
  0
BLOCK_RECORD
  5
B
100
AcDbSymbolTableRecord
100
AcDbBlockTableRecord
  2
*PAPER_SPACE
340
21
  0
ENDTAB
  0
ENDSEC
  0
SECTION
  2
BLOCKS
  0
BLOCK
  5
D
100
AcDbEntity
  8
0
100
AcDbBlockBegin
  2
*MODEL_SPACE
 70
               0
 10
0.0
 20
0.0
 30
0.0
  3
*MODEL_SPACE
  1

  0
ENDBLK
  5
E
100
AcDbEntity
  8
0
100
AcDbBlockEnd
  0
BLOCK
  5
F
100
AcDbEntity
 67
               1
  8
0
100
AcDbBlockBegin
  2
*PAPER_SPACE
 70
               0
 10
0.0
 20
0.0
 30
0.0
  3
*PAPER_SPACE
  1

  0
ENDBLK
  5
10
100
AcDbEntity
 67
               1
  8
0
100
AcDbBlockEnd
  0
ENDSEC
  0
SECTION
  2
ENTITIES
  0
LINE
  5
48
100
AcDbEntity
  8
0
370
              15
  6
Continuous
 62
               1
100
AcDbLine
 10
12.88284164524481
 20
69.500173902848928
 30
0.0
 11
38.847228051081572
 21
13.818891696662263
 31
0.0
  0
LINE
  5
49
100
AcDbEntity
  8
0
370
              15
  6
Continuous
 62
               1
100
AcDbLine
 10
48.149211005274708
 20
10.432806893392666
 30
0.0
 11
127.7171892333551
 21
47.528191868175597
 31
0.0
  0
CIRCLE
  5
4A
100
AcDbEntity
  8
0
370
              15
  6
Continuous
 62
               1
100
AcDbCircle
 10
113.47450000000011
 20
182.16880000000049
 30
0.0
 40
1.5
  0
LINE
  5
4B
100
AcDbEntity
  8
0
370
              15
  6
Continuous
 62
               1
100
AcDbLine
 10
130.67500799438969
 20
48.183800000007757
 30
0.0
 11
217.40779999999955
 21
48.183800000001867
 31
0.0
  0
CIRCLE
  5
4C
100
AcDbEntity
  8
0
370
              15
  6
Continuous
 62
               1
100
AcDbCircle
 10
59.99122626584716
 20
180.34992373415341
 30
0.0
 40
1.5
  0
ARC
  5
4D
100
AcDbEntity
  8
0
370
              15
  6
Continuous
 62
               1
100
AcDbCircle
 10
217.40780000000009
 20
179.61380000000031
 30
0.0
 40
7.0
100
AcDbArc
 50
0.0
 51
90.0
  0
ARC
  5
4E
100
AcDbEntity
  8
0
370
              15
  6
Continuous
 62
               1
100
AcDbCircle
 10
60.72100000000006
 20
179.61380000000051
 30
0.0
 40
7.0
100
AcDbArc
 50
89.999999999997925
 51
180.0
  0
ARC
  5
4F
100
AcDbEntity
  8
0
370
              15
  6
Continuous
 62
               1
100
AcDbCircle
 10
217.40780000000009
 20
55.183800000001867
 30
0.0
 40
7.0
100
AcDbArc
 50
269.99999999999557
 51
0.0
  0
ARC
  5
50
100
AcDbEntity
  8
0
370
              15
  6
Continuous
 62
               1
100
AcDbCircle
 10
45.191392244240717
 20
16.777198761561962
 30
0.0
 40
6.9999999999999947
100
AcDbArc
 50
204.99981244516309
 51
294.99540252641492
  0
ARC
  5
51
100
AcDbEntity
  8
0
370
              15
  6
Continuous
 62
               1
100
AcDbCircle
 10
19.227005838403841
 20
72.458480967748969
 30
0.0
 40
7.0000000000000036
100
AcDbArc
 50
114.99812711966183
 51
204.99981244516314
  0
CIRCLE
  5
52
100
AcDbEntity
  8
0
370
              15
  6
Continuous
 62
               1
100
AcDbCircle
 10
18.249265271135243
 20
72.814285122443323
 30
0.0
 40
1.5
  0
ARC
  5
53
100
AcDbEntity
  8
0
370
              15
  6
Continuous
 62
               1
100
AcDbCircle
 10
130.67500799438909
 20
41.183800000007722
 30
0.0
 40
7.0
100
AcDbArc
 50
89.99999999999558
 51
114.99540252641494
  0
CIRCLE
  5
54
100
AcDbEntity
  8
0
370
              15
  6
Continuous
 62
               1
100
AcDbCircle
 10
44.835703285094098
 20
15.798205197269965
 30
0.0
 40
1.5
  0
CIRCLE
  5
55
100
AcDbEntity
  8
0
370
              15
  6
Continuous
 62
               1
100
AcDbCircle
 10
128.13792000000009
 20
52.628799999999252
 30
0.0
 40
1.5
  0
CIRCLE
  5
56
100
AcDbEntity
  8
0
370
              15
  6
Continuous
 62
               1
100
AcDbCircle
 10
218.14392400000008
 20
56.035176265848008
 30
0.0
 40
1.5
  0
LINE
  5
57
100
AcDbEntity
  8
0
370
              15
  6
Continuous
 62
               1
100
AcDbLine
 10
53.72100000000006
 20
179.61380000000051
 30
0.0
 11
53.72100000000006
 21
100.72510229289669
 31
0.0
  0
LINE
  5
58
100
AcDbEntity
  8
0
370
              15
  6
Continuous
 62
               1
100
AcDbLine
 10
224.40779999999998
 20
55.183800000001867
 30
0.0
 11
224.40779999999998
 21
179.61380000000031
 31
0.0
  0
LINE
  5
59
100
AcDbEntity
  8
0
370
              15
  6
Continuous
 62
               1
100
AcDbLine
 10
217.40780000000009
 20
186.61380000000031
 30
0.0
 11
60.72100000000006
 21
186.6138000000004
 31
0.0
  0
LINE
  5
5A
100
AcDbEntity
  8
0
370
              15
  6
Continuous
 62
               1
100
AcDbLine
 10
215.51780000000011
 20
77.034991382018646
 30
0.0
 11
215.51780000000011
 21
151.74299138201869
 31
0.0
  0
LINE
  5
5B
100
AcDbEntity
  8
0
370
              15
  6
Continuous
 62
               1
100
AcDbLine
 10
49.679120453336218
 20
94.380851085421284
 30
0.0
 11
16.26888538506779
 21
78.802732175224435
 31
0.0
  0
LINE
  5
5C
100
AcDbEntity
  8
0
370
              15
  6
Continuous
 62
               1
100
AcDbLine
 10
62.623658725844898
 20
153.63199138201861
 30
0.0
 11
62.611000000000161
 21
88.315800000000607
 31
0.0
  0
CIRCLE
  5
5D
100
AcDbEntity
  8
0
370
              15
  6
Continuous
 62
               1
100
AcDbCircle
 10
218.14392373415299
 20
180.34992373415329
 30
0.0
 40
1.5
  0
ARC
  5
5E
100
AcDbEntity
  8
0
370
              15
  6
Continuous
 62
               1
100
AcDbCircle
 10
76.199058928304908
 20
76.923991382018656
 30
0.0
 40
1.0159999999999936
100
AcDbArc
 50
295.00000000009993
 51
90.0
  0
LINE
  5
5F
100
AcDbEntity
  8
0
370
              15
  6
Continuous
 62
               1
100
AcDbLine
 10
76.628439080464943
 20
76.003182669918644
 30
0.0
 11
66.166565589724939
 21
71.124730940938647
 31
0.0
  0
ARC
  5
60
100
AcDbEntity
  8
0
370
              15
  6
Continuous
 62
               1
100
AcDbCircle
 10
65.522495358944923
 20
72.50594401035859
 30
0.0
 40
1.5239999999999809
100
AcDbArc
 50
205.00000000009979
 51
295.00000000009982
  0
LINE
  5
61
100
AcDbEntity
  8
0
370
              15
  6
Continuous
 62
               1
100
AcDbLine
 10
64.141282292064943
 20
71.861873779578616
 30
0.0
 11
57.163854791524898
 21
86.825015341678665
 31
0.0
  0
ARC
  5
62
100
AcDbEntity
  8
0
370
              15
  6
Continuous
 62
               1
100
AcDbCircle
 10
56.243046079424907
 20
86.395635189518657
 30
0.0
 40
1.0160000000000124
100
AcDbArc
 50
25.000000000100325
 51
115.00000000009997
  0
LINE
  5
63
100
AcDbEntity
  8
0
370
              15
  6
Continuous
 62
               1
100
AcDbLine
 10
55.813665924724937
 20
87.316443899078607
 30
0.0
 11
22.664552306904909
 21
71.858758357818658
 31
0.0
  0
ARC
  5
64
100
AcDbEntity
  8
0
370
              15
  6
Continuous
 62
               1
100
AcDbCircle
 10
23.093932461604879
 20
70.937949648258609
 30
0.0
 40
1.0159999999999936
100
AcDbArc
 50
115.00000000009994
 51
205.00000000009993
  0
LINE
  5
65
100
AcDbEntity
  8
0
370
              15
  6
Continuous
 62
               1
100
AcDbLine
 10
22.173123749976398
 20
70.508569494328455
 30
0.0
 11
45.681687177256421
 21
20.094292532888431
 31
0.0
  0
ARC
  5
66
100
AcDbEntity
  8
0
370
              15
  6
Continuous
 62
               1
100
AcDbCircle
 10
46.602495888884903
 20
20.523672684278637
 30
0.0
 40
1.0159999999999429
100
AcDbArc
 50
205.00000000009948
 51
295.00000000010021
  0
LINE
  5
67
100
AcDbEntity
  8
0
370
              15
  6
Continuous
 62
               1
100
AcDbLine
 10
47.03187604358493
 20
19.60286397471863
 30
0.0
 11
97.446153005024939
 21
43.111427401998633
 31
0.0
  0
ARC
  5
68
100
AcDbEntity
  8
0
370
              15
  6
Continuous
 62
               1
100
AcDbCircle
 10
97.016772850324912
 20
44.032236114098637
 30
0.0
 40
1.0159999999999936
100
AcDbArc
 50
295.00000000009993
 51
25.000000000099927
  0
LINE
  5
69
100
AcDbEntity
  8
0
370
              15
  6
Continuous
 62
               1
100
AcDbLine
 10
97.937581562424953
 20
44.461616266258638
 30
0.0
 11
83.337346615124943
 21
75.771921151238601
 31
0.0
  0
ARC
  5
6A
100
AcDbEntity
  8
0
370
              15
  6
Continuous
 62
               1
100
AcDbCircle
 10
84.718559682004923
 20
76.41599138201866
 30
0.0
 40
1.5240000000000578
100
AcDbArc
 50
90.0
 51
205.0000000001001
  0
LINE
  5
6B
100
AcDbEntity
  8
0
370
              15
  6
Continuous
 62
               1
100
AcDbLine
 10
84.718559682004923
 20
77.939991382018633
 30
0.0
 11
99.199658725844927
 21
77.939991382018633
 31
0.0
  0
ARC
  5
6C
100
AcDbEntity
  8
0
370
              15
  6
Continuous
 62
               1
100
AcDbCircle
 10
99.199658725844927
 20
76.41599138201866
 30
0.0
 40
1.5239999999999725
100
AcDbArc
 50
0.0
 51
90.0
  0
LINE
  5
6D
100
AcDbEntity
  8
0
370
              15
  6
Continuous
 62
               1
100
AcDbLine
 10
100.7236587258449
 20
76.41599138201866
 30
0.0
 11
100.7236587258449
 21
61.175991382018623
 31
0.0
  0
ARC
  5
6E
100
AcDbEntity
  8
0
370
              15
  6
Continuous
 62
               1
100
AcDbCircle
 10
101.7396587258449
 20
61.175991382018623
 30
0.0
 40
1.0159999999999769
100
AcDbArc
 50
180.0
 51
270.0
  0
LINE
  5
6F
100
AcDbEntity
  8
0
370
              15
  6
Continuous
 62
               1
100
AcDbLine
 10
101.7396587258449
 20
60.15999138201866
 30
0.0
 11
119.4510157084449
 21
60.15999138201866
 31
0.0
  0
ARC
  5
70
100
AcDbEntity
  8
0
370
              15
  6
Continuous
 62
               1
100
AcDbCircle
 10
119.4510157084449
 20
61.175991382018623
 30
0.0
 40
1.0160000000000267
100
AcDbArc
 50
270.0
 51
337.9756871629998
  0
ARC
  5
71
100
AcDbEntity
  8
0
370
              15
  6
Continuous
 62
               1
100
AcDbCircle
 10
121.80565872584491
 20
60.223491382018587
 30
0.0
 40
1.5239999999999654
100
AcDbArc
 50
90.0
 51
157.97568716300006
  0
LINE
  5
72
100
AcDbEntity
  8
0
370
              15
  6
Continuous
 62
               1
100
AcDbLine
 10
121.80565872584491
 20
61.747491382018652
 30
0.0
 11
137.29965872584489
 21
61.747491382018652
 31
0.0
  0
ARC
  5
73
100
AcDbEntity
  8
0
370
              15
  6
Continuous
 62
               1
100
AcDbCircle
 10
137.29965872584489
 20
60.223491382018587
 30
0.0
 40
1.5239999999999883
100
AcDbArc
 50
22.024312836999993
 51
90.0
  0
ARC
  5
74
100
AcDbEntity
  8
0
370
              15
  6
Continuous
 62
               1
100
AcDbCircle
 10
139.65430174578489
 20
61.175991382018623
 30
0.0
 40
1.015999999999972
100
AcDbArc
 50
202.02431283700002
 51
270.0
  0
LINE
  5
75
100
AcDbEntity
  8
0
370
              15
  6
Continuous
 62
               1
100
AcDbLine
 10
139.65430174578489
 20
60.15999138201866
 30
0.0
 11
156.3496587258449
 21
60.15999138201866
 31
0.0
  0
ARC
  5
76
100
AcDbEntity
  8
0
370
              15
  6
Continuous
 62
               1
100
AcDbCircle
 10
156.3496587258449
 20
58.635991382018631
 30
0.0
 40
1.5240000000000578
100
AcDbArc
 50
0.0
 51
90.0
  0
LINE
  5
77
100
AcDbEntity
  8
0
370
              15
  6
Continuous
 62
               1
100
AcDbLine
 10
157.8736587258449
 20
58.635991382018631
 30
0.0
 11
157.8736587258449
 21
58.000991382018633
 31
0.0
  0
ARC
  5
78
100
AcDbEntity
  8
0
370
              15
  6
Continuous
 62
               1
100
AcDbCircle
 10
158.8896587258449
 20
58.000991382018633
 30
0.0
 40
1.0160000000000196
100
AcDbArc
 50
180.0
 51
270.0
  0
LINE
  5
79
100
AcDbEntity
  8
0
370
              15
  6
Continuous
 62
               1
100
AcDbLine
 10
158.8896587258449
 20
56.984991382018613
 30
0.0
 11
195.46565872584489
 21
56.984991382018563
 31
0.0
  0
ARC
  5
7A
100
AcDbEntity
  8
0
370
              15
  6
Continuous
 62
               1
100
AcDbCircle
 10
195.46565872584489
 20
58.000991382018633
 30
0.0
 40
1.0160000000000693
100
AcDbArc
 50
270.0
 51
0.0
  0
LINE
  5
7B
100
AcDbEntity
  8
0
370
              15
  6
Continuous
 62
               1
100
AcDbLine
 10
196.48165872584499
 20
58.000991382018633
 30
0.0
 11
196.48165872584499
 21
74.510991382018588
 31
0.0
  0
ARC
  5
7C
100
AcDbEntity
  8
0
370
              15
  6
Continuous
 62
               1
100
AcDbCircle
 10
198.00565872584491
 20
74.510991382018588
 30
0.0
 40
1.5240000000000578
100
AcDbArc
 50
90.0
 51
180.0
  0
LINE
  5
7D
100
AcDbEntity
  8
0
370
              15
  6
Continuous
 62
               1
100
AcDbLine
 10
198.00565872584491
 20
76.034991382018646
 30
0.0
 11
214.51780000000011
 21
76.034991382018646
 31
0.0
  0
LINE
  5
7E
100
AcDbEntity
  8
0
370
              15
  6
Continuous
 62
               1
100
AcDbLine
 10
214.51780000000011
 20
152.74299138201869
 30
0.0
 11
159.90565872584489
 21
152.74299138201869
 31
0.0
  0
ARC
  5
7F
100
AcDbEntity
  8
0
370
              15
  6
Continuous
 62
               1
100
AcDbCircle
 10
159.90565872584489
 20
154.2669913820186
 30
0.0
 40
1.5240000000000009
100
AcDbArc
 50
180.0
 51
270.0
  0
LINE
  5
80
100
AcDbEntity
  8
0
370
              15
  6
Continuous
 62
               1
100
AcDbLine
 10
158.38165872584489
 20
154.2669913820186
 30
0.0
 11
158.38165872584489
 21
154.90199138201871
 31
0.0
  0
ARC
  5
81
100
AcDbEntity
  8
0
370
              15
  6
Continuous
 62
               1
100
AcDbCircle
 10
157.3656587258449
 20
154.90199138201871
 30
0.0
 40
1.0160000000000764
100
AcDbArc
 50
0.0
 51
90.0
  0
LINE
  5
82
100
AcDbEntity
  8
0
370
              15
  6
Continuous
 62
               1
100
AcDbLine
 10
157.3656587258449
 20
155.91799138201861
 30
0.0
 11
140.8556587258449
 21
155.91799138201861
 31
0.0
  0
ARC
  5
83
100
AcDbEntity
  8
0
370
              15
  6
Continuous
 62
               1
100
AcDbCircle
 10
140.8556587258449
 20
157.44199138201861
 30
0.0
 40
1.5240000000000542
100
AcDbArc
 50
202.02431283700042
 51
270.0
  0
ARC
  5
84
100
AcDbEntity
  8
0
370
              15
  6
Continuous
 62
               1
100
AcDbCircle
 10
138.5010157084449
 20
156.4894913820186
 30
0.0
 40
1.0159999999999956
100
AcDbArc
 50
22.024312836999052
 51
90.000000000000014
  0
LINE
  5
85
100
AcDbEntity
  8
0
370
              15
  6
Continuous
 62
               1
100
AcDbLine
 10
138.5010157084449
 20
157.50549138201859
 30
0.0
 11
120.60430174578489
 21
157.50549138201859
 31
0.0
  0
ARC
  5
86
100
AcDbEntity
  8
0
370
              15
  6
Continuous
 62
               1
100
AcDbCircle
 10
120.60430174578489
 20
156.4894913820186
 30
0.0
 40
1.0159999999999911
100
AcDbArc
 50
90.0
 51
157.97568716300066
  0
ARC
  5
87
100
AcDbEntity
  8
0
370
              15
  6
Continuous
 62
               1
100
AcDbCircle
 10
118.2496587258449
 20
157.44199138201861
 30
0.0
 40
1.5240000000000009
100
AcDbArc
 50
270.0
 51
337.97568716299998
  0
LINE
  5
88
100
AcDbEntity
  8
0
370
              15
  6
Continuous
 62
               1
100
AcDbLine
 10
118.2496587258449
 20
155.91799138201861
 30
0.0
 11
101.3993632520049
 21
155.91799138201861
 31
0.0
  0
ARC
  5
89
100
AcDbEntity
  8
0
370
              15
  6
Continuous
 62
               1
100
AcDbCircle
 10
101.3993632520049
 20
154.90199138201871
 30
0.0
 40
1.0160000000000764
100
AcDbArc
 50
90.0
 51
149.99999999999991
  0
ARC
  5
8A
100
AcDbEntity
  8
0
370
              15
  6
Continuous
 62
               1
100
AcDbCircle
 10
99.199658725844927
 20
156.1719913820186
 30
0.0
 40
1.5240000000000578
100
AcDbArc
 50
270.0
 51
330.00000000000011
  0
LINE
  5
8B
100
AcDbEntity
  8
0
370
              15
  6
Continuous
 62
               1
100
AcDbLine
 10
99.199658725844927
 20
154.6479913820186
 30
0.0
 11
63.639658725844917
 21
154.6479913820186
 31
0.0
  0
ARC
  5
8C
100
AcDbEntity
  8
0
370
              15
  6
Continuous
 62
               1
100
AcDbCircle
 10
63.639658725844917
 20
153.63199138201861
 30
0.0
 40
1.0160000000000764
100
AcDbArc
 50
90.0
 51
180.0
  0
LINE
  5
8D
100
AcDbEntity
  8
0
370
              15
  6
Continuous
 62
               1
100
AcDbLine
 10
62.623658725844898
 20
153.63199138201861
 30
0.0
 11
62.623658725844898
 21
78.95599138201861
 31
0.0
  0
ARC
  5
8E
100
AcDbEntity
  8
0
370
              15
  6
Continuous
 62
               1
100
AcDbCircle
 10
63.639658725844917
 20
78.95599138201861
 30
0.0
 40
1.0160000000000693
100
AcDbArc
 50
180.0
 51
270.0
  0
LINE
  5
8F
100
AcDbEntity
  8
0
370
              15
  6
Continuous
 62
               1
100
AcDbLine
 10
63.639658725844917
 20
77.939991382018633
 30
0.0
 11
76.199058928304908
 21
77.939991382018633
 31
0.0
  0
CIRCLE
  5
90
100
AcDbEntity
  8
0
370
              15
  6
Continuous
 62
               1
100
AcDbCircle
 10
113.4745450883748
 20
182.16870330684219
 30
0.0
 40
1.5
  0
ARC
  5
91
100
AcDbEntity
  8
0
370
              15
  6
Continuous
 62
               1
100
AcDbCircle
 10
46.721000000000032
 20
100.72510229289681
 30
0.0
 40
7.0000000000000036
100
AcDbArc
 50
294.99812711966177
 51
0.0
  0
ARC
  5
92
100
AcDbEntity
  8
0
370
              15
  6
Continuous
 62
               1
100
AcDbCircle
 10
214.51780000000011
 20
151.74299138201869
 30
0.0
 40
1.0
100
AcDbArc
 50
0.0
 51
90.0
  0
ARC
  5
93
100
AcDbEntity
  8
0
370
              15
  6
Continuous
 62
               1
100
AcDbCircle
 10
214.51780000000011
 20
77.034991382018646
 30
0.0
 40
1.0
100
AcDbArc
 50
270.0
 51
0.0
  0
CIRCLE
  5
94
100
AcDbEntity
  8
0
370
              15
 62
               1
100
AcDbCircle
 10
187.20779999999991
 20
168.6138000000004
 30
0.0
 40
1.5
  0
ENDSEC
  0
SECTION
  2
OBJECTS
  0
DICTIONARY
  5
19
100
AcDbDictionary
280
               0
281
               1
  3
ACAD_GROUP
350
1A
  3
ACAD_MLINESTYLE
350
1B
  3
ACAD_LAYOUT
350
1E
  3
ACAD_PLOTSETTINGS
350
22
  3
ACAD_PLOTSTYLENAME
350
1F
  3
ACAD_WIPEOUT_VARS
350
23
  0
DICTIONARY
  5
1A
102
{ACAD_REACTORS
330
19
102
}
100
AcDbDictionary
280
               0
281
               1
  0
DICTIONARY
  5
1B
102
{ACAD_REACTORS
330
19
102
}
100
AcDbDictionary
280
               0
281
               1
  3
Standard
350
1C
  0
MLINESTYLE
  5
1C
102
{ACAD_REACTORS
330
1B
102
}
100
AcDbMlineStyle
  2
Standard
 70
               0
  3

 62
               0
 51
90.0
 52
90.0
 71
               2
 49
0.5
 62
             256
  6
ByLayer
 49
-0.5
 62
             256
  6
ByLayer
  0
ACDBDICTIONARYWDFLT
  5
1F
102
{ACAD_REACTORS
330
19
102
}
100
AcDbDictionary
281
               1
  3
Normal
350
1D
100
AcDbDictionaryWithDefault
340
1D
  0
ACDBPLACEHOLDER
  5
1D
102
{ACAD_REACTORS
330
1F
102
}
  0
LAYOUT
  5
20
102
{ACAD_REACTORS
330
1E
102
}
100
AcDbPlotSettings
  1

  2

  4

  6

 40
0.0
 41
0.0
 42
0.0
 43
0.0
 44
0.0
 45
0.0
 46
0.0
 47
0.0
 48
0.0
 49
0.0
140
0.0
141
0.0
142
1.0
143
1.0
 70
            1024
 72
               0
 73
               0
 74
               0
  7

 75
               0
147
1.0
148
0.0
149
0.0
100
AcDbLayout
  1
Model
 70
               0
 71
               0
 10
0.0
 20
0.0
 11
0.0
 21
0.0
 12
0.0
 22
0.0
 32
0.0
 14
0.0
 24
0.0
 34
0.0
 15
0.0
 25
0.0
 35
0.0
146
0.0
 13
0.0
 23
0.0
 33
0.0
 16
0.0
 26
0.0
 36
0.0
 17
0.0
 27
0.0
 37
0.0
 76
               0
330
A
331
0
345
0
346
0
  0
LAYOUT
  5
21
102
{ACAD_REACTORS
330
1E
102
}
100
AcDbPlotSettings
  1

  2

  4

  6

 40
0.0
 41
0.0
 42
0.0
 43
0.0
 44
0.0
 45
0.0
 46
0.0
 47
0.0
 48
0.0
 49
0.0
140
0.0
141
0.0
142
1.0
143
1.0
 70
               0
 72
               0
 73
               0
 74
               0
  7

 75
               0
147
1.0
148
0.0
149
0.0
100
AcDbLayout
  1
Layout1
 70
               0
 71
               0
 10
0.0
 20
0.0
 11
0.0
 21
0.0
 12
0.0
 22
0.0
 32
0.0
 14
0.0
 24
0.0
 34
0.0
 15
0.0
 25
0.0
 35
0.0
146
0.0
 13
0.0
 23
0.0
 33
0.0
 16
0.0
 26
0.0
 36
0.0
 17
0.0
 27
0.0
 37
0.0
 76
               0
330
B
331
0
345
0
346
0
  0
DICTIONARY
  5
1E
102
{ACAD_REACTORS
330
19
102
}
100
AcDbDictionary
280
               0
281
               1
  3
Layout1
350
21
  3
Model
350
20
  0
DICTIONARY
  5
22
102
{ACAD_REACTORS
330
19
102
}
100
AcDbDictionary
280
               0
281
               1
  0
WIPEOUTVARIABLES
  5
23
100
AcDbWipeoutVariables
 70
               0
  0
ENDSEC
  0
EOF
