999
dxfrw 0.5.11
0
SECTION
2
HEADER
9
$ACADVER
1
AC1021
9
$HANDSEED
5
20000
9
$DWGCODEPAGE
3
ANSI_1252
9
$INSBASE
10
0
20
0
30
0
9
$EXTMIN
10
12.2270058384
20
9.77719876157
30
0
9
$EXTMAX
10
214.8078
20
186.6138
30
0
9
$LIMMIN
10
0
20
0
9
$LIMMAX
10
12
20
9
9
$ORTHOMODE
70
0
9
$LTSCALE
40
1
9
$TEXTSTYLE
7
Standard
9
$CLAYER
8
0
9
$DIMASZ
40
0.18
9
$DIMLFAC
40
1
9
$DIMSCALE
40
1
9
$DIMEXO
40
0.0625
9
$DIMEXE
40
0.18
9
$DIMTXT
40
0.18
9
$DIMTSZ
40
0
9
$DIMAUNIT
70
0
9
$DIMADEC
70
0
9
$DIMLUNIT
70
2
9
$DIMSTYLE
2
Standard
9
$DIMGAP
40
0.09
9
$DIMTIH
70
1
9
$LUNITS
70
2
9
$LUPREC
70
4
9
$AUNITS
70
0
9
$AUPREC
70
0
9
$SPLINESEGS
70
8
9
$GRIDMODE
70
0
9
$SNAPSTYLE
70
0
9
$PINSBASE
10
0
20
0
30
0
9
$PLIMMIN
10
0
20
0
9
$PLIMMAX
10
12
20
9
9
$INSUNITS
70
0
9
$PSVPSCALE
40
0
0
ENDSEC
0
SECTION
2
CLASSES
0
ENDSEC
0
SECTION
2
TABLES
0
TABLE
2
VPORT
5
8
330
0
100
AcDbSymbolTable
70
1
0
VPORT
5
31
330
2
100
AcDbSymbolTableRecord
100
AcDbViewportTableRecord
2
*ACTIVE
70
0
10
0
20
0
11
1
21
1
12
176.937222109
22
143.344459524
13
0
23
0
14
10
24
10
15
10
25
10
16
0
26
0
36
1
17
0
27
0
37
0
40
297.272940137
41
2.01083591331
42
50
43
0
44
0
50
0
51
0
71
0
72
100
73
1
74
3
75
0
76
0
77
0
78
0
281
0
65
1
110
0
120
0
130
0
111
1
121
0
131
0
112
0
122
1
132
0
79
0
146
0
348
10020
60
7
61
5
292
1
282
1
141
0
142
0
63
250
421
3358443
0
ENDTAB
0
TABLE
2
LTYPE
5
5
330
0
100
AcDbSymbolTable
70
4
0
LTYPE
5
14
330
5
100
AcDbSymbolTableRecord
100
AcDbLinetypeTableRecord
2
ByBlock
70
0
3

72
65
73
0
40
0
0
LTYPE
5
15
330
5
100
AcDbSymbolTableRecord
100
AcDbLinetypeTableRecord
2
ByLayer
70
0
3

72
65
73
0
40
0
0
LTYPE
5
16
330
5
100
AcDbSymbolTableRecord
100
AcDbLinetypeTableRecord
2
Continuous
70
0
3
Solid line
72
65
73
0
40
0
0
LTYPE
5
32
330
5
100
AcDbSymbolTableRecord
100
AcDbLinetypeTableRecord
2
DOT
70
0
3
Dot . . . . . . . . . . . . . . . . . . . . . .
72
65
73
2
40
6.35
49
0
74
0
49
-6.35
74
0
0
LTYPE
5
33
330
5
100
AcDbSymbolTableRecord
100
AcDbLinetypeTableRecord
2
DOT2
70
0
3
Dot (.5x) .....................................
72
65
73
2
40
3.175
49
0
74
0
49
-3.175
74
0
0
LTYPE
5
34
330
5
100
AcDbSymbolTableRecord
100
AcDbLinetypeTableRecord
2
DOTX2
70
0
3
Dot (2x) .  .  .  .  .  .  .  .  .  .  .  .  .
72
65
73
2
40
12.7
49
0
74
0
49
-12.7
74
0
0
LTYPE
5
35
330
5
100
AcDbSymbolTableRecord
100
AcDbLinetypeTableRecord
2
DASHED
70
0
3
Dot . . . . . . . . . . . . . . . . . . . . . .
72
65
73
2
40
19.05
49
12.7
74
0
49
-6.35
74
0
0
LTYPE
5
36
330
5
100
AcDbSymbolTableRecord
100
AcDbLinetypeTableRecord
2
DASHED2
70
0
3
Dashed (.5x) _ _ _ _ _ _ _ _ _ _ _ _ _ _ _ _ _
72
65
73
2
40
9.525
49
6.35
74
0
49
-3.175
74
0
0
LTYPE
5
37
330
5
100
AcDbSymbolTableRecord
100
AcDbLinetypeTableRecord
2
DASHEDX2
70
0
3
Dashed (2x) ____  ____  ____  ____  ____  ___
72
65
73
2
40
38.1
49
25.4
74
0
49
-12.7
74
0
0
LTYPE
5
38
330
5
100
AcDbSymbolTableRecord
100
AcDbLinetypeTableRecord
2
DASHDOT
70
0
3
Dash dot __ . __ . __ . __ . __ . __ . __ . __
72
65
73
4
40
25.4
49
12.7
74
0
49
-6.35
74
0
49
0
74
0
49
-6.35
74
0
0
LTYPE
5
39
330
5
100
AcDbSymbolTableRecord
100
AcDbLinetypeTableRecord
2
DASHDOT2
70
0
3
Dash dot (.5x) _._._._._._._._._._._._._._._.
72
65
73
4
40
12.7
49
6.35
74
0
49
-3.175
74
0
49
0
74
0
49
-3.175
74
0
0
LTYPE
5
3A
330
5
100
AcDbSymbolTableRecord
100
AcDbLinetypeTableRecord
2
DASHDOTX2
70
0
3
Dash dot (2x) ____  .  ____  .  ____  .  ___
72
65
73
4
40
50.8
49
25.4
74
0
49
-12.7
74
0
49
0
74
0
49
-12.7
74
0
0
LTYPE
5
3B
330
5
100
AcDbSymbolTableRecord
100
AcDbLinetypeTableRecord
2
DIVIDE
70
0
3
Divide ____ . . ____ . . ____ . . ____ . . ____
72
65
73
6
40
31.75
49
12.7
74
0
49
-6.35
74
0
49
0
74
0
49
-6.35
74
0
49
0
74
0
49
-6.35
74
0
0
LTYPE
5
3C
330
5
100
AcDbSymbolTableRecord
100
AcDbLinetypeTableRecord
2
DIVIDE2
70
0
3
Divide (.5x) __..__..__..__..__..__..__..__.._
72
65
73
6
40
15.875
49
6.35
74
0
49
-3.175
74
0
49
0
74
0
49
-3.175
74
0
49
0
74
0
49
-3.175
74
0
0
LTYPE
5
3D
330
5
100
AcDbSymbolTableRecord
100
AcDbLinetypeTableRecord
2
DIVIDEX2
70
0
3
Divide (2x) ________  .  .  ________  .  .  _
72
65
73
6
40
63.5
49
25.4
74
0
49
-12.7
74
0
49
0
74
0
49
-12.7
74
0
49
0
74
0
49
-12.7
74
0
0
LTYPE
5
3E
330
5
100
AcDbSymbolTableRecord
100
AcDbLinetypeTableRecord
2
BORDER
70
0
3
Border __ __ . __ __ . __ __ . __ __ . __ __ .
72
65
73
6
40
44.45
49
12.7
74
0
49
-6.35
74
0
49
12.7
74
0
49
-6.35
74
0
49
0
74
0
49
-6.35
74
0
0
LTYPE
5
3F
330
5
100
AcDbSymbolTableRecord
100
AcDbLinetypeTableRecord
2
BORDER2
70
0
3
Border (.5x) __.__.__.__.__.__.__.__.__.__.__.
72
65
73
6
40
22.225
49
6.35
74
0
49
-3.175
74
0
49
6.35
74
0
49
-3.175
74
0
49
0
74
0
49
-3.175
74
0
0
LTYPE
5
40
330
5
100
AcDbSymbolTableRecord
100
AcDbLinetypeTableRecord
2
BORDERX2
70
0
3
Border (2x) ____  ____  .  ____  ____  .  ___
72
65
73
6
40
88.9
49
25.4
74
0
49
-12.7
74
0
49
25.4
74
0
49
-12.7
74
0
49
0
74
0
49
-12.7
74
0
0
LTYPE
5
41
330
5
100
AcDbSymbolTableRecord
100
AcDbLinetypeTableRecord
2
CENTER
70
0
3
Center ____ _ ____ _ ____ _ ____ _ ____ _ ____
72
65
73
4
40
50.8
49
31.75
74
0
49
-6.35
74
0
49
6.35
74
0
49
-6.35
74
0
0
LTYPE
5
42
330
5
100
AcDbSymbolTableRecord
100
AcDbLinetypeTableRecord
2
CENTER2
70
0
3
Center (.5x) ___ _ ___ _ ___ _ ___ _ ___ _ ___
72
65
73
4
40
28.575
49
19.05
74
0
49
-3.175
74
0
49
3.175
74
0
49
-3.175
74
0
0
LTYPE
5
43
330
5
100
AcDbSymbolTableRecord
100
AcDbLinetypeTableRecord
2
CENTERX2
70
0
3
Center (2x) ________  __  ________  __  _____
72
65
73
4
40
101.6
49
63.5
74
0
49
-12.7
74
0
49
12.7
74
0
49
-12.7
74
0
0
ENDTAB
0
TABLE
2
LAYER
5
2
330
0
100
AcDbSymbolTable
70
1
0
LAYER
5
10
330
2
100
AcDbSymbolTableRecord
100
AcDbLayerTableRecord
2
0
70
0
62
255
6
CONTINUOUS
370
-3
390
F
0
ENDTAB
0
TABLE
2
STYLE
5
3
330
0
100
AcDbSymbolTable
70
3
0
STYLE
5
44
330
2
100
AcDbSymbolTableRecord
100
AcDbTextStyleTableRecord
2
Standard
70
0
40
0
41
1
50
0
71
0
42
1
3
txt
4

0
ENDTAB
0
TABLE
2
VIEW
5
6
330
0
100
AcDbSymbolTable
70
0
0
ENDTAB
0
TABLE
2
UCS
5
7
330
0
100
AcDbSymbolTable
70
0
0
ENDTAB
0
TABLE
2
APPID
5
9
330
0
100
AcDbSymbolTable
70
1
0
APPID
5
12
330
9
100
AcDbSymbolTableRecord
100
AcDbRegAppTableRecord
2
ACAD
70
0
0
ENDTAB
0
TABLE
2
DIMSTYLE
5
A
330
0
100
AcDbSymbolTable
70
1
100
AcDbDimStyleTable
71
1
0
DIMSTYLE
105
45
330
A
100
AcDbSymbolTableRecord
100
AcDbDimStyleTableRecord
2
Standard
70
0
40
1
41
0.18
42
0.0625
43
0.38
44
0.18
45
0
46
0
47
0
48
0
140
0.18
141
0.09
142
0
143
25.4
144
1
145
0
146
1
147
0.09
148
0
71
0
72
0
73
0
74
1
75
0
76
0
77
0
78
0
79
0
170
0
171
2
172
0
173
0
174
0
175
0
176
0
177
0
178
0
179
0
271
4
272
4
273
2
274
2
275
0
276
0
277
2
278
46
279
0
280
0
281
0
282
0
283
1
284
0
285
0
286
0
288
0
289
3
340
Standard
341

371
-2
372
-2
0
ENDTAB
0
TABLE
2
BLOCK_RECORD
5
1
330
0
100
AcDbSymbolTable
70
2
0
BLOCK_RECORD
5
1F
330
1
100
AcDbSymbolTableRecord
100
AcDbBlockTableRecord
2
*Model_Space
70
0
280
1
281
0
0
BLOCK_RECORD
5
1E
330
1
100
AcDbSymbolTableRecord
100
AcDbBlockTableRecord
2
*Paper_Space
70
0
280
1
281
0
0
ENDTAB
0
ENDSEC
0
SECTION
2
BLOCKS
0
BLOCK
5
20
330
1F
100
AcDbEntity
8
0
100
AcDbBlockBegin
2
*Model_Space
70
0
10
0
20
0
30
0
3
*Model_Space
1

0
ENDBLK
5
21
330
1F
100
AcDbEntity
8
0
100
AcDbBlockEnd
0
BLOCK
5
1C
330
1B
100
AcDbEntity
8
0
100
AcDbBlockBegin
2
*Paper_Space
70
0
10
0
20
0
30
0
3
*Paper_Space
1

0
ENDBLK
5
1D
330
1F
100
AcDbEntity
8
0
100
AcDbBlockEnd
0
ENDSEC
0
SECTION
2
ENTITIES
0
CIRCLE
5
46
100
AcDbEntity
8
0
6
CONTINUOUS
62
1
370
0
100
AcDbCircle
10
113.4745
20
182.1688
40
1.5
0
CIRCLE
5
47
100
AcDbEntity
8
0
6
CONTINUOUS
62
1
370
0
100
AcDbCircle
10
59.9912262658
20
180.349923734
40
1.5
0
CIRCLE
5
48
100
AcDbEntity
8
0
6
CONTINUOUS
62
1
370
0
100
AcDbCircle
10
18.2492652711
20
72.8142851224
40
1.5
0
CIRCLE
5
49
100
AcDbEntity
8
0
6
CONTINUOUS
62
1
370
0
100
AcDbCircle
10
44.8357032851
20
15.7982051973
40
1.5
0
CIRCLE
5
4A
100
AcDbEntity
8
0
6
CONTINUOUS
62
1
370
0
100
AcDbCircle
10
128.137965
20
52.628703
40
1.5
0
CIRCLE
5
4B
100
AcDbEntity
8
0
6
CONTINUOUS
62
1
370
0
100
AcDbCircle
10
208.543924
20
56.0351762658
40
1.5
0
CIRCLE
5
4C
100
AcDbEntity
8
0
6
CONTINUOUS
62
1
370
0
100
AcDbCircle
10
208.543923734
20
180.349923734
40
1.5
0
CIRCLE
5
4D
100
AcDbEntity
8
0
6
CONTINUOUS
62
1
370
0
100
AcDbCircle
10
113.474545088
20
182.168703307
40
1.5
0
LWPOLYLINE
5
4E
100
AcDbEntity
8
0
6
ByLayer
62
256
370
-1
100
AcDbPolyline
90
22
70
1
43
0
10
207.8078
20
186.6138
10
152.29817894
20
186.6138
10
142.993194912
20
181.500876693
10
132.291914912
20
181.500876693
10
123.0122
20
186.6138
10
103.9368
20
186.6138
10
90.0571
20
181.50078
10
82.7137
20
181.50078
10
68.834
20
186.6138
10
60.721
20
186.6138
42
0.414213562373
10
53.721
20
179.6138
10
53.721
20
100.725102293
42
-0.291482285853
10
49.6791204533
20
94.3808510854
10
16.268885385
20
78.8027321752
42
0.414222177698
10
12.8828416452
20
69.5001739028
10
38.847228051
20
13.8188916967
42
0.414191019263
10
48.1492110053
20
10.4328068934
10
127.717189233
20
47.5281918682
42
-0.109497510857
10
130.675007994
20
48.1838
10
207.8078
20
48.1838
42
0.414213562373
10
214.8078
20
55.1838
10
214.8078
20
179.6138
42
0.414213562373
0
LWPOLYLINE
5
4F
100
AcDbEntity
8
0
6
ByLayer
62
256
370
-1
100
AcDbPolyline
90
53
70
1
43
0
10
76.6284390805
20
76.0031826699
10
66.1665655898
20
71.124730943
42
-0.414213562373
10
64.1412822921
20
71.8618737796
10
57.163854791
20
86.8250153434
42
0.414213562373
10
55.8136659247
20
87.3164438991
10
22.6645523077
20
71.8587583599
42
0.414213562373
10
22.17312375
20
70.5085694943
10
45.6816871773
20
20.0942925304
42
0.414213562373
10
47.0318760436
20
19.6028639747
10
97.4461530042
20
43.1114274025
42
0.414213562374
10
97.9375815624
20
44.4616162663
10
83.3373466146
20
75.7719211511
42
-0.548618786627
10
84.718559682
20
77.939991382
10
99.1996587258
20
77.939991382
42
-0.414213562373
10
100.723658726
20
76.415991382
10
100.723658726
20
61.175991382
42
0.414213562373
10
101.739658726
20
60.159991382
10
119.451015708
20
60.159991382
42
0.305614684581
10
120.392872914
20
60.794991382
42
-0.305614684581
10
121.805658726
20
61.747491382
10
137.299658726
20
61.747491382
42
-0.305614684581
10
138.712444538
20
60.794991382
42
0.305614684581
10
139.654301746
20
60.159991382
10
156.349658726
20
60.159991382
42
-0.414213562373
10
157.873658726
20
58.635991382
10
157.873658726
20
58.000991382
42
0.414213562373
10
158.889658726
20
56.984991382
10
195.465658726
20
56.984991382
42
0.414213562373
10
196.481658726
20
58.000991382
10
196.481658726
20
74.510991382
42
-0.414213562373
10
198.005658726
20
76.034991382
10
204.9178
20
76.034991382
42
0.414213562373
10
205.9178
20
77.034991382
10
205.9178
20
151.742991382
42
0.414213562373
10
204.9178
20
152.742991382
10
159.905658726
20
152.742991382
42
-0.414213562373
10
158.381658726
20
154.266991382
10
158.381658726
20
154.901991382
42
0.414213562373
10
157.365658726
20
155.917991382
10
140.855658726
20
155.917991382
42
-0.305614684581
10
139.442872916
20
156.870491382
42
0.305614684581
10
138.501015708
20
157.505491382
10
120.604301746
20
157.505491382
42
0.305614684581
10
119.662444538
20
156.870491382
42
-0.305614684581
10
118.249658726
20
155.917991382
10
101.399363252
20
155.917991382
42
0.267949192431
10
100.519481441
20
155.409991382
42
-0.267949192431
10
99.1996587258
20
154.647991382
10
63.6396587258
20
154.647991382
42
0.414213562373
10
62.6236587258
20
153.631991382
10
62.6236587258
20
78.955991382
42
0.414213562373
10
63.6396587258
20
77.939991382
10
76.1990589283
20
77.939991382
42
-0.802584851672
0
LWPOLYLINE
5
50
100
AcDbEntity
8
0
6
ByLayer
62
256
370
-1
100
AcDbPolyline
90
8
70
1
43
0
10
192
20
177.5
10
192
20
158
10
159.21912
20
158
10
159.21912
20
160
10
119
20
160
10
119
20
172.847
10
131
20
172.847
10
131
20
177.5
0
LWPOLYLINE
5
51
100
AcDbEntity
8
0
6
ByLayer
62
256
370
-1
100
AcDbPolyline
90
4
70
1
43
0
10
80
20
180
10
80
20
166.5
10
92.7708
20
166.5
10
92.7708
20
180
0
ENDSEC
0
SECTION
2
OBJECTS
0
DICTIONARY
5
C
330
0
100
AcDbDictionary
281
1
3
ACAD_GROUP
350
D
0
DICTIONARY
5
D
330
C
100
AcDbDictionary
281
1
0
ENDSEC
0
EOF
